<?xml version="1.0" standalone="no"?>
<!DOCTYPE svg PUBLIC "-//W3C//DTD SVG 1.1//EN" "http://www.w3.org/Graphics/SVG/1.1/DTD/svg11.dtd" >
<svg xmlns="http://www.w3.org/2000/svg">
<metadata>
Created by FontPrep 20130207 at Sat Oct  4 18:05:58 2014
 By Nico
Copyright (c) 2013 by Emraan Mayow. All rights reserved.
</metadata>
<defs>
<font id="0acdb647768a7b07cc1a92d5c124ab37" horiz-adv-x='1024' >
  <font-face 
    font-family="Sanotra"
    font-weight="400"
    font-stretch="normal"
    units-per-em="2048"
    panose-1="0 0 0 0 0 0 0 0 0 0"
    ascent="1536"
    descent="-512"
    x-height="1501"
    cap-height="1501"
    bbox="0 -74 1604 1532"
    underline-thickness="102"
    underline-position="-102"
    unicode-range="U+000D-007A"
  />
<missing-glyph horiz-adv-x="747" 
 />
    <glyph glyph-name=".notdef" horiz-adv-x="747" 
 />
    <glyph glyph-name=".null" horiz-adv-x="0" 
 />
    <glyph glyph-name="nonmarkingreturn" unicode="&#xd;" horiz-adv-x="747" 
 />
    <glyph glyph-name="NULL" horiz-adv-x="0" 
 />
    <glyph glyph-name="NULL" horiz-adv-x="0" 
 />
    <glyph glyph-name="space" unicode=" " horiz-adv-x="747" 
 />
    <glyph glyph-name="exclam" unicode="!" horiz-adv-x="241" 
d="M102 37h37v-37h-37v37zM102 1501h37v-1427h-37v1427z" />
    <glyph glyph-name="quotedbl" unicode="&#x22;" horiz-adv-x="344" 
d="M205 1501h37v-147h-37v147zM102 1501h37v-147h-37v147z" />
    <glyph glyph-name="quotesingle" unicode="'" horiz-adv-x="241" 
d="M102 1501h37v-147h-37v147z" />
    <glyph glyph-name="comma" unicode="," horiz-adv-x="241" 
d="M102 37h37v-74h-37v74z" />
    <glyph glyph-name="hyphen" unicode="-" horiz-adv-x="819" 
d="M717 768v-37h-615v37h615z" />
    <glyph glyph-name="period" unicode="." horiz-adv-x="139" 
d="M0 37h37v-37h-37v37z" />
    <glyph glyph-name="colon" unicode=":" horiz-adv-x="241" 
d="M102 37h37v-37h-37v37zM102 1079h37v-37h-37v37z" />
    <glyph glyph-name="semicolon" unicode=";" horiz-adv-x="241" 
d="M102 1079h37v-37h-37v37zM102 37h37v-74h-37v74z" />
    <glyph glyph-name="A" unicode="A" 
d="M559 715v-86h-37v86h-178l-78 -277h549l-80 277h-176zM522 752v86h37v-86h166l-184 647l-187 -647h168zM825 401h-571l-113 -401h-39l439 1532l436 -1532h-39z" />
    <glyph glyph-name="B" unicode="B" 
d="M541 37q164 0 281.5 117.5t117.5 283.5t-118.5 283t-280.5 117h-191v-209h-211v-592h402zM139 666h174v172h-174v-172zM139 1464v-590h389l322 590h-711zM847 128.5q-130 -128.5 -306 -128.5h-439v1501h809l-340 -629q171 -12 288.5 -137t117.5 -301q0 -177 -130 -305.5z
" />
    <glyph glyph-name="C" unicode="C" horiz-adv-x="1062" 
d="M311 733h-172q8 -252 172 -446v446zM311 770v277h-108q-60 -130 -64 -277h172zM313 230q0 1 -2 1q-209 218 -209 521q0 156 59.5 292t162 237t238.5 160.5t292 59.5q53 0 107 -6l-7 -37q-50 6 -126 6t-171.5 -27.5t-220.5 -104.5t-215 -249h127v-835q98 -98 228.5 -154.5
t277.5 -56.5q52 0 100 8l7 -37q-54 -8 -107 -8q-312 0 -539 229q-2 0 -2 1z" />
    <glyph glyph-name="D" unicode="D" horiz-adv-x="1075" 
d="M139 629v-586q43 -6 86 -6q258 0 457 167.5t246 424.5h-789zM225 1464h-31q-32 0 -55 -4v-586h789q-46 255 -244.5 422.5t-458.5 167.5zM557 666h68v172h-68v-172zM453 666h67v172h-67v-172zM348 666h68v172h-68v-172zM244 666h67v172h-67v-172zM207 666v172h-68v-172h68
zM729 666v172h-67v-172h67zM225 1501q279 0 494 -184q207 -183 250 -459l2 -20h-205v-56q58 20 100 -22q26 -26 49 -5t27 29l31 -20q-2 -2 -19.5 -25t-56.5 -28h-6q-30 -1 -52 23q-36 38 -73 5v-73h205l-2 -23q-41 -273 -250 -457q-215 -186 -494 -186q-38 0 -123 10v1483
q68 8 123 8z" />
    <glyph glyph-name="E" unicode="E" horiz-adv-x="1073" 
d="M971 37v-37h-856v1083h223l-236 418h764v-37h-700l213 -381h174v-36h-401v-68h401v-37h-401v-68h401v-36h-401v-68h401v-37h-401v-67h401v-37h-401v-68h401v-37h-401v-67h401v-37h-401v-383h819z" />
    <glyph glyph-name="F" unicode="F" horiz-adv-x="1073" 
d="M971 1464h-807l235 -420h-247v-67h190v-37h-190v-68h190v-36h-190v-68h190v-37h-190v-67h190v-37h-190v-627h-37v1081h221l-234 420h869v-37z" />
    <glyph glyph-name="G" unicode="G" 
d="M139 37h68v383h-68v-383zM311 420h-67v-383h67v383zM977 770v-770h-875v457h209v276h-209v19q0 156 59.5 292t161 237t237.5 160.5t292 59.5q55 0 109 -6l-7 -37q-49 6 -102 6q-145 0 -273 -54t-224.5 -148.5t-154 -221.5t-61.5 -270h209v-733h592v487h-192v37h192v68
h-192v37h192v67h-192v37h229z" />
    <glyph glyph-name="H" unicode="H" horiz-adv-x="1077" 
d="M557 1044v-313h-418v-67h504v-37h-504v-68h609v-37h-609v-67h799v276h-111l105 313h-375zM139 1044v-276h381v276h-381zM975 768v-768h-37v418h-799v-418h-37v1501h37v-420h799v420h37v-440l-96 -293h96z" />
    <glyph glyph-name="I" unicode="I" horiz-adv-x="450" 
d="M207 664v67h-68v-67h68zM139 836v-68h68v68h-68zM244 836v-68h67v68h-67zM311 664v67h-67v-67h67zM244 627v-226h59v-36h-59v-328h86v-37h-209v37h86v328h-60v36h60v226h-105v245h105v226h-60v37h60v329h-86v37h209v-37h-86v-329h59v-37h-59v-226h104v-245h-104z" />
    <glyph glyph-name="J" unicode="J" 
d="M768 768h68v180l-68 -51v-129zM836 731h-68v-129l68 -51v180zM731 731h-135l135 -100v100zM731 768v102l-135 -102h135zM977 436q0 -181 -129 -308.5t-307 -127.5q-102 0 -191.5 43t-150.5 121q-96 119 -97 272h37q0 -141 88 -248q57 -72 139.5 -111.5t169.5 -39.5
q167 0 283.5 113t120.5 276l-430 324l430 323v428h37v-446l-105 -78v-453l105 -80v-8z" />
    <glyph glyph-name="K" unicode="K" horiz-adv-x="1083" 
d="M522 713h-67v-86h-37v86h-68v-105h-211v-172h506l-123 185v92zM139 645h174v172h-174v-172zM139 854h211v-104h68v86h37v-86h67v92l123 184h-506v-172zM139 399v-399h-37v1464h37v-401h531l266 401h45l-422 -635v-196l422 -633h-45l-266 399h-531z" />
    <glyph glyph-name="L" unicode="L" horiz-adv-x="1060" 
d="M958 0h-856v350h211v68h-211v141h211v68h-211v141h211v68h-211v141h211v67h-211v457h37v-420h211v-141h-211v-68h211v-141h-211v-67h211v-142h-211v-67h211v-142h-211v-276h819v-37z" />
    <glyph glyph-name="M" unicode="M" 
d="M618 750l-79 77l-78 -77l78 -78zM539 881l131 -131l-131 -132l-129 132zM977 0h-37v418h-190v37h190v67h-190v37h190v68h-190v37h190v67h-190v37h190v68h-190v36h190v68h-190v37h190v67h-190v37h190v371l-401 -201l-400 201v-371h191v-37h-191v-67h191v-37h-191v-68h191
v-36h-191v-68h191v-37h-191v-67h191v-37h-191v-68h191v-37h-191v-67h191v-37h-191v-418h-37v1511l437 -217l438 217v-1511z" />
    <glyph glyph-name="N" unicode="N" horiz-adv-x="1077" 
d="M938 59v168l-799 400v-168zM139 1464v-168l799 -399v168zM938 686v168l-799 401v-168zM938 477v168l-799 402v-168zM139 668l799 -400v168l-799 400v-168zM139 0h-37v1524l836 -418v418h37v-1524l-836 418v-418z" />
    <glyph glyph-name="O" unicode="O" horiz-adv-x="1705" 
d="M940 811l-61 -61l61 -60l-27 -26l-59 61l-61 -61l-27 26l61 60l-61 61l27 27l61 -62l59 62zM854 37q147 0 277.5 56.5t226.5 152.5t152.5 226t56.5 277.5t-56.5 278.5t-152.5 227.5t-226.5 152.5t-277.5 56t-278.5 -56t-227.5 -152.5t-152.5 -227.5t-56.5 -278.5
t56.5 -277.5t152.5 -226t227.5 -152.5t278.5 -56.5zM854 1501q156 0 292 -59.5t237.5 -161.5t161 -238.5t59.5 -292t-59.5 -291.5t-161 -237.5t-237.5 -161t-292 -59.5t-292 59.5t-238.5 161t-162 237.5t-59.5 291.5t59.5 292t162 238.5t238.5 161.5t292 59.5z" />
    <glyph glyph-name="P" unicode="P" horiz-adv-x="1089" 
d="M834 1346q-116 118 -283 118h-389l399 -798q164 4 276.5 120.5t112.5 279t-116 280.5zM324 627h-172v-172h172v172zM551 1501q181 0 308.5 -127.5t127.5 -309.5t-127.5 -309.5t-308.5 -127.5h-191v-209h-208v-418h-37v664h405l-33 69h-354v37h336l-35 68h-301v36h283
l-33 68h-250v37h232l-35 68h-197v36h178l-209 418h449z" />
    <glyph glyph-name="Q" unicode="Q" horiz-adv-x="1705" 
d="M870 418v-381q254 8 441 166l-281 215h-160zM834 418h-613q84 -165 250 -271t363 -110v381zM834 1083v381q-197 -8 -360 -109t-253 -272h613zM834 559v68h-684l14 -68h670zM139 731q0 -35 4 -67h691v67h-695zM139 768h695v68h-691q-4 -32 -4 -68zM834 872v70h-670
q-4 -16 -7 -33.5t-7 -36.5h684zM834 1047h-631q-8 -16 -14.5 -34t-12.5 -34h658v68zM834 455v67h-658q19 -52 27 -67h631zM1567 746q0 150 -54.5 278.5t-149.5 225t-222 153.5t-271 61v-1009h172l297 -226q104 98 166 232.5t62 284.5zM102 749.5q0 155.5 59.5 292t161 238.5
t237.5 161.5t292 59.5t292 -59.5t238.5 -161.5t162 -238t59.5 -294t-62.5 -298.5t-173.5 -242.5l227 -174l-22 -29l-232 176q-205 -180 -489 -180q-156 0 -292 59.5t-237.5 161t-161 237.5t-59.5 291.5z" />
    <glyph glyph-name="R" unicode="R" horiz-adv-x="1089" 
d="M833.5 1347.5q-116.5 116.5 -282.5 116.5h-389l399 -798q161 4 275 120t114 280.5t-116.5 281zM867.5 766q-119.5 -125 -287.5 -137l313 -629h-41l-313 629h-387v-629h-37v666h405l-33 67h-354v37h336l-35 68h-301v36h283l-33 68h-250v37h232l-35 68h-197v36h178
l-209 418h449q183 0 309.5 -126.5t126.5 -305.5q0 -178 -119.5 -303z" />
    <glyph glyph-name="S" unicode="S" horiz-adv-x="1077" 
d="M557 1169v-88h86v-37h-209v37h86v88h37zM520 332v86h-86v37h209v-37h-86v-86h-37zM975 436q0 -183 -128 -309.5t-308.5 -126.5t-308.5 126.5t-128 309.5h37q0 -164 115.5 -281.5t283.5 -117.5q167 0 283.5 117.5t116.5 281.5v195l-381 96v-82h-37v90l-418 105v223
q0 182 128 310t308.5 128t308.5 -128t128 -310h-37q0 163 -116 282t-284 119t-283.5 -119t-115.5 -282v-195l381 -94v80h37v-90l418 -105v-223z" />
    <glyph glyph-name="T" unicode="T" horiz-adv-x="1040" 
d="M539 0h-37v653l96 97l-209 208l113 113v393h-400v37h836v-37h-399v-407l-97 -99l209 -208l-112 -113v-637z" />
    <glyph glyph-name="U" unicode="U" 
d="M940 438v295h-287l-94 -94v-602q158 8 269.5 123.5t111.5 277.5zM139 438q0 -160 111 -276.5t272 -124.5v602l-94 94h-289v-295zM139 1047v-277h70v277h-70zM872 770h68v277h-68v-277zM768 770h68v277h-68v-277zM731 770v277h-67v-277h67zM627 1047h-68v-183l68 -67v250z
M522 1047h-67v-250l67 67v183zM350 770h68v277h-68v-277zM313 770v277h-67v-277h67zM618 752l-77 77l-80 -77l80 -80zM977 1501v-1063q0 -181 -130 -309.5t-307.5 -128.5t-307.5 128.5t-130 309.5v1063h37v-418h801v418h37z" />
    <glyph glyph-name="V" unicode="V" 
d="M557 1065v-86h-37v86h-256l80 -277h391l78 277h-256zM725 752h-371l185 -648zM520 1102v86h37v-86h268l113 399h39l-438 -1532l-437 1532h39l113 -399h266z" />
    <glyph glyph-name="W" unicode="W" horiz-adv-x="1077" 
d="M938 47v168l-399 201l-400 -201v-168l400 201zM139 844v-168l400 198l399 -198v168l-399 198zM938 467v168l-399 199l-400 -199v-168l400 199zM139 258l400 199l399 -199v168l-399 199l-400 -199v-168zM975 1501v-1513l-436 219l-437 -219v1513h37v-616l400 200l399 -200
v616h37z" />
    <glyph glyph-name="X" unicode="X" horiz-adv-x="1097" 
d="M729 455l-88 172h-186l-86 -172h360zM385 1047l72 -173h184l72 173h-328zM567 664h68v67h-68v-67zM463 664h67v67h-67v-67zM530 838h-67v-70h67v70zM635 838h-68v-70h68v70zM748 418h-398l-207 -418h-41l324 651v201l-270 649h41l172 -418h360l172 418h41l-270 -649v-201
l323 -651h-41z" />
    <glyph glyph-name="Y" unicode="Y" horiz-adv-x="1073" 
d="M555 684h86v-37h-86v-67h86v-37h-86v-68h86v-37h-86v-67h86v-37h-86v-68h86v-37h-86v-67h86v-37h-86v-125h-37v125h-86v37h86v67h-86v37h86v68h-86v37h86v67h-86v37h86v68h-86v37h86v67h-86v37h86v82l-416 727l33 18l402 -704l401 704l33 -18l-416 -727v-82z" />
    <glyph glyph-name="Z" unicode="Z" horiz-adv-x="1105" 
d="M535 569v164h-86v37h86v191h36v-191h86v-37h-86v-164h-36zM971 37v-37h-869l260 457h191v-37h-168l-219 -383h805zM135 1464v37h869l-261 -454h-190v36h168l219 381h-805z" />
    <glyph glyph-name="underscore" unicode="_" horiz-adv-x="819" 
d="M717 -37v-37h-615v37h615z" />
    <glyph glyph-name="a" unicode="a" 
d="M559 715v-86h-37v86h-178l-78 -277h549l-80 277h-176zM522 752v86h37v-86h166l-184 647l-187 -647h168zM225 438h2l314 1094l436 -1532h-39l-113 401h-571l-113 -401h-39l123 434v4z" />
    <glyph glyph-name="b" unicode="b" 
d="M541 37q164 0 281.5 117.5t117.5 283.5t-118.5 283t-280.5 117h-191v-209h-211v-592h402zM139 666h174v172h-174v-172zM139 1464v-590h389l322 590h-711zM847 128.5q-130 -128.5 -306 -128.5h-439v1501h809l-340 -629q171 -12 288.5 -137t117.5 -301q0 -177 -130 -305.5z
" />
    <glyph glyph-name="c" unicode="c" horiz-adv-x="1062" 
d="M311 733h-172q8 -252 172 -446v446zM311 770v277h-108q-60 -130 -64 -277h172zM313 230q0 1 -2 1q-209 218 -209 521q0 156 59.5 292t162 237t238.5 160.5t292 59.5q53 0 107 -6l-7 -37q-50 6 -126 6t-171.5 -27.5t-220.5 -104.5t-215 -249h127v-835q98 -98 228.5 -154.5
t277.5 -56.5q52 0 100 8l7 -37q-54 -8 -107 -8q-312 0 -539 229q-2 0 -2 1z" />
    <glyph glyph-name="d" unicode="d" horiz-adv-x="1075" 
d="M139 629v-586q43 -6 86 -6q258 0 457 167.5t246 424.5h-789zM225 1464h-31q-32 0 -55 -4v-586h789q-46 255 -244.5 422.5t-458.5 167.5zM557 666h68v172h-68v-172zM453 666h67v172h-67v-172zM348 666h68v172h-68v-172zM244 666h67v172h-67v-172zM207 666v172h-68v-172h68
zM729 666v172h-67v-172h67zM225 1501q279 0 494 -184q207 -183 250 -459l2 -20h-205v-56q58 20 100 -22q26 -26 49 -5t27 29l31 -20q-2 -2 -19.5 -25t-56.5 -28h-6q-30 -1 -52 23q-36 38 -73 5v-73h205l-2 -23q-41 -273 -250 -457q-215 -186 -494 -186q-38 0 -123 10v1483
q68 8 123 8z" />
    <glyph glyph-name="e" unicode="e" horiz-adv-x="1073" 
d="M971 37v-37h-856v1083h223l-236 418h764v-37h-700l213 -381h174v-36h-401v-68h401v-37h-401v-68h401v-36h-401v-68h401v-37h-401v-67h401v-37h-401v-68h401v-37h-401v-67h401v-37h-401v-383h819z" />
    <glyph glyph-name="f" unicode="f" horiz-adv-x="1073" 
d="M971 1464h-807l235 -420h-247v-67h190v-37h-190v-68h190v-36h-190v-68h190v-37h-190v-67h190v-37h-190v-627h-37v1081h221l-234 420h869v-37z" />
    <glyph glyph-name="g" unicode="g" 
d="M139 37h68v383h-68v-383zM311 420h-67v-383h67v383zM977 770v-770h-875v457h209v276h-209v19q0 156 59.5 292t161 237t237.5 160.5t292 59.5q55 0 109 -6l-7 -37q-49 6 -102 6q-145 0 -273 -54t-224.5 -148.5t-154 -221.5t-61.5 -270h209v-733h592v487h-192v37h192v68
h-192v37h192v67h-192v37h229z" />
    <glyph glyph-name="h" unicode="h" horiz-adv-x="1077" 
d="M557 1044v-313h-418v-67h504v-37h-504v-68h609v-37h-609v-67h799v276h-111l105 313h-375zM139 1044v-276h381v276h-381zM975 768v-768h-37v418h-799v-418h-37v1501h37v-420h799v420h37v-440l-96 -293h96z" />
    <glyph glyph-name="i" unicode="i" horiz-adv-x="450" 
d="M207 664v67h-68v-67h68zM139 836v-68h68v68h-68zM244 836v-68h67v68h-67zM311 664v67h-67v-67h67zM244 627v-226h59v-36h-59v-328h86v-37h-209v37h86v328h-60v36h60v226h-105v245h105v226h-60v37h60v329h-86v37h209v-37h-86v-329h59v-37h-59v-226h104v-245h-104z" />
    <glyph glyph-name="j" unicode="j" 
d="M768 768h68v180l-68 -51v-129zM836 731h-68v-129l68 -51v180zM731 731h-135l135 -100v100zM731 768v102l-135 -102h135zM977 436q0 -181 -129 -308.5t-307 -127.5q-102 0 -191.5 43t-150.5 121q-96 119 -97 272h37q0 -141 88 -248q57 -72 139.5 -111.5t169.5 -39.5
q167 0 283.5 113t120.5 276l-430 324l430 323v428h37v-446l-105 -78v-453l105 -80v-8z" />
    <glyph glyph-name="k" unicode="k" horiz-adv-x="1083" 
d="M522 713h-67v-86h-37v86h-68v-105h-211v-172h506l-123 185v92zM139 645h174v172h-174v-172zM139 854h211v-104h68v86h37v-86h67v92l123 184h-506v-172zM139 399v-399h-37v1464h37v-401h531l266 401h45l-422 -635v-196l422 -633h-45l-266 399h-531z" />
    <glyph glyph-name="l" unicode="l" horiz-adv-x="1060" 
d="M958 0h-856v350h211v68h-211v141h211v68h-211v141h211v68h-211v141h211v67h-211v457h37v-420h211v-141h-211v-68h211v-141h-211v-67h211v-142h-211v-67h211v-142h-211v-276h819v-37z" />
    <glyph glyph-name="m" unicode="m" 
d="M618 750l-79 77l-78 -77l78 -78zM539 881l131 -131l-131 -132l-129 132zM977 0h-37v418h-190v37h190v67h-190v37h190v68h-190v37h190v67h-190v37h190v68h-190v36h190v68h-190v37h190v67h-190v37h190v371l-401 -201l-400 201v-371h191v-37h-191v-67h191v-37h-191v-68h191
v-36h-191v-68h191v-37h-191v-67h191v-37h-191v-68h191v-37h-191v-67h191v-37h-191v-418h-37v1511l437 -217l438 217v-1511z" />
    <glyph glyph-name="n" unicode="n" horiz-adv-x="1077" 
d="M938 59v168l-799 400v-168zM139 1464v-168l799 -399v168zM938 686v168l-799 401v-168zM938 477v168l-799 402v-168zM139 668l799 -400v168l-799 400v-168zM139 0h-37v1524l836 -418v418h37v-1524l-836 418v-418z" />
    <glyph glyph-name="o" unicode="o" horiz-adv-x="1705" 
d="M940 811l-61 -61l61 -60l-27 -26l-59 61l-61 -61l-27 26l61 60l-61 61l27 27l61 -62l59 62zM854 37q147 0 277.5 56.5t226.5 152.5t152.5 226t56.5 277.5t-56.5 278.5t-152.5 227.5t-226.5 152.5t-277.5 56t-278.5 -56t-227.5 -152.5t-152.5 -227.5t-56.5 -278.5
t56.5 -277.5t152.5 -226t227.5 -152.5t278.5 -56.5zM854 1501q156 0 292 -59.5t237.5 -161.5t161 -238.5t59.5 -292t-59.5 -291.5t-161 -237.5t-237.5 -161t-292 -59.5t-292 59.5t-238.5 161t-162 237.5t-59.5 291.5t59.5 292t162 238.5t238.5 161.5t292 59.5z" />
    <glyph glyph-name="p" unicode="p" horiz-adv-x="1089" 
d="M834 1346q-116 118 -283 118h-389l399 -798q164 4 276.5 120.5t112.5 279t-116 280.5zM324 627h-172v-172h172v172zM551 1501q181 0 308.5 -127.5t127.5 -309.5t-127.5 -309.5t-308.5 -127.5h-191v-209h-208v-418h-37v664h405l-33 69h-354v37h336l-35 68h-301v36h283
l-33 68h-250v37h232l-35 68h-197v36h178l-209 418h449z" />
    <glyph glyph-name="q" unicode="q" horiz-adv-x="1705" 
d="M870 418v-381q254 8 441 166l-281 215h-160zM834 418h-613q84 -165 250 -271t363 -110v381zM834 1083v381q-197 -8 -360 -109t-253 -272h613zM834 559v68h-684l14 -68h670zM139 731q0 -35 4 -67h691v67h-695zM139 768h695v68h-691q-4 -32 -4 -68zM834 872v70h-670
q-4 -16 -7 -33.5t-7 -36.5h684zM834 1047h-631q-8 -16 -14.5 -34t-12.5 -34h658v68zM834 455v67h-658q19 -52 27 -67h631zM1567 746q0 150 -54.5 278.5t-149.5 225t-222 153.5t-271 61v-1009h172l297 -226q104 98 166 232.5t62 284.5zM102 749.5q0 155.5 59.5 292t161 238.5
t237.5 161.5t292 59.5t292 -59.5t238.5 -161.5t162 -238t59.5 -294t-62.5 -298.5t-173.5 -242.5l227 -174l-22 -29l-232 176q-205 -180 -489 -180q-156 0 -292 59.5t-237.5 161t-161 237.5t-59.5 291.5z" />
    <glyph glyph-name="r" unicode="r" horiz-adv-x="1089" 
d="M833.5 1347.5q-116.5 116.5 -282.5 116.5h-389l399 -798q161 4 275 120t114 280.5t-116.5 281zM867.5 766q-119.5 -125 -287.5 -137l313 -629h-41l-313 629h-387v-629h-37v666h405l-33 67h-354v37h336l-35 68h-301v36h283l-33 68h-250v37h232l-35 68h-197v36h178
l-209 418h449q183 0 309.5 -126.5t126.5 -305.5q0 -178 -119.5 -303z" />
    <glyph glyph-name="s" unicode="s" horiz-adv-x="1077" 
d="M557 1169v-88h86v-37h-209v37h86v88h37zM520 332v86h-86v37h209v-37h-86v-86h-37zM975 436q0 -183 -128 -309.5t-308.5 -126.5t-308.5 126.5t-128 309.5h37q0 -164 115.5 -281.5t283.5 -117.5q167 0 283.5 117.5t116.5 281.5v195l-381 96v-82h-37v90l-418 105v223
q0 182 128 310t308.5 128t308.5 -128t128 -310h-37q0 163 -116 282t-284 119t-283.5 -119t-115.5 -282v-195l381 -94v80h37v-90l418 -105v-223z" />
    <glyph glyph-name="t" unicode="t" horiz-adv-x="1040" 
d="M539 0h-37v653l96 97l-209 208l113 113v393h-400v37h836v-37h-399v-407l-97 -99l209 -208l-112 -113v-637z" />
    <glyph glyph-name="u" unicode="u" 
d="M940 438v295h-287l-94 -94v-602q158 8 269.5 123.5t111.5 277.5zM139 438q0 -160 111 -276.5t272 -124.5v602l-94 94h-289v-295zM139 1047v-277h70v277h-70zM872 770h68v277h-68v-277zM768 770h68v277h-68v-277zM731 770v277h-67v-277h67zM627 1047h-68v-183l68 -67v250z
M522 1047h-67v-250l67 67v183zM350 770h68v277h-68v-277zM313 770v277h-67v-277h67zM618 752l-77 77l-80 -77l80 -80zM977 1501v-1063q0 -181 -130 -309.5t-307.5 -128.5t-307.5 128.5t-130 309.5v1063h37v-418h801v418h37z" />
    <glyph glyph-name="v" unicode="v" 
d="M557 1065v-86h-37v86h-256l80 -277h391l78 277h-256zM725 752h-371l185 -648zM520 1102v86h37v-86h268l113 399h39l-438 -1532l-437 1532h39l113 -399h266z" />
    <glyph glyph-name="w" unicode="w" horiz-adv-x="1077" 
d="M938 47v168l-399 201l-400 -201v-168l400 201zM139 844v-168l400 198l399 -198v168l-399 198zM938 467v168l-399 199l-400 -199v-168l400 199zM139 258l400 199l399 -199v168l-399 199l-400 -199v-168zM975 1501v-1513l-436 219l-437 -219v1513h37v-616l400 200l399 -200
v616h37z" />
    <glyph glyph-name="x" unicode="x" horiz-adv-x="1097" 
d="M729 455l-88 172h-186l-86 -172h360zM385 1047l72 -173h184l72 173h-328zM567 664h68v67h-68v-67zM463 664h67v67h-67v-67zM530 838h-67v-70h67v70zM635 838h-68v-70h68v70zM748 418h-398l-207 -418h-41l324 651v201l-270 649h41l172 -418h360l172 418h41l-270 -649v-201
l323 -651h-41z" />
    <glyph glyph-name="y" unicode="y" horiz-adv-x="1073" 
d="M555 684h86v-37h-86v-67h86v-37h-86v-68h86v-37h-86v-67h86v-37h-86v-68h86v-37h-86v-67h86v-37h-86v-125h-37v125h-86v37h86v67h-86v37h86v68h-86v37h86v67h-86v37h86v68h-86v37h86v67h-86v37h86v82l-416 727l33 18l402 -704l401 704l33 -18l-416 -727v-82z" />
    <glyph glyph-name="z" unicode="z" horiz-adv-x="1105" 
d="M535 569v164h-86v37h86v191h36v-191h86v-37h-86v-164h-36zM971 37v-37h-869l260 457h191v-37h-168l-219 -383h805zM135 1464v37h869l-261 -454h-190v36h168l219 381h-805z" />
  </font>
</defs>
</svg>
