<?xml version="1.0" standalone="no"?>
<!DOCTYPE svg PUBLIC "-//W3C//DTD SVG 1.1//EN" "http://www.w3.org/Graphics/SVG/1.1/DTD/svg11.dtd" >
<svg xmlns="http://www.w3.org/2000/svg">
<metadata>
Created by FontPrep 20130207 at Sat Oct  4 18:05:42 2014
 By Nico
Copyright (c) 1986, 1990, 1991, 1998, 2001 Adobe Systems Incorporated.  All Rights Reserved.
</metadata>
<defs>
<font id="98653a9b817332e12a752607aaac382f" horiz-adv-x='1024' >
  <font-face 
    font-family="BodoniStd-Poster"
    font-weight="900"
    font-stretch="normal"
    units-per-em="2048"
    panose-1="2 7 10 4 8 9 5 2 2 4"
    ascent="1430"
    descent="-618"
    x-height="969"
    cap-height="1419"
    bbox="-348 -512 2048 1972"
    underline-thickness="102"
    underline-position="-102"
    unicode-range="U+0020-FB02"
  />
<missing-glyph horiz-adv-x="1024" 
d="M102 1239v-1044l349 522zM164 102h696l-348 523zM573 717l349 -522v1044zM512 809l348 522h-696zM0 0v1434h1024v-1434h-1024z" />
    <glyph glyph-name="fi" unicode="fi" horiz-adv-x="1478" 
d="M133 922h-115v61h117q-6 207 114 347t324 140q105 0 183 -51t78 -139t-48 -134t-120 -46q-70 0 -117 42t-47 114t96 126q-8 20 -25 21q-77 0 -121 -55q-44 -56 -44 -138t52 -139q89 -98 247 -88v-61h-86v-873h86v-49h-689v49h115v873zM1123 1470q101 0 167 -50t66 -152
q0 -201 -236 -201q-106 0 -170 52q-63 53 -63 149t67 149q68 53 169 53zM1354 49h92v-49h-664v49h86v873h-86v61h287l285 14v-948z" />
    <glyph glyph-name="fl" unicode="fl" horiz-adv-x="1478" 
d="M133 922h-115v61h117q-6 207 114 347t324 140q105 0 183 -51t78 -139t-48 -134t-120 -46q-70 0 -117 42t-47 114t96 126q-8 20 -25 21q-77 0 -121 -55t-44 -134q0 -129 102 -183t244 -48v-61h-133v-873h84v-49h-687v49h115v873zM1446 0h-660v49h86v1370q88 1 253 15
t229 16v-1401h92v-49z" />
    <glyph glyph-name=".notdef" horiz-adv-x="1024" 
d="M102 1239v-1044l349 522zM164 102h696l-348 523zM573 717l349 -522v1044zM512 809l348 522h-696zM0 0v1434h1024v-1434h-1024z" />
    <glyph glyph-name=".null" horiz-adv-x="0" 
 />
    <glyph glyph-name="nonmarkingreturn" horiz-adv-x="681" 
 />
    <glyph glyph-name="space" unicode=" " horiz-adv-x="681" 
 />
    <glyph glyph-name="exclam" unicode="!" horiz-adv-x="796" 
d="M396 444q122 0 209 -60t87 -177t-86 -177t-209 -60t-210 60t-87 177t87 177t209 60zM430 485h-63q-1 65 -11 98q-10 32 -14 50t-19 47t-21 42q-5 13 -26 45l-25 40q-43 68 -56 86q-95 141 -95 271t86 208t213 78t212 -78t85 -208t-94 -271q-9 -12 -51 -76
q-41 -64 -47 -77t-20 -39q-54 -105 -54 -216z" />
    <glyph glyph-name="quotedbl" unicode="&#x22;" horiz-adv-x="1126" 
d="M748 1450q59 0 91 -40q31 -40 31 -83t-14 -147l-59 -359q0 -17 -4 -31q-3 -14 -7 -28q-13 -53 -54 -53q-24 0 -39 18q-15 19 -18 31t-7 43l-58 463q0 186 138 186zM395 1450q59 0 91 -40t32 -83t-14 -147l-60 -359q0 -17 -4 -31t-7 -28q-11 -53 -50 -53q-27 0 -42 18
q-15 19 -19 31t-7 43l-57 463q0 186 137 186z" />
    <glyph glyph-name="numbersign" unicode="#" 
d="M793 825h-177l-24 -180h174zM1133 645v-190h-209l-66 -455h-182l63 455h-174l-65 -455h-181l64 455h-205v190h234l26 180h-202v191h227l61 434h178l-59 -434h176l60 434h184l-62 -434h185v-191h-211l-25 -180h183z" />
    <glyph glyph-name="dollar" unicode="$" 
d="M631 25v469l-279 122q-246 109 -246 385q0 165 134 301t391 148v133h80v-133q318 -8 432 -104t112 -199q0 -78 -53 -122t-131 -44t-128 43t-50 118t44 122q15 16 54 51q25 23 -37 45q-84 29 -243 31v-404q266 -104 370 -172q219 -147 219 -375q0 -131 -49 -214
q-49 -82 -166 -162t-374 -95v-248h-80v248q-135 -16 -267 21t-219 121q-86 84 -86 175q1 91 59 151q58 61 135 61t135 -46t58 -122t-34 -124t-105 -100q0 -39 123 -60t201 -21zM983 219q0 136 -272 240v-428q113 10 193 53t79 135zM391 1236q-1 -74 61 -122t179 -94v371
q-96 -6 -168 -44q-72 -37 -72 -111z" />
    <glyph glyph-name="percent" unicode="%" horiz-adv-x="2048" 
d="M1606 920q168 0 284 -115t117 -281q0 -227 -146 -391t-370 -164q-163 0 -273 112t-110 294q0 144 84 281q94 160 240 227q82 37 174 37zM508 649l139 592q18 74 -7 106q-26 32 -70 31t-72 -41t-40 -101q-11 -61 -14 -67l-116 -460q-49 -190 65 -191q55 0 77 32t38 99z
M1581 145l139 592q18 74 -7 106q-26 32 -68 31t-72 -41t-42 -101q-11 -61 -13 -66l-117 -461q-49 -190 65 -191q55 0 77 32t38 99zM403 471q-170 0 -272 122t-102 281t123 340q58 88 166 148t239 59q76 0 211 -62q134 -63 238 -63t213 36t176 95q25 21 42 23t43 1t29 -1
l-843 -1481h-115l756 1327q-147 -80 -293 -79q-82 0 -140 24q61 -98 62 -225q0 -221 -156 -383t-377 -162z" />
    <glyph glyph-name="ampersand" unicode="&#x26;" horiz-adv-x="1933" 
d="M1150 1030q20 0 39 23t19 80t-56 156t-122 100q-36 0 -50 -27t11 -80l115 -211q24 -41 44 -41zM492 651q0 -100 102 -266q33 -53 39 -63q109 -188 237 -189q55 0 107 29q-99 132 -164 240t-133 224t-88 150q-100 -25 -100 -125zM20 369q0 332 549 460q-98 166 -98 297
q0 242 322 304q78 14 161 14q182 0 288 -71t106 -173q0 -135 -191 -213l285 -471q17 17 27 31q10 15 23 31t16 22q4 6 18 32t14 69q0 42 -31 69t-61 27h-45v65h450v-65h-47q-34 0 -74 -39t-130 -146l-129 -151l124 -176q21 -29 33 -43q37 -41 86 -41q72 0 146 121l47 -27
q-72 -158 -201 -242t-303 -84q-246 0 -393 146q-236 -145 -496 -145t-378 115q-118 116 -118 284z" />
    <glyph glyph-name="quotesingle" unicode="'" horiz-adv-x="569" 
d="M293 1450q59 0 91 -40t32 -83t-15 -147l-59 -359q0 -17 -4 -31t-7 -28q-11 -53 -55 -53q-24 0 -38 18q-14 19 -18 31t-7 43l-57 463q0 186 137 186z" />
    <glyph glyph-name="parenleft" unicode="(" horiz-adv-x="909" 
d="M532 588q0 -784 177 -934q39 -33 67 -40t70 -11v-54q-150 12 -346 126t-317 337q-120 223 -120 457q0 643 483 881q93 46 191 72q99 26 103 28v-49q-127 -31 -189 -97q-61 -67 -90 -230t-29 -486z" />
    <glyph glyph-name="parenright" unicode=")" horiz-adv-x="909" 
d="M846 469q0 -233 -120 -457t-316 -337q-196 -114 -347 -126v54q43 4 71 11t67 40q176 149 176 934q0 324 -29 486t-90 230q-61 66 -188 97v49q4 -2 63 -17t107 -31q136 -44 260 -134q346 -256 346 -799z" />
    <glyph glyph-name="asterisk" unicode="*" horiz-adv-x="1024" 
d="M508 1450q100 0 112 -100q8 -65 -43 -140q-22 -30 -32 -66t-15 -108q-6 -12 8 -20t23 0q59 40 85 68t41 60q36 77 99 107q39 18 76 11q47 -16 71 -62q25 -46 13 -82t-46 -62t-80 -33t-68 -2q-55 13 -166 -42q-14 -6 -15 -15q0 -9 17 -10q113 -56 168 -44q24 5 68 -2
q44 -6 79 -32q77 -56 31 -149q-29 -49 -70 -55q-104 -27 -175 116q-15 33 -40 61t-84 66q-16 13 -29 7t-6 -25q9 -111 54 -180q44 -69 38 -123q-5 -53 -30 -80q-35 -31 -86 -31t-79 29t-34 82t43 130q38 61 46 125q7 64 -3 67t-18 -11q-59 -39 -84 -67t-40 -61
q-15 -34 -34 -56q-66 -76 -141 -59q-41 6 -70 57q-28 43 -16 83t47 66t81 31q46 6 68 2q57 -11 166 43q29 29 2 39q-115 56 -169 44q-22 -5 -70 3q-98 18 -123 90q-12 47 16 88q29 51 68 58q104 21 176 -115q16 -33 41 -61t84 -68q23 -12 22 14q-10 116 -51 173
q-87 131 -12 210q29 31 86 31z" />
    <glyph glyph-name="plus" unicode="+" horiz-adv-x="1228" 
d="M496 643v391h237v-391h397v-237h-397v-406h-237v406h-398v237h398z" />
    <glyph glyph-name="comma" unicode="," horiz-adv-x="681" 
d="M330 -31q-144 0 -218 73q-74 72 -73 178q0 106 87 165q86 59 224 59t229 -91t91 -242q0 -207 -159 -337t-378 -161l-8 53q247 52 375 182q76 78 75 175q0 46 -50 -4q-51 -50 -195 -50z" />
    <glyph glyph-name="hyphen" unicode="-" horiz-adv-x="681" 
d="M629 336h-576v313h576v-313z" />
    <glyph glyph-name="period" unicode="." horiz-adv-x="681" 
d="M357 444q122 0 209 -60t87 -177t-86 -177t-209 -60t-210 60t-87 177t87 177t209 60z" />
    <glyph glyph-name="slash" unicode="/" horiz-adv-x="569" 
d="M788 1450l-720 -1450h-287l721 1450h286z" />
    <glyph glyph-name="zero" unicode="0" 
d="M575 1202v-989q1 -188 105 -188t104 188v989q0 193 -104 193t-105 -193zM680 1450q120 0 232 -46q249 -103 353 -364q56 -143 56 -323q0 -348 -180 -548t-461 -200t-461 200t-180 548q0 180 56 323q102 260 352 364q112 46 233 46z" />
    <glyph glyph-name="one" unicode="1" 
d="M1128 0h-897v55h201v1309h-186v55h350q68 1 192 15t158 16v-1395h182v-55z" />
    <glyph glyph-name="two" unicode="2" 
d="M702 1060q0 138 -62 228t-187 90q-47 0 -101 -16t-55 -53q0 -16 14 -17q83 -2 141 -63t58 -149t-65 -145q-65 -56 -161 -56t-159 66q-63 67 -64 165q0 162 156 251q157 89 359 89q380 0 537 -142q134 -123 134 -291q1 -169 -109 -261t-433 -178q-19 -4 -61 -16t-96 -24
q-54 -13 -134 -57q-178 -96 -178 -176q0 -18 24 -18q8 0 22 8l44 24q159 88 362 89q94 0 246 -25t210 -1t75 101h61q-8 -254 -158 -397q-121 -117 -364 -117q-115 0 -288 44t-227 44q-55 -1 -93 -23t-48 -65h-63q-4 160 78 305q31 55 96 125q88 93 163 155q76 62 84 70
q9 8 21 17q117 96 169 189q52 92 52 230z" />
    <glyph glyph-name="three" unicode="3" 
d="M709 967v100q0 177 -49 248q-49 72 -154 74q-33 -1 -91 -21t-59 -47q0 -6 56 -35q111 -57 110 -182q0 -94 -60 -144t-152 -51q-92 1 -152 63q-62 62 -62 152t54 158q89 111 312 153q85 15 173 15q197 0 376 -80q93 -41 152 -119t59 -178t-67 -180q-68 -80 -201 -119
l-32 -8q-82 -15 -80 -27q0 -15 42 -22q42 -6 44 -6q338 -86 338 -342q0 -399 -650 -400q-286 0 -422 90t-137 248q0 103 66 163t166 60q99 0 161 -57t62 -162t-84 -164q-12 -8 -30 -19q-52 -33 -48 -52q6 -45 132 -45t181 83q54 83 54 289q0 129 -23 195t-53 81
q-31 15 -88 15h-78q-41 0 -41 29q0 17 8 25t33 8h82q152 0 152 211z" />
    <glyph glyph-name="four" unicode="4" 
d="M123 465h508v633l-508 -611v-22zM29 385v90l811 975h288v-985h177v-80h-177v-330h166v-55h-833v55h170v330h-602z" />
    <glyph glyph-name="five" unicode="5" 
d="M764 1391q143 0 299 26q14 1 53 15q40 14 60 14t20 -41q0 -95 -133 -228q-68 -67 -200 -113t-284 -46t-305 33l-34 -269q-6 -23 26 -7l16 8t15 8q168 75 376 75t393 -96q93 -49 148 -139q56 -90 56 -205t-44 -198t-111 -131q-174 -124 -533 -128q-276 1 -398 97t-123 215
t63 177t166 58t162 -58t60 -155q0 -57 -33 -111t-89 -73q-56 -18 -56 -33q0 -31 52 -46t91 -15q127 0 185 86q57 86 57 315q0 146 -36 239q-46 117 -200 115q-70 0 -169 -43t-105 -43q-35 0 -31 37l74 686q2 27 43 23q16 -2 171 -26t298 -23z" />
    <glyph glyph-name="six" unicode="6" 
d="M573 991v-248q150 96 287 97q197 0 323 -112t126 -304q0 -253 -185 -359q-165 -96 -407 -96q-322 0 -503 202q-181 201 -181 539t205 539t526 201q117 0 209 -31t142 -78q101 -95 100 -192q-1 -96 -65 -147q-65 -50 -162 -50q-96 0 -156 54t-60 128t36 121t79 65t43 36
q-2 14 -54 26t-77 13q-226 -1 -226 -404zM682 723q-31 0 -70 -47q-39 -46 -39 -254v-205q0 -104 24 -148t83 -44q92 0 92 192v396q0 45 -7 59t-15 27t-22 19t-46 5z" />
    <glyph glyph-name="seven" unicode="7" 
d="M624 1450q100 0 261 -43q160 -43 222 -43q63 0 125 27t72 27t16 -11q7 -10 7 -18q0 -23 -94 -146q-299 -389 -299 -924q0 -169 -72 -277t-233 -108q-125 0 -198 83t-73 194q0 213 279 479q37 35 204 182t224 220l-21 16q-172 -98 -354 -98q-107 0 -233 32
q-227 57 -273 39l-24 -178h-58l78 537h58l-15 -152q10 -10 33 17q102 81 185 113t183 32z" />
    <glyph glyph-name="eight" unicode="8" 
d="M776 213v360q-2 74 -31 107t-71 33t-72 -33q-29 -33 -31 -107v-360q0 -113 25 -154t78 -41t78 41q24 41 24 154zM80 1102q0 164 164 256t430 92t430 -92t164 -254t-109 -244t-276 -102v-29q174 -23 288 -106q143 -104 144 -269q0 -120 -76 -214q-141 -171 -567 -171
q-425 0 -563 171q-76 92 -76 214q0 164 131 258t301 117v29q-166 20 -266 94q-119 86 -119 250zM768 926v342q0 133 -94 133t-94 -133v-342q0 -51 4 -80q4 -30 26 -56t64 -26t64 27t26 55t4 80z" />
    <glyph glyph-name="nine" unicode="9" 
d="M764 455v211q-162 -94 -287 -95q-199 0 -323 110t-125 304q0 257 180 361t424 104q281 0 477 -198t195 -551q0 -353 -218 -549q-205 -183 -513 -183q-140 0 -233 27q-93 28 -167 96t-74 166t62 148t160 51q98 -1 158 -53t60 -130t-38 -120q-39 -44 -79 -64t-40 -32
t56 -23q56 -10 101 -10q98 0 155 67q69 79 69 363zM565 1155v-381q0 -86 78 -86q115 0 115 221v316q-4 170 -94 170t-98 -169q-1 -24 -1 -71z" />
    <glyph glyph-name="colon" unicode=":" horiz-adv-x="681" 
d="M357 1040q122 0 209 -60t87 -178t-86 -177t-209 -59t-210 60t-87 177t87 177t209 60zM357 444q122 0 209 -60t87 -177t-86 -177t-209 -60t-210 60t-87 177t87 177t209 60z" />
    <glyph glyph-name="semicolon" unicode=";" horiz-adv-x="681" 
d="M351 1040q122 0 209 -60t87 -178t-86 -177t-209 -59t-210 60t-87 177t87 177t209 60zM330 -31q-144 0 -218 73q-74 72 -73 178q0 106 87 165q86 59 224 59t229 -91t91 -242q0 -207 -159 -337t-378 -161l-8 53q247 52 375 182q76 78 75 175q0 46 -50 -4q-51 -50 -195 -50z
" />
    <glyph glyph-name="less" unicode="&#x3c;" horiz-adv-x="1228" 
d="M1137 221v-262l-1043 463v203l1043 465v-263l-729 -307z" />
    <glyph glyph-name="equal" unicode="=" horiz-adv-x="1228" 
d="M1130 442v-237h-1032v237h1032zM1130 844v-238h-1032v238h1032z" />
    <glyph glyph-name="greater" unicode="&#x3e;" horiz-adv-x="1228" 
d="M94 221l729 299l-729 307v263l1043 -465v-203l-1043 -463v262z" />
    <glyph glyph-name="question" unicode="?" horiz-adv-x="1251" 
d="M595 444q122 0 209 -60t87 -177t-86 -177t-209 -60t-210 60t-87 177t87 177t209 60zM580 1108q0 -100 -75 -160t-178 -59q-103 0 -182 65q-77 66 -77 166t53 168t141 101q163 61 353 61t364 -72q92 -36 149 -110t58 -174q0 -152 -125 -234q-58 -37 -252 -115
q-109 -47 -149 -95t-42 -161h-67q-13 137 67 305t80 299t-63 207t-182 76q-31 0 -74 -10t-43 -31q0 -14 12 -14l21 -2q12 -2 37 -4t43 -8q131 -41 131 -199z" />
    <glyph glyph-name="at" unicode="@" horiz-adv-x="1515" 
d="M1335 784q0 231 -152 361q-153 129 -403 129t-408 -160t-157 -410q0 -250 170 -405q170 -154 436 -154q217 0 391 131h203q-233 -307 -610 -307q-334 0 -564 211q-231 210 -231 526t228 530t555 214q283 0 481 -166q229 -182 229 -432t-157 -406q-66 -61 -170 -113
t-171 -52q-137 0 -133 100q-88 -92 -212 -92t-229 102q-103 102 -103 244q0 180 116 314q117 135 291 135t262 -115l21 98h194l-100 -569q-21 -70 25 -70q72 0 135 103t63 253zM938 705q0 79 -45 125t-124 46t-137 -64q-58 -66 -59 -142q0 -76 42 -126t124 -50t141 65
q58 66 58 146z" />
    <glyph glyph-name="A" unicode="A" horiz-adv-x="1705" 
d="M408 0h-394v55h47q70 0 148 209l422 1155h428l506 -1364h112v-55h-909v55h147l-145 418h-414l-82 -219q-32 -76 -18 -120q24 -77 96 -79h56v-55zM750 528l-189 521l-186 -521h375z" />
    <glyph glyph-name="B" unicode="B" horiz-adv-x="1705" 
d="M742 0h-738v55h156v1309h-156v55h1124q182 0 329 -69q79 -37 126 -106t47 -160q0 -242 -313 -305q-76 -15 -160 -17v-41q47 -2 131 -10q160 -17 268 -99t109 -245q0 -163 -121 -257q-94 -76 -264 -94t-223 -17t-315 1zM786 1364v-596h88q57 0 88 44q30 44 29 116v284
q0 152 -157 152h-48zM786 711v-656h70q160 0 160 199v268q0 109 -46 149t-134 40h-50z" />
    <glyph glyph-name="C" unicode="C" horiz-adv-x="1478" 
d="M1389 1450v-504h-66q-49 160 -151 285t-242 125q-86 0 -129 -27q-99 -62 -99 -461v-395q0 -160 35 -252t85 -121t130 -28q158 0 262 120t136 285h63q-27 -244 -191 -376t-411 -132q-342 0 -555 205q-213 206 -213 532t216 535t529 209q113 0 275 -55q6 -3 42 -19t55 -16
t65 26l110 64h54z" />
    <glyph glyph-name="D" unicode="D" horiz-adv-x="1705" 
d="M14 1419h889q340 0 546 -185t206 -523q1 -275 -141 -463t-435 -236q-78 -12 -354 -12h-715v55h152v1309h-148v55zM778 1364v-1309h90q76 -1 104 53t27 238v805q0 213 -157 213h-64z" />
    <glyph glyph-name="E" unicode="E" horiz-adv-x="1478" 
d="M10 0v55h152v1309h-152v55h1374l11 -497h-68q-47 188 -156 315t-264 127h-125v-621h35q65 0 139 70t86 209h68v-625h-68q-12 147 -86 219t-139 72h-35v-633h140q283 0 430 486h61l-10 -541h-1393z" />
    <glyph glyph-name="F" unicode="F" horiz-adv-x="1478" 
d="M967 0h-967v55h162v1309h-158v55h1417l11 -522h-66q-98 467 -451 467h-122v-621h34q66 0 140 70t86 209h67v-625h-67q-12 147 -86 219t-140 72h-34v-633h174v-55z" />
    <glyph glyph-name="G" unicode="G" horiz-adv-x="1705" 
d="M1503 1450v-496h-57q-72 158 -199 279t-276 121q-102 0 -169 -55q-41 -32 -68 -116t-27 -155v-795q0 -213 116 -213q67 0 89 41q13 23 27 51t11 109q-2 82 -2 88v369h-119v57h822v-57h-111v-547q-123 0 -235 -43q-201 -76 -292 -98t-200 -21q-342 0 -555 200t-213 521
q0 156 48 286t127 216q158 172 385 231q103 27 206 27q248 0 422 -117l192 117h78z" />
    <glyph glyph-name="H" unicode="H" horiz-adv-x="1820" 
d="M881 0h-867v55h160v1309h-160v55h867v-55h-93v-606h242v606h-92v55h868v-55h-161v-1309h161v-55h-868v55h92v647h-242v-647h93v-55z" />
    <glyph glyph-name="I" unicode="I" horiz-adv-x="1024" 
d="M985 0h-946v55h156v1309h-156v55h946v-55h-156v-1309h156v-55z" />
    <glyph glyph-name="J" unicode="J" horiz-adv-x="1251" 
d="M1085 1364v-692q0 -242 -20 -330q-39 -170 -193 -285q-117 -88 -362 -88q-181 0 -339 72q-81 37 -130 107t-49 170q0 99 56 168t152 69t159 -52q63 -53 63 -139t-49 -137t-127 -67q-41 -8 -41 -47q1 -45 101 -45t168 83t69 205q0 122 -72 193v815h-197v55h959v-55h-148z
" />
    <glyph glyph-name="K" unicode="K" horiz-adv-x="1933" 
d="M924 0h-920v55h158v1309h-158v55h954v-55h-176v-668l488 490q82 88 46 133t-157 45h-63v55h645v-55h-68q-127 0 -264 -137l-160 -160l586 -1012h90v-55h-926v55h146l-359 633h-4v-633h142v-55z" />
    <glyph glyph-name="L" unicode="L" horiz-adv-x="1478" 
d="M1411 0h-1401v55h156v1309h-156v55h963v-55h-180v-1309h94q220 0 326 161q52 79 82 157t57 190h59v-563z" />
    <glyph glyph-name="M" unicode="M" horiz-adv-x="2048" 
d="M1858 1364v-1309h161v-55h-923v55h159v1147h-4l-456 -1202h-84l-465 1217h-4v-988q0 -131 61 -159q31 -14 80 -15h39v-55h-422v55h39q127 0 127 170v1139h-152v55h742l252 -676l258 676h753v-55h-161z" />
    <glyph glyph-name="N" unicode="N" horiz-adv-x="1593" 
d="M426 0h-422v55h51q115 0 115 195v1005q-48 72 -76 91q-28 20 -59 20h-31v53h778l555 -760v603q0 42 -41 72t-98 30h-41v55h422v-55h-61q-56 0 -79 -30q-22 -30 -24 -90t-2 -92v-1152h-344l-827 1139v-889q0 -195 118 -195h66v-55z" />
    <glyph glyph-name="O" unicode="O" horiz-adv-x="1705" 
d="M852 1450q332 0 568 -209t237 -531t-231 -532q-232 -209 -576 -209t-572 218t-229 524q0 221 114 392t295 259t394 88zM715 1133v-953q0 -66 36 -110q35 -44 103 -45q68 0 102 44t35 111v953q0 189 -59 237q-31 25 -79 25t-78 -25q-60 -50 -60 -237z" />
    <glyph glyph-name="P" unicode="P" horiz-adv-x="1705" 
d="M786 1364v-727h78q147 0 148 227v295q0 85 -37 145t-123 60h-66zM977 0h-967v55h160v1309h-156v55h1053q303 0 445 -123q142 -122 142 -294t-142 -296t-445 -124h-281v-527h191v-55z" />
    <glyph glyph-name="Q" unicode="Q" horiz-adv-x="1705" 
d="M846 -31q-346 0 -575 218q-228 218 -228 524q0 221 114 392t295 259t394 88q332 0 568 -209t237 -530q1 -251 -143 -437t-380 -260q96 -150 248 -149q72 0 133 35t90 96l54 -21q-74 -163 -158 -274q-107 -141 -274 -141q-127 0 -198 103t-48 317q-63 -11 -129 -11z
M841 260q-52 0 -90 -31t-38 -83t37 -86q37 -36 93 -36t96 32t33 84t-43 86t-88 34zM702 1133v-869q74 39 148 39t135 -65v895q0 189 -59 237q-31 25 -80 25t-80 -25q-64 -52 -64 -237z" />
    <glyph glyph-name="R" unicode="R" horiz-adv-x="1820" 
d="M162 55v1309h-152v55h1059q295 0 433 -98t138 -246q0 -214 -268 -289q-68 -18 -143 -22v-21q193 -20 292 -132t99 -285t22 -195q12 -12 33 -12q37 0 92 78l56 -31q-121 -197 -410 -197q-203 -1 -315 99t-112 284q-2 318 -57 363q-26 20 -85 20h-72v-680h172v-55h-940v55
h158zM772 1364v-567h78q80 0 113 50t32 222v127q0 66 -36 117t-95 51h-92z" />
    <glyph glyph-name="S" unicode="S" 
d="M664 -31q-134 0 -312 97l-221 -97h-51l-14 508h65q84 -197 235 -325t347 -127q76 -1 136 33t60 107t-57 118q-79 62 -168 92l-156 69q-449 201 -448 535q0 219 140 345t362 126q154 0 327 -84l221 84h48l16 -469h-55q-83 180 -225 297t-324 117q-66 0 -120 -35t-54 -100
t64 -113t153 -84l418 -213q102 -53 173 -169q70 -116 70 -247t-53 -224t-144 -143t-195 -74t-238 -24z" />
    <glyph glyph-name="T" unicode="T" horiz-adv-x="1593" 
d="M473 55v1309q-276 -25 -381 -467h-63l10 522h1499l10 -522h-63q-104 442 -381 467v-1309h186v-55h-1005v55h188z" />
    <glyph glyph-name="U" unicode="U" horiz-adv-x="1593" 
d="M10 1364v55h953v-55h-170v-1081q0 -102 65 -154q66 -51 176 -51q150 0 224 93t73 349v602q0 141 -28 192q-29 50 -103 50h-53v55h422v-55h-68q-47 0 -73 -54t-25 -198v-731q0 -233 -209 -344q-127 -68 -385 -68q-145 1 -264 25t-166 47t-97 65q-106 90 -106 312v946h-166
z" />
    <glyph glyph-name="V" unicode="V" horiz-adv-x="1705" 
d="M14 1364v55h920v-55h-141l335 -862l277 669q39 119 2 156t-82 37h-49v55h397v-55h-49q-27 0 -68 -43t-61 -96l-489 -1225h-332l-551 1364h-109z" />
    <glyph glyph-name="W" unicode="W" horiz-adv-x="2048" 
d="M4 1364v55h739v-55h-67l215 -789l102 347l-114 442h-72v55h772v-55h-100l184 -774h4l180 639q21 71 -3 103t-72 32h-46v55h312v-55q-45 -10 -69 -35t-36 -72l-358 -1257h-342l-207 788l-223 -788h-342l-404 1364h-53z" />
    <glyph glyph-name="X" unicode="X" horiz-adv-x="1820" 
d="M616 0h-587v55h53q111 0 242 166l299 383l-494 760h-100v55h962v-55h-149l270 -410l150 193q53 70 48 118q-5 47 -41 73t-89 26h-66v55h574v-55h-66q-51 0 -126 -53t-138 -135l-211 -275l551 -846h80v-55h-949v55h154l-321 496l-220 -291q-39 -52 -39 -108t36 -76t83 -21
h94v-55z" />
    <glyph glyph-name="Y" unicode="Y" horiz-adv-x="1820" 
d="M25 1364v55h960v-55h-145l368 -610h13l241 422q66 114 19 151q-46 37 -99 37h-55v55h455v-55h-35q-96 0 -215 -205l-291 -500v-604h186v-55h-995v55h180v514l-477 795h-110z" />
    <glyph glyph-name="Z" unicode="Z" horiz-adv-x="1478" 
d="M1399 1419v-63l-662 -1301h119q158 0 291 122t184 366h68l-17 -543h-1325v78l652 1286h-70q-180 0 -309 -127t-180 -317h-60l25 499h1284z" />
    <glyph glyph-name="bracketleft" unicode="[" horiz-adv-x="796" 
d="M700 -451h-602v1901h596v-80h-260v-1741h266v-80z" />
    <glyph glyph-name="backslash" unicode="\" horiz-adv-x="569" 
d="M-219 1450h287l720 -1450h-286z" />
    <glyph glyph-name="bracketright" unicode="]" horiz-adv-x="796" 
d="M700 -451h-602v80h267v1741h-261v80h596v-1901z" />
    <glyph glyph-name="asciicircum" unicode="^" horiz-adv-x="1228" 
d="M336 582l-213 96l369 772h245l369 -772l-213 -96l-279 571z" />
    <glyph glyph-name="underscore" unicode="_" horiz-adv-x="1024" 
d="M1024 -256h-1024v102h1024v-102z" />
    <glyph glyph-name="grave" unicode="`" horiz-adv-x="681" 
d="M0 1349q0 45 39 73t76 28t63 -7t54 -33t38 -35t41 -53t35 -48l168 -227h-147l-242 143q-73 43 -99 78t-26 81z" />
    <glyph glyph-name="a" unicode="a" 
d="M739 295v205h-73q-67 0 -89 -50t-22 -87v-103q0 -127 32 -155q17 -15 51 -15t64 23q37 28 37 182zM739 549v268q1 73 -23 99t-100 26t-75 -22q0 -6 38 -48t37 -96q0 -164 -272 -164q-88 0 -157 40t-68 122q0 223 510 223q414 -1 534 -119q55 -54 56 -163v-549
q0 -49 34 -49q26 0 38 10q11 10 17 13q6 4 16 16q11 12 13 14v-72q-111 -129 -319 -129q-96 0 -161 31t-101 111q-129 -141 -398 -142q-131 -1 -225 61t-94 189q0 264 358 313q121 16 242 17h100z" />
    <glyph glyph-name="b" unicode="b" 
d="M606 651v-319q0 -114 32 -178t77 -64t62 51t18 191v319q-1 156 -19 189q-18 32 -63 32t-76 -58t-31 -163zM119 1370h-109v49q160 -1 370 15t226 16v-604q125 152 291 151q201 1 311 -155t111 -366q0 -210 -112 -358t-316 -149q-111 0 -181 46t-124 145h-4v-187
q-2 -1 -232 13t-340 14v49h109v1321z" />
    <glyph glyph-name="c" unicode="c" horiz-adv-x="1251" 
d="M657 -31q-281 0 -453 137t-171 373q0 168 98 290q183 228 549 228q274 0 394 -95t120 -236q0 -102 -65 -164t-161 -64q-96 0 -160 60q-65 60 -65 144q0 85 38 132q39 48 93 74t54 37q0 27 -48 41t-85 14q-133 0 -166 -56q-50 -85 -54 -153q-4 -69 -9 -153
q-13 -219 32 -380q14 -50 37 -79q54 -68 170 -70q229 0 348 250l47 -25q-133 -305 -543 -305z" />
    <glyph glyph-name="d" unicode="d" 
d="M1233 49h108v-49q-106 0 -304 -12t-269 -15v187q-57 -100 -130 -146t-185 -45q-197 0 -309 152q-112 151 -112 359t111 363t314 154q174 0 286 -151v524h-165v49q121 1 344 15t311 16v-1401zM743 332v319q0 104 -30 163q-31 58 -84 58t-64 -52q-10 -52 -10 -106v-382
q0 -138 17 -190q16 -52 62 -52t78 64t31 178z" />
    <glyph glyph-name="e" unicode="e" horiz-adv-x="1251" 
d="M545 469h176v283q0 6 1 32t0 39l-3 36q-3 33 -23 61q-21 28 -61 28t-51 -13q-12 -13 -26 -33t-13 -99v-334zM545 420v-86q0 -141 45 -217t165 -76t218 60t168 155l39 -27q-180 -260 -516 -260q-207 0 -336 56q-299 127 -299 458q0 238 168 376q169 138 425 138
q256 -1 420 -155t162 -422h-659z" />
    <glyph glyph-name="f" unicode="f" horiz-adv-x="796" 
d="M133 922h-115v61h117q-6 207 114 347t324 140q105 0 183 -51t78 -139t-48 -134t-120 -46q-70 0 -117 42t-47 114t96 126q-8 20 -25 21q-77 0 -121 -55q-44 -54 -44 -138t54 -139q95 -97 281 -88v-61h-122v-873h114v-49h-717v49h115v873z" />
    <glyph glyph-name="g" unicode="g" horiz-adv-x="1251" 
d="M666 -158q-219 0 -326 31q-20 6 -42 -39t-22 -72q0 -154 289 -153q112 0 234 18q235 35 235 133q0 33 -12 47q-12 15 -74 25t-282 10zM649 381h-268q-86 0 -86 -55q0 -63 197 -64h337q163 0 267 -81t104 -243t-143 -276q-143 -113 -467 -113q-411 0 -518 145
q-25 34 -25 76t56 82q56 39 178 35l4 4q-96 29 -165 93t-69 168q0 106 75 173t200 81v4q-111 34 -181 106q-69 72 -69 168t52 158t136 95q158 60 290 60t230 -12q35 84 108 144q73 61 150 61q76 0 126 -34t51 -101q0 -121 -136 -121q-41 0 -75 28t-33 66q0 12 6 37l6 25
q-4 14 -14 14q-39 0 -78 -43t-51 -86q133 -41 214 -110t81 -189q-1 -295 -490 -295zM516 516q0 -102 96 -100q44 0 68 23q22 24 22 77v295q0 84 -23 113q-24 29 -71 28q-92 0 -92 -141v-295z" />
    <glyph glyph-name="h" unicode="h" horiz-adv-x="1478" 
d="M631 483v-434h71v-49h-677v49h112v1321h-108v49q111 1 317 15t285 16v-649q57 92 153 144t205 52q334 0 334 -364v-584h109v-49h-674v49h71v645q0 128 -44 148q-15 6 -29 6q-125 0 -125 -365z" />
    <glyph glyph-name="i" unicode="i" horiz-adv-x="796" 
d="M389 1470q274 0 275 -202q0 -104 -82 -152t-193 -49q-111 0 -193 48t-81 153q0 202 274 202zM754 0h-725v49h112v871h-108v49q117 0 329 11t283 13v-944h109v-49z" />
    <glyph glyph-name="j" unicode="j" horiz-adv-x="909" 
d="M498 1470q274 0 274 -202q0 -104 -82 -152t-192 -49q-110 0 -193 48q-82 48 -82 153q1 202 275 202zM754 289q0 -25 1 -100q3 -235 -28 -331q-31 -97 -73 -145q-143 -164 -378 -164q-102 1 -189 55t-87 139t47 132t120 47t123 -42t50 -98q0 -88 -75 -133q-26 -15 -25 -20
q0 -25 39 -24q73 0 121 56t48 138q0 83 -48 143q-50 60 -134 74v904h-176v49q126 0 358 11t306 13v-704z" />
    <glyph glyph-name="k" unicode="k" 
d="M659 0h-649v49h99v1321h-99v49q104 1 297 15t271 16v-969l161 140q170 150 170 221q0 41 -41 59t-82 19h-51v49h570v-49h-54q-96 0 -315 -181l391 -690h29v-49h-631v49h84l-203 387l-28 -20v-367h81v-49z" />
    <glyph glyph-name="l" unicode="l" horiz-adv-x="796" 
d="M758 0h-725v49h114v1321h-118v49q115 1 323 15t291 16v-1401h115v-49z" />
    <glyph glyph-name="m" unicode="m" horiz-adv-x="2048" 
d="M137 920h-112v49q106 0 303 11t258 13v-211q154 215 360 215q106 0 186 -52t103 -152q55 86 153 145t197 59q176 0 247 -93t71 -316v-539h112v-49h-649v49h61v602q0 2 1 40q3 117 -28 140q-15 12 -40 13q-45 0 -74 -60t-29 -137v-598h62v-49h-598v49h61v627
q0 137 -26 157q-14 11 -37 11q-47 0 -77 -56t-30 -124v-615h56v-49h-643v49h112v871z" />
    <glyph glyph-name="n" unicode="n" horiz-adv-x="1478" 
d="M756 848q-59 0 -92 -66t-33 -129v-604h71v-49h-677v49h112v871h-108v49q115 0 325 11t277 13v-192q57 92 153 144t205 52q158 0 245 -85t87 -294v-569h111v-49h-674v49h71v619l2 75q0 105 -75 105z" />
    <glyph glyph-name="o" unicode="o" 
d="M676 997q266 0 432 -116q92 -63 148 -169t57 -216q0 -240 -185 -396q-156 -131 -452 -131t-453 131q-184 156 -184 396q0 111 56 216t149 169q166 116 432 116zM573 793v-615q-1 -105 15 -122q49 -54 128 -34q17 4 27 15q9 10 21 21q12 12 10 62t-2 58v615q0 120 -41 143
q-20 12 -60 12t-64 -26t-29 -56q-5 -28 -5 -73z" />
    <glyph glyph-name="p" unicode="p" 
d="M119 920h-109v49q108 0 308 11t264 13v-186q63 100 134 145t183 45q197 1 309 -153t111 -362q0 -208 -111 -360t-315 -153q-170 0 -287 150v-520h152v-50h-748v50h109v1321zM606 651v-319q0 -114 32 -178t77 -64t62 51t18 191v319q-1 156 -19 189q-18 32 -63 32t-76 -58
t-31 -163z" />
    <glyph glyph-name="q" unicode="q" 
d="M743 332v319q0 104 -30 163q-31 58 -84 58t-64 -52q-10 -52 -10 -106v-382q0 -138 17 -190q16 -52 62 -52t78 64t31 178zM1233 920v-1321h108v-50h-749v50h151v520q-98 -147 -286 -148q-137 0 -237 76q-187 144 -187 440q0 205 111 358q112 153 309 152q113 0 181 -44
t134 -146v186q63 -2 264 -13t309 -11v-49h-108z" />
    <glyph glyph-name="r" unicode="r" horiz-adv-x="1251" 
d="M137 920h-108v49q113 0 319 11t273 13v-207h4q111 203 329 203q109 0 187 -61q78 -60 78 -166t-67 -173t-171 -67q-103 0 -167 62t-64 164q0 51 12 96q-20 33 -54 -11q-67 -87 -67 -185v-599h145v-49h-757v49h108v871z" />
    <glyph glyph-name="s" unicode="s" horiz-adv-x="1024" 
d="M702 106q0 60 -64 90t-184 69q-199 64 -303 152t-104 244q0 157 113 247t268 89q102 0 285 -61l159 61h46l12 -350h-47q-55 123 -170 212t-239 89t-124 -96q0 -34 20 -50t32 -24q11 -8 34 -17t31 -13t33 -12t26 -9l219 -80q107 -39 169 -127t63 -205q0 -184 -131 -276
q-102 -70 -303 -70q-61 1 -145 29t-113 37l-168 -66h-56l-14 375h39q56 -131 196 -228q140 -98 280 -98t140 88z" />
    <glyph glyph-name="t" unicode="t" horiz-adv-x="909" 
d="M627 1329v-360h231v-49h-231v-723q0 -81 19 -93t38 -12q47 0 93 59t63 189h45q-14 -205 -127 -288q-112 -83 -310 -83t-261 68q-62 68 -62 268v615h-121v49q182 0 332 97t252 263h39z" />
    <glyph glyph-name="u" unicode="u" horiz-adv-x="1478" 
d="M1436 49v-49q-111 0 -315 -12t-275 -15v193q-129 -197 -375 -197q-174 0 -254 84t-80 309v558h-108v49q115 0 325 11t277 13v-805q0 -82 74 -82q47 0 77 41q48 66 47 177v596h-108v49q115 0 323 11t277 13v-944h115z" />
    <glyph glyph-name="v" unicode="v" 
d="M-2 920v49h760v-49h-131l280 -613l191 434q31 88 8 133t-68 46h-47v49h361v-49q-66 0 -106 -37t-70 -109l-338 -774h-314l-422 920h-104z" />
    <glyph glyph-name="w" unicode="w" horiz-adv-x="2048" 
d="M33 920v49h674v-49h-66l258 -648l92 240l-151 408h-90v49h696v-49h-115l244 -633l178 463q29 68 24 106t-19 49q-14 12 -36 13h-39v51h314v-49q-85 0 -128 -67q-30 -45 -63 -130l-276 -723h-340l-168 432l-166 -432h-358l-363 920h-102z" />
    <glyph glyph-name="x" unicode="x" 
d="M516 0h-518v49q104 31 181 96q77 64 107 91t89 89t78 81l-361 514h-94v49h774v-49h-100l192 -279l123 113q51 45 34 105t-89 61h-45v49h469v-49h-31q-63 0 -145 -72l-281 -252l387 -547h70v-49h-735v49h84l-220 313l-104 -104q-74 -74 -74 -117t51 -67t101 -25h57v-49z
" />
    <glyph glyph-name="y" unicode="y" horiz-adv-x="1478" 
d="M1071 920v49h356v-49q-98 0 -204 -183l-437 -735q-125 -207 -200 -295q-141 -158 -310 -158q-100 1 -170 63t-70 150t60 140q60 51 138 51t133 -44t55 -118t-66 -123q-24 -17 -24 -33q0 -15 26 -16q62 1 142 71t211 296l-570 934h-112v49h782v-49h-119l287 -469l188 315
q33 55 18 89t-41 49t-46 16h-27z" />
    <glyph glyph-name="z" unicode="z" horiz-adv-x="1251" 
d="M1180 969v-49l-566 -871h93q307 0 426 336h53l-23 -385h-1120v49l563 871h-80q-94 0 -197 -77t-165 -241h-45l10 367h1051z" />
    <glyph glyph-name="braceleft" unicode="{" horiz-adv-x="796" 
d="M596 186v-387q0 -105 34 -163t120 -82v-5q-285 0 -383 36q-41 15 -69 27t-46 39q-18 25 -34 51t-15 181v365q0 113 -31 166t-123 78v4q86 22 120 78t34 165v414q0 137 37 195q36 58 146 80t364 22v-6q-88 -29 -121 -83t-33 -165v-420q0 -126 -35 -192t-133 -88v-4
q98 -28 133 -92t35 -214z" />
    <glyph glyph-name="bar" unicode="|" horiz-adv-x="569" 
d="M162 -512v2048h244v-2048h-244z" />
    <glyph glyph-name="braceright" unicode="}" horiz-adv-x="796" 
d="M201 -201v387q0 150 35 214t133 92v4q-98 24 -133 90t-35 190v420q0 111 -33 165t-121 83v6q254 0 364 -23q111 -23 147 -79t36 -195v-414q0 -109 34 -165t120 -78v-4q-92 -25 -123 -78t-31 -166v-365q0 -157 -21 -189q-10 -17 -28 -43t-46 -38q-97 -42 -189 -52
q-93 -10 -263 -12v5q86 25 120 82t34 163z" />
    <glyph glyph-name="asciitilde" unicode="~" horiz-adv-x="1228" 
d="M403 719q84 0 238 -68t199 -67t80 39q35 39 54 72q19 32 25 40l131 -149q-41 -63 -57 -87t-56 -70q-139 -159 -417 -15q-132 68 -193 68q-62 0 -109 -60q-16 -23 -24 -33t-24 -40t-21 -36l-131 152q137 254 305 254z" />
    <glyph glyph-name="uni00A0" unicode="&#xa0;" horiz-adv-x="681" 
 />
    <glyph glyph-name="exclamdown" unicode="&#xa1;" horiz-adv-x="796" 
d="M398 1034q122 0 209 -60t87 -177t-86 -177t-209 -60t-210 60t-87 177t87 177t209 60zM367 514h63q0 -63 10 -96t14 -51q4 -17 20 -47q14 -30 20 -42t26 -46q20 -32 26 -40t28 -44q24 -38 28 -42q94 -141 94 -271t-86 -208t-213 -78t-212 78t-85 208t95 271q6 8 25 37
q122 187 135 265q12 78 12 106z" />
    <glyph glyph-name="cent" unicode="&#xa2;" 
d="M633 393l203 373q39 72 122 94q25 6 34 18q19 25 -21 40q-71 24 -147 24t-118 -41t-58 -115t-18 -193q-3 -118 3 -200zM721 -31q-96 0 -217 27l-160 -299h-88l172 319q-145 47 -240 173q-94 126 -94 292t98 288q184 228 549 228q100 0 203 -20l141 264h91l-154 -287
q233 -78 233 -288q0 -102 -64 -165q-65 -63 -153 -63t-144 40t-75 102l-176 -318q17 -213 231 -213q104 0 198 70q95 70 142 180l48 -25q-139 -305 -541 -305z" />
    <glyph glyph-name="sterling" unicode="&#xa3;" 
d="M47 662v92h189q-76 123 -76 267q0 145 83 245q152 184 457 184q145 0 256 -33t169 -85q116 -104 116 -211t-61 -163q-60 -56 -156 -57q-96 0 -152 49q-55 49 -55 133t37 124q36 41 80 61t54 27t7 14q-12 66 -147 65q-96 0 -142 -68t-47 -221q0 -59 25 -170t27 -161h274
v-90h-274q-23 -227 -133 -353q109 35 198 35q90 0 208 -22t177 14q59 35 76 100h57q-4 -205 -104 -337t-297 -132q-84 0 -171 30q-87 31 -141 61t-147 92q-8 6 -12 0t-12 -31q-53 -152 -201 -152q-76 0 -122 46t-46 128t56 129t149 47q43 0 129 -24q1 146 -101 367h-227z
" />
    <glyph glyph-name="currency" unicode="&#xa4;" 
d="M683 401q97 0 165 70t67 164q0 94 -67 163q-68 68 -165 68t-165 -68t-68 -163q0 -94 68 -164t165 -70zM125 642q0 150 84 286l-100 98l178 180l100 -100q139 86 299 86t295 -86l100 100l174 -180l-100 -98q86 -135 86 -300t-86 -286l100 -98l-174 -178l-100 98
q-149 -88 -305 -88t-289 88l-100 -98l-178 178l100 98q-84 150 -84 300z" />
    <glyph glyph-name="yen" unicode="&#xa5;" 
d="M1006 330v-275h151v-55h-803v55h146v275h-146v90h146v74h-146v90h138l-379 780h-88v55h776v-55h-119l299 -610h8l197 422q27 57 27 97q2 62 -53 84q-19 7 -40 7h-45v55h369v-55h-29q-78 0 -174 -205l-235 -500v-75h151v-90h-151v-74h151v-90h-151z" />
    <glyph glyph-name="brokenbar" unicode="&#xa6;" horiz-adv-x="569" 
d="M162 666v716h244v-716h-244zM162 -358v716h244v-716h-244z" />
    <glyph glyph-name="section" unicode="&#xa7;" horiz-adv-x="1251" 
d="M1153 586q0 -96 -46 -170t-118 -103q-71 -29 -71 -38t34 -39t76 -65q41 -37 76 -103t35 -142q0 -152 -130 -258t-411 -106q-146 0 -289 58q-74 30 -121 85t-47 121t42 106q43 39 105 39t105 -39t43 -86t-24 -90t-25 -53q0 -35 86 -61t135 -25q264 0 264 139q0 41 -12 60
q-51 66 -393 229q-207 98 -287 184t-80 211q0 211 254 287q49 14 6 43q-217 141 -217 334q-1 168 139 257t357 89t332 -72q129 -78 129 -188q0 -61 -40 -97t-98 -36t-98 37q-39 37 -39 91t28 93t28 41q0 20 -33 41q-76 39 -201 39t-214 -51q-56 -33 -56 -83q0 -66 117 -120
q22 -10 26 -12q326 -168 430 -239q104 -72 154 -142q49 -70 49 -166zM438 694q-51 0 -80 -22q-77 -57 55 -133q60 -36 117 -66q58 -30 62 -33q188 -106 275 -106t87 55q0 37 -38 72t-128 80l-221 114q-78 39 -129 39z" />
    <glyph glyph-name="dieresis" unicode="&#xa8;" horiz-adv-x="681" 
d="M567 1450q66 0 113 -47t47 -113t-47 -114t-113 -48q-67 0 -113 48t-46 114t46 113t113 47zM117 1450q67 0 113 -47t46 -113t-47 -114t-113 -48t-112 48q-47 48 -47 114t47 113t113 47z" />
    <glyph glyph-name="copyright" unicode="&#xa9;" horiz-adv-x="1638" 
d="M1094 1090v-203h-37q-39 88 -91 137t-130 49t-107 -20q-57 -39 -57 -291t22 -316q23 -63 129 -63q180 0 246 195h43v-216h-47l-41 39q-100 -55 -195 -55q-163 0 -279 113t-116 276q0 115 116 243t267 128q113 0 195 -55l41 39h41zM816 1327q-249 0 -426 -182t-177 -435
q0 -254 179 -436t428 -182t427 186t178 439q0 252 -180 431t-429 179zM1548 713q0 -311 -216 -527t-517 -217q-301 0 -513 220q-212 221 -212 525t211 520t515 216t518 -213t214 -524z" />
    <glyph glyph-name="ordfeminine" unicode="&#xaa;" horiz-adv-x="819" 
d="M442 1028v123h-47q-48 0 -60 -31q-5 -12 -8 -19q-5 -12 -5 -46v-47q0 -102 51 -103q53 0 62 47q7 35 7 76zM377 1182h65v159q0 43 -15 59t-64 17q-49 0 -50 -14q0 -2 25 -28t24 -58q0 -98 -178 -98q-57 -1 -101 23t-44 75q0 133 332 133q272 0 347 -71q36 -34 36 -99
v-328q0 -31 22 -30q18 0 55 32v-43q-71 -77 -203 -77t-175 84q-82 -84 -258 -84q-86 0 -147 36q-60 37 -60 113q0 160 231 188q74 11 158 11z" />
    <glyph glyph-name="guillemotleft" unicode="&#xab;" horiz-adv-x="1138" 
d="M1024 823l-238 -331l248 -328h-252l-243 328l239 331h246zM592 823l-238 -331l248 -328h-252l-244 328l240 331h246z" />
    <glyph glyph-name="logicalnot" unicode="&#xac;" horiz-adv-x="1228" 
d="M893 246v360h-795v238h1032v-598h-237z" />
    <glyph glyph-name="uni00AD" unicode="&#xad;" horiz-adv-x="681" 
d="M629 336h-576v313h576v-313z" />
    <glyph glyph-name="registered" unicode="&#xae;" horiz-adv-x="1638" 
d="M737 1061v-291h47q90 0 120 20t30 76v143q0 19 -6 25t-20 16t-89 11h-82zM834 395v-33h-375v33h90v666h-92v35h452q96 0 165 -45t69 -129t-79 -123t-177 -47v-4q121 -20 173 -66t52 -127q0 -125 20 -145t91 -4l6 -25q-65 -33 -151 -33t-128 50q-41 50 -43 162t-25 145
q-24 31 -96 30h-49v-340h97zM816 1327q-249 0 -426 -182t-177 -435q0 -254 179 -436t428 -182t427 186t178 439q0 252 -180 431t-429 179zM1548 713q0 -311 -216 -527t-517 -217q-301 0 -513 220q-212 221 -212 525t211 520t515 216t518 -213t214 -524z" />
    <glyph glyph-name="macron" unicode="&#xaf;" horiz-adv-x="681" 
d="M705 1264h-723v186h723v-186z" />
    <glyph glyph-name="degree" unicode="&#xb0;" horiz-adv-x="819" 
d="M408 981q68 0 116 47t47 114q0 66 -48 114q-47 48 -115 48t-115 -48t-46 -114t47 -114q46 -47 114 -47zM717 1143q0 -127 -90 -217t-217 -90t-217 90t-91 217q-2 127 89 217t219 90t217 -90q90 -90 90 -217z" />
    <glyph glyph-name="plusminus" unicode="&#xb1;" horiz-adv-x="1228" 
d="M98 238h1032v-238h-1032v238zM733 307h-237v406h-398v237h398v391h237v-391h397v-237h-397v-406z" />
    <glyph glyph-name="twosuperior" unicode="&#xb2;" horiz-adv-x="819" 
d="M436 1216q0 84 -41 137q-41 54 -121 54q-30 0 -66 -10t-36 -31q0 -10 10 -10q55 -2 92 -38t37 -90t-42 -87t-104 -33t-104 40q-41 40 -41 97q0 97 102 151t247 54q223 0 322 -76t99 -180t-71 -160q-72 -56 -246 -98q-174 -41 -223 -68q-117 -55 -117 -104q0 -12 17 -12
q6 0 15 5q122 68 263 68q58 0 158 -15t138 -1t48 61h39q-2 -152 -102 -239q-78 -70 -250 -70q-61 0 -170 27t-156 26q-74 0 -86 -53h-41q-4 137 92 238q55 57 83 80t108 83t113 115q34 55 34 139z" />
    <glyph glyph-name="threesuperior" unicode="&#xb3;" horiz-adv-x="819" 
d="M338 997h-49q-27 1 -27 19t27 18h53q98 0 98 125v62q0 53 -6 90t-38 69t-89 33q-20 0 -58 -12t-38 -29q0 -2 35 -20q74 -33 73 -109q-1 -55 -39 -86t-98 -31t-101 37q-40 37 -40 91q0 144 238 187q55 9 125 9q185 0 302 -92q68 -54 68 -124q-1 -140 -174 -190
q-74 -14 -74 -20t12 -9t25 -5q14 -2 19 -4q221 -49 221 -205q0 -240 -424 -240q-362 0 -363 203q0 61 42 98t108 37t105 -35q40 -36 40 -98t-53 -98q-10 -8 -31 -20q-20 -12 -20 -23q4 -27 86 -27t117 50q34 50 34 168t-24 150q-25 31 -82 31z" />
    <glyph glyph-name="acute" unicode="&#xb4;" horiz-adv-x="681" 
d="M570 1450q34 0 73 -28t39 -74t-26 -80q-26 -35 -99 -78l-242 -143h-147l168 227q8 10 36 49t57 70q55 57 141 57z" />
    <glyph glyph-name="mu" unicode="&#xb5;" horiz-adv-x="1478" 
d="M1436 49v-49q-111 0 -315 -12t-275 -15v193q-60 -92 -144 -143t-133 -43q-61 10 -8 -101q10 -20 32 -60t17 -81q-6 -82 -69 -135t-161 -53t-164 50q-64 50 -58 143t63 151t25 94q-57 68 -83 146t-26 228v558h-108v49q115 0 325 11t277 13v-805q0 -82 74 -82q47 0 75 41
q46 67 47 177v596h-106v49q115 0 323 11t277 13v-944h115z" />
    <glyph glyph-name="paragraph" unicode="&#xb6;" horiz-adv-x="1740" 
d="M1450 1450v-158h-141v-1730h-172v1730h-179v-1730h-170v880q-186 0 -341 136t-154 370q0 233 154 368q155 134 341 134h662z" />
    <glyph glyph-name="periodcentered" unicode="&#xb7;" horiz-adv-x="681" 
d="M45 524q0 118 87 178t209 60t209 -60t87 -178q0 -117 -86 -177t-209 -60t-210 60t-87 177z" />
    <glyph glyph-name="cedilla" unicode="&#xb8;" horiz-adv-x="681" 
d="M282 -209q-36 0 -53 -12l-34 18l96 203h94l-57 -127q32 10 94 10t116 -36q54 -37 54 -107t-48 -115q-83 -78 -218 -79q-136 -1 -234 34l35 90q86 -27 123 -26q109 0 108 75q0 33 -20 53t-56 19z" />
    <glyph glyph-name="onesuperior" unicode="&#xb9;" horiz-adv-x="819" 
d="M700 580h-583v32h131v787h-121v33h227q53 0 128 8t100 10v-838h118v-32z" />
    <glyph glyph-name="ordmasculine" unicode="&#xba;" horiz-adv-x="819" 
d="M823 1149q0 -145 -118 -238q-102 -77 -295 -77q-194 0 -304 84t-110 231q0 66 37 129q101 172 377 172q275 0 376 -172q37 -63 37 -129zM344 1327v-369q0 -75 27 -89q13 -7 43 -7t38 9q20 22 21 37v419q0 29 -2 45t-17 32t-51 17q-36 0 -48 -25q-11 -26 -11 -69z" />
    <glyph glyph-name="guillemotright" unicode="&#xbb;" horiz-adv-x="1138" 
d="M352 492l-237 331h245l240 -331l-244 -328h-252zM784 492l-237 331h246l239 -331l-244 -328h-251z" />
    <glyph glyph-name="onequarter" unicode="&#xbc;" horiz-adv-x="2048" 
d="M686 -31h-123l922 1481h125zM737 580h-583v32h131v787h-121v33h227q53 0 128 8t99 10v-838h119v-32zM1126 279h330v378l-330 -364v-14zM1065 231v54l526 585h189v-591h114v-48h-114v-198h108v-33h-542v33h110v198h-391z" />
    <glyph glyph-name="onehalf" unicode="&#xbd;" horiz-adv-x="2048" 
d="M563 -31h-123l922 1481h125zM1520 624q0 84 -41 137q-41 54 -121 54q-31 0 -67 -10t-36 -31q0 -10 11 -10q55 -2 92 -38t37 -90t-42 -87q-43 -33 -105 -33t-103 40t-41 97q0 97 101 151t247 54q222 0 322 -76t100 -180t-72 -160t-246 -98q-174 -41 -223 -68
q-117 -55 -116 -104q0 -12 16 -12q6 0 24 10t81 37q107 46 335 10q96 -14 134 0t48 62h39q-2 -152 -102 -240q-78 -70 -250 -70q-62 0 -170 27t-155 27q-75 -1 -87 -54h-40q-7 180 198 336q20 17 92 71t106 109t34 139zM737 580h-583v32h131v787h-121v33h227q53 0 128 8
t99 10v-838h119v-32z" />
    <glyph glyph-name="threequarters" unicode="&#xbe;" horiz-adv-x="2048" 
d="M475 997h-49q-27 1 -27 19t27 18h53q98 0 99 125v62q0 53 -7 90q-5 37 -37 69t-90 33q-20 0 -58 -12t-38 -29q0 -2 35 -20q74 -32 74 -98t-39 -97q-40 -31 -100 -31t-100 37t-40 91q0 145 238 187q54 9 124 9q185 0 303 -92q69 -54 69 -124q-1 -140 -175 -190
q-73 -14 -73 -20t11 -9t25 -5t19 -4q221 -49 221 -205q0 -240 -424 -240q-362 0 -362 203q0 61 42 98t107 37t105 -35q40 -36 41 -98q0 -62 -54 -98q-10 -8 -31 -20q-20 -12 -20 -23q4 -27 86 -27t117 50t35 168t-25 150t-82 31zM727 -31h-123l922 1481h125zM1126 279h330
v378l-330 -364v-14zM1065 231v54l526 585h189v-591h114v-48h-114v-198h108v-33h-542v33h110v198h-391z" />
    <glyph glyph-name="questiondown" unicode="&#xbf;" horiz-adv-x="1251" 
d="M658 1034q122 0 209 -60t87 -177t-86 -177t-209 -60t-209 60t-88 177q0 117 87 177t209 60zM555 -93q0 -130 63 -207t183 -77q31 0 73 10t44 31q0 6 -4 10t-14 4q-9 0 -18 2t-34 5q-25 2 -43 8q-131 41 -131 198q0 99 75 159t178 60t181 -65q78 -66 78 -166t-53 -168
q-53 -69 -141 -101q-162 -59 -350 -60q-187 -1 -368 71q-92 37 -149 111t-57 174q0 155 125 233q60 38 251 115q109 47 149 95t42 161h67q11 -116 -26 -212q-14 -36 -39 -89q-82 -172 -82 -302z" />
    <glyph glyph-name="Agrave" unicode="&#xc0;" horiz-adv-x="1705" 
d="M512 1840q0 46 39 74t94 28t91 -33t46 -42t41 -53t35 -49l168 -227h-147l-242 143q-73 43 -99 78t-26 81zM408 0h-394v55h47q70 0 148 209l422 1155h428l506 -1364h112v-55h-909v55h147l-145 418h-414l-82 -219q-32 -76 -18 -120q24 -77 96 -79h56v-55zM750 528l-189 521
l-186 -521h375z" />
    <glyph glyph-name="Aacute" unicode="&#xc1;" horiz-adv-x="1705" 
d="M1194 1840q0 -46 -26 -81t-99 -78l-242 -143h-147l168 227q8 10 50 70t83 82q41 23 88 24t86 -27t39 -74zM408 0h-394v55h47q70 0 148 209l422 1155h428l506 -1364h112v-55h-909v55h147l-145 418h-414l-82 -219q-32 -76 -18 -120q24 -77 96 -79h56v-55zM750 528l-189 521
l-186 -521h375z" />
    <glyph glyph-name="Acircumflex" unicode="&#xc2;" horiz-adv-x="1705" 
d="M854 1720l-215 -190h-164l250 371h256l248 -371h-162zM408 0h-394v55h47q70 0 148 209l422 1155h428l506 -1364h112v-55h-909v55h147l-145 418h-414l-82 -219q-32 -76 -18 -120q24 -77 96 -79h56v-55zM750 528l-189 521l-186 -521h375z" />
    <glyph glyph-name="Atilde" unicode="&#xc3;" horiz-adv-x="1705" 
d="M991 1604q-77 0 -195 54t-151 54t-59 -31t-31 -69h-106q59 299 258 299q61 0 184 -51q115 -54 159 -54q72 -1 99 95h113q-32 -133 -92 -215t-179 -82zM408 0h-394v55h47q70 0 148 209l422 1155h428l506 -1364h112v-55h-909v55h147l-145 418h-414l-82 -219
q-32 -76 -18 -120q24 -77 96 -79h56v-55zM750 528l-189 521l-186 -521h375z" />
    <glyph glyph-name="Adieresis" unicode="&#xc4;" horiz-adv-x="1705" 
d="M1079 1901q66 1 113 -47t47 -114t-47 -113q-47 -48 -113 -48q-67 0 -113 48t-46 114t46 113t113 47zM629 1901q67 1 113 -47t46 -114t-47 -113q-47 -48 -113 -48t-112 48q-47 48 -47 114t47 113t113 47zM408 0h-394v55h47q70 0 148 209l422 1155h428l506 -1364h112v-55
h-909v55h147l-145 418h-414l-82 -219q-32 -76 -18 -120q24 -77 96 -79h56v-55zM750 528l-189 521l-186 -521h375z" />
    <glyph glyph-name="Aring" unicode="&#xc5;" horiz-adv-x="1705" 
d="M854 1849q-43 1 -75 -31q-31 -32 -31 -75t32 -75t74 -32q43 0 75 32t32 75t-32 75t-75 31zM854 1513q-94 0 -162 68t-67 162q0 94 67 162q68 67 162 67t162 -68t68 -161q0 -94 -68 -162t-162 -68zM408 0h-394v55h47q70 0 148 209l422 1155h428l506 -1364h112v-55h-909v55
h147l-145 418h-414l-82 -219q-32 -76 -18 -120q24 -77 96 -79h56v-55zM750 528l-189 521l-186 -521h375z" />
    <glyph glyph-name="AE" unicode="&#xc6;" horiz-adv-x="2048" 
d="M1413 1364v-621h35q66 0 140 70t85 209h68v-625h-68q-12 147 -86 219t-139 72h-35v-633h100q113 0 239 104q62 52 111 151q48 99 66 231h68v-541h-1348v55h158v477h-412l-145 -323q-33 -74 14 -114t94 -40h31v-55h-379v55q57 17 95 53t75 117l430 955q82 184 -102 184
h-57v55h1525v-506h-61q-68 272 -190 369q-102 82 -199 82h-113zM807 588v776h-41l-346 -776h387z" />
    <glyph glyph-name="Ccedilla" unicode="&#xc7;" horiz-adv-x="1478" 
d="M1389 1450v-504h-66q-49 160 -151 285t-242 125q-86 0 -129 -27q-99 -62 -99 -461v-395q0 -160 35 -252t85 -121t130 -28q158 0 262 120t136 285h63q-27 -244 -191 -376t-411 -132q-29 0 -39 2l-45 -98q31 10 93 10t117 -36q54 -37 54 -107t-48 -115q-83 -78 -218 -79
t-233 34l34 90q86 -27 123 -26q109 0 109 75q0 33 -20 53t-57 19q-36 0 -52 -12l-35 18l86 183q-289 40 -463 238t-174 506t216 517t529 209q113 0 275 -55q6 -3 42 -19t55 -16t65 26l110 64h54z" />
    <glyph glyph-name="Egrave" unicode="&#xc8;" horiz-adv-x="1478" 
d="M399 1840q0 46 39 74t95 28t91 -33q36 -33 46 -42t41 -53t34 -49l168 -227h-147l-242 143q-72 43 -98 78t-27 81zM10 0v55h152v1309h-152v55h1374l11 -497h-68q-47 188 -156 315t-264 127h-125v-621h35q65 0 139 70t86 209h68v-625h-68q-12 147 -86 219t-139 72h-35v-633
h140q283 0 430 486h61l-10 -541h-1393z" />
    <glyph glyph-name="Eacute" unicode="&#xc9;" horiz-adv-x="1478" 
d="M1081 1840q-1 -46 -27 -81t-98 -78l-241 -143h-148l168 227q8 10 50 70t81 81q98 55 176 -2q38 -28 39 -74zM10 0v55h152v1309h-152v55h1374l11 -497h-68q-47 188 -156 315t-264 127h-125v-621h35q65 0 139 70t86 209h68v-625h-68q-12 147 -86 219t-139 72h-35v-633h140
q283 0 430 486h61l-10 -541h-1393z" />
    <glyph glyph-name="Ecircumflex" unicode="&#xca;" horiz-adv-x="1478" 
d="M741 1720l-215 -190h-164l250 371h256l248 -371h-162zM10 0v55h152v1309h-152v55h1374l11 -497h-68q-47 188 -156 315t-264 127h-125v-621h35q65 0 139 70t86 209h68v-625h-68q-12 147 -86 219t-139 72h-35v-633h140q283 0 430 486h61l-10 -541h-1393z" />
    <glyph glyph-name="Edieresis" unicode="&#xcb;" horiz-adv-x="1478" 
d="M967 1901q67 1 113 -47t46 -114t-47 -113q-47 -48 -113 -48t-112 48q-47 48 -47 114t47 113t113 47zM516 1901q66 1 113 -47t47 -114t-47 -113q-47 -48 -113 -48t-113 48t-47 114t47 113t113 47zM10 0v55h152v1309h-152v55h1374l11 -497h-68q-47 188 -156 315t-264 127
h-125v-621h35q65 0 139 70t86 209h68v-625h-68q-12 147 -86 219t-139 72h-35v-633h140q283 0 430 486h61l-10 -541h-1393z" />
    <glyph glyph-name="Igrave" unicode="&#xcc;" horiz-adv-x="1024" 
d="M172 1840q0 46 39 74t94 28t91 -33t46 -42t41 -53t35 -49l168 -227h-147l-242 143q-73 43 -99 78t-26 81zM985 0h-946v55h156v1309h-156v55h946v-55h-156v-1309h156v-55z" />
    <glyph glyph-name="Iacute" unicode="&#xcd;" horiz-adv-x="1024" 
d="M854 1840q0 -46 -26 -81t-99 -78l-242 -143h-147l168 227q8 10 50 70t83 82q41 23 88 24t86 -27t39 -74zM985 0h-946v55h156v1309h-156v55h946v-55h-156v-1309h156v-55z" />
    <glyph glyph-name="Icircumflex" unicode="&#xce;" horiz-adv-x="1024" 
d="M514 1720l-215 -190h-164l250 371h256l248 -371h-162zM985 0h-946v55h156v1309h-156v55h946v-55h-156v-1309h156v-55z" />
    <glyph glyph-name="Idieresis" unicode="&#xcf;" horiz-adv-x="1024" 
d="M739 1901q66 1 113 -47t47 -114t-47 -113q-47 -48 -113 -48q-67 0 -113 48t-46 114t46 113t113 47zM289 1901q67 1 113 -47t46 -114t-46 -113q-48 -48 -114 -48t-112 48q-47 48 -47 114t47 113t113 47zM985 0h-946v55h156v1309h-156v55h946v-55h-156v-1309h156v-55z" />
    <glyph glyph-name="Eth" unicode="&#xd0;" horiz-adv-x="1705" 
d="M778 1364v-533h152v-104h-152v-672h90q76 -1 104 53t27 238v805q0 213 -157 213h-64zM10 0v55h152v672h-142v104h142v533h-148v55h889q340 0 546 -185t206 -523q1 -275 -141 -463t-435 -236q-78 -12 -354 -12h-715z" />
    <glyph glyph-name="Ntilde" unicode="&#xd1;" horiz-adv-x="1593" 
d="M936 1604q-76 0 -195 54t-151 54t-60 -31q-27 -31 -30 -69h-107q59 299 258 299q61 0 185 -51q115 -54 159 -54q72 -1 99 95h112q-31 -133 -91 -215t-179 -82zM426 0h-422v55h51q115 0 115 195v1005q-48 72 -76 91q-28 20 -59 20h-31v53h778l555 -760v603q0 42 -41 72
t-98 30h-41v55h422v-55h-61q-56 0 -79 -30q-22 -30 -24 -90t-2 -92v-1152h-344l-827 1139v-889q0 -195 118 -195h66v-55z" />
    <glyph glyph-name="Ograve" unicode="&#xd2;" horiz-adv-x="1705" 
d="M512 1840q0 46 39 74t94 28t91 -33t46 -42t41 -53t35 -49l168 -227h-147l-242 143q-73 43 -99 78t-26 81zM852 1450q332 0 568 -209t237 -531t-231 -532q-232 -209 -576 -209t-572 218t-229 524q0 221 114 392t295 259t394 88zM715 1133v-953q0 -66 36 -110
q35 -44 103 -45q68 0 102 44t35 111v953q0 189 -59 237q-31 25 -79 25t-78 -25q-60 -50 -60 -237z" />
    <glyph glyph-name="Oacute" unicode="&#xd3;" horiz-adv-x="1705" 
d="M1194 1840q0 -46 -26 -81t-99 -78l-242 -143h-147l168 227q8 10 50 70t83 82q41 23 88 24t86 -27t39 -74zM852 1450q332 0 568 -209t237 -531t-231 -532q-232 -209 -576 -209t-572 218t-229 524q0 221 114 392t295 259t394 88zM715 1133v-953q0 -66 36 -110
q35 -44 103 -45q68 0 102 44t35 111v953q0 189 -59 237q-31 25 -79 25t-78 -25q-60 -50 -60 -237z" />
    <glyph glyph-name="Ocircumflex" unicode="&#xd4;" horiz-adv-x="1705" 
d="M854 1720l-215 -190h-164l250 371h256l248 -371h-162zM852 1450q332 0 568 -209t237 -531t-231 -532q-232 -209 -576 -209t-572 218t-229 524q0 221 114 392t295 259t394 88zM715 1133v-953q0 -66 36 -110q35 -44 103 -45q68 0 102 44t35 111v953q0 189 -59 237
q-31 25 -79 25t-78 -25q-60 -50 -60 -237z" />
    <glyph glyph-name="Otilde" unicode="&#xd5;" horiz-adv-x="1705" 
d="M991 1604q-77 0 -195 54t-151 54t-59 -31t-31 -69h-106q59 299 258 299q61 0 184 -51q115 -54 159 -54q72 -1 99 95h113q-32 -133 -92 -215t-179 -82zM852 1450q332 0 568 -209t237 -531t-231 -532q-232 -209 -576 -209t-572 218t-229 524q0 221 114 392t295 259t394 88z
M715 1133v-953q0 -66 36 -110q35 -44 103 -45q68 0 102 44t35 111v953q0 189 -59 237q-31 25 -79 25t-78 -25q-60 -50 -60 -237z" />
    <glyph glyph-name="Odieresis" unicode="&#xd6;" horiz-adv-x="1705" 
d="M1079 1901q66 1 113 -47t47 -114t-47 -113q-47 -48 -113 -48q-67 0 -113 48t-46 114t46 113t113 47zM629 1901q67 1 113 -47t46 -114t-47 -113q-47 -48 -113 -48t-112 48q-47 48 -47 114t47 113t113 47zM852 1450q332 0 568 -209t237 -531t-231 -532q-232 -209 -576 -209
t-572 218t-229 524q0 221 114 392t295 259t394 88zM715 1133v-953q0 -66 36 -110q35 -44 103 -45q68 0 102 44t35 111v953q0 189 -59 237q-31 25 -79 25t-78 -25q-60 -50 -60 -237z" />
    <glyph glyph-name="multiply" unicode="&#xd7;" horiz-adv-x="1228" 
d="M444 524l-346 342l168 168l346 -342l351 346l167 -168l-350 -346l357 -356l-168 -168l-357 356l-350 -350l-168 168z" />
    <glyph glyph-name="Oslash" unicode="&#xd8;" horiz-adv-x="1705" 
d="M702 180q0 -66 37 -110t107 -45q70 0 104 44t35 111v666l-283 -428v-238zM1651 711q1 -324 -231 -533t-574 -209q-215 0 -381 88l-150 -225h-125l183 277q-156 104 -243 262q-87 157 -87 359t114 373t295 259q180 88 380 88t374 -74l121 180h129l-153 -231
q162 -100 255 -259t93 -355zM985 1133q0 189 -59 237q-31 25 -80 25t-80 -25q-60 -49 -64 -237v-525l283 430v95z" />
    <glyph glyph-name="Ugrave" unicode="&#xd9;" horiz-adv-x="1593" 
d="M496 1914q39 28 94 28t91 -33t46 -42t41 -53t35 -49l168 -227h-148l-241 143q-72 43 -99 78t-27 81t40 74zM10 1364v55h953v-55h-170v-1081q0 -102 65 -154q66 -51 176 -51q150 0 224 93t73 349v602q0 141 -28 192q-29 50 -103 50h-53v55h422v-55h-68q-47 0 -73 -54
t-25 -198v-731q0 -233 -209 -344q-127 -68 -385 -68q-145 1 -264 25t-166 47t-97 65q-106 90 -106 312v946h-166z" />
    <glyph glyph-name="Uacute" unicode="&#xda;" horiz-adv-x="1593" 
d="M1139 1840q-1 -46 -27 -81t-98 -78l-242 -143h-147l168 227q8 10 50 69t83 83q41 23 88 24t86 -27t39 -74zM10 1364v55h953v-55h-170v-1081q0 -102 65 -154q66 -51 176 -51q150 0 224 93t73 349v602q0 141 -28 192q-29 50 -103 50h-53v55h422v-55h-68q-47 0 -73 -54
t-25 -198v-731q0 -233 -209 -344q-127 -68 -385 -68q-145 1 -264 25t-166 47t-97 65q-106 90 -106 312v946h-166z" />
    <glyph glyph-name="Ucircumflex" unicode="&#xdb;" horiz-adv-x="1593" 
d="M799 1720l-215 -190h-164l250 371h256l248 -371h-162zM10 1364v55h953v-55h-170v-1081q0 -102 65 -154q66 -51 176 -51q150 0 224 93t73 349v602q0 141 -28 192q-29 50 -103 50h-53v55h422v-55h-68q-47 0 -73 -54t-25 -198v-731q0 -233 -209 -344q-127 -68 -385 -68
q-145 1 -264 25t-166 47t-97 65q-106 90 -106 312v946h-166z" />
    <glyph glyph-name="Udieresis" unicode="&#xdc;" horiz-adv-x="1593" 
d="M1024 1901q66 1 113 -47t47 -114t-47 -113q-47 -48 -113 -48t-113 48t-47 114t47 113t113 47zM573 1901q66 1 113 -47t47 -114t-47 -113q-47 -48 -113 -48q-67 0 -113 48t-46 114t46 113t113 47zM10 1364v55h953v-55h-170v-1081q0 -102 65 -154q66 -51 176 -51
q150 0 224 93t73 349v602q0 141 -28 192q-29 50 -103 50h-53v55h422v-55h-68q-47 0 -73 -54t-25 -198v-731q0 -233 -209 -344q-127 -68 -385 -68q-145 1 -264 25t-166 47t-97 65q-106 90 -106 312v946h-166z" />
    <glyph glyph-name="Yacute" unicode="&#xdd;" horiz-adv-x="1820" 
d="M1292 1840q0 -46 -26 -81t-99 -78l-241 -143h-148l168 227q8 10 50 70t81 81q99 55 177 -2q38 -28 38 -74zM25 1364v55h960v-55h-145l368 -610h13l241 422q66 114 19 151q-46 37 -99 37h-55v55h455v-55h-35q-96 0 -215 -205l-291 -500v-604h186v-55h-995v55h180v514
l-477 795h-110z" />
    <glyph glyph-name="Thorn" unicode="&#xde;" horiz-adv-x="1705" 
d="M786 1094v-727h78q147 0 148 227v295q0 84 -37 144t-123 61h-66zM10 0v55h160v1309h-156v55h963v-55h-191v-215h281q303 0 445 -123t142 -295t-142 -296t-445 -124h-281v-256h191v-55h-967z" />
    <glyph glyph-name="germandbls" unicode="&#xdf;" horiz-adv-x="1478" 
d="M776 115q0 -29 41 -29q51 0 51 80v463q0 113 -69 112h-45q-29 0 -29 29t27 29h47q35 0 35 61v475q0 33 -30 49q-70 37 -126 -3q-29 -19 -29 -44v-1337h-610v49h115v942q0 209 150 334q151 125 442 125t453 -91q63 -36 105 -101q42 -66 42 -144t-28 -131t-66 -84
q-81 -66 -337 -100v-25q211 -18 338 -106q156 -106 156 -301q0 -164 -119 -281t-312 -117t-273 121l65 49z" />
    <glyph glyph-name="agrave" unicode="&#xe0;" 
d="M342 1431q0 45 39 73t76 28t63 -7t54 -33t38 -35t41 -53t35 -48l168 -228h-147l-242 144q-73 43 -99 78t-26 81zM739 295v205h-73q-67 0 -89 -50t-22 -87v-103q0 -127 32 -155q17 -15 51 -15t64 23q37 28 37 182zM739 549v268q1 73 -23 99t-100 26t-75 -22q0 -6 38 -48
t37 -96q0 -164 -272 -164q-88 0 -157 40t-68 122q0 223 510 223q414 -1 534 -119q55 -54 56 -163v-549q0 -49 34 -49q26 0 38 10q11 10 17 13q6 4 16 16q11 12 13 14v-72q-111 -129 -319 -129q-96 0 -161 31t-101 111q-129 -141 -398 -142q-131 -1 -225 61t-94 189
q0 264 358 313q121 16 242 17h100z" />
    <glyph glyph-name="aacute" unicode="&#xe1;" 
d="M912 1532q34 0 73 -28t39 -74t-26 -80q-26 -35 -99 -78l-242 -144h-147l168 228q8 10 36 49t57 70q55 57 141 57zM739 295v205h-73q-67 0 -89 -50t-22 -87v-103q0 -127 32 -155q17 -15 51 -15t64 23q37 28 37 182zM739 549v268q1 73 -23 99t-100 26t-75 -22q0 -6 38 -48
t37 -96q0 -164 -272 -164q-88 0 -157 40t-68 122q0 223 510 223q414 -1 534 -119q55 -54 56 -163v-549q0 -49 34 -49q26 0 38 10q11 10 17 13q6 4 16 16q11 12 13 14v-72q-111 -129 -319 -129q-96 0 -161 31t-101 111q-129 -141 -398 -142q-131 -1 -225 61t-94 189
q0 264 358 313q121 16 242 17h100z" />
    <glyph glyph-name="acircumflex" unicode="&#xe2;" 
d="M684 1270l-215 -191h-164l250 371h256l248 -371h-162zM739 295v205h-73q-67 0 -89 -50t-22 -87v-103q0 -127 32 -155q17 -15 51 -15t64 23q37 28 37 182zM739 549v268q1 73 -23 99t-100 26t-75 -22q0 -6 38 -48t37 -96q0 -164 -272 -164q-88 0 -157 40t-68 122
q0 223 510 223q414 -1 534 -119q55 -54 56 -163v-549q0 -49 34 -49q26 0 38 10q11 10 17 13q6 4 16 16q11 12 13 14v-72q-111 -129 -319 -129q-96 0 -161 31t-101 111q-129 -141 -398 -142q-131 -1 -225 61t-94 189q0 264 358 313q121 16 242 17h100z" />
    <glyph glyph-name="atilde" unicode="&#xe3;" 
d="M821 1153q-77 0 -195 54q-118 55 -151 55t-59 -31t-31 -70h-106q59 299 258 299q61 0 184 -51q115 -53 159 -53q72 0 99 94h113q-32 -133 -92 -215t-179 -82zM739 295v205h-73q-67 0 -89 -50t-22 -87v-103q0 -127 32 -155q17 -15 51 -15t64 23q37 28 37 182zM739 549v268
q1 73 -23 99t-100 26t-75 -22q0 -6 38 -48t37 -96q0 -164 -272 -164q-88 0 -157 40t-68 122q0 223 510 223q414 -1 534 -119q55 -54 56 -163v-549q0 -49 34 -49q26 0 38 10q11 10 17 13q6 4 16 16q11 12 13 14v-72q-111 -129 -319 -129q-96 0 -161 31t-101 111
q-129 -141 -398 -142q-131 -1 -225 61t-94 189q0 264 358 313q121 16 242 17h100z" />
    <glyph glyph-name="adieresis" unicode="&#xe4;" 
d="M909 1450q66 0 113 -47t47 -113t-47 -114t-113 -48q-67 0 -113 48t-46 114t46 113t113 47zM459 1450q67 0 113 -47t46 -113t-47 -114t-113 -48t-112 48q-47 48 -47 114t47 113t113 47zM739 295v205h-73q-67 0 -89 -50t-22 -87v-103q0 -127 32 -155q17 -15 51 -15t64 23
q37 28 37 182zM739 549v268q1 73 -23 99t-100 26t-75 -22q0 -6 38 -48t37 -96q0 -164 -272 -164q-88 0 -157 40t-68 122q0 223 510 223q414 -1 534 -119q55 -54 56 -163v-549q0 -49 34 -49q26 0 38 10q11 10 17 13q6 4 16 16q11 12 13 14v-72q-111 -129 -319 -129
q-96 0 -161 31t-101 111q-129 -141 -398 -142q-131 -1 -225 61t-94 189q0 264 358 313q121 16 242 17h100z" />
    <glyph glyph-name="aring" unicode="&#xe5;" 
d="M664 1450q-43 0 -75 -32t-32 -75t32 -75t75 -31q42 0 74 32q32 33 32 75t-32 74t-74 32zM664 1114q-94 0 -162 68t-68 162t68 161q68 68 162 68t162 -68t67 -162q1 -93 -67 -161t-162 -68zM739 295v205h-73q-67 0 -89 -50t-22 -87v-103q0 -127 32 -155q17 -15 51 -15
t64 23q37 28 37 182zM739 549v268q1 73 -23 99t-100 26t-75 -22q0 -6 38 -48t37 -96q0 -164 -272 -164q-88 0 -157 40t-68 122q0 223 510 223q414 -1 534 -119q55 -54 56 -163v-549q0 -49 34 -49q26 0 38 10q11 10 17 13q6 4 16 16q11 12 13 14v-72q-111 -129 -319 -129
q-96 0 -161 31t-101 111q-129 -141 -398 -142q-131 -1 -225 61t-94 189q0 264 358 313q121 16 242 17h100z" />
    <glyph glyph-name="ae" unicode="&#xe6;" horiz-adv-x="1933" 
d="M737 190v312q-63 6 -102 -5q-59 -17 -73 -119q-3 -30 -3 -70v-46q0 -4 -2 -44t3 -85t27 -60q21 -15 50 -16q100 0 100 133zM737 545v299q0 104 -108 104q-72 0 -72 -30q0 -2 31 -44q30 -42 30 -101q0 -58 -46 -99q-74 -66 -220 -68q-229 0 -229 162q0 229 467 229
q205 0 383 -82q147 82 334 82q254 1 427 -163t158 -414h-678v-92q0 -143 50 -218t177 -75q243 0 382 223l43 -27q-174 -262 -510 -262q-225 0 -373 117q-195 -117 -547 -117q-393 0 -393 267q0 106 85 180q148 129 409 129h200zM1298 948q-84 0 -84 -145v-334h177v283
q0 6 1 32t0 39l-3 36q-2 29 -19 53q-16 24 -32 30t-40 6z" />
    <glyph glyph-name="ccedilla" unicode="&#xe7;" horiz-adv-x="1251" 
d="M657 -31h-2l-43 -96q32 10 94 10t116 -36q54 -37 54 -107t-48 -115q-84 -78 -218 -79q-135 -1 -233 34l35 90q86 -27 123 -26q109 0 108 75q0 33 -20 53q-21 20 -57 19q-36 0 -52 -12l-35 18l84 178q-242 23 -386 156t-144 348q0 168 98 290q183 228 549 228
q274 0 394 -95t120 -236q0 -102 -65 -164t-161 -64q-96 0 -160 60q-65 60 -65 144q0 85 38 132q39 48 93 74t54 37q0 27 -48 41t-85 14q-133 0 -166 -56q-50 -85 -54 -153q-4 -69 -9 -153q-13 -219 32 -380q14 -50 37 -79q54 -68 170 -70q229 0 348 250l47 -25
q-133 -305 -543 -305z" />
    <glyph glyph-name="egrave" unicode="&#xe8;" horiz-adv-x="1251" 
d="M324 1504q39 28 95 28t91 -33t45 -42t41 -53t35 -48l168 -228h-148l-241 144q-72 43 -99 78t-27 81q0 45 40 73zM545 469h176v283q0 6 1 32t0 39l-3 36q-3 33 -23 61q-21 28 -61 28t-51 -13q-12 -13 -26 -33t-13 -99v-334zM545 420v-86q0 -141 45 -217t165 -76t218 60
t168 155l39 -27q-180 -260 -516 -260q-207 0 -336 56q-299 127 -299 458q0 238 168 376q169 138 425 138q256 -1 420 -155t162 -422h-659z" />
    <glyph glyph-name="eacute" unicode="&#xe9;" horiz-adv-x="1251" 
d="M854 1532q34 0 74 -28q39 -28 39 -74q-1 -46 -27 -80q-26 -35 -98 -78l-242 -144h-147l168 228q8 10 34 47t59 72q54 57 140 57zM545 469h176v283q0 6 1 32t0 39l-3 36q-3 33 -23 61q-21 28 -61 28t-51 -13q-12 -13 -26 -33t-13 -99v-334zM545 420v-86q0 -141 45 -217
t165 -76t218 60t168 155l39 -27q-180 -260 -516 -260q-207 0 -336 56q-299 127 -299 458q0 238 168 376q169 138 425 138q256 -1 420 -155t162 -422h-659z" />
    <glyph glyph-name="ecircumflex" unicode="&#xea;" horiz-adv-x="1251" 
d="M627 1270l-215 -191h-164l250 371h256l247 -371h-161zM545 469h176v283q0 6 1 32t0 39l-3 36q-3 33 -23 61q-21 28 -61 28t-51 -13q-12 -13 -26 -33t-13 -99v-334zM545 420v-86q0 -141 45 -217t165 -76t218 60t168 155l39 -27q-180 -260 -516 -260q-207 0 -336 56
q-299 127 -299 458q0 238 168 376q169 138 425 138q256 -1 420 -155t162 -422h-659z" />
    <glyph glyph-name="edieresis" unicode="&#xeb;" horiz-adv-x="1251" 
d="M852 1450q66 0 113 -47t47 -113t-47 -114t-113 -48t-113 48t-47 114t47 113t113 47zM401 1450q66 0 113 -47t47 -113t-47 -114t-113 -48q-67 0 -113 48t-46 114t46 113t113 47zM545 469h176v283q0 6 1 32t0 39l-3 36q-3 33 -23 61q-21 28 -61 28t-51 -13q-12 -13 -26 -33
t-13 -99v-334zM545 420v-86q0 -141 45 -217t165 -76t218 60t168 155l39 -27q-180 -260 -516 -260q-207 0 -336 56q-299 127 -299 458q0 238 168 376q169 138 425 138q256 -1 420 -155t162 -422h-659z" />
    <glyph glyph-name="igrave" unicode="&#xec;" horiz-adv-x="796" 
d="M57 1431q0 45 39 73t96 28t91 -33q35 -33 45 -42t41 -53t34 -48l168 -228h-147l-242 144q-72 43 -98 78t-27 81zM754 0h-725v49h112v871h-108v49q117 0 329 11t283 13v-944h109v-49z" />
    <glyph glyph-name="iacute" unicode="&#xed;" horiz-adv-x="796" 
d="M627 1532q35 0 73 -28t39 -74q-1 -46 -27 -80q-26 -35 -98 -78l-241 -144h-148l168 228q8 10 33 46t70 83t131 47zM754 0h-725v49h112v871h-108v49q117 0 329 11t283 13v-944h109v-49z" />
    <glyph glyph-name="icircumflex" unicode="&#xee;" horiz-adv-x="796" 
d="M399 1270l-215 -191h-164l250 371h256l248 -371h-162zM754 0h-725v49h112v871h-108v49q117 0 329 11t283 13v-944h109v-49z" />
    <glyph glyph-name="idieresis" unicode="&#xef;" horiz-adv-x="796" 
d="M625 1450q67 0 113 -47t46 -113t-47 -114t-113 -48t-112 48q-47 48 -47 114t47 113t113 47zM174 1450q66 0 113 -47t47 -113t-47 -114t-113 -48t-113 48t-47 114t47 113t113 47zM754 0h-725v49h112v871h-108v49q117 0 329 11t283 13v-944h109v-49z" />
    <glyph glyph-name="eth" unicode="&#xf0;" 
d="M573 793v-615q-1 -105 15 -122q33 -36 83 -37q49 -1 71 25t26 54t4 80v615q0 120 -41 143q-20 12 -60 12t-64 -26t-29 -56q-5 -28 -5 -73zM678 -31q-299 0 -455 131q-184 156 -184 396q0 119 54 217q95 173 328 252q99 33 197 33t144 -33l4 4q-29 143 -115 235l-264 -147
l-78 84l248 139q-33 24 -113 52t-172 38l82 111q301 -35 404 -84l278 155l80 -88l-231 -127q420 -231 428 -764q4 -279 -166 -441t-469 -163z" />
    <glyph glyph-name="ntilde" unicode="&#xf1;" horiz-adv-x="1478" 
d="M951 1356q58 0 85 94h113q-31 -133 -91 -215t-179 -82q-76 0 -195 54q-120 55 -152 55t-59 -31t-31 -70h-106q59 299 258 299q61 0 184 -51q115 -53 173 -53zM756 848q-59 0 -92 -66t-33 -129v-604h71v-49h-677v49h112v871h-108v49q115 0 325 11t277 13v-192
q57 92 153 144t205 52q158 0 245 -85t87 -294v-569h111v-49h-674v49h71v619l2 75q0 105 -75 105z" />
    <glyph glyph-name="ograve" unicode="&#xf2;" 
d="M342 1431q0 45 39 73t76 28t63 -7t54 -33t38 -35t41 -53t35 -48l168 -228h-147l-242 144q-73 43 -99 78t-26 81zM676 997q266 0 432 -116q92 -63 148 -169t57 -216q0 -240 -185 -396q-156 -131 -452 -131t-453 131q-184 156 -184 396q0 111 56 216t149 169
q166 116 432 116zM573 793v-615q-1 -105 15 -122q49 -54 128 -34q17 4 27 15q9 10 21 21q12 12 10 62t-2 58v615q0 120 -41 143q-20 12 -60 12t-64 -26t-29 -56q-5 -28 -5 -73z" />
    <glyph glyph-name="oacute" unicode="&#xf3;" 
d="M912 1532q34 0 73 -28t39 -74t-26 -80q-26 -35 -99 -78l-242 -144h-147l168 228q8 10 36 49t57 70q55 57 141 57zM676 997q266 0 432 -116q92 -63 148 -169t57 -216q0 -240 -185 -396q-156 -131 -452 -131t-453 131q-184 156 -184 396q0 111 56 216t149 169
q166 116 432 116zM573 793v-615q-1 -105 15 -122q49 -54 128 -34q17 4 27 15q9 10 21 21q12 12 10 62t-2 58v615q0 120 -41 143q-20 12 -60 12t-64 -26t-29 -56q-5 -28 -5 -73z" />
    <glyph glyph-name="ocircumflex" unicode="&#xf4;" 
d="M684 1270l-215 -191h-164l250 371h256l248 -371h-162zM676 997q266 0 432 -116q92 -63 148 -169t57 -216q0 -240 -185 -396q-156 -131 -452 -131t-453 131q-184 156 -184 396q0 111 56 216t149 169q166 116 432 116zM573 793v-615q-1 -105 15 -122q49 -54 128 -34
q17 4 27 15q9 10 21 21q12 12 10 62t-2 58v615q0 120 -41 143q-20 12 -60 12t-64 -26t-29 -56q-5 -28 -5 -73z" />
    <glyph glyph-name="otilde" unicode="&#xf5;" 
d="M821 1153q-77 0 -195 54q-118 55 -151 55t-59 -31t-31 -70h-106q59 299 258 299q61 0 184 -51q115 -53 159 -53q72 0 99 94h113q-32 -133 -92 -215t-179 -82zM676 997q266 0 432 -116q92 -63 148 -169t57 -216q0 -240 -185 -396q-156 -131 -452 -131t-453 131
q-184 156 -184 396q0 111 56 216t149 169q166 116 432 116zM573 793v-615q-1 -105 15 -122q49 -54 128 -34q17 4 27 15q9 10 21 21q12 12 10 62t-2 58v615q0 120 -41 143q-20 12 -60 12t-64 -26t-29 -56q-5 -28 -5 -73z" />
    <glyph glyph-name="odieresis" unicode="&#xf6;" 
d="M909 1450q66 0 113 -47t47 -113t-47 -114t-113 -48q-67 0 -113 48t-46 114t46 113t113 47zM459 1450q67 0 113 -47t46 -113t-47 -114t-113 -48t-112 48q-47 48 -47 114t47 113t113 47zM676 997q266 0 432 -116q92 -63 148 -169t57 -216q0 -240 -185 -396
q-156 -131 -452 -131t-453 131q-184 156 -184 396q0 111 56 216t149 169q166 116 432 116zM573 793v-615q-1 -105 15 -122q49 -54 128 -34q17 4 27 15q9 10 21 21q12 12 10 62t-2 58v615q0 120 -41 143q-20 12 -60 12t-64 -26t-29 -56q-5 -28 -5 -73z" />
    <glyph glyph-name="divide" unicode="&#xf7;" horiz-adv-x="1228" 
d="M614 322q66 0 113 -48t47 -112q0 -66 -47 -114t-113 -48t-114 48t-47 114q-1 66 47 113t114 47zM614 1034q66 0 113 -47t47 -113t-47 -114t-113 -47q-66 0 -114 48q-48 47 -47 113q-1 66 47 113t114 47zM98 406v237h1032v-237h-1032z" />
    <glyph glyph-name="oslash" unicode="&#xf8;" 
d="M772 178v406l-199 -318v-88q-1 -105 15 -122q49 -54 128 -34q17 4 27 15q9 10 21 21q12 12 10 62t-2 58zM1313 496q0 -240 -185 -396q-156 -131 -452 -131q-143 0 -266 35l-156 -248h-113l176 283q-129 69 -203 189t-75 250q0 130 56 234q56 105 149 169q166 117 432 116
q121 1 221 -26l145 233h119l-166 -264q145 -57 231 -179t87 -265zM573 793v-342l199 319v23q0 120 -41 143q-20 12 -60 12t-64 -26t-29 -56q-5 -28 -5 -73z" />
    <glyph glyph-name="ugrave" unicode="&#xf9;" horiz-adv-x="1478" 
d="M399 1431q0 45 39 73t96 28t91 -33q35 -33 45 -42t41 -53t34 -48l168 -228h-147l-242 144q-72 43 -98 78t-27 81zM1436 49v-49q-111 0 -315 -12t-275 -15v193q-129 -197 -375 -197q-174 0 -254 84t-80 309v558h-108v49q115 0 325 11t277 13v-805q0 -82 74 -82q47 0 77 41
q48 66 47 177v596h-108v49q115 0 323 11t277 13v-944h115z" />
    <glyph glyph-name="uacute" unicode="&#xfa;" horiz-adv-x="1478" 
d="M969 1532q35 0 73 -28t39 -74q-1 -46 -27 -80q-26 -35 -98 -78l-241 -144h-148l168 228q8 10 33 46t70 83t131 47zM1436 49v-49q-111 0 -315 -12t-275 -15v193q-129 -197 -375 -197q-174 0 -254 84t-80 309v558h-108v49q115 0 325 11t277 13v-805q0 -82 74 -82
q47 0 77 41q48 66 47 177v596h-108v49q115 0 323 11t277 13v-944h115z" />
    <glyph glyph-name="ucircumflex" unicode="&#xfb;" horiz-adv-x="1478" 
d="M741 1270l-215 -191h-164l250 371h256l248 -371h-162zM1436 49v-49q-111 0 -315 -12t-275 -15v193q-129 -197 -375 -197q-174 0 -254 84t-80 309v558h-108v49q115 0 325 11t277 13v-805q0 -82 74 -82q47 0 77 41q48 66 47 177v596h-108v49q115 0 323 11t277 13v-944h115z
" />
    <glyph glyph-name="udieresis" unicode="&#xfc;" horiz-adv-x="1478" 
d="M967 1450q67 0 113 -47t46 -113t-47 -114t-113 -48t-112 48q-47 48 -47 114t47 113t113 47zM516 1450q66 0 113 -47t47 -113t-47 -114t-113 -48t-113 48t-47 114t47 113t113 47zM1436 49v-49q-111 0 -315 -12t-275 -15v193q-129 -197 -375 -197q-174 0 -254 84t-80 309
v558h-108v49q115 0 325 11t277 13v-805q0 -82 74 -82q47 0 77 41q48 66 47 177v596h-108v49q115 0 323 11t277 13v-944h115z" />
    <glyph glyph-name="yacute" unicode="&#xfd;" horiz-adv-x="1478" 
d="M1010 1532q36 0 74 -28t38 -74t-26 -80q-26 -35 -99 -78l-241 -144h-148l168 228q8 10 33 46t70 83t131 47zM1071 920v49h356v-49q-98 0 -204 -183l-437 -735q-125 -207 -200 -295q-141 -158 -310 -158q-100 1 -170 63t-70 150t60 140q60 51 138 51t133 -44t55 -118
t-66 -123q-24 -17 -24 -33q0 -15 26 -16q62 1 142 71t211 296l-570 934h-112v49h782v-49h-119l287 -469l188 315q33 55 18 89t-41 49t-46 16h-27z" />
    <glyph glyph-name="thorn" unicode="&#xfe;" 
d="M10 -451v50h109v1771h-109v49q164 -1 349 13q186 14 247 18v-610h4q88 158 287 158t311 -154t111 -362q0 -208 -111 -360t-315 -153q-92 0 -166 43t-117 107h-4v-520h152v-50h-748zM606 651v-319q0 -114 32 -178t77 -64t62 51t18 191v319q0 177 -32 207q-15 14 -42 14
q-53 0 -84 -58t-31 -163z" />
    <glyph glyph-name="ydieresis" unicode="&#xff;" horiz-adv-x="1478" 
d="M1090 1450q66 0 112 -47t47 -113q0 -66 -47 -114q-46 -48 -112 -48t-113 48t-47 114t47 113t113 47zM639 1450q66 0 113 -47t47 -113t-47 -114t-113 -48t-113 48t-47 114t47 113t113 47zM1071 920v49h356v-49q-98 0 -204 -183l-437 -735q-125 -207 -200 -295
q-141 -158 -310 -158q-100 1 -170 63t-70 150t60 140q60 51 138 51t133 -44t55 -118t-66 -123q-24 -17 -24 -33q0 -15 26 -16q62 1 142 71t211 296l-570 934h-112v49h782v-49h-119l287 -469l188 315q33 55 18 89t-41 49t-46 16h-27z" />
    <glyph glyph-name="dotlessi" unicode="&#x131;" horiz-adv-x="796" 
d="M754 0h-725v49h112v871h-108v49q117 0 329 11t283 13v-944h109v-49z" />
    <glyph glyph-name="Lslash" unicode="&#x141;" horiz-adv-x="1478" 
d="M793 55h94q220 0 326 161q52 79 82 157t57 190h59v-563h-1401v55h156v543l-121 -53l-35 69l156 70v680h-156v55h963v-55h-180v-399l198 88l35 -70l-233 -104v-824z" />
    <glyph glyph-name="lslash" unicode="&#x142;" horiz-adv-x="796" 
d="M643 49h115v-49h-725v49h114v696l-90 -36l-24 57l114 45v559h-118v49q115 1 323 15t291 16v-440l127 51l25 -57l-152 -62v-893z" />
    <glyph glyph-name="OE" unicode="&#x152;" horiz-adv-x="2048" 
d="M1546 1364h-96v-621h35q65 0 139 70t86 209h68v-625h-68q-12 147 -86 219t-139 72h-35v-633h90q90 0 164 44t121 119q92 146 123 319h69v-537h-1011q-310 0 -412 11t-207 65q-377 188 -358 653q12 315 185 501t497 189h1280v-506h-62q-20 127 -72 223q-82 151 -226 207
q-50 21 -85 21zM856 162v1112q0 38 -27 64t-65 26q-80 0 -94 -79q-11 -55 -11 -128v-840q0 -6 -2 -75t9 -99q12 -30 23 -52q20 -40 73 -40q94 0 94 111z" />
    <glyph glyph-name="oe" unicode="&#x153;" horiz-adv-x="1933" 
d="M1221 420v-144q0 -236 245 -235q215 0 369 219l41 -24q-158 -266 -537 -267q-190 0 -335 76q-174 -76 -347 -76q-297 0 -452 131q-184 156 -185 396q0 111 57 216q153 287 580 285q113 0 328 -65q145 66 334 65q254 0 423 -162q168 -163 154 -415h-675zM1221 469h176v283
q0 6 1 32t0 39l-3 36q-2 29 -23 59q-20 30 -60 30t-52 -13t-26 -34q-13 -21 -13 -98v-334zM555 793v-615q0 -106 15 -122q32 -36 83 -37t66 13q16 15 27 26t10 62q-2 50 -2 58v615q0 118 -41 143q-21 12 -61 12t-64 -26t-28 -56q-5 -28 -5 -73z" />
    <glyph glyph-name="Scaron" unicode="&#x160;" 
d="M684 1714l215 187h164l-252 -367h-256l-250 367h164zM664 -31q-134 0 -312 97l-221 -97h-51l-14 508h65q84 -197 235 -325t347 -127q76 -1 136 33t60 107t-57 118q-79 62 -168 92l-156 69q-449 201 -448 535q0 219 140 345t362 126q154 0 327 -84l221 84h48l16 -469h-55
q-83 180 -225 297t-324 117q-66 0 -120 -35t-54 -100t64 -113t153 -84l418 -213q102 -53 173 -169q70 -116 70 -247t-53 -224t-144 -143t-195 -74t-238 -24z" />
    <glyph glyph-name="scaron" unicode="&#x161;" horiz-adv-x="1024" 
d="M514 1264l215 186h164l-252 -367h-256l-250 367h164zM702 106q0 60 -64 90t-184 69q-199 64 -303 152t-104 244q0 157 113 247t268 89q102 0 285 -61l159 61h46l12 -350h-47q-55 123 -170 212t-239 89t-124 -96q0 -34 20 -50t32 -24q11 -8 34 -17t31 -13t33 -12t26 -9
l219 -80q107 -39 169 -127t63 -205q0 -184 -131 -276q-102 -70 -303 -70q-61 1 -145 29t-113 37l-168 -66h-56l-14 375h39q56 -131 196 -228q140 -98 280 -98t140 88z" />
    <glyph glyph-name="Ydieresis" unicode="&#x178;" horiz-adv-x="1820" 
d="M1260 1901q66 1 112 -47t47 -114q0 -66 -47 -113q-46 -48 -112 -48t-113 48t-47 114t47 113t113 47zM809 1901q66 1 113 -47t47 -114t-47 -113q-47 -48 -113 -48t-113 48t-47 114t47 113t113 47zM25 1364v55h960v-55h-145l368 -610h13l241 422q66 114 19 151
q-46 37 -99 37h-55v55h455v-55h-35q-96 0 -215 -205l-291 -500v-604h186v-55h-995v55h180v514l-477 795h-110z" />
    <glyph glyph-name="Zcaron" unicode="&#x17d;" horiz-adv-x="1478" 
d="M741 1714l215 187h164l-252 -367h-256l-250 367h164zM1399 1419v-63l-662 -1301h119q158 0 291 122t184 366h68l-17 -543h-1325v78l652 1286h-70q-180 0 -309 -127t-180 -317h-60l25 499h1284z" />
    <glyph glyph-name="zcaron" unicode="&#x17e;" horiz-adv-x="1251" 
d="M627 1264l215 186h164l-252 -367h-256l-250 367h164zM1180 969v-49l-566 -871h93q307 0 426 336h53l-23 -385h-1120v49l563 871h-80q-94 0 -197 -77t-165 -241h-45l10 367h1051z" />
    <glyph glyph-name="florin" unicode="&#x192;" 
d="M1303 1069q-59 0 -90 38q-29 38 -17 98t61 95q35 30 41 48t-21 32q-28 14 -56 15q-79 0 -135 -88t-74 -179l-56 -262h281l-14 -69h-281l-59 -293q-47 -226 -143 -406t-211 -282q-234 -209 -423 -209q-108 0 -180 52t-51 155q15 68 69 114t118 47q64 0 101 -35
q36 -36 21 -101t-79 -117q-22 -17 -23 -21q-8 -39 47 -39q162 0 225 326l117 557q10 57 45 149t37 103h-274l14 69h291q45 104 109 203q253 381 555 381q112 0 189 -60t54 -167q-31 -154 -188 -154z" />
    <glyph glyph-name="circumflex" unicode="&#x2c6;" horiz-adv-x="681" 
d="M342 1270l-215 -191h-164l250 371h256l248 -371h-162z" />
    <glyph glyph-name="caron" unicode="&#x2c7;" horiz-adv-x="681" 
d="M342 1264l215 186h164l-252 -367h-256l-250 367h164z" />
    <glyph glyph-name="uni02C9" unicode="&#x2c9;" horiz-adv-x="681" 
d="M705 1264h-723v186h723v-186z" />
    <glyph glyph-name="breve" unicode="&#x2d8;" horiz-adv-x="681" 
d="M338 1294q196 0 219 156h119q-10 -164 -96 -255t-245 -91t-244 95t-81 251h119q13 -156 209 -156z" />
    <glyph glyph-name="dotaccent" unicode="&#x2d9;" horiz-adv-x="681" 
d="M342 1450q66 0 113 -47t47 -113t-47 -114t-113 -48t-113 48t-47 114t47 113t113 47z" />
    <glyph glyph-name="ring" unicode="&#x2da;" horiz-adv-x="681" 
d="M342 1327q-43 0 -75 -32q-31 -33 -31 -75t32 -74t74 -32q43 0 75 32t32 75t-32 75t-75 31zM342 991q-94 0 -162 68t-67 162q-1 93 67 161t162 68t162 -68t68 -162t-68 -161q-68 -68 -162 -68z" />
    <glyph glyph-name="ogonek" unicode="&#x2db;" horiz-adv-x="681" 
d="M356 0h127l-16 -31l-80 -16q-41 -8 -67 -46t-17 -83q8 -63 113 -74q42 0 70 18q66 42 75 50l47 -82q-82 -82 -158 -108t-186 -21q-137 6 -180 131q-35 104 46 183t226 79z" />
    <glyph glyph-name="tilde" unicode="&#x2dc;" horiz-adv-x="681" 
d="M479 1153q-77 0 -195 54q-118 55 -151 55t-59 -31t-31 -70h-106q59 299 258 299q61 0 184 -51q115 -53 159 -53q72 0 99 94h113q-32 -133 -92 -215t-179 -82z" />
    <glyph glyph-name="hungarumlaut" unicode="&#x2dd;" horiz-adv-x="681" 
d="M682 1450q34 0 74 -28q39 -28 39 -74q-1 -46 -27 -80q-26 -35 -98 -78l-242 -143h-147l168 227q8 10 34 47t59 72q54 57 140 57zM291 1450q35 0 74 -28t39 -74t-27 -80q-26 -35 -98 -78l-242 -143h-148l168 227q8 10 34 47t60 72q55 57 140 57z" />
    <glyph glyph-name="uni03A9" unicode="&#x3a9;" horiz-adv-x="1781" 
d="M1151 798q0 282 -65 411q-66 128 -202 128t-196 -120q-59 -121 -59 -412t217 -739l-21 -66h-684l-61 430h100q39 -86 76 -113t121 -26h186q-156 86 -271 194q-144 138 -142 338q0 287 203 455q204 168 539 168q334 0 536 -166t202 -446q0 -185 -133 -314t-301 -229h227
q72 -1 107 27t72 112h102l-76 -430h-672l-28 63q223 453 223 735z" />
    <glyph glyph-name="uni03BC" unicode="&#x3bc;" horiz-adv-x="1478" 
d="M1436 49v-49q-111 0 -315 -12t-275 -15v193q-60 -92 -144 -143t-133 -43q-61 10 -8 -101q10 -20 32 -60t17 -81q-6 -82 -69 -135t-161 -53t-164 50q-64 50 -58 143t63 151t25 94q-57 68 -83 146t-26 228v558h-108v49q115 0 325 11t277 13v-805q0 -82 74 -82q47 0 75 41
q46 67 47 177v596h-106v49q115 0 323 11t277 13v-944h115z" />
    <glyph glyph-name="pi" unicode="&#x3c0;" horiz-adv-x="1462" 
d="M1245 195q16 0 86 18l31 -82q-49 -63 -145 -111t-207 -49q-111 0 -192 70q-81 71 -81 237t21 408l-211 4v-4q0 -498 -150 -674q-102 -35 -188 -41l-27 64q109 154 165 334t56 325q-100 2 -159 -9t-140 -54l-47 90q29 43 69 94t51 59t36 31t44 31t49 21q74 32 189 32
t349 -4l340 -2q102 0 147 76l82 -21q-2 -78 -38 -194t-64 -146q-57 -18 -146 -18q-12 -139 -10 -312t90 -173z" />
    <glyph glyph-name="endash" unicode="&#x2013;" horiz-adv-x="1024" 
d="M1024 336h-1024v313h1024v-313z" />
    <glyph glyph-name="emdash" unicode="&#x2014;" horiz-adv-x="2048" 
d="M2048 336h-2048v313h2048v-313z" />
    <glyph glyph-name="quoteleft" unicode="&#x2018;" horiz-adv-x="681" 
d="M121 1040q0 -40 49 2q52 52 196 52t218 -73t74 -179t-88 -164q-86 -60 -224 -60t-228 92t-91 242q0 207 158 337q159 130 378 161l8 -53q-109 -23 -203 -64t-171 -119q-76 -78 -76 -174z" />
    <glyph glyph-name="quoteright" unicode="&#x2019;" horiz-adv-x="681" 
d="M563 1028q0 40 -49 -2q-52 -51 -196 -51t-218 73t-74 178q0 104 88 164q86 60 224 60t228 -91t91 -243q-1 -207 -159 -337t-377 -161l-8 54q109 24 203 64t171 118q76 78 76 174z" />
    <glyph glyph-name="quotesinglbase" unicode="&#x201a;" horiz-adv-x="681" 
d="M563 23q0 35 -35 10q-6 -4 -14 -13q-52 -51 -196 -51t-218 73q-74 72 -74 178t88 165q86 59 224 59t228 -91t91 -242q-1 -207 -159 -337t-377 -161l-8 53q245 52 374 182q76 78 76 175z" />
    <glyph glyph-name="quotedblleft" unicode="&#x201c;" horiz-adv-x="1478" 
d="M147 1040q0 -38 50 2q51 52 195 52t218 -73t74 -179t-87 -164q-87 -60 -225 -60t-228 92q-91 92 -91 242q0 207 159 337t378 161l8 -53q-109 -23 -204 -64t-171 -119t-76 -174zM889 1040q0 -40 49 2q52 52 196 52t218 -73t74 -179t-88 -164q-86 -60 -224 -60t-228 92
t-91 242q0 207 158 337q159 130 378 161l8 -53q-109 -23 -203 -64t-171 -119q-76 -78 -76 -174z" />
    <glyph glyph-name="quotedblright" unicode="&#x201d;" horiz-adv-x="1478" 
d="M1333 1028q0 40 -49 -2q-52 -51 -196 -51t-218 73t-74 178q0 104 88 164q86 60 224 60t228 -91t91 -243q-1 -207 -159 -337t-377 -161l-8 54q109 24 203 64t171 118q76 78 76 174zM590 1028q0 40 -49 -2q-51 -51 -196 -51t-219 73t-73 178q0 104 87 164q86 60 224 60
t229 -91t91 -243q0 -207 -159 -337t-378 -161l-8 54q109 24 204 64t171 118t76 174z" />
    <glyph glyph-name="quotedblbase" unicode="&#x201e;" horiz-adv-x="1478" 
d="M1333 23q0 35 -35 10q-6 -4 -14 -13q-52 -51 -196 -51t-218 73q-74 72 -74 178t88 165q86 59 224 59t228 -91t91 -242q-1 -207 -159 -337t-377 -161l-8 53q245 52 374 182q76 78 76 175zM590 23q0 35 -35 10q-6 -4 -14 -13q-51 -51 -196 -51t-219 73q-74 72 -73 178
q0 106 87 165q86 59 224 59t229 -91t91 -242q0 -207 -159 -337t-378 -161l-8 53q247 52 375 182q76 78 76 175z" />
    <glyph glyph-name="dagger" unicode="&#x2020;" horiz-adv-x="1251" 
d="M598 659q0 57 -47 57t-95 -86q-16 -32 -60 -60t-122 -28t-133 57q-55 56 -55 143q0 86 59 146t135 60t118 -28t58 -60q41 -88 85 -88q27 0 43 22t16 52t-24 62t-62 72q-37 40 -60 62q-24 23 -28 27q-55 55 -55 155t73 164q74 62 182 62t181 -64q72 -64 72 -162
q0 -99 -56 -155l-26 -26q-148 -142 -148 -201q1 -26 17 -48t43 -22q44 0 85 88q15 33 58 61q43 27 118 27t134 -59t59 -147t-55 -143q-54 -56 -132 -56q-78 -1 -122 27t-60 60q-46 87 -95 87q-48 0 -48 -58q0 -133 293 -272q-248 -346 -293 -821h-53q-45 475 -293 821
q293 139 293 272z" />
    <glyph glyph-name="daggerdbl" unicode="&#x2021;" horiz-adv-x="1251" 
d="M625 1450q84 0 145 -51t61 -119t-44 -122q-44 -52 -88 -97t-44 -86q0 -61 54 -62q38 0 71 57q14 24 32 48q44 56 132 55q88 0 141 -56t53 -134t-54 -133q-54 -56 -120 -56t-109 26q-42 26 -60 58q-48 84 -93 82q-51 0 -51 -61q0 -125 248 -289q-78 -43 -164 -136
t-86 -163q1 -23 15 -40t42 -17t50 26q23 26 37 57t56 57q41 26 111 26t121 -59q51 -58 51 -133t-48 -130t-120 -55t-99 17q-27 16 -37 22t-24 23q-16 17 -22 23t-23 30q-17 22 -24 30q-33 16 -57 2t-23 -50q0 -59 90 -129q91 -71 91 -179q0 -66 -62 -116t-149 -50
q-88 0 -150 50q-61 50 -61 116q0 109 90 179q90 71 90 128q0 37 -24 51t-56 -2q-40 -53 -46 -59q-6 -5 -22 -23t-25 -23t-35 -22t-99 -18q-74 0 -122 55t-48 130t51 133t121 58q69 1 111 -25t56 -58q39 -84 93 -82q23 0 37 17t14 40q0 70 -86 163t-164 136q248 164 248 289
q0 61 -51 61q-45 0 -92 -83q-19 -31 -61 -57t-108 -26t-121 56q-54 56 -54 133q0 78 53 134q54 56 118 56t100 -16t54 -40q18 -23 32 -47q34 -55 73 -57q53 0 53 62q0 41 -44 86t-88 97t-44 121t61 120q62 51 146 51z" />
    <glyph glyph-name="bullet" unicode="&#x2022;" horiz-adv-x="1024" 
d="M510 362q-144 0 -244 102t-100 244q0 144 100 244t244 100t244 -100q102 -100 102 -243t-102 -245t-244 -102z" />
    <glyph glyph-name="ellipsis" unicode="&#x2026;" horiz-adv-x="2048" 
d="M1707 444q122 0 209 -60t87 -177t-86 -177t-209 -60t-210 60t-87 177t87 177t209 60zM1025 444q122 0 209 -60t87 -177t-86 -177t-209 -60t-210 60t-87 177t87 177t209 60zM343 444q122 0 209 -60t87 -177t-86 -177t-209 -60t-210 60t-87 177t87 177t209 60z" />
    <glyph glyph-name="perthousand" unicode="&#x2030;" horiz-adv-x="2048" 
d="M1806 637q-12 20 -45 20t-48 -28t-22 -55q-6 -27 -8 -31l-112 -441q-12 -51 -15 -80q-4 -63 48 -63q39 0 56 40q5 13 11 44t8 41l115 442q23 90 12 111zM1614 -92q-129 0 -202 96t-73 248q0 154 117 295t285 141q135 0 210 -93t75 -214t-46 -223q-45 -102 -141 -176
t-225 -74zM764 1331q-47 0 -98 21q43 -129 43 -193q0 -143 -118 -287t-294 -143q-123 0 -198 94t-74 219q0 168 117 317q118 148 282 148q82 0 184 -56t172 -56q70 1 138 27t101 60t65 26q32 -7 51 -3l-840 -1597h-117l776 1468q-84 -45 -190 -45zM492 1446q-12 20 -46 20
t-48 -28q-15 -28 -21 -55t-8 -31l-113 -441q-24 -101 -8 -122t49 -21t48 40q5 13 11 44t9 41l114 442q23 90 13 111zM961 629l-13 -26q-4 -9 -9 -33t-7 -27l-113 -441q-12 -51 -14 -80q-4 -63 47 -63q42 0 56 40q5 13 12 44q6 31 8 41l114 442q23 90 13 111q-12 20 -46 20
t-48 -28zM588 252q0 154 117 295t284 141q135 0 210 -93t75 -214q0 -256 -187 -399q-96 -74 -225 -74t-202 95q-72 95 -72 249z" />
    <glyph glyph-name="guilsinglleft" unicode="&#x2039;" horiz-adv-x="681" 
d="M578 823l-238 -331l248 -328h-252l-244 328l240 331h246z" />
    <glyph glyph-name="guilsinglright" unicode="&#x203a;" horiz-adv-x="681" 
d="M342 492l-238 331h246l240 -331l-244 -328h-252z" />
    <glyph glyph-name="fraction" unicode="&#x2044;" horiz-adv-x="342" 
d="M-225 -31h-123l921 1481h125z" />
    <glyph glyph-name="Euro" unicode="&#x20ac;" 
d="M813 1450q80 0 155 -23q76 -23 118 -45t51 -22t55 26l104 64h52v-418h-64q-39 136 -131 230t-223 94t-180 -83t-56 -329h580l-72 -151h-510v-146h443l-72 -151h-369q2 -258 52 -345t182 -87t225 92q92 94 131 231h64v-418h-52l-104 64q-44 27 -54 27t-53 -24
q-129 -68 -272 -67q-250 -1 -416 143t-219 384h-174l72 151h82l-2 62q0 31 4 84h-152l68 151h108q57 230 220 368t409 138z" />
    <glyph glyph-name="afii61289" unicode="&#x2113;" horiz-adv-x="1165" 
d="M596 999v-172q78 93 116 181t38 243q0 221 -82 222q-52 1 -62 -81t-10 -393zM612 -29q-209 0 -305 92q-53 55 -80 127t-26 226v53l-131 -63l-37 94l168 96v283q1 193 29 307t100 207q145 184 352 184q152 0 226 -93t75 -248q0 -155 -89 -282t-298 -280v-137
q0 -177 41 -261t147 -83q132 0 271 182l65 -68q-195 -336 -508 -336z" />
    <glyph glyph-name="trademark" unicode="&#x2122;" horiz-adv-x="2048" 
d="M1968 1419v-28h-84v-699h84v-26h-481v26h84v611h-4l-238 -637h-43l-242 647h-2v-527q0 -92 74 -94h21v-26h-222v26h21q68 0 68 92v607h-78v28h385l131 -360l133 360h393zM311 692v699q-145 -14 -198 -248h-33l4 276h780l6 -276h-32q-53 233 -199 248v-699h96v-26h-522v26
h98z" />
    <glyph glyph-name="Omega" unicode="&#x2126;" horiz-adv-x="1781" 
d="M1151 798q0 282 -65 411q-66 128 -202 128t-196 -120q-59 -121 -59 -412t217 -739l-21 -66h-684l-61 430h100q39 -86 76 -113t121 -26h186q-156 86 -271 194q-144 138 -142 338q0 287 203 455q204 168 539 168q334 0 536 -166t202 -446q0 -185 -133 -314t-301 -229h227
q72 -1 107 27t72 112h102l-76 -430h-672l-28 63q223 453 223 735z" />
    <glyph glyph-name="estimated" unicode="&#x212e;" horiz-adv-x="1781" 
d="M1409 739v406q0 27 -18 49q-215 209 -501 209t-499 -217q-20 -18 -20 -49v-398q0 -12 10 -12h1020q8 0 8 12zM1712 688h-1331q-10 0 -10 -8v-404q0 -27 18 -45q213 -219 502 -219q156 0 293 66t237 178h117q-111 -131 -283 -208t-366 -77q-340 0 -580 215
q-239 216 -239 522t239 522q240 216 581 216q342 0 582 -216t240 -523v-19z" />
    <glyph glyph-name="partialdiff" unicode="&#x2202;" horiz-adv-x="1363" 
d="M741 772h-2q-98 0 -157 -110q-86 -164 -86 -416q0 -88 22 -130t72 -42q78 0 155 188t109 420q-47 90 -113 90zM631 909h2q79 1 147 -27t101 -75q27 115 30 237q8 199 -49 297q-51 78 -164 78q-154 0 -372 -188q-27 2 -67 51t-63 115q-24 66 -6 104q62 27 92 38t106 25
t167 15q367 0 567 -307q140 -216 140 -492t-129 -491q-186 -317 -568 -318q-217 0 -346 120t-129 328t150 349t391 141z" />
    <glyph glyph-name="Delta" unicode="&#x2206;" horiz-adv-x="1597" 
d="M999 178l-358 801l-354 -801h712zM1513 0h-1433v111l606 1294l197 41l630 -1335v-111z" />
    <glyph glyph-name="product" unicode="&#x220f;" horiz-adv-x="1775" 
d="M1710 1475v-95q-141 -12 -175 -54t-34 -200v-942q0 -158 35 -198t178 -52v-98h-803v98q113 8 136 46t22 204v1086q0 55 -14 68t-70 14h-203q-53 0 -65 -14t-12 -70v-1084q0 -168 20 -204t125 -46v-98h-789v98q141 10 175 52t34 198v942q0 160 -34 201q-35 41 -183 53v95
h1657z" />
    <glyph glyph-name="summation" unicode="&#x2211;" horiz-adv-x="1380" 
d="M51 -188v104l475 602l-458 852v105h1132q14 -270 29 -435l-99 -26q-59 166 -100 236t-84 92t-160 22h-219l307 -592l-491 -629h494q164 0 210 34t76 94q31 59 66 126l100 -26l-125 -559h-1153z" />
    <glyph glyph-name="minus" unicode="&#x2212;" horiz-adv-x="1228" 
d="M98 406v237h1032v-237h-1032z" />
    <glyph glyph-name="uni2215" unicode="&#x2215;" horiz-adv-x="342" 
d="M-225 -31h-123l921 1481h125z" />
    <glyph glyph-name="uni2219" unicode="&#x2219;" horiz-adv-x="681" 
d="M45 524q0 118 87 178t209 60t209 -60t87 -178q0 -117 -86 -177t-209 -60t-210 60t-87 177z" />
    <glyph glyph-name="radical" unicode="&#x221a;" horiz-adv-x="1310" 
d="M1313 1786l-414 -2132l-100 -37l-477 1092l-199 -84l-37 114l508 222l276 -685h7l290 1536z" />
    <glyph glyph-name="infinity" unicode="&#x221e;" horiz-adv-x="1662" 
d="M1188 760h-2q-49 0 -97 -33t-72 -61t-65 -84q78 -115 130 -150t120 -35q68 1 108 57t40 126t-43 126q-43 54 -119 54zM473 397h4q117 0 234 166q-65 102 -99 138q-32 35 -64 47t-90 12t-104 -48q-47 -48 -47 -128t50 -134q50 -53 116 -53zM1573 590v-2q0 -186 -111 -296
t-270 -110t-265 100q-52 48 -100 121q-84 -111 -171 -165q-88 -54 -220 -56q-132 0 -240 108t-108 284t110 288q110 111 275 111q119 0 206 -49t165 -160q2 4 19 23t38 44t36 36t37 29q97 78 240 76t251 -106t108 -276z" />
    <glyph glyph-name="integral" unicode="&#x222b;" horiz-adv-x="1007" 
d="M804 1706q68 0 134 -43t66 -119t-50 -121t-107 -45q-56 0 -83 46t-43 94t-33 47q-25 1 -29 -51t9 -220l43 -741q29 -496 -117 -762t-371 -266q-82 0 -145 47q-64 47 -66 118t67 125t136 54q31 0 53 -33q22 -32 30 -70q25 -103 48 -104q27 0 31 62t-6 178l-49 800
q-14 250 14 442t81 294q52 102 126 167t133 83t128 18z" />
    <glyph glyph-name="approxequal" unicode="&#x2248;" horiz-adv-x="1226" 
d="M424 322q-92 0 -164 -70q-25 -25 -65 -72l-150 154q53 90 159 159q234 152 472 -20q77 -53 133 -53q57 0 101 34t106 109l153 -153q-253 -361 -574 -160q-115 72 -171 72zM401 762q-51 0 -99 -36t-107 -108l-150 154q53 90 159 159t221 69q116 0 201 -55q84 -54 116 -69
t71 -16q90 1 203 144l153 -154q-155 -230 -359 -232q-105 -1 -245 91q-16 10 -20 12q-5 2 -19 10t-21 10q-7 1 -30 11q-24 10 -74 10z" />
    <glyph glyph-name="notequal" unicode="&#x2260;" horiz-adv-x="1226" 
d="M1128 930v-234h-346l-102 -237h448v-236h-548l-101 -231l-190 82l67 149h-258v236h357l100 237h-457v234h555l101 229l190 -82l-65 -147h249z" />
    <glyph glyph-name="lessequal" unicode="&#x2264;" horiz-adv-x="1226" 
d="M1130 -33h-1030v242h1030v-242zM1126 274l-1024 451v254l1022 448v-258l-778 -315v-4l780 -315v-261z" />
    <glyph glyph-name="greaterequal" unicode="&#x2265;" horiz-adv-x="1226" 
d="M1118 -33h-1016v242h1016v-242zM104 1427l1024 -450v-252l-1022 -451v261l779 315v6l-781 313v258z" />
    <glyph glyph-name="lozenge" unicode="&#x25ca;" horiz-adv-x="1388" 
d="M1024 692l-326 633h-10l-326 -633l328 -641h6zM1298 692l-458 -852h-295l-457 852l463 856h291z" />
    </font>
</defs>
</svg>
