<?xml version="1.0" standalone="no"?>
<!DOCTYPE svg PUBLIC "-//W3C//DTD SVG 1.1//EN" "http://www.w3.org/Graphics/SVG/1.1/DTD/svg11.dtd" >
<svg xmlns="http://www.w3.org/2000/svg">
<metadata>
Created by FontPrep 20130207 at Sat Oct  4 18:05:48 2014
 By Nico
Copyright 1991-2003 Adobe Systems Incorporated. All Rights Reserved. U.S. Patent Des. 371,799.
</metadata>
<defs>
<font id="c794e83c759d2912b8fc0cfb91a35590" horiz-adv-x='1024' >
  <font-face 
    font-family="MinionWebPro-Bold"
    font-weight="700"
    font-stretch="normal"
    units-per-em="2048"
    panose-1="2 4 7 3 5 2 1 2 2 3"
    ascent="1536"
    descent="-512"
    x-height="938"
    cap-height="1319"
    bbox="-47 -604 2425 1887.02"
    underline-thickness="102"
    underline-position="-153"
    unicode-range="U+0020-FB02"
  />
<missing-glyph horiz-adv-x="1024" 
d="M102 195l349 522l-349 522v-1044zM860 102l-348 523l-348 -523h696zM922 195v1044l-349 -522zM860 1331h-696l348 -522zM0 1434h1024v-1434h-1024v1434z" />
    <glyph glyph-name="f_i" unicode="fi" horiz-adv-x="1236" 
d="M205 229v578h-129l-17 35l64 96h82v29q0 136 77.5 255t211 181.5t235.5 62.5t194.5 -57.5t92.5 -124.5q0 -43 -46 -85.5t-76 -42.5t-48 18q-159 150 -242 149q-137 0 -137 -362v-23h190q286 0 406 25v-730q0 -82 20.5 -101.5t116.5 -29.5v-102h-508v102q75 9 92 29.5
t17 101.5v429q0 96 -16 120.5t-85 24.5h-233v-578q0 -78 16.5 -97t91.5 -30v-102h-495v102q87 10 106 30t19 97z" />
    <glyph glyph-name="f_l" unicode="fl" horiz-adv-x="1236" 
d="M467 938h336v324q-63 82 -154 82q-182 -1 -182 -295v-111zM205 229v578h-129l-19 39l66 92h82v39q0 118 66.5 237.5t193 185.5t247.5 66t212 -49l112 37l29 -22v-1196q0 -84 20 -104t117 -30v-102h-506v102q74 9 90.5 30t16.5 104v571h-336v-578q0 -78 17.5 -97t99.5 -30
v-102h-504v102q87 10 106 30t19 97z" />
    <glyph glyph-name=".notdef" horiz-adv-x="1024" 
d="M102 195l349 522l-349 522v-1044zM860 102l-348 523l-348 -523h696zM922 195v1044l-349 -522zM860 1331h-696l348 -522zM0 1434h1024v-1434h-1024v1434z" />
    <glyph glyph-name=".null" horiz-adv-x="0" 
 />
    <glyph glyph-name="nonmarkingreturn" horiz-adv-x="477" 
 />
    <glyph glyph-name="space" unicode=" " horiz-adv-x="477" 
 />
    <glyph glyph-name="exclam" unicode="!" horiz-adv-x="536" 
d="M453 168q0 -84 -52.5 -138.5t-132.5 -54.5t-132 54.5t-52 138.5t52.5 139t131.5 55t132 -55t53 -139zM94 1251q0 95 171 95t171 -95q0 -35 -35 -243t-73 -568q-2 -17 -64 -17t-63 17q-41 390 -74 582t-33 229z" />
    <glyph glyph-name="quotedbl" unicode="&#x22;" 
d="M627 753q-26 0 -40.5 2.5t-21.5 7.5q-6 5 -19 91l-65 402q-18 108 -18 124q0 74 151 74q79 0 114.5 -17t35.5 -57q0 -12 -96 -610q-15 -17 -41 -17zM59 1386q0 68 114.5 68t149.5 -17t35 -57q0 -12 -43 -276l-53 -334q-11 -17 -37 -17t-41 2t-21 8q-7 5 -21 89l-66 404
q-17 96 -17 130z" />
    <glyph glyph-name="numbersign" unicode="#" horiz-adv-x="995" 
d="M629 795h-180l-60 -265h180zM948 795h-168l-59 -265h143l-24 -190h-162l-78 -340h-151l75 340h-180l-76 -340h-155l75 340h-163l22 190h186l62 265h-160l21 190h180l67 291h156l-67 -291h180l65 291h154l-68 -291h148z" />
    <glyph glyph-name="dollar" unicode="$" horiz-adv-x="1001" 
d="M723 298q0 72 -32.5 115t-96.5 74l-25 13v-377q70 11 112 57t42 118zM305 993q0 -109 152 -176v338q-72 -8 -112 -53.5t-40 -108.5zM952 403q0 -162 -100.5 -267t-282.5 -130v-174h-112v168q-179 3 -336 88q-16 46 -70 307l103 27q94 -266 303 -301v411q-213 88 -288 177
t-75 212t96 223.5t267 125.5v157h112v-151q97 0 155 -18t105 -25q36 -159 52 -291l-105 -22q-63 212 -207 235v-377q218 -68 300.5 -163t82.5 -212z" />
    <glyph glyph-name="percent" unicode="%" horiz-adv-x="1794" 
d="M1497 376q0 124 -31 202.5t-90 78.5t-92 -81.5t-33 -194.5t29.5 -204t91.5 -91t93.5 83t31.5 207zM1020 372q0 162 94 279t258 117t257 -117t93 -279t-93 -279.5t-257 -117.5t-258 117.5t-94 279.5zM549 908q0 124 -31.5 203t-89.5 79t-91.5 -82t-33.5 -203t32.5 -204
t91.5 -83t90.5 83t31.5 207zM74 904q0 162 93 279t257 117t258 -116.5t94 -279.5t-93 -279.5t-257 -116.5t-258 117t-94 279zM1350 1253l-809 -1333l-115 80l805 1327z" />
    <glyph glyph-name="ampersand" unicode="&#x26;" horiz-adv-x="1445" 
d="M330 434q0 -132 70.5 -197t170.5 -65q142 0 252 147q-134 165 -358 334q-135 -87 -135 -219zM713 1061q0 65 -39 114.5t-99 49.5t-97.5 -43t-37.5 -109q0 -117 156 -223q117 88 117 211zM963 883h483v-105q-132 -5 -194 -85l-193 -251q196 -230 315 -438l-22 -35
q-114 0 -204 24t-114 53l-129 173q-197 -246 -434 -246q-183 0 -293 109t-110 260q0 118 69.5 205.5t235.5 181.5q-154 134 -154 275t109.5 241.5t259.5 100.5t245 -84.5t95 -214.5q0 -73 -49.5 -132t-186.5 -131q196 -163 283 -252q97 140 97 191q0 45 -109 55v105z" />
    <glyph glyph-name="quotesingle" unicode="'" horiz-adv-x="417" 
d="M59 1386q0 68 114.5 68t149.5 -17t35 -57l-96 -611q-12 -16 -38 -16t-40.5 2t-20.5 8q-7 5 -21 88l-66 403q-17 98 -17 132z" />
    <glyph glyph-name="parenleft" unicode="(" horiz-adv-x="708" 
d="M127 556q0 594 424 896l78 -88q-123 -105 -203 -333.5t-80 -478.5t83 -479.5t200 -326.5l-78 -86q-424 302 -424 896z" />
    <glyph glyph-name="parenright" unicode=")" horiz-adv-x="708" 
d="M580 556q0 -594 -424 -896l-78 86q124 113 203 339.5t79 470.5t-79 470.5t-203 337.5l78 88q424 -302 424 -896z" />
    <glyph glyph-name="asterisk" unicode="*" horiz-adv-x="954" 
d="M635 1325l-57 -313l307 -6l2 -103l-301 -55l86 -305l-101 -39l-153 291l-281 -177l-61 95l235 205l-245 231l63 88l281 -184l125 293z" />
    <glyph glyph-name="plus" unicode="+" horiz-adv-x="1327" 
d="M106 657h455v426h207v-426h453v-180h-453v-477h-207v477h-455v180z" />
    <glyph glyph-name="comma" unicode="," horiz-adv-x="489" 
d="M41 251q0 59 43.5 96.5t105.5 37.5q98 0 184.5 -89.5t86.5 -225.5t-104 -244.5t-287 -157.5l-37 115q199 77 198 213q0 54 -42 102t-109 68q-39 26 -39 85z" />
    <glyph glyph-name="hyphen" unicode="-" horiz-adv-x="673" 
d="M80 571h514v-172h-514v172z" />
    <glyph glyph-name="period" unicode="." horiz-adv-x="489" 
d="M428 168q0 -84 -52 -138.5t-131 -54.5t-131.5 55t-52.5 139t52.5 138.5t130.5 54.5t131 -55t53 -139z" />
    <glyph glyph-name="slash" unicode="/" horiz-adv-x="669" 
d="M20 -92l416 1438h205l-416 -1438h-205z" />
    <glyph glyph-name="zero" unicode="0" horiz-adv-x="1001" 
d="M676 624q0 556 -172 556q-85 0 -129.5 -141t-44.5 -401t44 -401t129 -141t129 141t44 387zM53 638q0 299 116.5 480.5t332.5 181.5t331 -182.5t115 -479.5t-115 -480t-331 -183t-332.5 182t-116.5 481z" />
    <glyph glyph-name="one" unicode="1" horiz-adv-x="1001" 
d="M379 256v709q0 70 -9 93t-31.5 27.5t-154.5 12.5v96q179 25 457 106v-1044q0 -99 25 -122.5t145 -31.5v-102h-602v102q120 7 145 31t25 123z" />
    <glyph glyph-name="two" unicode="2" horiz-adv-x="1001" 
d="M49 0v76q547 505 547 805q0 101 -53.5 163t-143.5 62q-125 0 -235 -182l-94 67l103 148q113 161 329 161q161 0 262.5 -97.5t101.5 -258.5q0 -113 -55.5 -216t-195.5 -250l-238 -251h274q88 0 119 20.5t74 121.5l102 -29l-76 -340h-821z" />
    <glyph glyph-name="three" unicode="3" horiz-adv-x="1001" 
d="M737.5 1225q90.5 -75 90.5 -193q0 -61 -36.5 -107.5t-174.5 -119.5v-4q141 -28 219 -119.5t78 -223.5t-92 -244t-241 -175.5t-239 -63.5t-176 38t-86 97q0 41 40.5 92t68.5 51t45 -13q132 -104 224 -104q182 -1 182 253q0 126 -66 193t-161 67t-150 -20l-29 106
q334 104 334 252q0 70 -43 109t-114 39q-115 0 -213 -162l-84 74l90 128q9 13 78.5 69t216.5 56q148 0 238.5 -75z" />
    <glyph glyph-name="four" unicode="4" horiz-adv-x="1001" 
d="M549 494v493h-4q-208 -304 -316 -493h320zM803 1288v-794h170v-142h-170v-119q0 -86 22.5 -104t135.5 -27v-102h-582v102q117 8 143.5 27t26.5 100v123h-520v88q319 483 604 848h170z" />
    <glyph glyph-name="five" unicode="5" horiz-adv-x="1001" 
d="M503 858q188 0 300.5 -108t112.5 -271q0 -208 -183.5 -356t-403.5 -148q-90 0 -172.5 42t-82.5 88t43 96.5t80 50.5q14 0 27 -10q132 -111 232 -111q200 0 200 250q0 138 -81.5 218.5t-225.5 80.5q-55 0 -203 -33l88 629h623l19 -25l-62 -202h-473l-37 -234
q146 43 199 43z" />
    <glyph glyph-name="six" unicode="6" horiz-adv-x="1001" 
d="M471 682q-68 0 -125 -25q-14 -47 -14 -163q0 -187 60 -291.5t142 -104.5t119 63t37 207t-58.5 229t-160.5 85zM582 852q163 0 271 -115t108 -303t-130.5 -323.5t-328.5 -135.5t-323.5 141.5t-125.5 365.5t85 384.5t213.5 257.5t243.5 131t290 60l16 -113
q-205 -36 -351 -147.5t-192 -286.5q126 57 159.5 70.5t64.5 13.5z" />
    <glyph glyph-name="seven" unicode="7" horiz-adv-x="1001" 
d="M358 1049q-97 0 -125.5 -20.5t-60.5 -113.5h-111q17 89 56 359h809l26 -29q-391 -882 -536 -1245l-244 -25l-20 37q283 454 563 1037h-357z" />
    <glyph glyph-name="eight" unicode="8" horiz-adv-x="1001" 
d="M307 348q0 -116 63 -184t148 -68t133.5 51.5t48.5 142.5t-56.5 160t-207.5 140q-129 -77 -129 -242zM668 959q0 108 -53.5 164.5t-122.5 56.5t-108.5 -42t-39.5 -112t58 -127.5t188 -112.5q78 65 78 173zM512 1300q170 0 275.5 -86t105.5 -210q0 -79 -39 -138.5
t-154 -130.5q246 -143 246 -358q0 -117 -61 -208t-167.5 -142.5t-215.5 -51.5q-196 0 -318.5 95.5t-122.5 253.5q0 91 51 166.5t207 160.5q-211 110 -210 293q0 145 116.5 250.5t286.5 105.5z" />
    <glyph glyph-name="nine" unicode="9" horiz-adv-x="1001" 
d="M676 786q0 174 -53.5 284t-149.5 110q-73 0 -113.5 -72t-40.5 -188t65.5 -203.5t164.5 -87.5q61 -1 117 28q10 72 10 129zM449 461q-180 0 -287 109.5t-107 281.5t126.5 310t327.5 138t319 -143.5t118 -368.5q0 -337 -211.5 -565t-621.5 -250l-13 111q217 32 363.5 157
t189.5 308q-124 -70 -153 -79t-51 -9z" />
    <glyph glyph-name="colon" unicode=":" horiz-adv-x="489" 
d="M430 168q0 -84 -52 -138.5t-131 -54.5t-131.5 54.5t-52.5 138.5t53 139t131 55t130.5 -55t52.5 -139zM63 735q0 84 52 138.5t131 54.5t130.5 -54.5t51.5 -138.5t-51.5 -138t-130.5 -54t-131 54t-52 138z" />
    <glyph glyph-name="semicolon" unicode=";" horiz-adv-x="489" 
d="M41 254q0 56 44 92.5t105 36.5q98 0 184.5 -89.5t86.5 -225.5t-105 -245t-288 -157l-35 115q199 80 198 213q0 56 -42 103.5t-109 66.5q-39 34 -39 90zM66 735q0 83 52 138t130 55t131 -55t53 -139t-52.5 -138.5t-130.5 -54.5t-130.5 55.5t-52.5 138.5z" />
    <glyph glyph-name="less" unicode="&#x3c;" horiz-adv-x="1327" 
d="M133 461v207l1059 460v-198l-862 -363v-6l862 -362v-199z" />
    <glyph glyph-name="equal" unicode="=" horiz-adv-x="1327" 
d="M109 455h1112v-181h-1112v181zM109 860h1112v-180h-1112v180z" />
    <glyph glyph-name="greater" unicode="&#x3e;" horiz-adv-x="1327" 
d="M1194 668v-207l-1059 -461v199l862 362v6l-862 363v198z" />
    <glyph glyph-name="question" unicode="?" horiz-adv-x="729" 
d="M522 166q0 -84 -53 -137.5t-131 -53.5t-130 54.5t-52 137.5t52 138t130 55t131 -55t53 -139zM127 692q0 56 34.5 110t148.5 136t137.5 107t23.5 42q1 49 -67 49t-164 -59q-41 -25 -54 -24q-35 0 -74.5 45.5t-39.5 91.5q0 67 90 111.5t155 44.5q130 0 238.5 -106
t108.5 -236t-103 -216q-182 -154 -182 -197t41 -87l-82 -82q-211 133 -211 270z" />
    <glyph glyph-name="at" unicode="@" horiz-adv-x="1570" 
d="M692 572q0 -77 33 -76q42 0 130.5 102t125.5 303q-30 21 -101 21t-129.5 -111t-58.5 -239zM96 573q0 345 232.5 559t584.5 214q263 0 418.5 -146t155.5 -366t-137 -366t-357 -146q-104 0 -104 81q0 27 24 138l-4 2q-61 -81 -160 -151t-152 -70t-85.5 50.5t-32.5 139.5
q0 193 144.5 353.5t357.5 160.5q42 0 88 -13t107 -14q-102 -447 -102 -499t30 -51q81 0 157 103t76 278t-120 282t-304 107q-268 0 -431 -164.5t-163 -441.5q0 -147 61.5 -260.5t180 -174.5t273.5 -61t278 61l37 -108q-168 -94 -389 -95q-298 0 -481 159.5t-183 438.5z" />
    <glyph glyph-name="A" unicode="A" horiz-adv-x="1435" 
d="M520 522h285l-135 428h-6zM416 158q0 -29 27.5 -38.5t97.5 -17.5v-102h-473v102q102 8 140 42t73 128l389 1045l129 29q305 -891 354 -1029t88 -171.5t129 -43.5v-102h-547v102q63 8 84.5 18t21.5 34t-32 111t-51 124h-363q-3 -2 -35 -102t-32 -129z" />
    <glyph glyph-name="B" unicode="B" horiz-adv-x="1298" 
d="M520 645v-356q0 -103 29 -136.5t123 -33.5t164.5 65.5t70.5 193.5t-85.5 197.5t-246.5 69.5h-55zM520 1096v-330h62q138 0 202 55t64 167t-61 162t-139 50t-103 -17t-25 -87zM254 285v749q0 118 -23.5 146.5t-126.5 38.5v100h582q232 0 336 -80.5t104 -204.5t-72 -201.5
t-200 -105.5v-4q161 -22 253.5 -113t92.5 -223q0 -177 -141 -282t-447 -105h-520v100q112 9 137 37.5t25 147.5z" />
    <glyph glyph-name="C" unicode="C" horiz-adv-x="1288" 
d="M764 1223q-147 0 -252.5 -153.5t-105.5 -403.5t108.5 -410t273.5 -160q111 0 189 74t160 244l110 -25q-58 -262 -98 -362q-233 -53 -363 -54q-327 0 -508.5 188.5t-181.5 484.5t203.5 498t538.5 202q129 0 331 -46q18 -142 35 -356l-108 -16q-42 144 -113.5 219.5
t-218.5 75.5z" />
    <glyph glyph-name="D" unicode="D" horiz-adv-x="1486" 
d="M524 1077v-784q0 -109 32 -139.5t112 -30.5q193 0 305 147.5t112 415.5q0 514 -444 514q-104 0 -110.5 -32t-6.5 -91zM254 285v749q0 118 -24 146.5t-128 38.5v100h568q374 0 547.5 -173.5t173.5 -428.5q0 -338 -210.5 -527.5t-617.5 -189.5h-477v100q116 9 142 37.5
t26 147.5z" />
    <glyph glyph-name="E" unicode="E" horiz-adv-x="1183" 
d="M250 285v749q0 117 -24.5 145t-131.5 38v102h942l21 -311l-109 -15q-35 136 -83 169.5t-177 33.5h-88q-50 0 -63 -7t-13 -65v-368h129q120 0 148 22.5t47 130.5h106v-454h-106q-13 86 -26.5 116.5t-47 40t-121.5 9.5h-129v-330q0 -82 15 -116.5t56 -43t155 -8.5
t171.5 35.5t125.5 220.5l104 -25q-24 -185 -68 -354h-1003v102q118 9 144 37t26 146z" />
    <glyph glyph-name="F" unicode="F" horiz-adv-x="1136" 
d="M252 279v763q0 115 -24.5 142t-131.5 37v98h948l23 -313l-104 -17q-39 141 -89 174t-182 33h-90q-51 0 -63.5 -7.5t-12.5 -62.5v-391h160q126 0 155 21.5t42 122.5h106v-445h-106q-12 117 -41.5 141.5t-155.5 24.5h-160v-321q0 -114 29 -140.5t160 -36.5v-102h-619v102
q106 8 131 35.5t25 141.5z" />
    <glyph glyph-name="G" unicode="G" horiz-adv-x="1380" 
d="M1214 389v-149q0 -129 11 -187q-259 -80 -422 -80q-330 0 -519.5 181t-189.5 496t207.5 505.5t525.5 190.5q172 0 363 -52l31 -346l-107 -12q-35 142 -110.5 214.5t-206.5 72.5q-170 0 -282 -144.5t-112 -402.5t112 -419t300 -161q71 0 98 25t27 100v172q0 70 -9.5 96
t-48 38t-141.5 20v102h580v-102q-77 -12 -92 -34.5t-15 -123.5z" />
    <glyph glyph-name="H" unicode="H" horiz-adv-x="1552" 
d="M526 766h498v268q0 118 -24 146t-132 37v102h598v-102q-116 -8 -142 -36.5t-26 -146.5v-745q0 -119 26 -147t138 -40v-102h-610v102q120 7 146 35.5t26 147.5v342h-498v-342q0 -118 25.5 -146t134.5 -37v-102h-600v102q114 8 140 36.5t26 146.5v749q0 118 -27 146
t-147 37v102h602v-102q-105 -8 -129.5 -36.5t-24.5 -146.5v-268z" />
    <glyph glyph-name="I" unicode="I" horiz-adv-x="780" 
d="M252 285v749q0 118 -25 146t-135 37v102h594v-102q-111 -7 -135.5 -35.5t-24.5 -147.5v-749q0 -119 24.5 -147t135.5 -36v-102h-594v102q110 8 135 36.5t25 146.5z" />
    <glyph glyph-name="J" unicode="J" horiz-adv-x="759" 
d="M264 360v674q0 119 -25.5 147t-140.5 36v102h592v-102q-103 -8 -127 -36.5t-24 -146.5v-719q0 -156 -16.5 -262t-98.5 -238t-358 -173l-31 110q144 49 186.5 180t42.5 428z" />
    <glyph glyph-name="K" unicode="K" horiz-adv-x="1415" 
d="M254 285v749q0 118 -26 146t-140 37v102h588v-102q-106 -8 -131 -36.5t-25 -146.5v-303q90 27 244 219.5t154 227.5t-87 39v102h531v-102q-101 -10 -162.5 -35t-174 -135.5t-222.5 -249.5q150 -259 276 -439.5t175.5 -214t121.5 -41.5v-102h-391q-54 79 -188.5 294
t-169.5 274.5t-85 59.5q-10 0 -22 -3v-340q0 -118 26 -146t140 -37v-102h-586v102q105 8 129.5 36.5t24.5 146.5z" />
    <glyph glyph-name="L" unicode="L" horiz-adv-x="1138" 
d="M252 285v749q0 118 -25.5 146t-138.5 37v102h604v-102q-115 -7 -140.5 -35.5t-25.5 -147.5v-743q0 -110 30.5 -139t159.5 -29t188.5 50.5t105.5 211.5l108 -18q-31 -219 -67 -367h-967v102q116 8 142 36.5t26 146.5z" />
    <glyph glyph-name="M" unicode="M" horiz-adv-x="1767" 
d="M121 1319h454l312 -848l327 848h463v-100q-82 -7 -110 -18t-34.5 -38t-6.5 -106l16 -770q2 -91 11 -123t37 -42.5t110 -19.5v-102h-576v102q110 9 130 34.5t20 150.5l-4 800h-8l-400 -1064h-96l-348 1058h-4q-30 -687 -30 -783t13.5 -129t50.5 -47t115 -20v-102h-500v102
q94 7 124 44t61 461t31 494t-36 90.5t-122 27.5v100z" />
    <glyph glyph-name="N" unicode="N" horiz-adv-x="1462" 
d="M248 510v412q0 133 -18 206t-183 86v105h381l668 -870h4v354q0 231 -16.5 299t-55.5 88t-137 24v105h524v-105q-131 -5 -144 -56t-21.5 -150.5t-8.5 -204.5v-817h-149l-699 952h-4v-428q0 -308 35.5 -353t175.5 -53v-104h-524v104q129 5 142 57.5t21.5 150.5t8.5 198z
" />
    <glyph glyph-name="O" unicode="O" horiz-adv-x="1445" 
d="M1044 634q0 274 -86 431.5t-236 157.5t-233 -140.5t-83 -401.5t93 -423t257 -162q139 0 213.5 132t74.5 406zM94 646q0 292 175 496t454 204t454 -186.5t175 -491.5t-177.5 -500t-455.5 -195t-451.5 190.5t-173.5 482.5z" />
    <glyph glyph-name="P" unicode="P" horiz-adv-x="1218" 
d="M520 1112v-453q54 -27 130 -27t140 73t64 215t-62 211t-174 69q-51 0 -74.5 -15t-23.5 -73zM254 287v747q0 118 -23 146t-127 37v102h535q285 0 395.5 -110.5t110.5 -274.5q0 -208 -138 -321t-354 -113l-133 35v-248q0 -103 18.5 -139t170.5 -46v-102h-615v102
q110 8 135 36.5t25 148.5z" />
    <glyph glyph-name="Q" unicode="Q" horiz-adv-x="1445" 
d="M707 1223q-135 0 -219.5 -140.5t-84.5 -386.5t71.5 -404.5t203.5 -193.5l115 41q31 -25 41 -35q209 73 208 512q0 295 -87 451t-248 156zM94 647q0 286 174 492.5t454 206.5t455 -187t175 -481q0 -239 -107.5 -416t-296.5 -244q257 -182 451 -264l-21 -84
q-196 0 -333 47.5t-416 259.5q-98 0 -233 77t-218.5 236t-83.5 357z" />
    <glyph glyph-name="R" unicode="R" horiz-adv-x="1357" 
d="M520 1098v-424h58q158 0 217 75t59 201t-70 188t-150 62t-97 -21t-17 -81zM254 285v753q0 82 -10 114.5t-38.5 44t-107.5 22.5v100h568q262 0 368.5 -93t106.5 -247q0 -242 -232 -342q8 -13 43 -82q228 -453 375 -483l-10 -92q-228 13 -304.5 43.5t-140.5 112.5t-188 351
q-35 72 -121 72h-43v-274q0 -120 25 -148t135 -35v-102h-588v102q111 6 136.5 34.5t25.5 148.5z" />
    <glyph glyph-name="S" unicode="S" horiz-adv-x="1077" 
d="M534 96q104 0 156.5 47t52.5 133q0 163 -241 273q-360 160 -361 403q0 176 124 285t339 109q75 0 163 -18t126 -36l43 -315l-107 -16q-40 141 -102.5 201.5t-150.5 60.5t-138.5 -49.5t-50.5 -123.5t60.5 -132.5t193.5 -114.5q350 -151 350 -414q0 -182 -136.5 -299
t-356.5 -117q-176 0 -340 80q-26 74 -66 342l103 29q52 -153 143.5 -240.5t195.5 -87.5z" />
    <glyph glyph-name="T" unicode="T" horiz-adv-x="1261" 
d="M496 287v909h-58q-135 0 -181.5 -51.5t-80.5 -188.5h-102l22 414h64q23 -35 42 -43t60 -8h746q68 0 96 51h65l23 -407l-105 -7q-36 156 -82.5 198t-160.5 42h-76v-909q0 -121 29 -149t164 -36v-102h-650v102q127 7 156 36t29 149z" />
    <glyph glyph-name="U" unicode="U" horiz-adv-x="1462" 
d="M238 543v497q0 114 -26 141t-138 36v102h592v-102q-105 -7 -129.5 -35t-24.5 -142v-460q0 -436 297 -437q147 0 225 118.5t78 346.5v166q0 334 -34.5 386t-170.5 57v102h520v-102q-112 -2 -143 -59t-31 -384v-145q0 -369 -144.5 -512.5t-376.5 -143.5t-363 123.5
t-131 446.5z" />
    <glyph glyph-name="V" unicode="V" horiz-adv-x="1462" 
d="M68 1319h581v-100q-67 -7 -98.5 -17t-31.5 -32t68 -237.5t191 -561.5h6q71 197 153.5 451.5t89.5 283t7 54.5t-32 39.5t-101 19.5v100h494v-100q-73 -9 -112 -27t-66 -61.5t-89 -204.5l-350 -938h-149q-102 313 -238 698.5t-159.5 436.5t-56.5 69t-107 27v100z" />
    <glyph glyph-name="W" unicode="W" horiz-adv-x="1964" 
d="M68 1319h575v-102q-68 -6 -102.5 -15.5t-34.5 -39.5t188 -756h4l263 901h139q191 -611 272 -899h4q75 270 124 481t49 251t-30 55t-116 22v102h493v-102q-80 -10 -114 -29.5t-77 -113.5t-325 -1086h-151q-188 617 -260 874l-4 -2l-273 -872h-151l-189 683
q-118 423 -134 461t-48.5 57t-101.5 28v102z" />
    <glyph glyph-name="X" unicode="X" horiz-adv-x="1370" 
d="M57 1319h594v-102q-93 -12 -93 -45q0 -10 52 -104t113 -191q162 250 162 294q0 33 -82 46v102h481v-102q-89 -11 -132 -29.5t-72.5 -47t-120.5 -151.5t-160 -235l311 -508q37 -60 71 -88t76 -39t107 -17v-102h-623v102q98 10 99 48q0 18 -18 46l-189 328
q-80 -124 -141 -239t-61 -135t22 -29t79 -19v-102h-501v102q137 16 179.5 61t156 210t188.5 286l-178 290q-72 118 -91 150.5t-57 67t-172 50.5v102z" />
    <glyph glyph-name="Y" unicode="Y" horiz-adv-x="1351" 
d="M625 1217q-107 -14 -107 -43q0 -17 68 -157.5t145 -277.5q183 375 183 425q0 25 -32 36t-94 17v102h496v-102q-127 -12 -184 -82t-157 -268t-118 -245.5t-18 -101.5v-258q0 -101 29 -126.5t157 -33.5v-102h-641v102q125 8 154 33.5t29 126.5v236q0 51 -24.5 106.5
t-142 275.5t-139 254.5t-56 53.5t-105.5 29v102h557v-102z" />
    <glyph glyph-name="Z" unicode="Z" horiz-adv-x="1230" 
d="M354 1319h758l25 -41l-691 -1143q67 -12 198 -12t216 20t129 79.5t90 191.5l111 -19q-42 -294 -74 -395h-1010l-26 51l700 1145h-182q-183 0 -240.5 -45t-89.5 -209l-102 4l20 424h72q15 -29 30.5 -40t65.5 -11z" />
    <glyph glyph-name="bracketleft" unicode="[" horiz-adv-x="708" 
d="M190 -332v1774h396v-105q-108 -10 -143.5 -20t-45.5 -40.5t-10 -117.5v-1208q0 -87 10 -117.5t45.5 -40.5t143.5 -20v-105h-396z" />
    <glyph glyph-name="backslash" unicode="\" horiz-adv-x="677" 
d="M434 -92l-395 1438h205l395 -1438h-205z" />
    <glyph glyph-name="bracketright" unicode="]" horiz-adv-x="708" 
d="M516 1442v-1774h-395v105q108 10 143.5 20t45 40.5t9.5 117.5v1204q0 87 -9.5 117.5t-45.5 40.5t-143 20v109h395z" />
    <glyph glyph-name="asciicircum" unicode="^" horiz-adv-x="1327" 
d="M137 360l420 916h211l422 -916h-219l-314 746l-309 -746h-211z" />
    <glyph glyph-name="underscore" unicode="_" horiz-adv-x="1024" 
d="M0 -154h1024v-102h-1024v102z" />
    <glyph glyph-name="grave" unicode="`" 
d="M170 1358q0 16 13 30.5t58 44t69 29.5t39 -22l207 -314l-78 -63l-209 180q-84 72 -91.5 85.5t-7.5 29.5z" />
    <glyph glyph-name="a" unicode="a" horiz-adv-x="1028" 
d="M354 290q0 -60 38 -98t93 -38t117 51v313l-145 -73q-54 -26 -78.5 -60.5t-24.5 -94.5zM854 678v-381q0 -127 64 -127q19 0 67 16l33 -92l-238 -119q-112 0 -168 119q-189 -119 -243 -119q-122 0 -203.5 83t-81.5 184t39 158.5t123 91.5q341 136 356 151v21
q0 72 -39.5 119.5t-88.5 47.5t-84 -29.5t-60 -137.5q-18 -70 -90 -70q-48 0 -94 35t-46 77t38.5 79t117.5 80.5t160.5 70.5t113.5 27q138 0 231 -73.5t93 -211.5z" />
    <glyph glyph-name="b" unicode="b" horiz-adv-x="1155" 
d="M424 276q0 -92 47 -136t98 -44q104 0 167 94t63 268t-74.5 257.5t-181.5 83.5q-67 0 -119 -29v-494zM162 1171q0 89 -17 106t-112 21v95q205 28 391 73v-581q148 61 180 69.5t55 8.5q179 0 299.5 -132.5t120.5 -320.5q0 -231 -159 -383t-402 -152q-163 0 -356 76v1120z
" />
    <glyph glyph-name="c" unicode="c" horiz-adv-x="915" 
d="M532 -25q-201 0 -327.5 132t-126.5 319q0 140 79 265.5t216 198.5t241 73t177 -28.5t73 -88.5t-32 -104t-58 -44t-51 25q-99 100 -187 100t-139 -74.5t-51 -202.5t37.5 -208.5t102.5 -123t128 -42.5q123 0 211 94l68 -76q-75 -100 -172 -157.5t-189 -57.5z" />
    <glyph glyph-name="d" unicode="d" horiz-adv-x="1167" 
d="M578 842q-73 0 -141 -85t-68 -255t70.5 -258t160.5 -88q55 0 133 53v528q-22 49 -64.5 77t-90.5 28zM995 276q0 -79 13 -99.5t61 -20.5h72v-101q-278 -40 -408 -78v115q-158 -94 -182.5 -105.5t-52.5 -11.5q-162 0 -291 127.5t-129 340.5t160 366.5t397 153.5
q17 0 98 -13v228q0 86 -18.5 100.5t-124.5 19.5v95q289 42 405 73v-1190z" />
    <glyph glyph-name="e" unicode="e" horiz-adv-x="954" 
d="M512 840q-58 0 -109.5 -68.5t-60.5 -171.5q176 6 234 6t67.5 8.5t9.5 36.5q0 71 -41.5 130t-99.5 59zM518 -25q-198 0 -319 129.5t-121 336.5t147.5 364.5t329.5 157.5q139 0 241.5 -108.5t102.5 -248.5q0 -80 -38.5 -95.5t-528.5 -39.5q17 -138 93.5 -215.5t192.5 -77.5
t207 88l68 -78q-83 -106 -182.5 -159.5t-192.5 -53.5z" />
    <glyph glyph-name="f" unicode="f" horiz-adv-x="700" 
d="M205 225v582h-133l-17 35l68 96h82v10q0 156 64 262t129.5 156.5t128.5 75t127 24.5t128 -42t64 -82t-37.5 -85t-62.5 -45t-47 22t-74.5 48.5t-90.5 26.5t-56 -29t-18 -163t7 -179h225q4 -9 4 -30q0 -77 -34 -101h-195v-582q0 -55 8.5 -76.5t41.5 -31t120 -17.5v-100
h-559v100q89 10 108 29.5t19 95.5z" />
    <glyph glyph-name="g" unicode="g" horiz-adv-x="1060" 
d="M805 -174q0 74 -54 118t-239 44q-100 0 -150.5 -43.5t-50.5 -117.5t71.5 -124.5t183.5 -50.5t175.5 50t63.5 124zM659 628q0 90 -45.5 153t-105.5 63t-100.5 -52.5t-40.5 -141.5t45.5 -154.5t107.5 -65.5t100.5 54t38.5 144zM96 618q0 151 124 248t278 97t262 -62l274 27
l19 -27q-29 -80 -80 -125l-105 4q41 -48 41 -133q0 -152 -116.5 -242t-292.5 -90l-58 2q-6 0 -27.5 -20.5t-21.5 -47t28.5 -46t84.5 -19.5l203 6q133 0 221 -69.5t88 -198.5q0 -173 -162.5 -293.5t-398.5 -120.5q-182 0 -291 82.5t-109 190.5q0 49 28 89t179 136
q-53 14 -109.5 68t-56.5 131q131 52 203 137q-92 32 -148.5 108.5t-56.5 167.5z" />
    <glyph glyph-name="h" unicode="h" horiz-adv-x="1181" 
d="M745 578q0 208 -161 208q-82 0 -148 -75v-478q0 -83 14.5 -102t81.5 -29v-102h-497v102q99 9 119 27t20 94v953q0 86 -18 101.5t-115 20.5v95q169 22 395 73v-630q132 127 276 127t220 -87.5t76 -250.5v-402q0 -76 18 -93.5t104 -27.5v-102h-489v102q75 9 89.5 28.5
t14.5 102.5v345z" />
    <glyph glyph-name="i" unicode="i" horiz-adv-x="641" 
d="M156 1260q0 68 49 116.5t117 48.5t115.5 -48t47.5 -117t-47.5 -117.5t-115.5 -48.5t-117 49t-49 117zM205 246v397q0 102 -17.5 121.5t-119.5 32.5v90q243 29 399 76v-717q0 -91 20 -112.5t117 -31.5v-102h-541v102q100 9 121 31t21 113z" />
    <glyph glyph-name="j" unicode="j" horiz-adv-x="638" 
d="M213 266v379q0 99 -16.5 118.5t-110.5 33.5v90q187 20 389 76v-705q0 -316 -166 -533t-264 -217q-29 0 -60.5 33.5t-31.5 83.5q0 78 53 78q111 12 159 44.5t48 518.5zM164 1260q0 68 49 116.5t117 48.5t116 -48t48 -117t-48.5 -117.5t-115.5 -48.5t-116.5 49t-49.5 117z
" />
    <glyph glyph-name="k" unicode="k" horiz-adv-x="1107" 
d="M174 227v955q0 79 -18 93.5t-117 20.5v97q232 32 391 73v-929q61 12 91.5 40t88 121t57.5 106q0 24 -59 30v96l451 20v-98q-146 -26 -199 -64t-180 -206q27 -50 120.5 -181t139.5 -187.5t85.5 -79t98.5 -32.5v-102h-360q-198 302 -241 376.5t-81 74.5q-1 -2 -12 -2v-222
q0 -78 20.5 -96.5t114.5 -28.5v-102h-540v102q106 9 127.5 27.5t21.5 97.5z" />
    <glyph glyph-name="l" unicode="l" horiz-adv-x="610" 
d="M174 227v951q0 86 -17.5 102t-115.5 23v90q255 32 395 73v-1239q0 -78 20.5 -96.5t118.5 -28.5v-102h-540v102q98 9 118.5 28t20.5 97z" />
    <glyph glyph-name="m" unicode="m" horiz-adv-x="1771" 
d="M205 223v443q0 84 -15.5 101t-101.5 30v92q200 25 373 76v-144q90 67 158 104.5t149 37.5q174 0 246 -146q202 145 322 145t190.5 -80.5t70.5 -228.5v-422q0 -81 19 -100t106 -29v-102h-493v102q74 9 90 27.5t16 95.5v363q0 197 -137 196q-80 0 -168 -84l2 -61v-408
q0 -81 17 -100t90 -29v-102h-475v102q75 9 90.5 28.5t15.5 100.5v355q0 199 -135 198q-72 0 -168 -82v-471q0 -81 13.5 -100t76.5 -29v-102h-496v102q101 9 122.5 27t21.5 94z" />
    <glyph glyph-name="n" unicode="n" horiz-adv-x="1208" 
d="M205 221v449q0 86 -15.5 102t-101.5 25v92q190 16 379 76v-136q128 84 180 109t109 25q131 0 204.5 -81t73.5 -223v-432q0 -78 18 -96.5t103 -28.5v-102h-479v102q69 9 82.5 26.5t13.5 92.5v367q0 197 -133 196q-82 0 -172 -79v-476q0 -80 14 -98.5t80 -28.5v-102h-502
v102q101 9 123.5 27t22.5 92z" />
    <glyph glyph-name="o" unicode="o" horiz-adv-x="1112" 
d="M741 426q0 196 -52.5 306t-149.5 110q-73 0 -121.5 -83.5t-48.5 -254.5t56 -289.5t153 -118.5q163 0 163 330zM76 462q0 214 144 357.5t347 143.5t333 -137.5t130 -355.5t-136 -356.5t-346 -138.5t-341 136.5t-131 350.5z" />
    <glyph glyph-name="p" unicode="p" horiz-adv-x="1165" 
d="M819 458q0 172 -65.5 249t-147.5 77t-160 -61v-537q76 -72 168.5 -71.5t148.5 86t56 257.5zM184 -231v886q0 94 -15.5 111.5t-107.5 24.5v96l385 96v-141q182 106 200.5 113.5t68.5 7.5q168 0 270 -122t102 -294q0 -281 -143.5 -392t-231.5 -145.5t-116 -34.5
q-87 0 -150 29v-240q0 -60 9.5 -83.5t43 -32.5t124.5 -15v-100h-580v100q99 7 120 28t21 108z" />
    <glyph glyph-name="q" unicode="q" horiz-adv-x="1163" 
d="M582 836q-88 0 -151.5 -90t-63.5 -253t82 -258.5t198 -95.5q45 0 92 27v598q-69 72 -157 72zM1001 713v-957q0 -78 20.5 -96.5t115.5 -28.5v-98h-574v98q123 9 149.5 28.5t26.5 96.5v291l-178 -72q-225 0 -354 131.5t-129 317.5q0 229 169 384t423 155q9 0 60.5 -9.5
t84.5 -21.5t59.5 -12t124.5 24l7 -10q-5 -70 -5 -221z" />
    <glyph glyph-name="r" unicode="r" horiz-adv-x="878" 
d="M205 227v437q0 83 -15.5 99.5t-103.5 29.5v92q166 18 381 76v-209h4q125 211 246 211q56 0 96.5 -41t40.5 -105t-44 -114.5t-86 -50.5q-20 0 -52 26t-78 24q-47 0 -87 -50.5t-40 -69.5v-355q0 -79 24 -97t144 -28v-102h-567v102q96 9 116.5 27.5t20.5 97.5z" />
    <glyph glyph-name="s" unicode="s" horiz-adv-x="878" 
d="M455 840q-46 0 -76.5 -26.5t-30.5 -65.5q0 -84 156 -143t227.5 -136.5t71.5 -179.5q0 -143 -116.5 -228.5t-262.5 -85.5t-217.5 38.5t-78.5 62t-17.5 111.5t-10.5 159l97 12q35 -117 106.5 -188.5t151.5 -71.5q49 0 80.5 25t31.5 70q0 105 -160 174t-218 140t-58 152
q0 130 100 217t265 87q116 0 213 -39q28 -68 55 -256l-100 -27q-77 199 -209 199z" />
    <glyph glyph-name="t" unicode="t" horiz-adv-x="716" 
d="M188 244v563h-127l-16 35l66 96h77v129l226 166l37 -16v-279h196q17 -18 17 -54t-12 -56.5t-19 -20.5h-182v-479q0 -103 31.5 -144t77.5 -41t95 23l31 -96q-176 -75 -204.5 -85t-59.5 -10q-234 1 -234 269z" />
    <glyph glyph-name="u" unicode="u" horiz-adv-x="1183" 
d="M453 340q1 -182 143 -182q72 0 154 82v458q0 93 -22.5 101t-102.5 20v94q199 10 387 39v-673q0 -80 11.5 -104.5t54.5 -24.5q3 0 73 2v-101q-162 -19 -383 -76l-18 15v119q-135 -98 -188.5 -116t-102.5 -18q-127 0 -198 78.5t-71 220.5v424q0 94 -22.5 101.5t-93.5 17.5
v96q15 0 153.5 13t231.5 26q-6 -77 -6 -313v-299z" />
    <glyph glyph-name="v" unicode="v" horiz-adv-x="1015" 
d="M20 938h494v-102q-81 -9 -81 -50q0 -13 64.5 -207.5t84.5 -244.5q154 413 154 442t-24.5 40.5t-70.5 19.5v102h399v-102q-70 -10 -100.5 -27.5t-56 -65t-118 -270.5t-187.5 -487h-125q-266 711 -297 775.5t-136 74.5v102z" />
    <glyph glyph-name="w" unicode="w" horiz-adv-x="1435" 
d="M514 836q-106 -8 -106 -50q0 -22 29 -144l75 -304h4l213 588h119l199 -588h4q115 381 115 426t-29 55t-88 17v102h411v-102q-67 -11 -90.5 -27t-42.5 -53.5t-101 -269.5l-173 -500h-125l-205 569q-129 -318 -223 -569h-115l-168 557q-50 166 -63.5 200.5t-34 56.5
t-107.5 36v102h502v-102z" />
    <glyph glyph-name="x" unicode="x" horiz-adv-x="1060" 
d="M43 938h498v-102q-55 -14 -55 -30t14 -38l75 -129q100 138 101 167q0 24 -47 30v102h393v-102q-117 -10 -191.5 -77.5t-185.5 -226.5l172 -282q47 -76 102.5 -110.5t137.5 -37.5v-102h-529v102q63 7 64 36q0 17 -19 48l-88 146q-108 -159 -107 -193q0 -32 54 -37v-102
h-407v102q140 17 211 100.5t178 241.5l-164 272q-37 61 -78 86t-129 34v102z" />
    <glyph glyph-name="y" unicode="y" horiz-adv-x="1036" 
d="M4 938h520v-102q-94 -8 -94 -57q0 -16 39 -136l104 -324l132 347q33 87 32 112q0 42 -102 58v102h422v-102q-113 -11 -155 -78t-234.5 -519t-249.5 -661q-19 -70 -94 -70q-54 0 -105 43t-51 93t51 86q78 53 113 87.5t63.5 92.5t28.5 94t-28 115l-137 373q-55 148 -79 206
t-54.5 93t-121.5 45v102z" />
    <glyph glyph-name="z" unicode="z" horiz-adv-x="937" 
d="M330 938h516l18 -35l-458 -778h122q144 0 188 49t105 158l105 -37l-95 -295h-741l-27 37q367 608 463 776h-94q-133 0 -167.5 -51.5t-78.5 -157.5l-100 37q46 164 78 342h59q8 -45 107 -45z" />
    <glyph glyph-name="braceleft" unicode="{" horiz-adv-x="716" 
d="M598 -344q-360 0 -360 258q0 122 10 242t10 174q0 56 -10 86.5t-48 55.5t-116 30v106q78 4 116 29t48 56t10 75t-10 158q-10 112 -10 227t55.5 208t304.5 93v-108q-74 -8 -119 -43t-45 -117t18 -218q18 -138 17 -171q0 -198 -156 -238v-8q156 -40 156 -238
q1 -33 -17 -170t-18 -219t47.5 -116.5t116.5 -43.5v-108z" />
    <glyph glyph-name="bar" unicode="|" horiz-adv-x="540" 
d="M168 -512v2048h205v-2048h-205z" />
    <glyph glyph-name="braceright" unicode="}" horiz-adv-x="716" 
d="M119 1454q362 0 362 -258q0 -123 -11 -242t-11 -198t54.5 -112.5t121.5 -35.5l-2 -104q-71 -2 -122.5 -36.5t-51.5 -123.5q0 -48 11 -162t11 -250q0 -276 -362 -276v104q166 20 166 160l-15 172l-22 221q0 198 155 238v8q-156 42 -155 238q0 33 18 179t19 218
q0 132 -166 156v104z" />
    <glyph glyph-name="asciitilde" unicode="~" horiz-adv-x="1327" 
d="M874 414q-49 0 -105 14.5t-159 72.5t-170 58q-111 0 -204 -149l-105 104q125 205 324 205q61 0 115 -15.5t147 -67.5t160 -52q132 0 204 141l119 -86q-116 -225 -326 -225z" />
    <glyph glyph-name="uni00A0" unicode="&#xa0;" horiz-adv-x="477" 
 />
    <glyph glyph-name="exclamdown" unicode="&#xa1;" horiz-adv-x="536" 
d="M440 -342q0 -94 -171 -94t-171 94q0 24 34 223t75 588q1 19 63 19t64 -19q42 -387 74 -581t32 -230zM82 764q0 84 52 138t132 54t132.5 -54t52.5 -138t-53.5 -139.5t-131.5 -55.5t-131 55.5t-53 139.5z" />
    <glyph glyph-name="cent" unicode="&#xa2;" horiz-adv-x="1001" 
d="M332 696q0 -122 54.5 -209.5t143.5 -113.5v604q-80 -9 -139 -84t-59 -197zM641 -16h-111v198q-210 10 -331 134.5t-121 292.5t118 306t334 183v172h111v-164q9 2 47 2t118.5 -23t80.5 -92q0 -47 -30.5 -84t-50.5 -37t-44 23q-63 60 -121 74v-607q119 5 217 105l68 -76
q-121 -164 -285 -203v-204z" />
    <glyph glyph-name="sterling" unicode="&#xa3;" horiz-adv-x="1001" 
d="M816 580h-252q4 -5 4 -27q0 -165 -198 -287q104 -20 155 -40t132 -40t116 -20q61 0 61 37t-17 63q-18 26 -18 52t34.5 55.5t70.5 29.5t58 -37.5t22 -84.5q0 -111 -109 -208.5t-253 -97.5q-102 0 -312 88q-101 43 -104 43q-47 0 -58 -81q-2 -31 -42 -31t-59.5 17.5
t-19.5 43.5q0 67 152 189q123 98 123 220q0 67 -18 116h-232v114h201q-55 128 -55 228t74 194.5t180 139t172 44.5t140 -43t74 -90q0 -28 -36 -71.5t-60 -43.5t-41 13q-108 84 -194 84q-41 0 -67.5 -28.5t-26.5 -78.5t50.5 -162.5t80.5 -185.5h272v-114z" />
    <glyph glyph-name="currency" unicode="&#xa4;" horiz-adv-x="1001" 
d="M678 664q0 104 -55 171.5t-147 67.5t-149 -67.5t-57 -171.5t56.5 -170t148.5 -66t147.5 66t55.5 170zM883 666q0 -143 -82 -250l172 -160l-121 -121l-160 180q-92 -67 -220 -67t-222 67l-160 -180l-119 121l174 160q-84 100 -84 250q0 67 22.5 136t61.5 109l-174 162
l119 123l158 -180q98 68 224 68t222 -68l158 180l121 -123l-172 -162q37 -41 59.5 -111.5t22.5 -133.5z" />
    <glyph glyph-name="yen" unicode="&#xa5;" horiz-adv-x="1001" 
d="M379 233v89h-303v114h303v135h-303v115h268q-50 101 -132.5 249.5t-107.5 180.5t-51 42.5t-82 17.5v100h512v-100q-77 -14 -87.5 -23t-10.5 -24t25 -62l151 -309q60 117 109 232t49 134t-12 31t-95 21v100h416v-100q-93 -7 -134.5 -53t-236.5 -437h261v-115h-285v-135
h287v-114h-287v-91q0 -82 27 -102t145 -27v-102h-592v102q115 6 140.5 26.5t25.5 104.5z" />
    <glyph glyph-name="brokenbar" unicode="&#xa6;" horiz-adv-x="540" 
d="M168 -358v716h205v-716h-205zM168 666v716h205v-716h-205z" />
    <glyph glyph-name="section" unicode="&#xa7;" horiz-adv-x="1095" 
d="M242 836q0 -94 52 -163t222 -191t221 -195t51 -166h5q59 91 59 190q0 172 -188 291t-275 187.5t-87 184.5q0 15 3 32l-4 4q-59 -80 -59 -174zM430 1096q0 -48 34 -83t188 -130t213.5 -147t101 -136t41.5 -176t-28.5 -169.5t-73 -148t-96.5 -133t-93 -103.5t-84.5 -72
t-105.5 -60t-87 -29q-77 0 -143 33.5t-66 69.5t40 85t71 49q6 0 12 -3q98 -49 161 -49t102.5 27t39.5 84t-44 113t-187 154t-202.5 150.5t-98.5 122t-39 157.5t24.5 160t77.5 157.5t153.5 180t185.5 130.5t124 36t112 -30t73 -83q0 -28 -33 -77.5t-66 -49.5q-15 0 -28 11
q-156 117 -217.5 62t-61.5 -103z" />
    <glyph glyph-name="dieresis" unicode="&#xa8;" 
d="M338 1246q0 -54 -36 -89t-92 -35t-92 35t-36 90t38 94t92 39t90 -40t36 -94zM737 1246q0 -54 -35 -89t-92 -35t-93 35t-36 89t37.5 94t91.5 40t90.5 -40t36.5 -94z" />
    <glyph glyph-name="copyright" unicode="&#xa9;" horiz-adv-x="1505" 
d="M792 928q-82 0 -140 -71t-58 -195t58 -198.5t153 -74.5q130 0 207 166l73 -16l-39 -144q-13 -49 -15 -54t-87 -23.5t-156 -18.5q-184 0 -292.5 103t-108.5 258t120 256.5t296 101.5q115 0 235 -37l23 -205l-70 -18q-30 90 -73.5 130t-125.5 40zM1260 658
q0 222 -142 367.5t-362 145.5t-363 -144.5t-143 -367t143 -368.5t363 -146t362 145.5t142 367.5zM98 658q0 262 188 444t468 182t466.5 -182t186.5 -444t-187.5 -443.5t-467.5 -181.5t-467 181.5t-187 443.5z" />
    <glyph glyph-name="ordfeminine" unicode="&#xaa;" horiz-adv-x="741" 
d="M258 696q0 -32 27 -54t64 -22t71 33v168q-131 -52 -146.5 -72.5t-15.5 -52.5zM604 928v-234q0 -76 41 -76q24 0 47 11l21 -66l-164 -74q-82 0 -123 84q-130 -84 -172 -84q-83 0 -139 53.5t-56 112.5t23 93.5t58.5 53t142.5 54.5t137 55v21q0 37 -24 59.5t-62 22.5
q-74 0 -105 -113q-11 -35 -53 -35t-74 22t-32 46t24.5 55t131.5 75t151 44q110 0 168.5 -50.5t58.5 -129.5z" />
    <glyph glyph-name="guillemotleft" unicode="&#xab;" horiz-adv-x="985" 
d="M907 102l-94 -63q-122 193 -336 430q209 231 336 430l94 -65l-188 -365zM510 102l-94 -63q-122 193 -336 430q209 231 336 430l94 -65l-188 -365z" />
    <glyph glyph-name="logicalnot" unicode="&#xac;" horiz-adv-x="1327" 
d="M109 850h1112v-625h-207v445h-905v180z" />
    <glyph glyph-name="uni00AD" unicode="&#xad;" horiz-adv-x="673" 
d="M80 571h514v-172h-514v172z" />
    <glyph glyph-name="registered" unicode="&#xae;" horiz-adv-x="1263" 
d="M565 1018v-166h33q61 0 86 33t25 77t-30.5 68.5t-66.5 24.5t-41.5 -7t-5.5 -30zM438 690v303q0 49 -12 59.5t-53 14.5v49h266q213 0 213 -149q0 -92 -117 -140q100 -196 176 -229l-16 -39q-75 5 -106 12t-59 25t-51.5 65.5t-53.5 114.5q-11 25 -43 25h-17v-111
q0 -50 11.5 -60t66.5 -14v-53h-270v53q41 2 53 12.5t12 61.5zM1036 842q0 178 -113.5 293.5t-288.5 115.5t-288 -114.5t-113 -292.5t113.5 -296t287.5 -118t288 117t114 295zM109 842q0 214 151.5 359t371.5 145t372.5 -145.5t152.5 -359.5t-152.5 -359.5t-372.5 -145.5
t-371.5 146t-151.5 360z" />
    <glyph glyph-name="macron" unicode="&#xaf;" 
d="M139 1331h539v-151h-539v151z" />
    <glyph glyph-name="degree" unicode="&#xb0;" horiz-adv-x="737" 
d="M522 1038q0 80 -41 134.5t-108.5 54.5t-109.5 -52.5t-42 -132.5t42.5 -131t107.5 -51t108 49t43 129zM57 1042q0 136 90.5 220t222.5 84t221 -84.5t89 -219.5t-89 -218t-223 -83t-222.5 82.5t-88.5 218.5z" />
    <glyph glyph-name="plusminus" unicode="&#xb1;" horiz-adv-x="1327" 
d="M106 180h1115v-180h-1115v180zM106 848h455v379h207v-379h453v-180h-453v-406h-207v406h-455v180z" />
    <glyph glyph-name="two.superior" unicode="&#xb2;" horiz-adv-x="733" 
d="M63 504v71q221 190 282 280t61 155t-33 101t-86 36q-80 0 -152 -105l-63 60l61 91q74 107 208 107t209 -66t75 -175q0 -62 -38.5 -131.5t-256.5 -265.5v-3h143q58 0 77 12t50 68l78 -12l-49 -223h-566z" />
    <glyph glyph-name="three.superior" unicode="&#xb3;" horiz-adv-x="733" 
d="M364 1300q110 0 174.5 -48t64.5 -122q0 -85 -137 -139v-4q91 -23 139.5 -76t48.5 -127q0 -130 -135 -212.5t-266 -82.5q-58 0 -116.5 23t-58.5 62t25.5 74t49.5 35t36 -9q91 -72 142 -72t81.5 38t30.5 104t-40.5 105.5t-94.5 39.5t-106 -19l-19 76q97 27 148 66.5
t51 79.5t-22.5 62t-59.5 22q-72 0 -133 -99l-66 56l61 86q41 55 106 68t96 13z" />
    <glyph glyph-name="acute" unicode="&#xb4;" 
d="M556 1463q18 0 74.5 -37.5t56.5 -66.5t-22 -48l-286 -248l-78 65l150 227q58 89 72.5 98.5t32.5 9.5z" />
    <glyph glyph-name="mu" unicode="&#xb5;" horiz-adv-x="1161" 
d="M160 231v707h262v-576q0 -96 38 -150t104 -54t113.5 50.5t47.5 143.5v586h262v-688q0 -92 43 -92q34 0 51 67l88 -30q-20 -106 -84 -163t-157 -57q-142 0 -187 142h-4q-60 -141 -202 -142q-110 0 -164 125h-6l30 -534l-235 -62l-19 17q19 571 19 710z" />
    <glyph glyph-name="paragraph" unicode="&#xb6;" horiz-adv-x="1048" 
d="M539 1319h436l16 -41l-65 -70l-170 -20v-975q0 -184 -77.5 -298t-170 -158t-117.5 -44q-67 0 -125 34t-58 66t33 73t59 41q6 0 11 -3q69 -47 145 -47t107 76t31 221v305l-133 -65q-4 -4 -33 -4q-114 0 -230 125t-116 289t67.5 270.5t180 165.5t209.5 59z" />
    <glyph glyph-name="periodcentered" unicode="&#xb7;" horiz-adv-x="489" 
d="M428 514q0 -84 -51.5 -137t-130.5 -53t-131 53t-52 137t52.5 138.5t130.5 54.5t130 -54.5t52 -138.5z" />
    <glyph glyph-name="cedilla" unicode="&#xb8;" 
d="M431 -94q0 -13 28 -45q72 -84 71 -148q0 -128 -235 -215l-37 74q53 25 85 56.5t32 59.5t-42 76q-42 46 -42 74t22 58l78 104h107q-50 -59 -58.5 -70t-8.5 -24z" />
    <glyph glyph-name="one.superior" unicode="&#xb9;" horiz-adv-x="733" 
d="M272 711v344q0 74 -11.5 82.5t-110.5 13.5v84q207 27 333 65v-589q0 -78 22 -96.5t105 -24.5v-86h-465v86q78 4 102.5 21.5t24.5 99.5z" />
    <glyph glyph-name="ordmasculine" unicode="&#xba;" horiz-adv-x="770" 
d="M379 1014q-109 0 -109 -196q0 -102 32.5 -167t88.5 -65q107 -1 107 198q0 111 -33.5 170.5t-85.5 59.5zM55 793q0 133 100.5 225t238.5 92t227.5 -88t89.5 -225t-95.5 -222.5t-237.5 -85.5t-232.5 85.5t-90.5 218.5z" />
    <glyph glyph-name="guillemotright" unicode="&#xbb;" horiz-adv-x="985" 
d="M569 39l-94 63l189 367l-189 365l94 65q137 -209 336 -430q-205 -227 -336 -430zM180 39l-94 63l188 367l-188 365l94 65q127 -199 336 -430q-214 -237 -336 -430z" />
    <glyph glyph-name="onequarter" unicode="&#xbc;" horiz-adv-x="1839" 
d="M295 711v344q0 75 -12 83t-111 13v84q207 27 334 65v-589q0 -79 22 -97t105 -24v-86h-465v86q78 4 102 22t25 99zM1278 1329l117 -76l-828 -1331l-110 82zM1370 312v269h-6q-77 -98 -186 -269h192zM1569 798v-486h119v-100h-119v-27q1 -65 23 -79t85 -19v-86h-448v86
q73 4 107 15t34 83v27h-354v59q228 309 418 527h135z" />
    <glyph glyph-name="onehalf" unicode="&#xbd;" horiz-adv-x="1839" 
d="M265 711v344q0 75 -12 83t-111 13v84q207 27 334 65v-589q0 -79 22 -97t105 -24v-86h-465v86q78 4 103 21q24 18 24 100zM1239 1329l117 -76l-828 -1331l-110 82zM1102 1v72q221 190 281 280q61 91 61 155t-33 100t-86 36q-80 0 -151 -104l-64 59l61 91q72 105 224 108
q119 0 193 -66t75 -176q0 -62 -38 -132t-257 -265v-2h143q58 0 78 11q19 12 49 69l78 -13l-49 -223h-565z" />
    <glyph glyph-name="threequarters" unicode="&#xbe;" horiz-adv-x="1839" 
d="M429 1300q110 0 175 -48t65 -122q0 -85 -138 -139v-4q91 -23 140 -76t49 -127q0 -130 -135 -212t-267 -83q-58 0 -116 23t-58 62t25 74t49 35t37 -9q91 -72 141 -72t82 37q31 37 31 104q-1 67 -41 106q-71 69 -201 21l-18 76q97 27 148 66t51 79q0 41 -24 63
q-22 22 -58 22q-72 0 -134 -99l-65 56l60 86q41 55 142 75q30 6 60 6zM1285 1329l117 -76l-828 -1331l-110 82zM1365 312v269h-6q-77 -98 -187 -269h193zM1564 798v-486h118v-100h-118v-27q0 -65 22 -79t86 -19v-86h-448v86q74 4 108 15t33 83v27h-354v59q228 309 417 527
h136z" />
    <glyph glyph-name="questiondown" unicode="&#xbf;" horiz-adv-x="729" 
d="M600 226q0 -130 -184 -255q-158 -109 -158 -149q0 -49 67 -49t162 59q41 25 54 25q35 0 74.5 -45.5t39.5 -87.5t-32 -75.5t-98 -59t-115 -25.5q-129 0 -236.5 106.5t-107.5 236.5t102 216q180 151 180 195t-39 90l80 81q211 -133 211 -263zM201 766q0 84 52.5 137
t130.5 53t130.5 -54t52.5 -137t-52.5 -138.5t-130.5 -55.5t-130.5 55.5t-52.5 139.5z" />
    <glyph glyph-name="Agrave" unicode="&#xc0;" horiz-adv-x="1435" 
d="M520 522h285l-135 428h-6zM416 158q0 -29 28 -39t97 -17v-102h-473v102q102 8 140 42t73 128l389 1045l129 29q305 -891 354 -1029t88 -172t129 -43v-102h-547v102q63 8 85 18t21 34q0 24 -32 111t-51 124h-363q-3 -2 -35 -102t-32 -129zM482 1761q12 -1 22 -5t113 -73
l232 -154l-49 -74l-248 84q-135 45 -147 50q-33 14 -32 39t41 79t68 54z" />
    <glyph glyph-name="Aacute" unicode="&#xc1;" horiz-adv-x="1435" 
d="M520 522h285l-135 428h-6zM416 158q0 -29 28 -39t97 -17v-102h-473v102q102 8 140 42t73 128l389 1045l129 29q305 -891 354 -1029t88 -172t129 -43v-102h-547v102q63 8 85 18t21 34q0 24 -32 111t-51 124h-363q-3 -2 -35 -102t-32 -129zM1093 1636q0 -22 -12 -33
t-68 -31l-345 -117l-50 74l230 153q102 69 112 74t20 4q26 0 70 -50q44 -52 43 -74z" />
    <glyph glyph-name="Acircumflex" unicode="&#xc2;" horiz-adv-x="1435" 
d="M520 522h285l-135 428h-6zM416 158q0 -29 28 -39t97 -17v-102h-473v102q102 8 140 42t73 128l389 1045l129 29q305 -891 354 -1029t88 -172t129 -43v-102h-547v102q63 8 85 18t21 34q0 24 -32 111t-51 124h-363q-3 -2 -35 -102t-32 -129zM710 1751h61q103 -99 277 -221
l-52 -76q-137 54 -256 131q-117 -75 -254 -131l-53 76q163 117 277 221z" />
    <glyph glyph-name="Atilde" unicode="&#xc3;" horiz-adv-x="1435" 
d="M520 522h285l-135 428h-6zM416 158q0 -29 28 -39t97 -17v-102h-473v102q102 8 140 42t73 128l389 1045l129 29q305 -891 354 -1029t88 -172t129 -43v-102h-547v102q63 8 85 18t21 34q0 24 -32 111t-51 124h-363q-3 -2 -35 -102t-32 -129zM637 1686q52 0 140 -35
q89 -35 119 -35t50 16t49 66l88 -53q-81 -166 -204 -166q-51 0 -135 36q-84 35 -126 35t-96 -90l-86 68q93 158 201 158z" />
    <glyph glyph-name="Adieresis" unicode="&#xc4;" horiz-adv-x="1435" 
d="M520 522h285l-135 428h-6zM416 158q0 -29 28 -39t97 -17v-102h-473v102q102 8 140 42t73 128l389 1045l129 29q305 -891 354 -1029t88 -172t129 -43v-102h-547v102q63 8 85 18t21 34q0 24 -32 111t-51 124h-363q-3 -2 -35 -102t-32 -129zM409 1580q0 54 37 92
q36 38 90 38t90 -38t37 -93q0 -55 -35 -89q-34 -34 -90 -34t-93 35q-36 35 -36 89zM1068 1579q0 -55 -34 -89t-90 -34t-92 34t-36 89t36 93t90 38t90 -38q36 -39 36 -93z" />
    <glyph glyph-name="Aring" unicode="&#xc5;" horiz-adv-x="1435" 
d="M520 522h285l-135 428h-6zM416 158q0 -29 28 -39t97 -17v-102h-473v102q102 8 140 42t73 128l389 1045l129 29q305 -891 354 -1029t88 -172t129 -43v-102h-547v102q63 8 85 18t21 34q0 24 -32 111t-51 124h-363q-3 -2 -35 -102t-32 -129zM841 1670q0 50 -29 84t-78 33
q-49 0 -81 -33q-31 -32 -31 -82t30 -84t80 -34q48 0 78 32q30 34 31 84zM497 1674q0 94 70 154q71 60 163 59q92 0 163 -61t71 -154t-70 -155t-164 -62t-164 62q-69 63 -69 157z" />
    <glyph glyph-name="AE" unicode="&#xc6;" horiz-adv-x="1794" 
d="M872 750v464h-16q-102 -205 -219 -464h235zM872 285v342h-290q-184 -404 -184 -448t31 -57.5t95 -19.5v-102h-510v102q105 13 150.5 51t78.5 100l209 427q175 365 204 420.5t29 73.5t-13 26t-121 21v98h1094l20 -311l-106 -11q-35 131 -86.5 165t-190.5 34h-72
q-56 0 -65.5 -9t-9.5 -61v-376h131q87 0 120.5 9.5t46.5 39t25 112.5h107v-458h-107q-11 89 -24 121t-46.5 42.5t-121.5 10.5h-131v-340q0 -79 15 -113.5t56 -42.5t158 -8t174 40.5t115 215.5l108 -21q-28 -213 -69 -358h-994v102q121 7 147.5 35.5t26.5 147.5z" />
    <glyph glyph-name="Ccedilla" unicode="&#xc7;" horiz-adv-x="1288" 
d="M816 -90q0 -14 28 -47q70 -85 69 -148q0 -128 -231 -215l-37 70q52 26 83.5 59t31.5 57.5t-40 73.5q-40 50 -41 78q0 28 20 56l57 79q-321 12 -490.5 198t-169.5 479t206 494.5t532 201.5q156 0 333 -50q20 -141 35 -350l-106 -16q-43 143 -115 218t-205 75
q-159 0 -264.5 -153.5t-105.5 -403.5t107 -410t273 -160q112 0 190.5 74.5t160.5 243.5l110 -25q-58 -262 -98 -362q-135 -38 -291 -52q-42 -51 -42 -65z" />
    <glyph glyph-name="Egrave" unicode="&#xc8;" horiz-adv-x="1183" 
d="M250 285v749q0 117 -25 145t-131 38v102h942l21 -311l-109 -15q-35 135 -83 169t-177 34h-88q-50 0 -63 -7t-13 -65v-368h129q120 0 148 22t47 131h106v-454h-106q-12 87 -26 117t-47 39t-122 10h-129v-330q0 -82 15 -116t56 -43t155 -9t172 35q57 35 125 221l104 -25
q-24 -185 -68 -354h-1003v102q118 9 144 37t26 146zM276 1636q0 18 40 72t69 54q11 0 21 -4t114 -74l232 -154l-50 -74l-247 84q-135 45 -147 50t-22 16q-10 12 -10 30z" />
    <glyph glyph-name="Eacute" unicode="&#xc9;" horiz-adv-x="1183" 
d="M250 285v749q0 117 -25 145t-131 38v102h942l21 -311l-109 -15q-35 135 -83 169t-177 34h-88q-50 0 -63 -7t-13 -65v-368h129q120 0 148 22t47 131h106v-454h-106q-12 87 -26 117t-47 39t-122 10h-129v-330q0 -82 15 -116t56 -43t155 -9t172 35q57 35 125 221l104 -25
q-24 -185 -68 -354h-1003v102q118 9 144 37t26 146zM972 1638q0 -22 -12 -34q-12 -11 -68 -31l-345 -117l-49 74l229 153q102 69 112 74t20 4q25 -1 69 -51t44 -72z" />
    <glyph glyph-name="Ecircumflex" unicode="&#xca;" horiz-adv-x="1183" 
d="M250 285v749q0 117 -25 145t-131 38v102h942l21 -311l-109 -15q-35 135 -83 169t-177 34h-88q-50 0 -63 -7t-13 -65v-368h129q120 0 148 22t47 131h106v-454h-106q-12 87 -26 117t-47 39t-122 10h-129v-330q0 -82 15 -116t56 -43t155 -9t172 35q57 35 125 221l104 -25
q-24 -185 -68 -354h-1003v102q118 9 144 37t26 146zM583 1753h61q103 -99 277 -221l-52 -76q-137 54 -256 131q-117 -75 -254 -131l-53 76q163 117 277 221z" />
    <glyph glyph-name="Edieresis" unicode="&#xcb;" horiz-adv-x="1183" 
d="M250 285v749q0 117 -25 145t-131 38v102h942l21 -311l-109 -15q-35 135 -83 169t-177 34h-88q-50 0 -63 -7t-13 -65v-368h129q120 0 148 22t47 131h106v-454h-106q-12 87 -26 117t-47 39t-122 10h-129v-330q0 -82 15 -116t56 -43t155 -9t172 35q57 35 125 221l104 -25
q-24 -185 -68 -354h-1003v102q118 9 144 37t26 146zM550 1579q0 -55 -35 -89t-91 -34t-92 35t-36 89t37 92t91 38t90 -38q36 -39 36 -93zM955 1579q0 -55 -34 -89q-33 -34 -89 -34t-93 34q-36 34 -36 89q1 55 37 93t89 38t90 -38q36 -39 36 -93z" />
    <glyph glyph-name="Igrave" unicode="&#xcc;" horiz-adv-x="780" 
d="M252 285v749q0 118 -25 146t-135 37v102h594v-102q-112 -7 -136 -35t-24 -148v-749q0 -119 25 -147t135 -36v-102h-594v102q110 8 135 36t25 147zM130 1762q12 0 22 -4t113 -74l232 -154l-50 -74l-247 84q-135 45 -147 50q-33 14 -32 39t41 79t68 54z" />
    <glyph glyph-name="Iacute" unicode="&#xcd;" horiz-adv-x="780" 
d="M252 285v749q0 118 -25 146t-135 37v102h594v-102q-112 -7 -136 -35t-24 -148v-749q0 -119 25 -147t135 -36v-102h-594v102q110 8 135 36t25 147zM303 1530l229 153q102 69 112 74t21 4q25 -1 69 -51t44 -72t-13 -34q-12 -11 -68 -31l-345 -117z" />
    <glyph glyph-name="Icircumflex" unicode="&#xce;" horiz-adv-x="780" 
d="M252 285v749q0 118 -25 146t-135 37v102h594v-102q-112 -7 -136 -35t-24 -148v-749q0 -119 25 -147t135 -36v-102h-594v102q110 8 135 36t25 147zM359 1753h62q103 -99 276 -221l-51 -76q-137 54 -256 131q-117 -75 -254 -131l-53 76q162 117 276 221z" />
    <glyph glyph-name="Idieresis" unicode="&#xcf;" horiz-adv-x="780" 
d="M252 285v749q0 118 -25 146t-135 37v102h594v-102q-112 -7 -136 -35t-24 -148v-749q0 -119 25 -147t135 -36v-102h-594v102q110 8 135 36t25 147zM313 1579q0 -54 -34 -89q-35 -34 -91 -34t-92 35t-36 89t36 92q38 38 91 38t90 -38q36 -39 36 -93zM592 1710q54 0 90 -38
t37 -93q0 -55 -34 -89t-90 -34t-92 34t-36 89t36 93q35 38 89 38z" />
    <glyph glyph-name="Eth" unicode="&#xd0;" horiz-adv-x="1513" 
d="M553 1081v-327h254v-129h-254v-334q0 -111 34 -139.5t113 -28.5q187 0 299.5 145t112.5 406q0 337 -135 431.5t-307 94.5q-87 0 -102 -22.5t-15 -96.5zM279 285v340h-185v129h185v278q0 119 -24.5 148t-127.5 39v100h569q373 0 547 -173t174 -433q0 -333 -208.5 -523
t-610.5 -190h-485v100q114 9 140 38t26 147z" />
    <glyph glyph-name="Ntilde" unicode="&#xd1;" horiz-adv-x="1462" 
d="M248 510v412q0 133 -12 181q-24 98 -189 111v105h381l668 -870h4v354q0 239 -24 330q-9 37 -48 57t-137 24v105h524v-105q-132 -5 -149 -75q-8 -32 -16 -131t-9 -205v-817h-149l-699 952h-4v-428q0 -308 35 -353t176 -53v-104h-524v104q129 5 147 76q25 94 25 330z
M620 1686q52 0 140 -35t118 -35t51 16q20 16 49 66l88 -53q-81 -166 -205 -166q-50 0 -134 36q-84 35 -126 35t-96 -90l-86 68q93 158 201 158z" />
    <glyph glyph-name="Ograve" unicode="&#xd2;" horiz-adv-x="1445" 
d="M1044 634q0 274 -86 431q-86 158 -236 158q-150 -1 -234 -141t-82 -401q0 -261 93 -423t257 -162q288 0 288 538zM720 -27q-278 1 -452 191t-174 482t175 495q175 205 454 205t454 -186t175 -492q0 -305 -177 -500t-455 -195zM474 1761q12 -1 22 -5t113 -73l232 -154
l-49 -74l-248 84q-135 45 -147 50q-33 14 -32 39t41 79t68 54z" />
    <glyph glyph-name="Oacute" unicode="&#xd3;" horiz-adv-x="1445" 
d="M1044 634q0 274 -86 431q-86 158 -236 158q-150 -1 -234 -141t-82 -401q0 -261 93 -423t257 -162q288 0 288 538zM720 -27q-278 1 -452 191t-174 482t175 495q175 205 454 205t454 -186t175 -492q0 -305 -177 -500t-455 -195zM1094 1636q0 -22 -12 -33t-68 -31l-345 -117
l-49 74l229 153q102 69 112 74t20 4q25 0 69 -50q44 -52 44 -74z" />
    <glyph glyph-name="Ocircumflex" unicode="&#xd4;" horiz-adv-x="1445" 
d="M1044 634q0 274 -86 431q-86 158 -236 158q-150 -1 -234 -141t-82 -401q0 -261 93 -423t257 -162q288 0 288 538zM720 -27q-278 1 -452 191t-174 482t175 495q175 205 454 205t454 -186t175 -492q0 -305 -177 -500t-455 -195zM692 1751h62q103 -99 276 -221l-51 -76
q-137 54 -256 131q-117 -75 -254 -131l-53 76q162 117 276 221z" />
    <glyph glyph-name="Otilde" unicode="&#xd5;" horiz-adv-x="1445" 
d="M1044 634q0 274 -86 431q-86 158 -236 158q-150 -1 -234 -141t-82 -401q0 -261 93 -423t257 -162q288 0 288 538zM720 -27q-278 1 -452 191t-174 482t175 495q175 205 454 205t454 -186t175 -492q0 -305 -177 -500t-455 -195zM602 1686q52 0 140 -35t118 -35t51 16
q20 16 50 66l88 -53q-81 -166 -205 -166q-50 0 -134 36q-84 35 -126 35t-97 -90l-86 68q93 158 201 158z" />
    <glyph glyph-name="Odieresis" unicode="&#xd6;" horiz-adv-x="1445" 
d="M1044 634q0 274 -86 431q-86 158 -236 158q-150 -1 -234 -141t-82 -401q0 -261 93 -423t257 -162q288 0 288 538zM720 -27q-278 1 -452 191t-174 482t175 495q175 205 454 205t454 -186t175 -492q0 -305 -177 -500t-455 -195zM645 1579q0 -55 -35 -89q-34 -34 -90 -34
t-92 35t-36 89t36 92q38 38 91 38t90 -38q36 -39 36 -93zM924 1710q54 0 90 -38t37 -93q-1 -55 -35 -89t-90 -34t-91 34q-36 34 -36 89t36 93q35 38 89 38z" />
    <glyph glyph-name="multiply" unicode="&#xd7;" horiz-adv-x="1327" 
d="M1178 942l-383 -393l383 -391l-134 -138l-382 394l-381 -394l-131 138l378 391l-378 387l131 137l381 -389l382 393z" />
    <glyph glyph-name="Oslash" unicode="&#xd8;" horiz-adv-x="1445" 
d="M999 999l-475 -796q70 -107 218 -107t231 138.5t83 389.5t-57 375zM387 692q0 -242 68 -375l479 799q-70 106 -218 106t-238.5 -144t-90.5 -386zM713 -27q-173 0 -289 72l-96 -158l-92 64l92 153q-231 190 -232 545q0 287 174 492t465 205q164 0 299 -72l82 135l96 -51
l-86 -144q222 -199 222 -525t-177 -521t-458 -195z" />
    <glyph glyph-name="Ugrave" unicode="&#xd9;" horiz-adv-x="1462" 
d="M238 543v497q0 114 -26 141t-138 36v102h592v-102q-106 -7 -130 -35t-24 -142v-460q0 -436 297 -437q147 1 225 119t78 346v166q0 334 -34 386t-171 57v102h520v-102q-113 -2 -143 -59t-31 -384v-145q0 -369 -145 -512t-377 -143q-233 0 -363 122q-130 124 -130 447z
M522 1762q12 0 22 -4t113 -74l232 -154l-49 -74l-248 84q-135 45 -147 50q-33 14 -32 39t41 79t68 54z" />
    <glyph glyph-name="Uacute" unicode="&#xda;" horiz-adv-x="1462" 
d="M238 543v497q0 114 -26 141t-138 36v102h592v-102q-106 -7 -130 -35t-24 -142v-460q0 -436 297 -437q147 1 225 119t78 346v166q0 334 -34 386t-171 57v102h520v-102q-113 -2 -143 -59t-31 -384v-145q0 -369 -145 -512t-377 -143q-233 0 -363 122q-130 124 -130 447z
M686 1530l229 153q103 69 113 74t20 4q26 -1 70 -51t42 -72q0 -22 -12 -34q-12 -11 -68 -31l-345 -117z" />
    <glyph glyph-name="Ucircumflex" unicode="&#xdb;" horiz-adv-x="1462" 
d="M238 543v497q0 114 -26 141t-138 36v102h592v-102q-106 -7 -130 -35t-24 -142v-460q0 -436 297 -437q147 1 225 119t78 346v166q0 334 -34 386t-171 57v102h520v-102q-113 -2 -143 -59t-31 -384v-145q0 -369 -145 -512t-377 -143q-233 0 -363 122q-130 124 -130 447z
M741 1753h62q103 -99 276 -221l-51 -76q-137 54 -256 131q-117 -75 -254 -131l-53 76q162 117 276 221z" />
    <glyph glyph-name="Udieresis" unicode="&#xdc;" horiz-adv-x="1462" 
d="M238 543v497q0 114 -26 141t-138 36v102h592v-102q-106 -7 -130 -35t-24 -142v-460q0 -436 297 -437q147 1 225 119t78 346v166q0 334 -34 386t-171 57v102h520v-102q-113 -2 -143 -59t-31 -384v-145q0 -369 -145 -512t-377 -143q-233 0 -363 122q-130 124 -130 447z
M576 1710q54 0 89 -38q36 -38 36 -93q0 -54 -34 -89q-35 -34 -91 -34t-92 35t-36 89t36 92q38 38 92 38zM1107 1579q0 -55 -34 -89t-90 -34t-92 34t-36 89t36 93q35 38 89 38t91 -38q36 -39 36 -93z" />
    <glyph glyph-name="Yacute" unicode="&#xdd;" horiz-adv-x="1351" 
d="M625 1217q-107 -14 -107 -43q0 -17 68 -158t145 -277q183 375 183 425q0 25 -32 36t-94 17v102h496v-102q-127 -12 -183 -81q-57 -69 -157 -268q-101 -199 -119 -246t-18 -102v-258q0 -101 29 -127t157 -33v-102h-641v102q125 8 154 34t29 126v236q0 51 -25 107
q-24 55 -142 275t-139 255t-55 53t-106 29v102h557v-102zM641 1530l229 153q102 69 112 74t20 4q26 -1 70 -51t44 -72t-13 -34q-12 -11 -68 -31l-345 -117z" />
    <glyph glyph-name="Thorn" unicode="&#xde;" horiz-adv-x="1214" 
d="M518 836v-390q51 -24 123 -24t139.5 64t67.5 188t-66.5 180.5t-173.5 56.5q-59 0 -74.5 -15t-15.5 -60zM252 283v751q0 117 -24.5 145.5t-127.5 37.5v102h578v-102q-114 -7 -137 -35.5t-23 -151.5h184q208 0 323.5 -90t115.5 -266t-135.5 -278.5t-341.5 -102.5l-146 31
v-72q0 -94 29.5 -117t159.5 -33v-102h-617v102q111 9 136.5 37t25.5 144z" />
    <glyph glyph-name="germandbls" unicode="&#xdf;" horiz-adv-x="1212" 
d="M205 217v590h-125l-14 33l57 98h82v12q0 139 61 242.5t141.5 164.5t160.5 85t120 24q182 0 284.5 -89.5t102.5 -227.5q0 -97 -63 -158q-162 -93 -162 -173t152 -206t151 -278q0 -151 -113 -256t-280 -105q-59 0 -113 26.5t-54 60.5t28.5 72.5t50.5 38.5t41 -15
q105 -87 147.5 -42t42.5 91q0 91 -84 172q-141 132 -177 196.5t-36 118.5t30 106.5t104 122.5t88 102t14 81q0 90 -62 158.5t-147 68.5t-125.5 -104.5t-40.5 -366.5v-637q0 -72 15.5 -91t84.5 -30v-102h-487v102q88 10 106.5 27.5t18.5 87.5z" />
    <glyph glyph-name="agrave" unicode="&#xe0;" horiz-adv-x="1028" 
d="M354 291q0 -61 38 -99t93 -38t117 51v313l-145 -73q-54 -26 -79 -59q-24 -34 -24 -95zM854 678v-381q0 -127 64 -127q19 0 67 16l33 -92l-238 -119q-112 0 -168 119q-189 -119 -243 -119q-122 0 -204 83q-81 83 -81 184t39 158t123 92q341 136 356 151v21q0 72 -39 120
t-89 47q-50 1 -84 -29q-35 -30 -60 -138q-18 -70 -90 -70q-48 0 -94 35t-46 77t38 79t118 81q79 44 160 70t114 27q138 1 231 -73t93 -212zM546 1063l-209 180q-84 72 -98 94t5 44t64 52q80 53 109 7l207 -314z" />
    <glyph glyph-name="aacute" unicode="&#xe1;" horiz-adv-x="1028" 
d="M354 291q0 -61 38 -99t93 -38t117 51v313l-145 -73q-54 -26 -79 -59q-24 -34 -24 -95zM854 678v-381q0 -127 64 -127q19 0 67 16l33 -92l-238 -119q-112 0 -168 119q-189 -119 -243 -119q-122 0 -204 83q-81 83 -81 184t39 158t123 92q341 136 356 151v21q0 72 -39 120
t-89 47q-50 1 -84 -29q-35 -30 -60 -138q-18 -70 -90 -70q-48 0 -94 35t-46 77t38 79t118 81q79 44 160 70t114 27q138 1 231 -73t93 -212zM442 1128l150 227q58 89 72 99t32 10t76 -39q94 -62 34 -114l-286 -248z" />
    <glyph glyph-name="acircumflex" unicode="&#xe2;" horiz-adv-x="1028" 
d="M354 310q0 -60 38 -98t93 -39q55 0 117 51v314l-145 -73q-55 -26 -79 -60q-24 -35 -24 -95zM854 697v-381q0 -127 64 -127q19 0 67 17l33 -92l-238 -119q-112 0 -168 119q-189 -119 -243 -119q-122 0 -204 83q-81 84 -81 184t39 158t123 91q341 136 356 152v20
q0 72 -39 120t-89 48t-84 -30q-35 -30 -60 -138q-18 -70 -90 -70q-48 -1 -94 35t-46 78t38 78q38 37 118 81q79 45 160 71t114 26q138 0 231 -74t93 -211zM453 1446h94q74 -130 215 -318l-90 -67q-86 91 -170 201q-95 -120 -172 -201l-88 67q136 180 211 318z" />
    <glyph glyph-name="atilde" unicode="&#xe3;" horiz-adv-x="1028" 
d="M354 291q0 -61 38 -99t93 -38t117 51v313l-145 -73q-54 -26 -79 -59q-24 -34 -24 -95zM854 678v-381q0 -127 64 -127q19 0 67 16l33 -92l-238 -119q-112 0 -168 119q-189 -119 -243 -119q-122 0 -204 83q-81 83 -81 184t39 158t123 92q341 136 356 151v21q0 72 -39 120
t-89 47q-50 1 -84 -29q-35 -30 -60 -138q-18 -70 -90 -70q-48 0 -94 35t-46 77t38 79t118 81q79 44 160 70t114 27q138 1 231 -73t93 -212zM638 1268q47 0 94 92l92 -51q-72 -178 -198 -179q-40 0 -128 38t-128 38t-99 -94l-84 66q88 164 195 163q60 -1 140 -37t116 -36z
" />
    <glyph glyph-name="adieresis" unicode="&#xe4;" horiz-adv-x="1028" 
d="M354 291q0 -61 38 -99t93 -38t117 51v313l-145 -73q-54 -26 -79 -59q-24 -34 -24 -95zM854 678v-381q0 -127 64 -127q19 0 67 16l33 -92l-238 -119q-112 0 -168 119q-189 -119 -243 -119q-122 0 -204 83q-81 83 -81 184t39 158t123 92q341 136 356 151v21q0 72 -39 120
t-89 47q-50 1 -84 -29q-35 -30 -60 -138q-18 -70 -90 -70q-48 0 -94 35t-46 77t38 79t118 81q79 44 160 70t114 27q138 1 231 -73t93 -212zM442 1246q0 -54 -35 -89t-92 -35t-93 35t-36 90t38 94t92 39t90 -39q36 -41 36 -95zM586 1246q0 54 37 94t91 40t91 -40t37 -94
t-36 -89t-92 -35t-92 35t-36 89z" />
    <glyph glyph-name="aring" unicode="&#xe5;" horiz-adv-x="1028" 
d="M354 291q0 -61 38 -99t93 -38t117 51v313l-145 -73q-54 -26 -79 -59q-24 -34 -24 -95zM854 678v-381q0 -127 64 -127q19 0 67 16l33 -92l-238 -119q-112 0 -168 119q-189 -119 -243 -119q-122 0 -204 83q-81 83 -81 184t39 158t123 92q341 136 356 151v21q0 72 -39 120
t-89 47q-50 1 -84 -29q-35 -30 -60 -138q-18 -70 -90 -70q-48 0 -94 35t-46 77t38 79t118 81q79 44 160 70t114 27q138 1 231 -73t93 -212zM409 1309q0 -51 30 -85t79 -34q48 0 78 33t30 84t-30 84t-77 33q-48 0 -79 -33q-31 -32 -31 -82zM284 1309q0 94 68 154
q68 61 162 61t164 -61t70 -155t-70 -156q-71 -60 -164 -60t-162 61q-68 62 -68 156z" />
    <glyph glyph-name="ae" unicode="&#xe6;" horiz-adv-x="1466" 
d="M352 300q0 -54 37 -91t79 -37q92 0 163 86q-35 81 -35 264q-182 -81 -213 -124.5t-31 -97.5zM1017.5 836q-60.5 0 -107.5 -62t-58 -174q176 8 237 8t68.5 9.5t7.5 31.5q0 74 -43.5 130.5t-104 56.5zM598 672q0 67 -39.5 113t-92.5 46t-82.5 -41.5t-57.5 -140.5
q-16 -55 -71 -55t-105 35.5t-50 67.5t12 52t35.5 42t62 47t86.5 48.5t124 50t104 26.5q93 0 163 -36t97 -85q138 121 282 121t244.5 -106t100.5 -249q0 -57 -9 -75.5t-35.5 -25t-201.5 -18.5t-323 -18q0 -137 83 -217t204 -80t212 92l56 -73q-76 -110 -172 -164t-181 -54
q-248 0 -366 183q-227 -182 -316 -183q-119 0 -198.5 83t-79.5 192q0 74 30 129t76.5 81t209.5 88t198 89v35z" />
    <glyph glyph-name="ccedilla" unicode="&#xe7;" horiz-adv-x="915" 
d="M534 819q-188 1 -188 -303q0 -158 82 -251t192 -93t209 92l62 -76q-128 -167 -297 -206q-49 -59 -49 -72t28 -47q70 -78 70 -148q0 -128 -233 -215l-39 70q119 60 118 117q-1 30 -43 77t-42 70t6.5 38.5t78.5 102.5q-194 19 -302.5 150t-108.5 287t80 281t214 196.5
t238 71.5t179 -29.5t75 -87.5t-33 -103t-58 -45t-50 25q-99 98 -189 98z" />
    <glyph glyph-name="egrave" unicode="&#xe8;" horiz-adv-x="954" 
d="M512 840q-58 0 -109 -68q-52 -68 -61 -172q176 6 234 6t68 8t9 37q0 71 -41 130q-42 59 -100 59zM78 442q0 206 147 363t330 158q139 0 241 -108t103 -249q0 -80 -38 -96t-529 -39q17 -137 93 -215t193 -78t207 88l68 -78q-83 -106 -182 -159t-193 -54q-198 0 -319 130
q-121 131 -121 337zM552 1063l-209 180q-84 72 -98 94t6 44q19 22 63 52q79 53 109 7l207 -314z" />
    <glyph glyph-name="eacute" unicode="&#xe9;" horiz-adv-x="954" 
d="M512 840q-58 0 -109 -68q-52 -68 -61 -172q176 6 234 6t68 8t9 37q0 71 -41 130q-42 59 -100 59zM78 442q0 206 147 363t330 158q139 0 241 -108t103 -249q0 -80 -38 -96t-529 -39q17 -137 93 -215t193 -78t207 88l68 -78q-83 -106 -182 -159t-193 -54q-198 0 -319 130
q-121 131 -121 337zM841 1358q0 -28 -23 -47l-286 -248l-77 65l149 227q58 89 72 99t33 10t75 -39t57 -67z" />
    <glyph glyph-name="ecircumflex" unicode="&#xea;" horiz-adv-x="954" 
d="M512 840q-58 0 -109 -68q-52 -68 -61 -172q176 6 234 6t68 8t9 37q0 71 -41 130q-42 59 -100 59zM78 442q0 206 147 363t330 158q139 0 241 -108t103 -249q0 -80 -38 -96t-529 -39q17 -137 93 -215t193 -78t207 88l68 -78q-83 -106 -182 -159t-193 -54q-198 0 -319 130
q-121 131 -121 337zM480 1446h94q74 -130 216 -318l-91 -67q-86 91 -170 201q-95 -120 -172 -201l-88 67q136 180 211 318z" />
    <glyph glyph-name="edieresis" unicode="&#xeb;" horiz-adv-x="954" 
d="M512 840q-58 0 -109 -68q-52 -68 -61 -172q176 6 234 6t68 8t9 37q0 71 -41 130q-42 59 -100 59zM78 442q0 206 147 363t330 158q139 0 241 -108t103 -249q0 -80 -38 -96t-529 -39q17 -137 93 -215t193 -78t207 88l68 -78q-83 -106 -182 -159t-193 -54q-198 0 -319 130
q-121 131 -121 337zM320 1380q54 0 90 -40t36 -94t-35 -89t-91 -35t-94 35q-36 35 -36 90t38 94t92 39zM590 1246q0 54 37 94t91 40t91 -40t37 -94t-36 -89t-92 -35t-92 35t-36 89z" />
    <glyph glyph-name="igrave" unicode="&#xec;" horiz-adv-x="641" 
d="M205 246v397q1 101 -17 121t-120 33v90q232 27 399 76v-717q0 -91 20 -113t117 -31v-102h-541v102q100 9 121 31t21 113zM11 1358q0 16 13 30t58 45q79 53 108 7l207 -314l-78 -63l-208 180q-84 72 -92 85q-8 14 -8 30z" />
    <glyph glyph-name="iacute" unicode="&#xed;" horiz-adv-x="641" 
d="M205 246v397q1 101 -17 121t-120 33v90q232 27 399 76v-717q0 -91 20 -113t117 -31v-102h-541v102q100 9 121 31t21 113zM621 1358q0 -28 -23 -47l-286 -248l-78 65l150 227q58 89 72 99t32 10t76 -39q57 -39 57 -67z" />
    <glyph glyph-name="icircumflex" unicode="&#xee;" horiz-adv-x="641" 
d="M205 246v397q1 101 -17 121t-120 33v90q232 27 399 76v-717q0 -91 20 -113t117 -31v-102h-541v102q100 9 121 31t21 113zM273 1446h95q74 -130 215 -318l-90 -67q-86 91 -170 201q-95 -120 -172 -201l-89 67q136 180 211 318z" />
    <glyph glyph-name="idieresis" unicode="&#xef;" horiz-adv-x="641" 
d="M205 246v397q1 101 -17 121t-120 33v90q232 27 399 76v-717q0 -91 20 -113t117 -31v-102h-541v102q100 9 121 31t21 113zM122 1380q54 0 90 -40t37 -94q0 -54 -35 -89t-92 -35t-93 35t-36 90t38 94q37 39 91 39zM392 1246q0 54 38 94t90 40q54 0 91 -40t37 -94t-35 -89
t-92 -35t-93 35t-36 89z" />
    <glyph glyph-name="eth" unicode="&#xf0;" horiz-adv-x="1124" 
d="M762 459q0 158 -14 234.5t-66 111.5t-104 35q-94 0 -151.5 -87t-57.5 -251t62 -285t153 -121t134.5 102.5t43.5 260.5zM551 -25q-215 0 -345 137t-130 333q0 146 65.5 265t184.5 186t260 67q67 0 116 -25q-31 112 -120 217l-287 -160l-57 113l262 143q-113 77 -314 111
q-8 10 -8 38t10 47t17 19q69 0 203.5 -29t242.5 -100l269 148l61 -113l-221 -125q283 -251 282 -680q0 -379 -172 -485.5t-319 -106.5z" />
    <glyph glyph-name="ntilde" unicode="&#xf1;" horiz-adv-x="1208" 
d="M205 221v449q1 86 -15 102t-102 25v92q190 16 379 76v-136q128 84 180 109t109 25q131 0 205 -81t73 -223v-432q0 -79 18 -97t103 -28v-102h-479v102q68 8 82 26t14 93v367q0 197 -133 196q-82 0 -172 -79v-476q0 -81 14 -99t80 -28v-102h-502v102q101 9 123 27t23 92z
M720 1268q47 0 94 92l92 -51q-72 -178 -198 -179q-40 0 -128 38t-128 38t-99 -94l-84 66q88 164 195 163q60 -1 140 -37t116 -36z" />
    <glyph glyph-name="ograve" unicode="&#xf2;" horiz-adv-x="1112" 
d="M741 426q0 196 -52 306q-53 110 -150 110q-73 0 -122 -84t-49 -254q0 -172 57 -290q56 -118 153 -118q163 0 163 330zM76 462q0 214 144 358t347 143q203 0 333 -138q130 -137 130 -355t-136 -356t-346 -138t-341 136t-131 350zM262 1358q0 16 13 30t58 45q79 53 108 7
l207 -314l-78 -63l-209 180q-83 72 -91 85q-8 14 -8 30z" />
    <glyph glyph-name="oacute" unicode="&#xf3;" horiz-adv-x="1112" 
d="M741 426q0 196 -52 306q-53 110 -150 110q-73 0 -122 -84t-49 -254q0 -172 57 -290q56 -118 153 -118q163 0 163 330zM76 462q0 214 144 358t347 143q203 0 333 -138q130 -137 130 -355t-136 -356t-346 -138t-341 136t-131 350zM876 1358q0 -28 -23 -47l-286 -248l-78 65
l150 227q58 89 72 99q15 10 33 10t75 -39t57 -67z" />
    <glyph glyph-name="ocircumflex" unicode="&#xf4;" horiz-adv-x="1112" 
d="M741 426q0 196 -52 306q-53 110 -150 110q-73 0 -122 -84t-49 -254q0 -172 57 -290q56 -118 153 -118q163 0 163 330zM76 462q0 214 144 358t347 143q203 0 333 -138q130 -137 130 -355t-136 -356t-346 -138t-341 136t-131 350zM507 1446h94q74 -130 215 -318l-90 -67
q-86 91 -170 201q-95 -120 -172 -201l-88 67q136 180 211 318z" />
    <glyph glyph-name="otilde" unicode="&#xf5;" horiz-adv-x="1112" 
d="M741 426q0 196 -52 306q-53 110 -150 110q-73 0 -122 -84t-49 -254q0 -172 57 -290q56 -118 153 -118q163 0 163 330zM76 462q0 214 144 358t347 143q203 0 333 -138q130 -137 130 -355t-136 -356t-346 -138t-341 136t-131 350zM433 1322q61 0 141 -37t115 -37
q47 0 94 92l93 -51q-72 -178 -199 -178q-41 0 -129 38t-128 38t-97 -94l-84 65q88 164 194 164z" />
    <glyph glyph-name="odieresis" unicode="&#xf6;" horiz-adv-x="1112" 
d="M741 426q0 196 -52 306q-53 110 -150 110q-73 0 -122 -84t-49 -254q0 -172 57 -290q56 -118 153 -118q163 0 163 330zM76 462q0 214 144 358t347 143q203 0 333 -138q130 -137 130 -355t-136 -356t-346 -138t-341 136t-131 350zM483 1246q0 -54 -35 -89t-92 -35t-93 35
t-36 90t38 94q37 39 91 39t91 -39q36 -41 36 -95zM627 1246q0 54 37 94t91 40t91 -40t37 -94q1 -54 -35 -89t-92 -35t-93 35q-36 35 -36 89z" />
    <glyph glyph-name="divide" unicode="&#xf7;" horiz-adv-x="1327" 
d="M502 196.5q0 65.5 47 113.5t113 48t114.5 -49t48.5 -112.5t-49.5 -113.5t-114.5 -50t-112 49t-47 114.5zM109 657h1110v-180h-1110v180zM831 938q0 -66 -48 -114t-113 -48t-114.5 49t-49.5 112.5t49 114t115 50.5t113.5 -49t47.5 -115z" />
    <glyph glyph-name="oslash" unicode="&#xf8;" horiz-adv-x="1116" 
d="M582 96q182 0 182 330q0 152 -27 238l-311 -480q60 -88 156 -88zM547 842q-88 0 -141.5 -85t-53.5 -237t33 -229l301 473q-51 78 -139 78zM1038 487q0 -153 -63 -269t-175 -179.5t-240 -63.5t-236 56l-84 -123l-74 57l80 119q-168 143 -168 372t146.5 368t344.5 139
q116 -1 213 -50l76 109l78 -49l-74 -111q176 -146 176 -375z" />
    <glyph glyph-name="ugrave" unicode="&#xf9;" horiz-adv-x="1183" 
d="M453 340q1 -182 143 -182q72 0 154 82v458q0 94 -30 103q-16 6 -95 18v94q199 10 387 39v-673q0 -80 12 -105t54 -24q3 0 73 2v-101q-162 -19 -383 -76l-18 15v119q-134 -97 -188 -115t-103 -19q-127 1 -198 79t-71 220v424q0 94 -29 103q-16 6 -87 16v96q15 0 153 13
t232 26q-6 -77 -6 -313v-299zM587 1063l-209 180q-84 72 -98 94t5 44t64 52q80 53 109 7l207 -314z" />
    <glyph glyph-name="uacute" unicode="&#xfa;" horiz-adv-x="1183" 
d="M453 340q1 -182 143 -182q72 0 154 82v458q0 94 -30 103q-16 6 -95 18v94q199 10 387 39v-673q0 -80 12 -105t54 -24q3 0 73 2v-101q-162 -19 -383 -76l-18 15v119q-134 -97 -188 -115t-103 -19q-127 1 -198 79t-71 220v424q0 94 -29 103q-16 6 -87 16v96q15 0 153 13
t232 26q-6 -77 -6 -313v-299zM876 1358q0 -28 -23 -47l-286 -248l-78 65l150 227q58 89 72 99q15 10 33 10t75 -39t57 -67z" />
    <glyph glyph-name="ucircumflex" unicode="&#xfb;" horiz-adv-x="1183" 
d="M453 340q1 -182 143 -182q72 0 154 82v458q0 94 -30 103q-16 6 -95 18v94q199 10 387 39v-673q0 -80 12 -105t54 -24q3 0 73 2v-101q-162 -19 -383 -76l-18 15v119q-134 -97 -188 -115t-103 -19q-127 1 -198 79t-71 220v424q0 94 -29 103q-16 6 -87 16v96q15 0 153 13
t232 26q-6 -77 -6 -313v-299zM545 1446h94q74 -130 215 -318l-90 -67q-86 91 -170 201q-95 -120 -172 -201l-88 67q136 180 211 318z" />
    <glyph glyph-name="udieresis" unicode="&#xfc;" horiz-adv-x="1183" 
d="M453 340q1 -182 143 -182q72 0 154 82v458q0 94 -30 103q-16 6 -95 18v94q199 10 387 39v-673q0 -80 12 -105t54 -24q3 0 73 2v-101q-162 -19 -383 -76l-18 15v119q-134 -97 -188 -115t-103 -19q-127 1 -198 79t-71 220v424q0 94 -29 103q-16 6 -87 16v96q15 0 153 13
t232 26q-6 -77 -6 -313v-299zM516 1246q0 -54 -35 -89t-92 -35t-93 35t-36 90t38 94t92 39t90 -39q36 -41 36 -95zM915 1246q0 -54 -35 -89t-92 -35t-93 35t-36 89q-1 54 37 94t92 40t91 -39q36 -41 36 -95z" />
    <glyph glyph-name="yacute" unicode="&#xfd;" horiz-adv-x="1036" 
d="M4 938h520v-102q-94 -8 -94 -57q0 -16 39 -136l104 -324l132 347q33 87 32 112q0 42 -102 58v102h422v-102q-113 -11 -155 -78t-234 -519t-250 -661q-19 -70 -94 -70q-54 0 -105 43t-51 93t51 86q78 53 113 87t63 93q29 58 29 94t-28 115l-137 373q-55 148 -79 206
t-45 82q-41 46 -131 56v102zM862 1360q0 -28 -22 -47l-286 -248l-78 65l150 227q58 89 72 99t32 10t76 -39q56 -39 56 -67z" />
    <glyph glyph-name="thorn" unicode="&#xfe;" horiz-adv-x="1144" 
d="M799 456q0 172 -67.5 249t-151.5 77t-154 -53v-545q71 -70 166 -69.5t151 85t56 256.5zM164 -211v1313q0 101 -18.5 120t-125.5 27v92q198 19 406 76v-561q138 74 176 90.5t92 16.5q169 0 271 -121.5t102 -292.5q0 -283 -145 -394.5t-233.5 -145.5t-117.5 -34
q-86 0 -145 27v-213q0 -88 17.5 -116.5t160.5 -37.5v-102h-579v102q113 9 126 37.5t13 116.5z" />
    <glyph glyph-name="ydieresis" unicode="&#xff;" horiz-adv-x="1036" 
d="M4 938h520v-102q-94 -8 -94 -57q0 -16 39 -136l104 -324l132 347q33 87 32 112q0 42 -102 58v102h422v-102q-113 -11 -155 -78t-234 -519t-250 -661q-19 -70 -94 -70q-54 0 -105 43t-51 93t51 86q78 53 113 87t63 93q29 58 29 94t-28 115l-137 373q-55 148 -79 206
t-45 82q-41 46 -131 56v102zM483 1246q0 -54 -35 -89t-92 -35t-93 35t-36 90t38 94q37 39 91 39t91 -39q36 -41 36 -95zM627 1246q0 54 37 94t91 40t91 -40t37 -94q1 -54 -35 -89t-92 -35t-93 35q-36 35 -36 89z" />
    <glyph glyph-name="Amacron" unicode="&#x100;" horiz-adv-x="1435" 
d="M520 522h285l-135 428h-6zM416 158q0 -29 28 -39t97 -17v-102h-473v102q102 8 140 42t73 128l389 1045l129 29q305 -891 354 -1029t88 -172t129 -43v-102h-547v102q63 8 85 18t21 34q0 24 -32 111t-51 124h-363q-3 -2 -35 -102t-32 -129zM1005 1518h-537v139h537v-139z
" />
    <glyph glyph-name="amacron" unicode="&#x101;" horiz-adv-x="1028" 
d="M354 291q0 -61 38 -99t93 -38t117 51v313l-145 -73q-54 -26 -79 -59q-24 -34 -24 -95zM854 678v-381q0 -127 64 -127q19 0 67 16l33 -92l-238 -119q-112 0 -168 119q-189 -119 -243 -119q-122 0 -204 83q-81 83 -81 184t39 158t123 92q341 136 356 151v21q0 72 -39 120
t-89 47q-50 1 -84 -29q-35 -30 -60 -138q-18 -70 -90 -70q-48 0 -94 35t-46 77t38 79t118 81q79 44 160 70t114 27q138 1 231 -73t93 -212zM244 1331h538v-151h-538v151z" />
    <glyph glyph-name="Abreve" unicode="&#x102;" horiz-adv-x="1435" 
d="M520 522h285l-135 428h-6zM416 158q0 -29 28 -39t97 -17v-102h-473v102q102 8 140 42t73 128l389 1045l129 29q305 -891 354 -1029t88 -172t129 -43v-102h-547v102q63 8 85 18t21 34q0 24 -32 111t-51 124h-363q-3 -2 -35 -102t-32 -129zM1018 1747q0 -272 -272 -272
t-279 272h84q13 -65 65 -101t126 -36t127 36q52 36 65 101h84z" />
    <glyph glyph-name="abreve" unicode="&#x103;" horiz-adv-x="1028" 
d="M354 291q0 -61 38 -99t93 -38t117 51v313l-145 -73q-54 -26 -79 -59q-24 -34 -24 -95zM854 678v-381q0 -127 64 -127q19 0 67 16l33 -92l-238 -119q-112 0 -168 119q-189 -119 -243 -119q-122 0 -204 83q-81 83 -81 184t39 158t123 92q341 136 356 151v21q0 72 -39 120
t-89 47q-50 1 -84 -29q-35 -30 -60 -138q-18 -70 -90 -70q-48 0 -94 35t-46 77t38 79t118 81q79 44 160 70t114 27q138 1 231 -73t93 -212zM780 1407q0 -293 -266 -293t-266 293h100q9 -79 55 -121q45 -42 111 -42t112 42t54 121h100z" />
    <glyph glyph-name="Aogonek" unicode="&#x104;" horiz-adv-x="1435" 
d="M520 522h285l-135 428h-6zM416 158q0 -29 27.5 -38.5t97.5 -17.5v-102h-473v102q102 8 140 42t73 128l389 1045l129 29q305 -891 354 -1029t88 -171.5t129 -43.5v-102h-74q-141 -134 -141 -254q0 -52 28.5 -82.5t74.5 -30.5t96 23l24 -55q-119 -67 -137.5 -73.5
t-44.5 -6.5q-96 0 -147.5 50t-51.5 122q0 136 187 307h-361v102q63 8 84.5 18t21.5 34t-32 111t-51 124h-363q-3 -2 -35 -102t-32 -129z" />
    <glyph glyph-name="aogonek" unicode="&#x105;" horiz-adv-x="1028" 
d="M354 290q0 -60 38 -98t93 -38t117 51v313l-145 -73q-54 -26 -78.5 -60.5t-24.5 -94.5zM854 678v-381q0 -127 64 -127q19 0 67 16l33 -92q-88 -53 -130 -86.5t-91 -107t-49 -136.5q0 -64 28 -94t74 -30t90 22l29 -59q-119 -69 -138 -75.5t-49 -6.5q-90 0 -138 48.5
t-48 117.5q0 134 158 290q-93 13 -142 117q-189 -119 -243 -119q-122 0 -203.5 83t-81.5 194q0 172 162 240q341 136 356 151v21q0 72 -39.5 119.5t-88.5 47.5t-84 -29.5t-60 -137.5q-18 -70 -90 -70q-48 0 -94 35t-46 77t38.5 79t117.5 80.5t160.5 70.5t113.5 27
q138 0 231 -73.5t93 -211.5z" />
    <glyph glyph-name="Cacute" unicode="&#x106;" horiz-adv-x="1288" 
d="M788 96q111 0 189 74t160 244l110 -25q-58 -262 -98 -362q-233 -53 -363 -54q-326 1 -508 189t-182 484t204 498t538 202q129 0 331 -46q18 -142 35 -356l-108 -16q-42 144 -113 219t-219 75t-253 -152q-105 -154 -105 -404t108 -410t274 -160zM469 1530l229 153
q102 69 112 74t20 4q26 -1 70 -51t44 -72t-13 -34q-12 -11 -68 -31l-345 -117z" />
    <glyph glyph-name="cacute" unicode="&#x107;" horiz-adv-x="915" 
d="M78 426q0 140 79 266t216 198q137 73 241 73q104 -1 177 -29t73 -88t-33 -104t-58 -44t-50 25q-99 100 -187 100t-139 -74q-51 -75 -51 -203q0 -242 140 -331q65 -42 128 -43q123 0 211 94l68 -76q-75 -100 -172 -157t-189 -58q-202 0 -328 132t-126 319zM401 1128
l150 227q58 89 72 99q15 10 33 10t75 -39q94 -62 34 -114l-286 -248z" />
    <glyph glyph-name="Ccaron" unicode="&#x10c;" horiz-adv-x="1288" 
d="M788 96q111 0 189 74t160 244l110 -25q-58 -262 -98 -362q-233 -53 -363 -54q-326 1 -508 189t-182 484t204 498t538 202q129 0 331 -46q18 -142 35 -356l-108 -16q-42 144 -113 219t-219 75t-253 -152q-105 -154 -105 -404t108 -410t274 -160zM798 1456h-64
q-119 115 -276 221l51 76q125 -43 256 -131q130 88 254 131l53 -76q-158 -110 -274 -221z" />
    <glyph glyph-name="ccaron" unicode="&#x10d;" horiz-adv-x="915" 
d="M78 426q0 140 79 266t216 198q137 73 241 73q104 -1 177 -29t73 -88t-33 -104t-58 -44t-50 25q-99 100 -187 100t-139 -74q-51 -75 -51 -203q0 -242 140 -331q65 -42 128 -43q123 0 211 94l68 -76q-75 -100 -172 -157t-189 -58q-202 0 -328 132t-126 319zM590 1083h-94
q-83 147 -215 318l90 67q79 -83 170 -202q104 131 172 202l88 -67q-125 -166 -211 -318z" />
    <glyph glyph-name="Dcaron" unicode="&#x10e;" horiz-adv-x="1486" 
d="M524 1077v-784q0 -109 32 -139t112 -31q194 0 306 147t111 416q0 514 -444 514q-104 0 -113 -44q-4 -20 -4 -79zM254 285v749q0 118 -24 147t-128 38v100h568q374 0 548 -174t173 -428q-1 -337 -211 -527t-617 -190h-477v100q116 10 142 38t26 147zM785 1456h-63
q-119 115 -277 221l52 76q125 -43 256 -131q130 88 254 131l53 -76q-159 -110 -275 -221z" />
    <glyph glyph-name="dcaron" unicode="&#x10f;" horiz-adv-x="1454" 
d="M578 842q-73 0 -141 -85t-68 -255q1 -170 71 -258q70 -89 160 -88q55 0 133 53v528q-22 49 -64 77q-43 28 -91 28zM995 276q0 -80 13 -100t61 -20h72v-101q-278 -40 -408 -78v115q-159 -94 -183 -105t-52 -12q-162 -1 -291 127t-129 341t160 366t397 154q17 0 98 -13v228
q0 86 -18 100t-125 20v95q289 42 405 73v-1190zM1251 1190q0 39 -29 72q-30 33 -79 49q-29 22 -29 62t31 67t76 26q71 0 131 -64t61 -161q0 -97 -74 -174t-204 -111l-27 82q143 54 143 152z" />
    <glyph glyph-name="Dcroat" unicode="&#x110;" horiz-adv-x="1513" 
d="M553 1081v-327h254v-129h-254v-334q0 -111 34 -139.5t113 -28.5q187 0 299.5 145t112.5 406q0 337 -135 431.5t-307 94.5q-87 0 -102 -22.5t-15 -96.5zM279 285v340h-185v129h185v278q0 119 -24.5 148t-127.5 39v100h569q373 0 547 -173t174 -433q0 -333 -208.5 -523
t-610.5 -190h-485v100q114 9 140 38t26 147z" />
    <glyph glyph-name="dcroat" unicode="&#x111;" horiz-adv-x="1167" 
d="M578 842q-73 0 -141 -85t-68 -255t70.5 -258t160.5 -88q55 0 133 53v528q-22 49 -64.5 77t-90.5 28zM995 1067v-791q0 -79 13 -99.5t61 -20.5h72v-101q-278 -40 -408 -78v115q-158 -94 -182.5 -105.5t-52.5 -11.5q-162 0 -291 127.5t-129 340.5t160 366.5t397 153.5
q17 0 98 -13v117h-297v131h297q-1 69 -21.5 82t-121.5 18v95q290 43 405 73v-268h164v-131h-164z" />
    <glyph glyph-name="Emacron" unicode="&#x112;" horiz-adv-x="1183" 
d="M250 285v749q0 117 -25 145t-131 38v102h942l21 -311l-109 -15q-35 135 -83 169t-177 34h-88q-50 0 -63 -7t-13 -65v-368h129q120 0 148 22t47 131h106v-454h-106q-12 87 -26 117t-47 39t-122 10h-129v-330q0 -82 15 -116t56 -43t155 -9t172 35q57 35 125 221l104 -25
q-24 -185 -68 -354h-1003v102q118 9 144 37t26 146zM863 1518h-536v139h536v-139z" />
    <glyph glyph-name="emacron" unicode="&#x113;" horiz-adv-x="954" 
d="M512 840q-58 0 -109 -68q-52 -68 -61 -172q176 6 234 6t68 8t9 37q0 71 -41 130q-42 59 -100 59zM78 442q0 206 147 363t330 158q139 0 241 -108t103 -249q0 -80 -38 -96t-529 -39q17 -137 93 -215t193 -78t207 88l68 -78q-83 -106 -182 -159t-193 -54q-198 0 -319 130
q-121 131 -121 337zM248 1331h538v-151h-538v151z" />
    <glyph glyph-name="Edotaccent" unicode="&#x116;" horiz-adv-x="1183" 
d="M250 285v749q0 117 -25 145t-131 38v102h942l21 -311l-109 -15q-35 135 -83 169t-177 34h-88q-50 0 -63 -7t-13 -65v-368h129q120 0 148 22t47 131h106v-454h-106q-12 87 -26 117t-47 39t-122 10h-129v-330q0 -82 15 -116t56 -43t155 -9t172 35q57 35 125 221l104 -25
q-24 -185 -68 -354h-1003v102q118 9 144 37t26 146zM739 1579q0 -55 -34 -89t-90 -34t-91 34t-35 89q1 55 37 93t89 38t89 -38q35 -39 35 -93z" />
    <glyph glyph-name="edotaccent" unicode="&#x117;" horiz-adv-x="954" 
d="M512 840q-58 0 -109 -68q-52 -68 -61 -172q176 6 234 6t68 8t9 37q0 71 -41 130q-42 59 -100 59zM78 442q0 206 147 363t330 158q139 0 241 -108t103 -249q0 -80 -38 -96t-529 -39q17 -137 93 -215t193 -78t207 88l68 -78q-83 -106 -182 -159t-193 -54q-198 0 -319 130
q-121 131 -121 337zM647 1246q0 -54 -35 -89t-92 -35t-93 35t-36 90t38 94q37 39 91 39t91 -39q36 -41 36 -95z" />
    <glyph glyph-name="Eogonek" unicode="&#x118;" horiz-adv-x="1183" 
d="M250 285v749q0 117 -24.5 145t-131.5 38v102h942l21 -311l-109 -15q-35 136 -83 169.5t-177 33.5h-88q-50 0 -63 -7t-13 -65v-368h129q120 0 148 22.5t47 130.5h106v-454h-106q-13 86 -26.5 116.5t-47 40t-121.5 9.5h-129v-330q0 -82 15 -116.5t56 -43t155 -8.5
t171.5 35.5t125.5 220.5l104 -25q-24 -185 -68 -354q-143 -133 -143 -254q0 -52 29 -82.5t75 -30.5t95 23l24 -55q-119 -67 -137.5 -73.5t-44.5 -6.5q-96 0 -147.5 50t-51.5 122q0 136 187 307h-889v102q118 9 144 37t26 146z" />
    <glyph glyph-name="eogonek" unicode="&#x119;" horiz-adv-x="954" 
d="M512 840q-58 0 -109.5 -68.5t-60.5 -171.5q176 6 234 6t67.5 8.5t9.5 36.5q0 71 -41.5 130t-99.5 59zM541 -248q0 -52 27.5 -82t73.5 -30t91 22l29 -59q-119 -69 -138 -75.5t-49 -6.5q-90 0 -138 48.5t-48 117.5q0 130 158 293q-12 -4 -29 -5q-198 0 -319 129.5
t-121 336.5t147.5 364.5t329.5 157.5h2q138 0 240 -108.5t102 -248.5q0 -80 -38.5 -95.5t-528.5 -39.5q17 -138 93.5 -215.5t192.5 -77.5t207 88l68 -78q-84 -110 -184 -161q-168 -151 -168 -275z" />
    <glyph glyph-name="Ecaron" unicode="&#x11a;" horiz-adv-x="1183" 
d="M250 285v749q0 117 -25 145t-131 38v102h942l21 -311l-109 -15q-35 135 -83 169t-177 34h-88q-50 0 -63 -7t-13 -65v-368h129q120 0 148 22t47 131h106v-454h-106q-12 87 -26 117t-47 39t-122 10h-129v-330q0 -82 15 -116t56 -43t155 -9t172 35q57 35 125 221l104 -25
q-24 -185 -68 -354h-1003v102q118 9 144 37t26 146zM634 1456h-64q-119 115 -276 221l51 76q125 -43 256 -131q130 88 254 131l53 -76q-158 -110 -274 -221z" />
    <glyph glyph-name="ecaron" unicode="&#x11b;" horiz-adv-x="954" 
d="M512 840q-58 0 -109 -68q-52 -68 -61 -172q176 6 234 6t68 8t9 37q0 71 -41 130q-42 59 -100 59zM78 442q0 206 147 363t330 158q139 0 241 -108t103 -249q0 -80 -38 -96t-529 -39q17 -137 93 -215t193 -78t207 88l68 -78q-83 -106 -182 -159t-193 -54q-198 0 -319 130
q-121 131 -121 337zM526 1083h-94q-83 147 -215 318l90 67q79 -83 170 -202q104 131 172 202l88 -67q-125 -166 -211 -318z" />
    <glyph glyph-name="Gbreve" unicode="&#x11e;" horiz-adv-x="1380" 
d="M1214 389v-149q0 -129 11 -187q-259 -80 -422 -80q-330 0 -519 181q-190 181 -190 496q0 316 208 506t525 190q172 0 363 -52l31 -346l-107 -12q-35 142 -110 214q-76 72 -207 73q-170 0 -282 -145q-112 -144 -112 -402t112 -419t300 -161q71 0 98 25t27 100v172
q0 70 -10 96t-48 38t-141 20v102h580v-102q-77 -13 -92 -35t-15 -123zM1053 1747q-1 -272 -273 -272t-278 272h84q13 -65 65 -101q53 -36 127 -36t126 36t65 101h84z" />
    <glyph glyph-name="gbreve" unicode="&#x11f;" horiz-adv-x="1060" 
d="M512 -12q-100 0 -150 -44t-51 -118q0 -74 71 -124q72 -50 184 -50t176 50t63 124q0 74 -54 118t-239 44zM659 628q0 90 -45 153q-46 63 -106 63t-100 -52t-41 -142t45 -154q46 -66 108 -66t101 53q38 55 38 145zM498 963q154 0 262 -62l274 27l19 -27q-29 -80 -80 -125
l-105 4q41 -48 41 -133q-1 -151 -117 -241t-292 -91l-58 2q-6 0 -28 -20t-21 -47q0 -27 28 -46t85 -20l203 6q133 0 221 -70t88 -198q0 -173 -162 -293t-399 -121q-182 0 -291 82t-109 191q0 49 28 89t179 136q-53 14 -109 68t-57 131q131 52 203 137q-92 32 -148 109
t-57 167q0 151 124 248t278 97zM797 1407q-1 -293 -267 -293t-266 293h101q9 -79 55 -121t110 -42q66 0 112 42t54 121h101z" />
    <glyph glyph-name="Gcommaaccent" unicode="&#x122;" horiz-adv-x="1380" 
d="M1214 389v-149q0 -129 11 -187q-259 -80 -422 -80q-330 0 -519 181q-190 181 -190 496q0 316 208 506t525 190q172 0 363 -52l31 -346l-107 -12q-35 142 -110 214q-76 72 -207 73q-170 0 -282 -145q-112 -144 -112 -402t112 -419t300 -161q71 0 98 25t27 100v172
q0 70 -10 96t-48 38t-141 20v102h580v-102q-77 -13 -92 -35t-15 -123zM616 -188q0 40 31 68q31 26 89 26t119 -64t61 -161t-75 -175q-74 -78 -204 -110l-27 82q143 54 144 151q0 39 -30 73t-79 48q-29 22 -29 62z" />
    <glyph glyph-name="gcommaaccent" unicode="&#x123;" horiz-adv-x="1060" 
d="M537 1339q0 -39 29.5 -72t78.5 -48q29 -23 29 -63t-31 -66.5t-89 -26.5t-118.5 64t-60.5 161t74 174t204 111l27 -82q-143 -54 -143 -152zM805 -174q0 74 -54 118t-239 44q-100 0 -150.5 -43.5t-50.5 -117.5t71.5 -124.5t183.5 -50.5t175.5 50t63.5 124zM659 628
q0 90 -45.5 153t-105.5 63t-100.5 -52.5t-40.5 -141.5t45.5 -154.5t107.5 -65.5t100.5 54t38.5 144zM96 618q0 151 124 248t278 97t262 -62l274 27l19 -27q-29 -80 -80 -125l-105 4q41 -48 41 -133q0 -152 -116.5 -242t-292.5 -90l-58 2q-6 0 -27.5 -20.5t-21.5 -47
t28.5 -46t84.5 -19.5l203 6q133 0 221 -69.5t88 -198.5q0 -173 -162.5 -293.5t-398.5 -120.5q-182 0 -291 82.5t-109 190.5q0 49 28 89t179 136q-53 14 -109.5 68t-56.5 131q131 52 203 137q-92 32 -148.5 108.5t-56.5 167.5z" />
    <glyph glyph-name="Imacron" unicode="&#x12a;" horiz-adv-x="780" 
d="M252 285v749q0 118 -25 146t-135 37v102h594v-102q-112 -7 -136 -35t-24 -148v-749q0 -119 25 -147t135 -36v-102h-594v102q110 8 135 36t25 147zM659 1518h-536v139h536v-139z" />
    <glyph glyph-name="imacron" unicode="&#x12b;" horiz-adv-x="641" 
d="M205 246v397q1 101 -17 121t-120 33v90q232 27 399 76v-717q0 -91 20 -113t117 -31v-102h-541v102q100 9 121 31t21 113zM52 1331h539v-151h-539v151z" />
    <glyph glyph-name="Iogonek" unicode="&#x12e;" horiz-adv-x="780" 
d="M252 285v749q0 118 -25 146t-135 37v102h594v-102q-111 -7 -135.5 -35.5t-24.5 -147.5v-749q0 -119 24.5 -147t135.5 -36v-102h-117q-141 -134 -141 -254q0 -52 29 -82.5t75 -30.5t95 23l24 -55q-119 -67 -137.5 -73.5t-44.5 -6.5q-96 0 -147.5 50t-51.5 122
q0 136 187 307h-365v102q110 8 135 36.5t25 146.5z" />
    <glyph glyph-name="iogonek" unicode="&#x12f;" horiz-adv-x="641" 
d="M205 246v397q0 102 -17.5 121.5t-119.5 32.5v90q243 29 399 76v-717q0 -91 20 -112.5t117 -31.5v-102h-72q-137 -131 -137 -248q0 -52 28.5 -82t74.5 -30t90 22l28 -59q-119 -69 -137.5 -75.5t-48.5 -6.5q-90 0 -138 48.5t-48 117.5q0 144 180 313h-361v102q100 9 121 31
t21 113zM156 1260q0 68 49 116.5t117 48.5t115.5 -48t47.5 -117t-47.5 -117.5t-115.5 -48.5t-117 49t-49 117z" />
    <glyph glyph-name="Idotaccent" unicode="&#x130;" horiz-adv-x="780" 
d="M252 285v749q0 118 -25 146t-135 37v102h594v-102q-112 -7 -136 -35t-24 -148v-749q0 -119 25 -147t135 -36v-102h-594v102q110 8 135 36t25 147zM515 1579q0 -55 -34 -89t-90 -34t-91 34t-35 89q1 55 37 93t89 38t89 -38q35 -39 35 -93z" />
    <glyph glyph-name="dotlessi" unicode="&#x131;" horiz-adv-x="641" 
d="M205 246v397q0 102 -17.5 121.5t-119.5 32.5v90q232 27 399 76v-717q0 -91 20 -112.5t117 -31.5v-102h-541v102q100 9 121 31t21 113z" />
    <glyph glyph-name="Kcommaaccent" unicode="&#x136;" horiz-adv-x="1415" 
d="M254 285v749q0 118 -26 146t-140 37v102h588v-102q-106 -9 -131 -37t-25 -146v-303q90 27 244 219t154 228q0 35 -87 39v102h531v-102q-100 -10 -162 -35q-62 -26 -174 -136t-223 -249q150 -259 276 -439t175 -215q49 -34 122 -41v-102h-391q-54 79 -189 294t-157 254
q-46 78 -97 80q-10 0 -22 -3v-340q0 -118 26 -146t140 -37v-102h-586v102q106 8 130 36t24 147zM924 -299q0 -97 -74 -174t-205 -111l-27 82q143 54 144 152q0 39 -30 72t-79 49q-29 22 -29 62t31 67t76 26q71 0 132 -64t61 -161z" />
    <glyph glyph-name="kcommaaccent" unicode="&#x137;" horiz-adv-x="1107" 
d="M174 227v955q0 80 -18 94t-117 20v97q232 32 391 73v-929q61 12 92 40q30 28 87 121t58 106q0 24 -59 30v96l451 20v-98q-146 -26 -199 -64t-180 -206q26 -50 120 -181t140 -187t86 -80q40 -23 98 -32v-102h-360q-198 302 -241 376t-81 75q-1 -2 -12 -2v-222
q0 -79 20 -97t115 -28v-102h-540v102q105 10 127 28t22 97zM570 -94q58 0 119 -64t61 -161t-74 -175t-205 -110l-27 82q143 54 144 151q0 39 -30 73t-79 48q-29 22 -29 62t32 68q30 26 88 26z" />
    <glyph glyph-name="Lacute" unicode="&#x139;" horiz-adv-x="1138" 
d="M252 285v749q0 118 -26 146t-138 37v102h604v-102q-114 -7 -140 -35t-26 -148v-743q0 -110 30 -139t160 -29q129 0 188 51t106 211l108 -18q-31 -219 -67 -367h-967v102q116 8 142 36t26 147zM395 1530l230 153q102 69 112 74t20 4q26 0 80 -62t21 -95q-12 -11 -68 -31
l-346 -117z" />
    <glyph glyph-name="lacute" unicode="&#x13a;" horiz-adv-x="610" 
d="M174 227v951q0 86 -17 102t-116 23v90q255 32 395 73v-1239q0 -79 20 -97t119 -28v-102h-540v102q99 9 119 28t20 97zM132 1612l229 153q103 69 113 74t20 4q26 -1 70 -51t42 -72q0 -22 -12 -34q-12 -11 -68 -31l-345 -117z" />
    <glyph glyph-name="Lcommaaccent" unicode="&#x13b;" horiz-adv-x="1138" 
d="M252 285v749q0 118 -26 146t-138 37v102h604v-102q-114 -7 -140 -35t-26 -148v-743q0 -110 30 -139t160 -29q129 0 188 51t106 211l108 -18q-31 -219 -67 -367h-967v102q116 8 142 36t26 147zM561 -371q0 39 -30 73t-78 48q-29 22 -29 62t31 68q31 26 89 26t118 -64
q61 -64 61 -161t-74 -175t-205 -110l-26 82q143 54 143 151z" />
    <glyph glyph-name="lcommaaccent" unicode="&#x13c;" horiz-adv-x="610" 
d="M174 227v951q0 86 -17 102t-116 23v90q255 32 395 73v-1239q0 -79 20 -97t119 -28v-102h-540v102q99 9 119 28t20 97zM298 -371q0 39 -30 73t-79 48q-29 22 -29 62t32 68q30 26 88 26t119 -64t61 -161t-74 -175t-205 -110l-26 82q143 54 143 151z" />
    <glyph glyph-name="Lcaron" unicode="&#x13d;" horiz-adv-x="1138" 
d="M252 285v749q0 118 -26 146t-138 37v102h604v-102q-114 -7 -140 -35t-26 -148v-743q0 -110 30 -139t160 -29q129 0 188 51t106 211l108 -18q-31 -219 -67 -367h-967v102q116 8 142 36t26 147zM909 1247q0 39 -29 72q-30 33 -79 49q-29 22 -29 62t31 67t89 27t118 -64
t61 -161q0 -97 -74 -175t-204 -110l-27 82q143 54 143 151z" />
    <glyph glyph-name="lcaron" unicode="&#x13e;" horiz-adv-x="897" 
d="M174 227v951q0 86 -17 102t-116 23v90q255 32 395 73v-1239q0 -79 20 -97t119 -28v-102h-540v102q99 9 119 28t20 97zM692 1190q0 39 -29 72q-30 33 -79 49q-29 22 -29 62t31 67t76 26q72 0 132 -64t60 -161t-74 -174t-205 -111l-26 82q143 54 143 152z" />
    <glyph glyph-name="Lslash" unicode="&#x141;" horiz-adv-x="1163" 
d="M551 293q0 -116 31.5 -143t155.5 -27t183 44.5t113 213.5l109 -16q-35 -242 -68 -365h-966v102q117 7 142 35.5t25 147.5v231l-190 -131v137l190 129v383q0 118 -25.5 146t-135.5 37v102h604v-102q-117 -7 -142.5 -35.5t-25.5 -147.5v-207l252 172v-141l-252 -170v-395z
" />
    <glyph glyph-name="lslash" unicode="&#x142;" horiz-adv-x="659" 
d="M455 236q0 -85 20 -105.5t117 -30.5v-100h-541v100q99 9 120.5 30t21.5 106v309l-156 -137v155l156 135v486q0 81 -19 96t-117 20v93q246 33 398 73v-555l166 146v-156l-166 -145v-520z" />
    <glyph glyph-name="Nacute" unicode="&#x143;" horiz-adv-x="1462" 
d="M248 510v412q0 133 -12 181q-24 98 -189 111v105h381l668 -870h4v354q0 239 -24 330q-9 37 -48 57t-137 24v105h524v-105q-132 -5 -149 -75q-8 -32 -16 -131t-9 -205v-817h-149l-699 952h-4v-428q0 -308 35 -353t176 -53v-104h-524v104q129 5 147 76q25 94 25 330z
M557 1530l229 153q102 69 112 74t21 4q25 -1 69 -51t44 -72t-13 -34q-12 -11 -68 -31l-345 -117z" />
    <glyph glyph-name="nacute" unicode="&#x144;" horiz-adv-x="1208" 
d="M205 221v449q1 86 -15 102t-102 25v92q190 16 379 76v-136q128 84 180 109t109 25q131 0 205 -81t73 -223v-432q0 -79 18 -97t103 -28v-102h-479v102q68 8 82 26t14 93v367q0 197 -133 196q-82 0 -172 -79v-476q0 -81 14 -99t80 -28v-102h-502v102q101 9 123 27t23 92z
M882 1358q0 -28 -23 -47l-286 -248l-77 65l149 227q58 89 72 99q15 10 33 10t75 -39t57 -67z" />
    <glyph glyph-name="Ncommaaccent" unicode="&#x145;" horiz-adv-x="1462" 
d="M248 510v412q0 133 -12 181q-24 98 -189 111v105h381l668 -870h4v354q0 239 -24 330q-9 37 -48 57t-137 24v105h524v-105q-132 -5 -149 -75q-8 -32 -16 -131t-9 -205v-817h-149l-699 952h-4v-428q0 -308 35 -353t176 -53v-104h-524v104q129 5 147 76q25 94 25 330z
M764 -350q0 39 -30 72t-79 49q-29 22 -29 62t31 67t76 26q71 0 132 -64t61 -161t-74 -174t-205 -111l-26 82q143 54 143 152z" />
    <glyph glyph-name="ncommaaccent" unicode="&#x146;" horiz-adv-x="1208" 
d="M205 221v449q1 86 -15 102t-102 25v92q190 16 379 76v-136q128 84 180 109t109 25q131 0 205 -81t73 -223v-432q0 -79 18 -97t103 -28v-102h-479v102q68 8 82 26t14 93v367q0 197 -133 196q-82 0 -172 -79v-476q0 -81 14 -99t80 -28v-102h-502v102q101 9 123 27t23 92z
M596 -371q0 39 -30 73t-79 48q-29 22 -29 62t32 68q30 26 88 26t119 -64t61 -161t-74 -175t-205 -110l-26 82q143 54 143 151z" />
    <glyph glyph-name="Ncaron" unicode="&#x147;" horiz-adv-x="1462" 
d="M248 510v412q0 133 -12 181q-24 98 -189 111v105h381l668 -870h4v354q0 239 -24 330q-9 37 -48 57t-137 24v105h524v-105q-132 -5 -149 -75q-8 -32 -16 -131t-9 -205v-817h-149l-699 952h-4v-428q0 -308 35 -353t176 -53v-104h-524v104q129 5 147 76q25 94 25 330z
M773 1456h-63q-119 115 -277 221l51 76q125 -43 256 -131q130 88 254 131l54 -76q-159 -110 -275 -221z" />
    <glyph glyph-name="ncaron" unicode="&#x148;" horiz-adv-x="1208" 
d="M205 221v449q1 86 -15 102t-102 25v92q190 16 379 76v-136q128 84 180 109t109 25q131 0 205 -81t73 -223v-432q0 -79 18 -97t103 -28v-102h-479v102q68 8 82 26t14 93v367q0 197 -133 196q-82 0 -172 -79v-476q0 -81 14 -99t80 -28v-102h-502v102q101 9 123 27t23 92z
M653 1083h-94q-83 147 -215 318l90 67q79 -83 170 -202q104 131 172 202l88 -67q-125 -166 -211 -318z" />
    <glyph glyph-name="Omacron" unicode="&#x14c;" horiz-adv-x="1445" 
d="M1044 634q0 274 -86 431q-86 158 -236 158q-150 -1 -234 -141t-82 -401q0 -261 93 -423t257 -162q288 0 288 538zM720 -27q-278 1 -452 191t-174 482t175 495q175 205 454 205t454 -186t175 -492q0 -305 -177 -500t-455 -195zM994 1518h-536v139h536v-139z" />
    <glyph glyph-name="omacron" unicode="&#x14d;" horiz-adv-x="1112" 
d="M741 426q0 196 -52 306q-53 110 -150 110q-73 0 -122 -84t-49 -254q0 -172 57 -290q56 -118 153 -118q163 0 163 330zM76 462q0 214 144 358t347 143q203 0 333 -138q130 -137 130 -355t-136 -356t-346 -138t-341 136t-131 350zM297 1331h539v-151h-539v151z" />
    <glyph glyph-name="Ohungarumlaut" unicode="&#x150;" horiz-adv-x="1445" 
d="M1044 634q0 274 -86 431q-86 158 -236 158q-150 -1 -234 -141t-82 -401q0 -261 93 -423t257 -162q288 0 288 538zM720 -27q-278 1 -452 191t-174 482t175 495q175 205 454 205t454 -186t175 -492q0 -305 -177 -500t-455 -195zM1029 1754q31 0 75 -63t14 -93
q-11 -10 -105 -49l-220 -93l-37 74l175 151q77 67 83 70t15 3zM688 1795q29 0 66 -52t37 -78t-29 -37l-311 -131l-48 74l181 150q82 68 88 71t16 3z" />
    <glyph glyph-name="ohungarumlaut" unicode="&#x151;" horiz-adv-x="1112" 
d="M741 426q0 196 -52 306q-53 110 -150 110q-73 0 -122 -84t-49 -254q0 -172 57 -290q56 -118 153 -118q163 0 163 330zM76 462q0 214 144 358t347 143q203 0 333 -138q130 -137 130 -355t-136 -356t-346 -138t-341 136t-131 350zM842 1458q20 0 51 -22l39 -29
q33 -19 33 -45t-16 -37l-292 -260l-65 49l146 235q56 91 70 100t34 9zM522 1512q20 0 51 -23l39 -29q33 -18 33 -44t-15 -38l-292 -260l-66 49l147 235q56 92 69 101q14 9 34 9z" />
    <glyph glyph-name="OE" unicode="&#x152;" horiz-adv-x="1961" 
d="M1020 238v864q0 50 -21 83.5t-170 33.5q-193 0 -309.5 -145.5t-116.5 -401.5t117.5 -414t317.5 -158q74 0 128 24t54 114zM1288 1126v-370h137q91 0 125.5 8.5t49 37.5t28.5 109h105v-456h-105q-13 87 -27 117.5t-48 39.5t-128 9h-137v-289q0 -111 13 -150.5t53 -49
t166 -9.5t187.5 42.5t115.5 213.5l106 -19q-30 -230 -67 -360h-621q-153 0 -265 -12t-167 -13q-336 0 -524.5 185.5t-188.5 489.5t208.5 498.5t545.5 194.5q34 0 166 -12t203 -12h593l21 -309l-104 -13q-39 131 -82 165t-195 34h-88q-56 0 -66 -7.5t-10 -62.5z" />
    <glyph glyph-name="oe" unicode="&#x153;" horiz-adv-x="1626" 
d="M1174 840q-60 0 -111 -63.5t-62 -176.5q182 8 245 8t70 10.5t7 34.5q0 73 -44.5 130t-104.5 57zM745 430q0 200 -52.5 305t-149.5 105q-74 0 -123 -85.5t-49 -256.5t57.5 -284.5t151.5 -113.5q165 0 165 330zM539 -25q-204 0 -332.5 138.5t-128.5 328.5q0 232 144 376.5
t348 144.5t321 -172q143 172 338 172q138 0 239 -105t101 -248q0 -55 -11.5 -76t-41.5 -27t-201 -18t-324 -18q0 -136 83.5 -217.5t209.5 -81.5t215 94l53 -73q-76 -110 -173.5 -164t-184.5 -54q-216 0 -338 152q-62 -75 -147 -113.5t-170 -38.5z" />
    <glyph glyph-name="Racute" unicode="&#x154;" horiz-adv-x="1357" 
d="M520 1098v-424h58q158 0 217 75t59 201t-70 188t-150 62t-97 -21t-17 -81zM254 285v753q0 82 -10 114t-38 45q-29 12 -108 22v100h568q262 0 368 -93t107 -247q0 -242 -232 -342q8 -13 43 -82q228 -453 375 -483l-10 -92q-229 13 -305 44q-76 30 -140 112t-188 351
q-35 72 -121 72h-43v-274q0 -120 25 -148t135 -35v-102h-588v102q110 6 136 34t26 149zM978 1638q0 -22 -12 -34q-12 -11 -68 -31l-345 -117l-49 74l229 153q102 69 112 74t20 4q25 -1 69 -51t44 -72z" />
    <glyph glyph-name="racute" unicode="&#x155;" horiz-adv-x="878" 
d="M205 227v437q1 84 -15 100t-104 29v92q166 18 381 76v-209h4q125 211 246 211q57 0 97 -41t40 -105q0 -65 -44 -115t-86 -50q-20 0 -52 26t-78 24q-47 0 -87 -50t-40 -70v-355q0 -79 24 -97t144 -28v-102h-567v102q96 10 116 28t21 97zM759 1358q0 -28 -23 -47l-285 -248
l-78 65l149 227q58 89 72 99t33 10t75 -39t57 -67z" />
    <glyph glyph-name="Rcommaaccent" unicode="&#x156;" horiz-adv-x="1357" 
d="M520 1098v-424h58q158 0 217 75t59 201t-70 188t-150 62t-97 -21t-17 -81zM254 285v753q0 82 -10 114t-38 45q-29 12 -108 22v100h568q262 0 368 -93t107 -247q0 -242 -232 -342q8 -13 43 -82q228 -453 375 -483l-10 -92q-229 13 -305 44q-76 30 -140 112t-188 351
q-35 72 -121 72h-43v-274q0 -120 25 -148t135 -35v-102h-588v102q110 6 136 34t26 149zM575 -167q0 40 31 67t76 26q71 0 132 -64q60 -64 60 -161t-74 -174t-204 -111l-27 82q143 54 144 152q0 39 -30 72t-79 49q-29 22 -29 62z" />
    <glyph glyph-name="rcommaaccent" unicode="&#x157;" horiz-adv-x="878" 
d="M205 227v437q1 84 -15 100t-104 29v92q166 18 381 76v-209h4q125 211 246 211q57 0 97 -41t40 -105q0 -65 -44 -115t-86 -50q-20 0 -52 26t-78 24q-47 0 -87 -50t-40 -70v-355q0 -79 24 -97t144 -28v-102h-567v102q96 10 116 28t21 97zM382 -371q0 39 -30 73t-79 48
q-29 22 -29 62t32 68q30 26 88 26t119 -64t61 -161t-74 -175t-205 -110l-26 82q143 54 143 151z" />
    <glyph glyph-name="Rcaron" unicode="&#x158;" horiz-adv-x="1357" 
d="M520 1098v-424h58q158 0 217 75t59 201t-70 188t-150 62t-97 -21t-17 -81zM254 285v753q0 82 -10 114t-38 45q-29 12 -108 22v100h568q262 0 368 -93t107 -247q0 -242 -232 -342q8 -13 43 -82q228 -453 375 -483l-10 -92q-229 13 -305 44q-76 30 -140 112t-188 351
q-35 72 -121 72h-43v-274q0 -120 25 -148t135 -35v-102h-588v102q110 6 136 34t26 149zM720 1456h-64q-119 115 -276 221l51 76q125 -43 256 -131q130 88 254 131l53 -76q-158 -110 -274 -221z" />
    <glyph glyph-name="rcaron" unicode="&#x159;" horiz-adv-x="878" 
d="M205 227v437q1 84 -15 100t-104 29v92q166 18 381 76v-209h4q125 211 246 211q57 0 97 -41t40 -105q0 -65 -44 -115t-86 -50q-20 0 -52 26t-78 24q-47 0 -87 -50t-40 -70v-355q0 -79 24 -97t144 -28v-102h-567v102q96 10 116 28t21 97zM489 1083h-94q-83 147 -215 318
l90 67q79 -83 170 -202q104 131 172 202l88 -67q-125 -166 -211 -318z" />
    <glyph glyph-name="Sacute" unicode="&#x15a;" horiz-adv-x="1077" 
d="M534 96q104 0 157 47t52 133q0 163 -241 273q-360 160 -361 403q0 176 124 285t339 109q75 0 163 -18t126 -36l43 -315l-107 -16q-40 141 -102 201q-63 60 -151 60t-139 -48q-50 -50 -50 -124t60 -132t194 -115q350 -151 350 -414q-1 -182 -137 -299t-356 -117
q-176 0 -340 80q-26 74 -66 342l103 29q52 -152 144 -240q91 -88 195 -88zM839 1638q0 -22 -12 -34q-12 -11 -68 -31l-345 -117l-49 74l229 153q102 69 112 74t20 4q26 -1 70 -51t43 -72z" />
    <glyph glyph-name="sacute" unicode="&#x15b;" horiz-adv-x="878" 
d="M455 840q-47 0 -77 -26t-30 -66q0 -84 156 -143t228 -137q71 -78 71 -179q0 -143 -116 -229q-117 -86 -259 -85q-142 0 -260 59q-33 18 -40 42t-17 112t-11 158l97 12q35 -116 107 -188t151 -72q49 0 81 25t31 70q0 105 -160 174t-218 139t-58 153q0 130 100 217t265 87
q116 0 213 -39q28 -68 55 -256l-100 -27q-77 199 -209 199zM738 1358q0 -28 -22 -47l-286 -248l-78 65l150 227q58 89 72 99t32 10t76 -39q56 -39 56 -67z" />
    <glyph glyph-name="Scedilla" unicode="&#x15e;" horiz-adv-x="1077" 
d="M534 96q104 0 156.5 47t52.5 133q0 163 -241 273q-360 160 -361 403q0 176 124 285t339 109q75 0 163 -18t126 -36l43 -315l-107 -16q-40 141 -102.5 201.5t-150.5 60.5t-138.5 -49.5t-50.5 -123.5t60.5 -132.5t193.5 -114.5q350 -151 350 -414q0 -146 -91.5 -254
t-256.5 -147q-43 -47 -50 -57t-7 -23t28 -47q70 -81 70 -148q0 -128 -231 -215l-33 62q117 61 117 125q0 37 -37 73q-47 52 -47 74t7 37.5t75 105.5q-18 -2 -42 -2q-171 0 -335 80q-26 74 -66 342l103 29q52 -153 143.5 -240.5t195.5 -87.5z" />
    <glyph glyph-name="scedilla" unicode="&#x15f;" horiz-adv-x="878" 
d="M455 840q-46 0 -76.5 -26.5t-30.5 -65.5q0 -84 156 -143t227.5 -136.5t71.5 -185.5t-76 -187.5t-209 -107.5q-56 -66 -56 -80t27 -47q72 -84 72 -148q0 -128 -235 -215l-37 74q53 25 85 56.5t32 59.5t-42 76q-42 46 -42 68t7 37.5t74 105.5q-96 3 -168 29.5t-92.5 44.5
t-31.5 134t-11 163l97 12q35 -117 106.5 -188.5t151.5 -71.5q49 0 80.5 25t31.5 70q0 105 -160 174t-218 140t-58 152q0 130 100 217t265 87q116 0 213 -39q28 -68 55 -256l-100 -27q-77 199 -209 199z" />
    <glyph glyph-name="Scaron" unicode="&#x160;" horiz-adv-x="1077" 
d="M534 96q104 0 157 47t52 133q0 163 -241 273q-360 160 -361 403q0 176 124 285t339 109q75 0 163 -18t126 -36l43 -315l-107 -16q-40 141 -102 201q-63 60 -151 60t-139 -48q-50 -50 -50 -124t60 -132t194 -115q350 -151 350 -414q-1 -182 -137 -299t-356 -117
q-176 0 -340 80q-26 74 -66 342l103 29q52 -152 144 -240q91 -88 195 -88zM574 1456h-63q-119 115 -277 221l52 76q125 -43 256 -131q130 88 254 131l53 -76q-159 -110 -275 -221z" />
    <glyph glyph-name="scaron" unicode="&#x161;" horiz-adv-x="878" 
d="M455 840q-47 0 -77 -26t-30 -66q0 -84 156 -143t228 -137q71 -78 71 -179q0 -143 -116 -229q-117 -86 -259 -85q-142 0 -260 59q-33 18 -40 42t-17 112t-11 158l97 12q35 -116 107 -188t151 -72q49 0 81 25t31 70q0 105 -160 174t-218 139t-58 153q0 130 100 217t265 87
q116 0 213 -39q28 -68 55 -256l-100 -27q-77 199 -209 199zM516 1083h-94q-83 147 -215 318l90 67q79 -83 170 -202q104 131 172 202l88 -67q-125 -166 -211 -318z" />
    <glyph glyph-name="Tcommaaccent" unicode="&#x162;" horiz-adv-x="1261" 
d="M496 287v909h-58q-136 0 -182 -52t-80 -188h-102l22 414h64q23 -35 42 -43t60 -8h746q68 0 96 51h65l23 -407l-105 -7q-36 156 -82 198q-47 42 -161 42h-76v-909q0 -121 29 -149t164 -36v-102h-650v102q127 7 156 36t29 149zM485 -188q0 40 31 68q31 26 89 26
q59 0 119 -64t60 -161t-74 -175t-204 -110l-27 82q143 54 144 151q0 39 -30 73t-79 48q-29 22 -29 62z" />
    <glyph glyph-name="tcommaaccent" unicode="&#x163;" horiz-adv-x="716" 
d="M188 244v563h-127l-16 35l66 96h77v129l226 166l37 -16v-279h196q17 -18 17 -54t-12 -56t-19 -21h-182v-479q0 -103 31 -144q57 -71 173 -18l31 -96q-176 -75 -205 -85t-59 -10q-234 1 -234 269zM432 -371q0 39 -30 73t-78 48q-29 22 -29 62t31 68q30 26 88 26t119 -64
t61 -161t-74 -175t-205 -110l-26 82q143 54 143 151z" />
    <glyph glyph-name="Tcaron" unicode="&#x164;" horiz-adv-x="1261" 
d="M496 287v909h-58q-136 0 -182 -52t-80 -188h-102l22 414h64q23 -35 42 -43t60 -8h746q68 0 96 51h65l23 -407l-105 -7q-36 156 -82 198q-47 42 -161 42h-76v-909q0 -121 29 -149t164 -36v-102h-650v102q127 7 156 36t29 149zM673 1456h-64q-119 115 -276 221l51 76
q125 -43 256 -131q130 88 254 131l53 -76q-158 -110 -274 -221z" />
    <glyph glyph-name="tcaron" unicode="&#x165;" horiz-adv-x="880" 
d="M188 244v563h-127l-16 35l66 96h77v129l226 166l37 -16v-279h196q17 -18 17 -54t-12 -56t-19 -21h-182v-479q0 -103 31 -144q57 -71 173 -18l31 -96q-176 -75 -205 -85t-59 -10q-234 1 -234 269zM678 1268q0 39 -30 72t-79 49q-29 22 -29 62t31 67t76 26q71 0 132 -64
t61 -161t-74 -174t-205 -111l-26 82q143 54 143 152z" />
    <glyph glyph-name="Umacron" unicode="&#x16a;" horiz-adv-x="1462" 
d="M238 543v497q0 114 -26 141t-138 36v102h592v-102q-106 -7 -130 -35t-24 -142v-460q0 -436 297 -437q147 1 225 119t78 346v166q0 334 -34 386t-171 57v102h520v-102q-113 -2 -143 -59t-31 -384v-145q0 -369 -145 -512t-377 -143q-233 0 -363 122q-130 124 -130 447z
M1054 1518h-537v139h537v-139z" />
    <glyph glyph-name="umacron" unicode="&#x16b;" horiz-adv-x="1183" 
d="M453 340q1 -182 143 -182q72 0 154 82v458q0 94 -30 103q-16 6 -95 18v94q199 10 387 39v-673q0 -80 12 -105t54 -24q3 0 73 2v-101q-162 -19 -383 -76l-18 15v119q-134 -97 -188 -115t-103 -19q-127 1 -198 79t-71 220v424q0 94 -29 103q-16 6 -87 16v96q15 0 153 13
t232 26q-6 -77 -6 -313v-299zM322 1331h538v-151h-538v151z" />
    <glyph glyph-name="Uring" unicode="&#x16e;" horiz-adv-x="1462" 
d="M238 543v497q0 114 -26 141t-138 36v102h592v-102q-106 -7 -130 -35t-24 -142v-460q0 -436 297 -437q147 1 225 119t78 346v166q0 334 -34 386t-171 57v102h520v-102q-113 -2 -143 -59t-31 -384v-145q0 -369 -145 -512t-377 -143q-233 0 -363 122q-130 124 -130 447z
M884 1593q0 49 -29 83t-78 34t-81 -33t-32 -83t32 -83q30 -34 78 -34t80 33q30 33 30 83zM540 1596q0 94 70 154t162 60t164 -60q71 -60 71 -154t-70 -156q-71 -62 -165 -62t-163 62t-69 156z" />
    <glyph glyph-name="uring" unicode="&#x16f;" horiz-adv-x="1183" 
d="M453 340q1 -182 143 -182q72 0 154 82v458q0 94 -30 103q-16 6 -95 18v94q199 10 387 39v-673q0 -80 12 -105t54 -24q3 0 73 2v-101q-162 -19 -383 -76l-18 15v119q-134 -97 -188 -115t-103 -19q-127 1 -198 79t-71 220v424q0 94 -29 103q-16 6 -87 16v96q15 0 153 13
t232 26q-6 -77 -6 -313v-299zM702 1307q0 51 -29 84t-77 33t-79 -33q-31 -32 -31 -82q0 -51 30 -85t79 -34t78 33t29 84zM591 1092q-93 0 -162 62t-69 155q0 94 69 154q69 61 163 61t163 -61q70 -61 70 -155t-70 -156q-71 -60 -164 -60z" />
    <glyph glyph-name="Uhungarumlaut" unicode="&#x170;" horiz-adv-x="1462" 
d="M238 543v497q0 114 -26 141t-138 36v102h592v-102q-106 -7 -130 -35t-24 -142v-460q0 -436 297 -437q147 1 225 119t78 346v166q0 334 -34 386t-171 57v102h520v-102q-113 -2 -143 -59t-31 -384v-145q0 -369 -145 -512t-377 -143q-233 0 -363 122q-130 124 -130 447z
M1058 1754q32 0 66 -51t34 -73t-11 -32t-106 -49l-220 -93l-37 74l175 151q77 67 84 70t15 3zM717 1795q29 0 65 -52t37 -78q0 -26 -28 -37l-312 -131l-47 74l180 150q82 68 89 71t16 3z" />
    <glyph glyph-name="uhungarumlaut" unicode="&#x171;" horiz-adv-x="1183" 
d="M453 340q1 -182 143 -182q72 0 154 82v458q0 94 -30 103q-16 6 -95 18v94q199 10 387 39v-673q0 -80 12 -105t54 -24q3 0 73 2v-101q-162 -19 -383 -76l-18 15v119q-134 -97 -188 -115t-103 -19q-127 1 -198 79t-71 220v424q0 94 -29 103q-16 6 -87 16v96q15 0 153 13
t232 26q-6 -77 -6 -313v-299zM876 1458q20 0 52 -22l39 -29q33 -19 33 -45t-16 -37l-292 -260l-65 49l146 235q55 91 69 100t34 9zM556 1512q20 0 52 -23l39 -29q33 -18 33 -44t-15 -38l-292 -260l-66 49l147 235q56 92 69 101t33 9z" />
    <glyph glyph-name="Uogonek" unicode="&#x172;" horiz-adv-x="1462" 
d="M238 543v497q0 114 -26 141t-138 36v102h592v-102q-105 -7 -129.5 -35t-24.5 -142v-460q0 -436 297 -437q147 0 225 118.5t78 346.5v166q0 334 -34.5 386t-170.5 57v102h520v-102q-112 -2 -143 -59t-31 -384v-145q0 -275 -78.5 -419.5t-232.5 -199.5q-154 -136 -154 -264
q0 -54 30 -83.5t76 -29.5t93 23l25 -55q-119 -67 -138 -73.5t-45 -6.5q-96 0 -147 50t-51 122q0 126 164 284q-14 -4 -56 -4q-240 0 -370.5 123.5t-130.5 446.5z" />
    <glyph glyph-name="uogonek" unicode="&#x173;" horiz-adv-x="1183" 
d="M453 340q1 -182 143 -182q72 0 154 82v458q0 93 -22.5 101t-102.5 20v94q199 10 387 39v-673q0 -80 11.5 -104.5t54.5 -24.5q3 0 73 2v-101q-193 -158 -193 -299q0 -54 29 -83t74 -29t90 22l29 -59q-119 -69 -138 -75.5t-49 -6.5q-90 0 -138 48.5t-48 120.5t56.5 163.5
t154.5 175.5q-132 -23 -250 -54l-18 15v119q-135 -98 -188.5 -116t-102.5 -18q-127 0 -198 78.5t-71 220.5v424q0 94 -22.5 101.5t-93.5 17.5v96q15 0 153.5 13t231.5 26q-6 -77 -6 -313v-299z" />
    <glyph glyph-name="Ydieresis" unicode="&#x178;" horiz-adv-x="1351" 
d="M625 1217q-107 -14 -107 -43q0 -17 68 -158t145 -277q183 375 183 425q0 25 -32 36t-94 17v102h496v-102q-127 -12 -183 -81q-57 -69 -157 -268q-101 -199 -119 -246t-18 -102v-258q0 -101 29 -127t157 -33v-102h-641v102q125 8 154 34t29 126v236q0 51 -25 107
q-24 55 -142 275t-139 255t-55 53t-106 29v102h557v-102zM638 1579q0 -55 -35 -89t-91 -34t-92 35t-36 89t37 92t91 38t90 -38q36 -39 36 -93zM918 1710q54 0 89 -38q36 -38 36 -93t-34 -89q-33 -34 -89 -34t-93 34q-35 34 -35 89t36 93t90 38z" />
    <glyph glyph-name="Zacute" unicode="&#x179;" horiz-adv-x="1230" 
d="M354 1319h758l25 -41l-691 -1143q67 -12 198 -12t216 20t129 79t90 192l111 -19q-42 -294 -74 -395h-1010l-26 51l700 1145h-182q-182 0 -240 -45t-90 -209l-102 4l20 424h72q14 -29 30 -40t66 -11zM440 1530l230 153q102 69 112 74t20 4q26 0 80 -62t21 -95
q-12 -11 -68 -31l-346 -117z" />
    <glyph glyph-name="zacute" unicode="&#x17a;" horiz-adv-x="937" 
d="M330 938h516l18 -35l-458 -778h122q146 0 202 64q30 34 91 143l105 -37l-95 -295h-741l-27 37q367 608 463 776h-94q-134 0 -179 -69q-23 -35 -67 -140l-100 37q46 164 78 342h59q8 -45 107 -45zM818 1358q0 -28 -22 -47l-286 -248l-78 65l150 227q58 89 72 99t32 10
t76 -39q56 -39 56 -67z" />
    <glyph glyph-name="Zdotaccent" unicode="&#x17b;" horiz-adv-x="1230" 
d="M354 1319h758l25 -41l-691 -1143q67 -12 198 -12t216 20t129 79t90 192l111 -19q-42 -294 -74 -395h-1010l-26 51l700 1145h-182q-182 0 -240 -45t-90 -209l-102 4l20 424h72q14 -29 30 -40t66 -11zM678 1710q54 0 90 -38t35 -93q0 -55 -34 -89t-90 -34t-91 34t-35 89
t36 93q35 38 89 38z" />
    <glyph glyph-name="zdotaccent" unicode="&#x17c;" horiz-adv-x="937" 
d="M330 938h516l18 -35l-458 -778h122q146 0 202 64q30 34 91 143l105 -37l-95 -295h-741l-27 37q367 608 463 776h-94q-134 0 -179 -69q-23 -35 -67 -140l-100 37q46 164 78 342h59q8 -45 107 -45zM680 1246q0 -54 -35 -89t-92 -35t-93 35t-36 90t38 94t92 39t90 -39
q36 -41 36 -95z" />
    <glyph glyph-name="Zcaron" unicode="&#x17d;" horiz-adv-x="1230" 
d="M354 1319h758l25 -41l-691 -1143q67 -12 198 -12t216 20t129 79t90 192l111 -19q-42 -294 -74 -395h-1010l-26 51l700 1145h-182q-182 0 -240 -45t-90 -209l-102 4l20 424h72q14 -29 30 -40t66 -11zM691 1427h-63q-119 115 -277 222l51 75q125 -43 256 -131
q130 88 254 131l54 -75q-159 -111 -275 -222z" />
    <glyph glyph-name="zcaron" unicode="&#x17e;" horiz-adv-x="937" 
d="M330 938h516l18 -35l-458 -778h122q146 0 202 64q30 34 91 143l105 -37l-95 -295h-741l-27 37q367 608 463 776h-94q-134 0 -179 -69q-23 -35 -67 -140l-100 37q46 164 78 342h59q8 -45 107 -45zM553 1083h-94q-83 147 -215 318l90 67q79 -83 170 -202q104 131 172 202
l88 -67q-125 -166 -211 -318z" />
    <glyph glyph-name="florin" unicode="&#x192;" horiz-adv-x="1001" 
d="M145 774h187q27 187 74.5 278t158 187t258.5 96q49 0 107.5 -34.5t58.5 -75.5t-30.5 -80t-52.5 -39t-80 44q-60 44 -108 44t-66.5 -79t-45.5 -341h215v-115h-223q-45 -349 -66 -460t-68 -209t-102 -151.5t-120 -87.5t-125.5 -34t-111 29.5t-50.5 69.5t31.5 78t55.5 38
t76 -34t78 -35q28 0 45.5 30.5t38.5 278.5l39 487h-174v115z" />
    <glyph glyph-name="Scommaaccent" unicode="&#x218;" horiz-adv-x="1077" 
d="M534 96q104 0 157 47t52 133q0 163 -241 273q-360 160 -361 403q0 176 124 285t339 109q75 0 163 -18t126 -36l43 -315l-107 -16q-40 141 -102 201q-63 60 -151 60t-139 -48q-50 -50 -50 -124t60 -132t194 -115q350 -151 350 -414q-1 -182 -137 -299t-356 -117
q-176 0 -340 80q-26 74 -66 342l103 29q52 -152 144 -240q91 -88 195 -88zM530 -371q0 39 -29 73q-30 33 -79 48q-29 22 -29 62t31 68q31 26 89 26q59 0 119 -64t60 -161t-74 -175t-204 -110l-27 82q143 54 143 151z" />
    <glyph glyph-name="scommaaccent" unicode="&#x219;" horiz-adv-x="878" 
d="M455 840q-47 0 -77 -26t-30 -66q0 -84 156 -143t228 -137q71 -78 71 -179q0 -143 -116 -229q-117 -86 -259 -85q-142 0 -260 59q-33 18 -40 42t-17 112t-11 158l97 12q35 -116 107 -188t151 -72q49 0 81 25t31 70q0 105 -160 174t-218 139t-58 153q0 130 100 217t265 87
q116 0 213 -39q28 -68 55 -256l-100 -27q-77 199 -209 199zM432 -371q0 39 -30 73t-78 48q-29 22 -29 62t31 68q30 26 88 26t119 -64t61 -161t-74 -175t-205 -110l-26 82q143 54 143 151z" />
    <glyph glyph-name="circumflex" unicode="&#x2c6;" 
d="M360 1446h95q74 -130 215 -318l-90 -67q-86 91 -170 201q-95 -120 -172 -201l-88 67q135 180 210 318z" />
    <glyph glyph-name="caron" unicode="&#x2c7;" 
d="M459 1083h-94q-83 147 -215 318l90 67q79 -83 170 -202q104 131 172 202l88 -67q-125 -166 -211 -318z" />
    <glyph glyph-name="uni02C9" unicode="&#x2c9;" horiz-adv-x="1024" 
d="M0 1571h1024v-103h-1024v103z" />
    <glyph glyph-name="breve" unicode="&#x2d8;" 
d="M676 1407q0 -293 -266.5 -293t-266.5 293h101q9 -79 54.5 -121.5t111 -42.5t111 42.5t54.5 121.5h101z" />
    <glyph glyph-name="dotaccent" unicode="&#x2d9;" horiz-adv-x="520" 
d="M389 1246q0 -54 -35.5 -89t-91.5 -35t-92.5 35t-36.5 90t37.5 94t91.5 39t90.5 -40t36.5 -94z" />
    <glyph glyph-name="ring" unicode="&#x2da;" 
d="M520 1307q0 51 -29 83.5t-77 32.5t-79.5 -32t-31.5 -82t30.5 -84.5t79.5 -34.5t78 33t29 84zM178 1309q0 94 68.5 154.5t162.5 60.5t164 -61t70 -155t-70.5 -155t-163.5 -61t-162 61.5t-69 155.5z" />
    <glyph glyph-name="ogonek" unicode="&#x2db;" 
d="M360 -248q0 -54 29 -83t74 -29t90 22l29 -59q-119 -69 -138 -75.5t-49 -6.5q-90 0 -138 48.5t-48 122.5t67 176t185 193h104q-205 -167 -205 -309z" />
    <glyph glyph-name="tilde" unicode="&#x2dc;" horiz-adv-x="813" 
d="M541 1268q47 0 94 92l92 -51q-72 -178 -199 -179q-41 0 -128 38t-128 38t-98 -94l-84 66q88 164 195 163q61 -1 141 -37t115 -36z" />
    <glyph glyph-name="hungarumlaut" unicode="&#x2dd;" horiz-adv-x="905" 
d="M676 1458q20 0 51 -22l39 -29q33 -19 33 -45t-16 -37l-291 -260l-66 49l146 235q56 91 70 100t34 9zM356 1512q20 0 52 -23l38 -29q33 -18 33 -44t-15 -38l-292 -260l-66 49l147 235q56 92 69.5 101t33.5 9z" />
    <glyph glyph-name="pi" unicode="&#x3c0;" horiz-adv-x="1155" 
d="M542 737h-81v-17q0 -294 -42 -477t-77 -231q-77 -32 -180 -37l-26 56q118 153 148.5 382t30.5 327q-103 3 -156.5 -18.5t-86.5 -40.5l-45 87l55 54q54 55 150.5 83.5t170.5 26.5q321 -6 428 -7q107 0 121.5 1.5t30 11t34.5 51.5l100 -18q-7 -97 -27.5 -159t-29.5 -74
q-28 -10 -41 -10h-105q-11 -102 -11 -393q0 -163 75 -163q51 0 89 26l35 -86q-70 -91 -138 -114t-104 -23q-84 0 -136.5 59t-52.5 238t16 461q-90 4 -145 4z" />
    <glyph glyph-name="endash" unicode="&#x2013;" horiz-adv-x="1052" 
d="M102 567h848v-155h-848v155z" />
    <glyph glyph-name="emdash" unicode="&#x2014;" horiz-adv-x="2103" 
d="M102 567h1899v-155h-1899v155z" />
    <glyph glyph-name="quoteleft" unicode="&#x2018;" horiz-adv-x="524" 
d="M260 1149q0 -66 43.5 -113.5t118.5 -62.5q10 -2 20.5 -25t10.5 -65t-39.5 -75.5t-91.5 -33.5q-102 0 -187.5 85t-85.5 219t99.5 237t273.5 151l35 -104q-197 -90 -197 -213z" />
    <glyph glyph-name="quoteright" unicode="&#x2019;" horiz-adv-x="528" 
d="M260 1084q0 62 -43.5 109t-118.5 62q-10 2 -20 25.5t-10 65.5t39.5 75t91.5 33q102 0 187 -85t85 -219t-99.5 -237t-273.5 -151l-35 106q95 42 146 98t51 118z" />
    <glyph glyph-name="quotesinglbase" unicode="&#x201a;" horiz-adv-x="530" 
d="M268 -27q0 61 -44.5 110t-117.5 62q-11 2 -21.5 24.5t-10.5 64.5t40 76t91 34q102 0 187 -85t85 -219t-99 -237t-274 -151l-32 106q95 42 145.5 98t50.5 117z" />
    <glyph glyph-name="quotedblleft" unicode="&#x201c;" horiz-adv-x="1001" 
d="M735 1149q0 -66 43.5 -113.5t118.5 -62.5q10 -2 20.5 -25t10.5 -65t-39.5 -75.5t-91.5 -33.5q-102 0 -187.5 85t-85.5 219t99.5 237t273.5 151l35 -104q-197 -90 -197 -213zM260 1149q0 -66 43.5 -113.5t118.5 -62.5q10 -2 20.5 -25t10.5 -65t-39.5 -75.5t-91.5 -33.5
q-102 0 -187.5 85t-85.5 219t99.5 237t273.5 151l35 -104q-197 -90 -197 -213z" />
    <glyph glyph-name="quotedblright" unicode="&#x201d;" horiz-adv-x="1001" 
d="M735 1084q0 62 -43.5 109t-118.5 62q-10 2 -21 25.5t-11 65.5t40.5 75t92.5 33q102 0 187 -85t85 -219t-99 -237t-274 -151l-34 106q95 42 145.5 98t50.5 118zM260 1084q0 62 -43.5 109t-118.5 62q-10 2 -20 25.5t-10 65.5t39.5 75t91.5 33q102 0 187 -85t85 -219
t-99.5 -237t-273.5 -151l-35 106q95 42 146 98t51 118z" />
    <glyph glyph-name="quotedblbase" unicode="&#x201e;" horiz-adv-x="989" 
d="M733 -26q0 62 -44.5 110t-119.5 61q-10 2 -20 25.5t-10 65.5t39 75t92 33q102 0 187 -85t85 -218t-99.5 -236t-273.5 -151l-34 106q198 86 198 214zM268 -26q0 62 -43.5 110t-118.5 61q-10 2 -20 25.5t-10 65.5t39.5 75t89.5 33q102 0 187 -85t85 -218t-98.5 -236
t-272.5 -151l-34 106q196 86 196 214z" />
    <glyph glyph-name="dagger" unicode="&#x2020;" horiz-adv-x="1124" 
d="M475 -47q0 383 -74 577q82 154 82 261q-83 0 -137 -18.5t-110 -57.5q-108 47 -148 137q44 93 148 141q114 -80 247 -84q-1 60 -17 117t-81 152q55 111 164 168q105 -49 164 -168q-65 -94 -81.5 -151t-17.5 -118q134 4 248 84q103 -48 148 -141q-40 -90 -148 -137
q-108 76 -248 80q0 -108 84 -265q-76 -200 -75 -577q0 -179 4 -248h-156q4 69 4 248z" />
    <glyph glyph-name="daggerdbl" unicode="&#x2021;" horiz-adv-x="1093" 
d="M614 272q128 0 244 80q93 -30 148 -141q-48 -106 -148 -137q-111 76 -244 80q3 -148 97 -289q-51 -118 -164 -154q-115 36 -164 154q93 140 96 289q-133 -4 -243 -80q-99 33 -148 137q53 110 148 141q121 -83 243 -84q-5 200 -90 277q84 86 90 264q-139 -4 -243 -76
q-97 32 -148 131q52 110 148 142q114 -78 243 -82q-3 119 -92 260q55 122 162 162q118 -45 162 -162q-93 -138 -97 -260q130 4 244 82q102 -33 148 -142q-43 -98 -148 -131q-104 72 -244 76q6 -178 91 -264q-91 -88 -91 -273z" />
    <glyph glyph-name="bullet" unicode="&#x2022;" horiz-adv-x="720" 
d="M109 668q0 106 74.5 179t176.5 73t176 -74t74 -179t-73 -179t-177 -74t-177.5 74t-73.5 180z" />
    <glyph glyph-name="ellipsis" unicode="&#x2026;" horiz-adv-x="1959" 
d="M510 168q0 -84 -52 -138.5t-131 -54.5t-131.5 54.5t-52.5 138.5t53 139t131 55t130.5 -55t52.5 -139zM1817 168q0 -84 -52.5 -138.5t-131.5 -54.5t-131 54.5t-52 138.5t52.5 139t130.5 55t131 -55t53 -139zM1163 168q0 -84 -52 -138.5t-131 -54.5t-131 54.5t-52 138.5
t52.5 139t130.5 55t130.5 -55t52.5 -139z" />
    <glyph glyph-name="perthousand" unicode="&#x2030;" horiz-adv-x="2496" 
d="M2202 342q0 108 -25 192t-85 84t-90 -75t-30 -191t30 -191t86 -75t85 74t29 182zM1735 352q0 156 91.5 266.5t253.5 110.5t253.5 -110.5t91.5 -266.5t-90.5 -266.5t-253.5 -110.5t-254.5 110.5t-91.5 266.5zM1430 354q0 118 -29 191t-85 73t-86 -75t-30 -191t30.5 -191
t85.5 -75t84.5 75t29.5 193zM969 352q0 156 91.5 266.5t253.5 110.5t252.5 -110.5t90.5 -267.5t-90.5 -266.5t-252.5 -109.5t-253.5 110.5t-91.5 266.5zM537 927q0 117 -29.5 190t-85.5 73t-86.5 -76t-30.5 -190t30.5 -190.5t86.5 -76.5t85.5 76.5t29.5 193.5zM74 924
q0 154 91 265t253 111t254 -110t92 -266t-91 -266.5t-253 -110.5t-254 111.5t-92 265.5zM1317 1253l-809 -1333l-113 80l805 1327z" />
    <glyph glyph-name="guilsinglleft" unicode="&#x2039;" horiz-adv-x="600" 
d="M514 102l-94 -63q-122 193 -336 430q209 231 336 430l94 -65l-188 -365z" />
    <glyph glyph-name="guilsinglright" unicode="&#x203a;" horiz-adv-x="600" 
d="M178 39l-94 63l188 367l-188 365l94 65q160 -234 336 -430q-184 -205 -336 -430z" />
    <glyph glyph-name="fraction" unicode="&#x2044;" horiz-adv-x="978" 
d="M842 1329l116 -76l-827 -1331l-111 82z" />
    <glyph glyph-name="Euro" unicode="&#x20ac;" horiz-adv-x="1001" 
d="M634 -25q-235 0 -351 140.5t-146 364.5h-118l29 112h79q-3 32 3 109h-81l29 111h67q43 236 189 362t345 126q118 0 230 -43q9 -60 15.5 -119.5t14.5 -132.5l-108 -23q-55 206 -168 206q-82 0 -147 -93.5t-90 -282.5h482l-29 -111h-462q-5 -48 0 -109h433l-30 -112h-396
q10 -172 75.5 -277t154.5 -105t132 74.5t66 121.5l104 -31q-18 -86 -79 -239q-62 -26 -134.5 -37.5t-108.5 -11.5z" />
    <glyph glyph-name="litre" unicode="&#x2113;" horiz-adv-x="966" 
d="M627 1099q0 99 -34.5 124t-60.5 25q-52 0 -72 -76.5t-20 -266.5v-147q187 142 187 341zM172 366v114l-89 -44l-36 104l125 82v168q0 172 31.5 270t90.5 168q121 144 283 144q115 0 180.5 -76.5t65.5 -177.5t-53.5 -226.5t-329.5 -277.5v-149q0 -283 163 -283q80 0 128 48
t71 72l81 -84q-161 -243 -399 -243q-312 0 -312 391z" />
    <glyph glyph-name="trademark" unicode="&#x2122;" horiz-adv-x="1835" 
d="M1722 1319v-68q-62 -6 -77 -17.5t-15 -42.5t5.5 -198.5t7 -197t8 -47t23.5 -23.5t63 -10v-66h-342v66q60 6 72 23t12 102l-4 352h-5l-221 -528h-59l-217 510h-2q-9 -261 -9 -292l3 -112q0 -30 22 -40.5t72 -14.5v-66h-307v66q66 6 82.5 26.5t31.5 193t15 228.5t-20 70
t-73 18v68h293l181 -399l165 399h295zM485 1235v-395q0 -82 16.5 -100.5t94.5 -24.5v-66h-381v66q74 6 89 24t15 101v395h-22q-74 0 -102.5 -21t-51.5 -110h-63l16 239h39q0 -25 58 -24h432q41 0 51 24h39l12 -237l-63 -2q-27 109 -51 120t-95 11h-33z" />
    <glyph glyph-name="Omega" unicode="&#x2126;" horiz-adv-x="1544" 
d="M1102 759q0 213 -82.5 341t-237.5 128t-238 -134t-83 -373t94 -431t119 -243l-15 -47h-519l-30 325l99 1q27 -71 58 -90t101 -19h90q-137 132 -179.5 192t-81.5 138.5t-39 206.5q0 260 175.5 428t448.5 168t447 -167.5t174 -433.5q0 -227 -133 -360t-171 -172h102
q66 0 94.5 18.5t58.5 90.5l99 -1l-42 -325h-512l-13 44q14 34 35.5 78t45 97t47.5 113.5t56 169t32 257.5z" />
    <glyph glyph-name="estimated" unicode="&#x212e;" horiz-adv-x="1580" 
d="M1249 655q8 0 8 11v364q0 25 -18 43q-189 189 -449 189t-449 -195q-18 -18 -18 -45v-356q0 -11 10 -11h916zM333 618q-10 0 -10 -8v-360q0 -25 16 -41q188 -197 453 -197q144 0 266 59.5t210 159.5h106q-159 -184 -327 -221t-263 -37t-190 23.5t-177 67.5t-149 104
t-115.5 134t-74.5 159t-26 176t26 176t74.5 159t115.5 134t149 103.5t176.5 67t196.5 23.5t196 -23.5t219 -90t224 -217t99 -332.5v-19h-1195z" />
    <glyph glyph-name="partialdiff" unicode="&#x2202;" horiz-adv-x="1077" 
d="M592 737q-92 0 -166 -99q-103 -139 -103 -336q0 -91 37 -151.5t100 -60.5q89 0 173 146.5t106 394.5q-8 42 -51 74t-94 32h-2zM759 784q13 58 13 128q0 69 -11.5 199t-117.5 160.5t-150 30.5q-72 0 -129 -21.5t-133 -66.5q-32 6 -61.5 75t-17.5 106q123 59 273 59
t318.5 -106t212 -305.5t43.5 -303.5q0 -361 -158.5 -562.5t-385.5 -201.5q-173 0 -279 117.5t-106 285.5t107 329.5t369 161.5h2q92 0 143 -33.5t68 -51.5z" />
    <glyph glyph-name="Delta" unicode="&#x2206;" horiz-adv-x="1314" 
d="M588 976l-303 -816h614zM90 0v91l500 1231l126 28l508 -1257v-93h-1134z" />
    <glyph glyph-name="product" unicode="&#x220f;" horiz-adv-x="1485" 
d="M1237 1024v-850q0 -120 22 -145t55 -32t89 -12v-111h-579v111q98 8 117.5 32.5t23.5 59.5t4 95v947q0 51 -13 62t-60 11h-307q-46 0 -59 -13t-13 -63v-944q0 -118 19 -143t47 -32.5t75 -11.5v-111h-578v111q114 8 136.5 32.5t27.5 59.5t5 95v852q0 120 -23.5 144
t-58.5 31.5t-94 11.5v111h1335v-111q-116 -8 -138.5 -32.5t-27.5 -59.5t-5 -95z" />
    <glyph glyph-name="summation" unicode="&#x2211;" horiz-adv-x="1117" 
d="M641 1195h-216l296 -530l-387 -600h368q102 0 136.5 28t59.5 69.5t56 111.5l109 -27l-84 -410h-918v82l412 621l-384 699v83h895l22 -342l-110 -19q-17 53 -47 112q-30 60 -46 76.5t-46.5 31t-115.5 14.5z" />
    <glyph glyph-name="minus" unicode="&#x2212;" horiz-adv-x="1327" 
d="M109 657h1112v-180h-1112v180z" />
    <glyph glyph-name="uni2215" unicode="&#x2215;" horiz-adv-x="978" 
d="M842 1329l116 -76l-827 -1331l-111 82z" />
    <glyph glyph-name="uni2219" unicode="&#x2219;" horiz-adv-x="489" 
d="M428 514q0 -84 -51.5 -137t-130.5 -53t-131 53t-52 137t52.5 138.5t130.5 54.5t130 -54.5t52 -138.5z" />
    <glyph glyph-name="radical" unicode="&#x221a;" horiz-adv-x="1164" 
d="M783 -78l-483 990l-183 -90l-39 107l354 170l314 -660h5l251 1439l130 -13z" />
    <glyph glyph-name="infinity" unicode="&#x221e;" horiz-adv-x="1654" 
d="M1200 765q-96 0 -175.5 -96t-100.5 -122q104 -124 161 -172.5t128 -56.5q72 0 129.5 65.5t59.5 137.5q3 127 -52.5 185.5t-147.5 58.5h-2zM456 318q105 0 178 91t100 123q-82 115 -145.5 174t-147.5 59t-137 -67t-51 -161q2 -93 61.5 -156t139.5 -63h2zM1563 539
q0 -157 -103.5 -256.5t-251.5 -99.5t-238.5 92.5t-142.5 156.5q-35 -44 -122.5 -146.5t-278.5 -102.5q-141 0 -237.5 102t-96.5 257t98 256.5t258 101.5t252 -101.5t131 -151.5q43 49 137 151t269 102q137 0 231.5 -102t94.5 -257v-2z" />
    <glyph glyph-name="integral" unicode="&#x222b;" horiz-adv-x="881" 
d="M704 1601q74 0 115 -37.5t41 -81.5q0 -70 -32.5 -99.5t-70.5 -29.5q-37 0 -58 13.5t-37 29.5t-28 30t-26 14q-29 0 -40.5 -47.5t-5.5 -214.5l17 -626q11 -452 -101.5 -683t-310.5 -231q-110 0 -145.5 68t-6 129.5t109.5 61.5q42 0 74 -35.5t47.5 -51.5t31.5 -16t23.5 9
t11.5 37.5t4 82.5t-3 146l-18 684q-13 428 84 591.5t173.5 210t150.5 46.5z" />
    <glyph glyph-name="approxequal" unicode="&#x2248;" horiz-adv-x="1332" 
d="M930 209q-127 0 -277 75q-219 109 -302 73.5t-114.5 -68.5t-46.5 -50l-78 100q50 76 182 154.5t405 -61.5q130 -66 247 -66t194 128l79 -111q-68 -117 -158.5 -145.5t-130.5 -28.5zM409 760q-124 0 -214 -135l-81 107q83 126 225 168t346 -56q147 -76 220 -76
q72 0 102.5 12.5t61 34t75.5 80.5l79 -109q-69 -120 -159 -148t-130 -28q-119 0 -274 75q-156 75 -251 75z" />
    <glyph glyph-name="notequal" unicode="&#x2260;" horiz-adv-x="1327" 
d="M1221 211h-643l-160 -283l-160 90l109 193h-258v180h362l143 256h-505v180h610l170 301l158 -90l-117 -211h291v-180h-398l-143 -256h541v-180z" />
    <glyph glyph-name="lessequal" unicode="&#x2264;" horiz-adv-x="1327" 
d="M135 0v180h1059v-180h-1059zM1174 309l-1039 445v190l1039 445v-191l-816 -348l816 -350v-191z" />
    <glyph glyph-name="greaterequal" unicode="&#x2265;" horiz-adv-x="1327" 
d="M135 0v180h1059v-180h-1059zM135 1389l1039 -445v-190l-1039 -445v191l815 348l-815 350v191z" />
    <glyph glyph-name="lozenge" unicode="&#x25ca;" horiz-adv-x="964" 
d="M211 754l272 -529l273 529l-273 514zM416 0l-396 754l396 737h135l395 -737l-395 -754h-135z" />
    <glyph glyph-name="apple" unicode="&#xf000;" horiz-adv-x="1656" 
 />
    <glyph glyph-name="four.superior" unicode="&#xf003;" horiz-adv-x="733" 
d="M307 815v268h-6q-77 -98 -186 -268h192zM506 1300v-485h119v-100h-119v-27q0 -65 22.5 -79.5t85.5 -18.5v-86h-448v86q74 4 107.5 15t33.5 83v27h-354v59q228 309 418 526h135z" />
    <glyph glyph-name="pi.1" unicode="&#xf006;" horiz-adv-x="1155" 
d="M687 733q-90 4 -226 4v-17q0 -297 -42 -478q-42 -182 -77 -230q-70 -29 -180 -37l-26 56q146 188 175 608q4 57 4 101q-101 3 -156 -18q-54 -21 -87 -41l-45 87l45 45q68 66 190 100q67 19 141 18t136 -2t127 -2t177 -3t132 10q20 11 42 55l100 -18q-8 -109 -28 -165
t-29 -68q-28 -10 -114 -10h-32q-11 -102 -11 -393q0 -163 75 -163q47 0 89 26l35 -86q-72 -93 -159 -121t-153 -4q-119 37 -119 268q0 195 16 478z" />
    <glyph glyph-name="acute.cap" unicode="&#xf100;" 
d="M542 1761q18 0 61 -50.5t43 -72.5t-11.5 -34t-68.5 -31l-345 -117l-49 74l229 153q102 69 112.5 73.5t28.5 4.5z" />
    <glyph glyph-name="dieresis.cap" unicode="&#xf101;" 
d="M334 1579q0 -54 -35 -88.5t-91 -34.5t-92 35t-36 89t37.5 92t90.5 38t89.5 -38.5t36.5 -92.5zM739 1579q0 -54 -34 -88.5t-90 -34.5t-92 35t-36 89t36.5 92t89.5 38t89.5 -38.5t36.5 -92.5z" />
    <glyph glyph-name="circumflex.cap" unicode="&#xf102;" 
d="M379 1751h61q103 -99 277 -221l-51 -76q-137 54 -256 131q-117 -75 -254 -131l-54 76q163 117 277 221z" />
    <glyph glyph-name="tilde.cap" unicode="&#xf103;" 
d="M287 1686q52 0 140 -35q89 -35 119 -35t50 16t49 66l88 -53q-81 -166 -205 -166q-50 0 -134 36q-84 35 -126 35t-96 -90l-86 68q93 158 201 158z" />
    <glyph glyph-name="macron.cap" unicode="&#xf104;" 
d="M678 1518h-537v139h537v-139z" />
    <glyph glyph-name="breve.cap" unicode="&#xf105;" 
d="M684 1747q0 -272 -272.5 -272t-278.5 272h84q13 -65 66 -101t127 -36t125.5 36t64.5 101h84z" />
    <glyph glyph-name="dotaccent.cap" unicode="&#xf106;" 
d="M535 1579q0 -54 -34.5 -88.5t-90.5 -34.5t-90.5 35t-34.5 89t35.5 92t89.5 38t89.5 -38.5t35.5 -92.5z" />
    <glyph glyph-name="ring.cap" unicode="&#xf107;" 
d="M520 1593q0 50 -28.5 83.5t-77.5 33.5t-81 -32.5t-32 -82.5t30.5 -84t79.5 -34t79 33t30 83zM176 1596q0 94 70 154t163 60t163.5 -60t70.5 -154t-69.5 -156t-163.5 -62t-164 62t-70 156z" />
    <glyph glyph-name="cedilla.cap" unicode="&#xf108;" 
d="M446 -94q0 -12 27 -45q74 -86 74 -148q0 -128 -236 -215l-39 74q54 26 86.5 57.5t32.5 59.5q-1 28 -43 75q-42 48 -42 76t22 56l80 104h106q-54 -65 -61 -73.5t-7 -20.5z" />
    <glyph glyph-name="hungarumlaut.cap" unicode="&#xf109;" 
d="M673 1754q31 0 65.5 -50.5t34.5 -72.5t-11 -32.5t-106 -49.5l-220 -93l-37 74l175 151q77 67 84 70t15 3zM332 1795q29 0 65.5 -51.5t36.5 -77.5t-28 -38l-312 -131l-47 74l180 150q82 68 89 71t16 3z" />
    <glyph glyph-name="ogonek.cap" unicode="&#xf110;" 
d="M375 -248q0 -52 27.5 -82t73.5 -30t91 22l29 -59q-119 -69 -138 -75.5t-48 -6.5q-90 0 -138.5 48.5t-48.5 122.5t67 176t185 193h105q-205 -167 -205 -309z" />
    <glyph glyph-name="caron.cap" unicode="&#xf111;" 
d="M442 1456h-63q-119 115 -277 221l52 76q125 -43 256 -131q130 88 254 131l53 -76q-159 -110 -275 -221z" />
    <glyph glyph-name="grave.cap" unicode="&#xf112;" horiz-adv-x="820" 
d="M188 1636q0 18 40.5 72t68.5 54q11 0 21.5 -4.5t113.5 -73.5l232 -154l-50 -74l-247 84q-135 45 -147 50t-22 16.5t-10 29.5z" />
    <glyph glyph-name="commaaccent" unicode="&#xf6c3;" 
d="M401 -371q0 39 -29.5 72.5t-78.5 48.5q-29 22 -29 62t31 67t89 27t118.5 -64t60.5 -161t-74 -174t-204 -111l-27 82q143 54 143 151z" />
    <glyph glyph-name="NULL" horiz-adv-x="0" 
 />
    <glyph glyph-name="uni021A" horiz-adv-x="1261" 
d="M496 287v909h-58q-136 0 -182 -52t-80 -188h-102l22 414h64q23 -35 42 -43t60 -8h746q68 0 96 51h65l23 -407l-105 -7q-36 156 -82 198q-47 42 -161 42h-76v-909q0 -121 29 -149t164 -36v-102h-650v102q127 7 156 36t29 149zM485 -188q0 40 31 68q31 26 89 26
q59 0 119 -64t60 -161t-74 -175t-204 -110l-27 82q143 54 144 151q0 39 -30 73t-79 48q-29 22 -29 62z" />
    </font>
</defs>
</svg>
