<?xml version="1.0" standalone="no"?>
<!DOCTYPE svg PUBLIC "-//W3C//DTD SVG 1.1//EN" "http://www.w3.org/Graphics/SVG/1.1/DTD/svg11.dtd" >
<svg xmlns="http://www.w3.org/2000/svg">
<metadata>
Created by FontPrep 20130207 at Sat Oct  4 18:05:47 2014
 By Nico
Copyright 1991-2003 Adobe Systems Incorporated. All Rights Reserved. U.S. Patent Des. 371,799.
</metadata>
<defs>
<font id="37c2ad9bfb4ef36c76926319d6db291e" horiz-adv-x='1024' >
  <font-face 
    font-family="MinionWebPro"
    font-weight="400"
    font-stretch="normal"
    units-per-em="2048"
    panose-1="2 4 5 3 5 2 1 2 2 3"
    ascent="1536"
    descent="-512"
    x-height="928"
    cap-height="1319"
    bbox="-31 -569 2204 1879"
    underline-thickness="102"
    underline-position="-153"
    unicode-range="U+0020-FB02"
  />
<missing-glyph horiz-adv-x="1024" 
d="M102 195l349 522l-349 522v-1044zM860 102l-348 523l-348 -523h696zM922 195v1044l-349 -522zM860 1331h-696l348 -522zM0 1434h1024v-1434h-1024v1434z" />
    <glyph glyph-name="f_i" unicode="fi" horiz-adv-x="1157" 
d="M225 223v606h-135l-14 27l57 72h92v24q0 221 109 332t195.5 150t162.5 39t154 -46t78 -101q0 -34 -32 -63t-54 -29t-35 13q-92 104 -213 105q-87 0 -140 -99.5t-53 -298.5v-26h183q259 0 383 26v-733q0 -92 21 -112t124 -29v-80h-444v80q89 9 108 29t19 112v504
q0 68 -15 86t-82 18h-297v-606q0 -94 18.5 -114t114.5 -29v-80h-442v80q97 11 117 31t20 112z" />
    <glyph glyph-name="f_l" unicode="fl" horiz-adv-x="1157" 
d="M397 928h394v360q-57 80 -175 80q-219 0 -219 -362v-78zM225 221v608h-133l-14 29l55 70h92v28q0 142 70.5 270t189 188.5t172.5 60.5q100 0 187 -45q41 11 100 38l19 -12v-1235q0 -92 21.5 -112t125.5 -29v-80h-448v80q92 9 110.5 29t18.5 112v608h-394v-608
q0 -92 19 -112t112 -29v-80h-440v80q97 11 117 30.5t20 110.5z" />
    <glyph glyph-name=".notdef" horiz-adv-x="1024" 
d="M102 195l349 522l-349 522v-1044zM860 102l-348 523l-348 -523h696zM922 195v1044l-349 -522zM860 1331h-696l348 -522zM0 1434h1024v-1434h-1024v1434z" />
    <glyph glyph-name=".null" horiz-adv-x="0" 
 />
    <glyph glyph-name="nonmarkingreturn" horiz-adv-x="491" 
 />
    <glyph glyph-name="space" unicode=" " horiz-adv-x="491" 
 />
    <glyph glyph-name="exclam" unicode="!" horiz-adv-x="528" 
d="M406 126q0 -66 -40 -108.5t-101.5 -42.5t-101.5 42.5t-40 108.5t40.5 108t101 42t101 -42t40.5 -108zM274 388q-25 0 -33.5 1t-15 2.5t-9.5 4t-12 138.5l-21 280q-11 144 -25 292t-15 178q0 62 118 62t118 -62q0 -53 -20 -247t-50 -638q-10 -11 -35 -11z" />
    <glyph glyph-name="quotedbl" unicode="&#x22;" horiz-adv-x="735" 
d="M434 1386q0 55 112.5 55.5t112.5 -55.5q0 -13 -71 -522q-10 -9 -42 -9t-42 9q-70 510 -70 522zM303 1386q0 -13 -72 -522q-9 -9 -41 -9t-43 9q-70 510 -69 522q0 55 112.5 55.5t112.5 -55.5z" />
    <glyph glyph-name="numbersign" unicode="#" horiz-adv-x="970" 
d="M627 807h-195l-59 -295h194zM930 805h-191l-59 -293h178l-20 -139h-187l-76 -373h-114l78 373h-197l-78 -373h-112l75 373h-202l20 139h213l61 293h-200l20 139h207l68 332h112l-67 -332h194l68 332h115l-68 -332h186z" />
    <glyph glyph-name="dollar" unicode="$" horiz-adv-x="966" 
d="M729 303q0 90 -41.5 144.5t-142.5 99.5v-453q184 37 184 209zM449 780v406q-178 -29 -179 -191q1 -142 179 -215zM891 360q0 -134 -90.5 -232t-255.5 -122v-176h-96v170q-173 0 -314 84q-30 111 -59 274l86 25q81 -265 287 -291v486q-205 84 -265.5 166.5t-60.5 199.5
t86 212t240 116v160h96v-156q97 0 149 -18t97 -21q28 -138 45 -262l-86 -19q-50 204 -205 230v-443q203 -67 274.5 -158t71.5 -225z" />
    <glyph glyph-name="percent" unicode="%" horiz-adv-x="1671" 
d="M1425 348q0 332 -147 332q-72 0 -110 -86t-38 -222t38 -221t110 -85t109.5 83t37.5 199zM967 372.5q0 155.5 84 276.5t225 121t225 -121t84 -277t-83.5 -276.5t-225.5 -120.5t-225.5 121t-83.5 276.5zM547 878q0 333 -148 332q-73 0 -111 -86t-38 -222t38.5 -222t111 -86
t110 84t37.5 200zM86 903q0 157 83.5 277t226 120t227 -120.5t84.5 -277.5t-84 -277.5t-227 -120.5t-226.5 121t-83.5 278zM1260 1272l-781 -1354l-88 59l780 1350z" />
    <glyph glyph-name="ampersand" unicode="&#x26;" horiz-adv-x="1366" 
d="M270 391q0 -126 78.5 -200t190.5 -74q160 0 295 215q-134 174 -371 344q-193 -118 -193 -285zM700 1051q0 72 -43 125t-112 53t-109.5 -44t-40.5 -120q0 -142 168 -246q137 87 137 232zM909 858h463v-80q-131 -10 -169 -54t-105.5 -150.5t-102.5 -157.5
q212 -256 301 -426l-22 -29q-69 7 -143 37t-93 56l-40 59q-70 102 -103 139q-102 -142 -204.5 -210.5t-223.5 -68.5q-168 0 -271.5 107.5t-103.5 251.5q0 110 63.5 199.5t241.5 203.5q-157 130 -157 266t97.5 230t226.5 94t214.5 -81t85.5 -204q0 -45 -21 -86t-44.5 -63.5
t-165.5 -124.5q173 -135 295 -274q36 48 69.5 122t33.5 106t-26.5 42.5t-95.5 15.5v80z" />
    <glyph glyph-name="quotesingle" unicode="'" horiz-adv-x="380" 
d="M303 1386q0 -13 -72 -522q-9 -9 -41 -9t-43 9q-70 510 -69 522q0 55 112.5 55.5t112.5 -55.5z" />
    <glyph glyph-name="parenleft" unicode="(" horiz-adv-x="731" 
d="M131 554q0 283 106 516.5t324 385.5l57 -72q-141 -109 -224 -337.5t-83 -488.5t83 -489.5t224 -338.5l-57 -70q-212 150 -321 380.5t-109 513.5z" />
    <glyph glyph-name="parenright" unicode=")" horiz-adv-x="731" 
d="M600 562q0 -283 -106 -516t-324 -386l-57 70q142 112 224.5 340t82.5 490t-84 490.5t-223 333.5l57 72q212 -150 321 -380.5t109 -513.5z" />
    <glyph glyph-name="asterisk" unicode="*" horiz-adv-x="937" 
d="M616 1325l-69 -301l299 -4v-88l-295 -39l94 -305l-84 -31l-143 291l-275 -178l-45 80l236 200l-244 217l53 74l267 -186l116 291z" />
    <glyph glyph-name="plus" unicode="+" horiz-adv-x="1302" 
d="M117 633h458v450h154v-450h457v-133h-457v-500h-154v500h-458v133z" />
    <glyph glyph-name="comma" unicode="," horiz-adv-x="481" 
d="M246 -10q0 54 -36 95.5t-95 57.5q-31 6 -31 54t33 78t78 30q79 0 147 -73t68 -187t-79 -201.5t-220 -132.5l-35 88q170 73 170 191z" />
    <glyph glyph-name="hyphen" unicode="-" horiz-adv-x="708" 
d="M111 535h487v-142h-487v142z" />
    <glyph glyph-name="period" unicode="." horiz-adv-x="481" 
d="M375 118q0 -62 -39.5 -102.5t-95.5 -40.5t-95 40.5t-39 103.5t38 103t96 40t96.5 -41t38.5 -103z" />
    <glyph glyph-name="slash" unicode="/" horiz-adv-x="651" 
d="M35 -94l418 1440h159l-417 -1440h-160z" />
    <glyph glyph-name="zero" unicode="0" horiz-adv-x="966" 
d="M705 639q0 272 -56.5 417.5t-164.5 145.5t-164 -146t-56 -418t56.5 -418t164.5 -146t164 146.5t56 418.5zM74 638q0 290 107 476t302 186t301.5 -186t106.5 -476t-107 -476.5t-302 -186.5t-301.5 186.5t-106.5 476.5z" />
    <glyph glyph-name="one" unicode="1" horiz-adv-x="966" 
d="M408 240v780q0 73 -18 82.5t-169 13.5v78q165 31 361 106v-1060q0 -105 26.5 -128t157.5 -32v-80h-541v80q127 9 155 27.5t28 132.5z" />
    <glyph glyph-name="two" unicode="2" horiz-adv-x="966" 
d="M68 0v61q205 202 381 432.5t176 403.5q0 123 -55.5 191.5t-153.5 68.5q-143 0 -252 -184l-72 57l108 149q90 121 271 121q144 0 238 -94t94 -232t-57 -251t-176 -252l-265 -309h309q81 0 112 21.5t67 109.5l86 -21q-36 -147 -70 -272h-741z" />
    <glyph glyph-name="three" unicode="3" horiz-adv-x="966" 
d="M770 1038q0 -71 -48 -125.5t-153 -111.5v-4q132 -26 207.5 -118.5t75.5 -223.5t-84 -242.5t-220 -174.5t-222 -63t-162 36.5t-76 82.5q0 30 34 71.5t56 41.5t35 -12q99 -91 204 -91t177 83t72 223t-73.5 207t-159.5 67t-159 -31l-24 80q340 110 340 275q0 81 -45.5 126.5
t-124.5 45.5q-125 0 -217 -168l-72 55l77 113q18 26 83.5 73t189.5 47q125 0 207 -73.5t82 -188.5z" />
    <glyph glyph-name="four" unicode="4" horiz-adv-x="966" 
d="M549 469v569h-4q-214 -338 -334 -569h338zM721 1286v-817h188v-109h-188v-133q0 -106 26 -123t142 -24v-80h-524v80q132 8 158 28t26 119v133h-504v66q373 606 561 860h115z" />
    <glyph glyph-name="five" unicode="5" horiz-adv-x="966" 
d="M475 844q178 0 283.5 -107t105.5 -262q0 -206 -175.5 -353t-360.5 -147q-87 0 -158.5 37.5t-71.5 81.5q0 27 33 71t65 44q13 0 23 -10q99 -95 213 -95t184 83t70 219t-82.5 221.5t-247.5 85.5q-92 0 -180 -31l72 594h557l16 -21l-49 -141h-434l-41 -305q106 35 178 35z
" />
    <glyph glyph-name="six" unicode="6" horiz-adv-x="966" 
d="M470 709q-106 0 -196 -54q-12 -49 -12 -159q0 -195 70 -308.5t184 -113.5q193 0 193 291q0 151 -66.5 247.5t-172.5 96.5zM537 838q154 0 254 -114.5t100 -298.5t-116.5 -317t-293.5 -133t-293 140.5t-116 371.5q0 316 191.5 540.5t576.5 289.5l12 -90
q-465 -93 -561 -477q158 74 188 81t58 7z" />
    <glyph glyph-name="seven" unicode="7" horiz-adv-x="966" 
d="M354 1114q-94 0 -117.5 -20t-52.5 -113h-88l37 295h750l22 -31q-94 -190 -530 -1249l-185 -21l-18 29q250 424 547 1110h-365z" />
    <glyph glyph-name="eight" unicode="8" horiz-adv-x="966" 
d="M260 344q0 -126 69.5 -198t168.5 -72t156 61t57 163t-65.5 178t-215.5 145q-170 -105 -170 -277zM666 981q0 100 -55 160.5t-135 60.5t-127.5 -52.5t-47.5 -129.5q0 -168 242 -262q123 82 123 223zM135 961q0 135 103.5 237t253.5 102t243.5 -89t93.5 -218
q0 -56 -28.5 -115.5t-173.5 -160.5q139 -80 197.5 -166t58.5 -199q0 -165 -124.5 -271t-286.5 -106t-273 96t-111 251q0 84 44 159t214 181q-211 108 -211 299z" />
    <glyph glyph-name="nine" unicode="9" horiz-adv-x="966" 
d="M700 797q0 188 -61 297.5t-180 109.5q-92 0 -142.5 -78t-50.5 -210t70 -223t170 -91t186 68q8 56 8 127zM442 473q-156 0 -257 108.5t-101 278.5t114 305t292 135t287.5 -143.5t109.5 -363.5q0 -274 -127 -470.5t-312 -273t-313 -76.5l-10 84q215 29 363 163t196 345
q-181 -82 -202 -87t-40 -5z" />
    <glyph glyph-name="colon" unicode=":" horiz-adv-x="481" 
d="M377 118q0 -62 -38.5 -102.5t-95.5 -40.5t-95.5 40.5t-38.5 103t38 103t95 40.5t96 -41t39 -103zM106 768q0 62 38.5 102.5t95.5 40.5t96 -40.5t39 -103.5t-38.5 -102.5t-96.5 -39.5t-96 40.5t-38 102.5z" />
    <glyph glyph-name="semicolon" unicode=";" horiz-adv-x="481" 
d="M246 -14q0 56 -36 97.5t-95 57.5q-31 10 -31 56t33 76t78 30q79 0 147 -73t68 -187t-79.5 -201.5t-221.5 -132.5l-33 88q170 70 170 189zM111 768q0 62 38 102.5t95 40.5t96 -40.5t39 -102.5t-38.5 -102.5t-95.5 -40.5t-95.5 40.5t-38.5 102.5z" />
    <glyph glyph-name="less" unicode="&#x3c;" horiz-adv-x="1302" 
d="M139 506v117l1024 505v-145l-868 -416v-6l868 -416v-145z" />
    <glyph glyph-name="equal" unicode="=" horiz-adv-x="1302" 
d="M117 430h1069v-133h-1069v133zM117 836h1069v-134h-1069v134z" />
    <glyph glyph-name="greater" unicode="&#x3e;" horiz-adv-x="1302" 
d="M1163 623v-117l-1024 -506v145l869 416v6l-869 416v145z" />
    <glyph glyph-name="question" unicode="?" horiz-adv-x="679" 
d="M451 118q0 -61 -38.5 -102t-96.5 -41t-96 40.5t-38 102.5t39 102t95 40t95.5 -40.5t39.5 -101.5zM135 646q0 66 36.5 120t130.5 130t123.5 119t29.5 83t-27.5 68t-69.5 28q-80 0 -167 -67q-25 -19 -37 -19t-43 34.5t-31 67.5q0 50 78.5 93t124.5 43q120 0 216.5 -100
t96.5 -216t-90 -201q-199 -185 -199 -233q0 -68 84 -141l-55 -70q-80 43 -140.5 119t-60.5 142z" />
    <glyph glyph-name="at" unicode="@" horiz-adv-x="1488" 
d="M606 550q0 -87 39 -87q55 0 143 104.5t113.5 172t46.5 169.5q-36 20 -108 21q-91 0 -162.5 -146.5t-71.5 -233.5zM547 317q-101 1 -101 185q0 98 66 236.5t182.5 212t235.5 73.5q18 0 71 -13t103 -14q-23 -72 -67.5 -280.5t-44.5 -252.5t37 -44q88 0 173.5 112t85.5 298
t-119 298.5t-313 112.5q-264 0 -431 -175.5t-167 -435.5t133 -401t389 -141q162 1 279 62l33 -87q-162 -90 -381 -90q-275 0 -448 163t-173 446q0 333 231.5 548.5t540.5 215.5q249 0 400 -152t151 -367t-133.5 -362.5t-333.5 -147.5q-98 0 -98 82q0 26 35 183l-4 2
q-62 -92 -173.5 -179.5t-158.5 -87.5z" />
    <glyph glyph-name="A" unicode="A" horiz-adv-x="1349" 
d="M483 551h324l-156 500h-4zM500 0h-449v80q87 7 122.5 31t86.5 163l381 1047l86 25l217 -658q115 -342 156.5 -448.5t75 -130t122.5 -29.5v-80h-479v80q65 6 95.5 15t30.5 31t-34.5 129t-68.5 185h-393q-87 -258 -87 -296t30.5 -48t107.5 -16v-80z" />
    <glyph glyph-name="B" unicode="B" horiz-adv-x="1187" 
d="M438 668v-410q0 -105 34 -135.5t120 -30.5q145 0 223 70t78 210t-93 218t-261 78h-101zM438 1161v-403h105q281 0 280 243q0 225 -266 226q-97 0 -108 -16t-11 -50zM264 264v791q0 122 -24.5 149t-139.5 35v80h512q403 0 404 -295q0 -105 -68 -181.5t-182 -109.5v-4
q154 -25 243 -116t89 -221t-68 -217t-187.5 -131t-314.5 -44h-442v78q124 8 151 35.5t27 150.5z" />
    <glyph glyph-name="C" unicode="C" horiz-adv-x="1236" 
d="M311 672q0 -268 121.5 -435t312.5 -167q122 0 198.5 69.5t148.5 241.5l88 -21q-70 -274 -97 -335q-173 -51 -327 -52q-307 0 -481.5 189.5t-174.5 489.5t196.5 497t498.5 197q153 0 311 -46q21 -146 35 -327l-88 -12q-54 287 -303 286q-203 0 -321 -153.5t-118 -421.5z
" />
    <glyph glyph-name="D" unicode="D" horiz-adv-x="1400" 
d="M442 1151v-875q0 -113 35 -143.5t131 -30.5q232 0 359 150t127 418q0 557 -514 557q-105 0 -121.5 -14t-16.5 -62zM262 262v793q0 122 -25.5 149t-140.5 35v80h498q376 0 541 -174t165 -436q0 -338 -207 -523.5t-591 -185.5h-420v78q126 9 153 35.5t27 148.5z" />
    <glyph glyph-name="E" unicode="E" horiz-adv-x="1150" 
d="M264 264v793q0 87 -10 120.5t-42 45t-116 18.5v78h885q19 -270 23 -303l-89 -10q-28 131 -68.5 174t-184.5 43h-156q-51 0 -56.5 -12.5t-5.5 -51.5v-422h179q89 0 122.5 8.5t45 34t22.5 99.5h88v-398h-88q-13 80 -26 108t-45.5 37t-118.5 9h-179v-356q0 -86 18.5 -126
t64 -49.5t142.5 -9.5t145 7.5t76.5 27t63 79t58.5 136.5l86 -14q-40 -233 -68 -330h-950v80q94 7 128.5 18t45 44.5t10.5 121.5z" />
    <glyph glyph-name="F" unicode="F" horiz-adv-x="1071" 
d="M264 260v799q0 120 -25.5 146.5t-142.5 35.5v78h877q14 -209 22 -307l-86 -8q-30 143 -76 182t-180 39h-145q-45 0 -54.5 -9.5t-9.5 -54.5v-446h195q89 0 122.5 8t45 33.5t22.5 99.5h89v-401h-89q-11 82 -22.5 110.5t-45 37.5t-122.5 9h-195v-352q0 -86 12.5 -118.5
t50.5 -43.5t140 -18v-80h-551v80q117 8 142.5 34t25.5 146z" />
    <glyph glyph-name="G" unicode="G" horiz-adv-x="1325" 
d="M1155 410v-172q0 -125 10 -193q-233 -72 -383 -72q-305 0 -492.5 184.5t-187.5 487.5q0 211 90 370t252 245t344 86t340 -46q17 -211 33 -325l-88 -8q-22 134 -92.5 208t-218.5 74q-201 0 -325 -151.5t-124 -421.5t126.5 -438t355.5 -168q146 0 163 35t17 98v182
q0 72 -11 98.5t-51 37t-149 20.5v80h506v-80q-82 -12 -98.5 -30t-16.5 -101z" />
    <glyph glyph-name="H" unicode="H" horiz-adv-x="1476" 
d="M438 750h588v305q0 122 -25 149t-139 35v80h518v-80q-121 -8 -147.5 -35t-26.5 -149v-791q0 -122 26 -149t146 -35v-80h-530v80q90 5 123.5 17t44 45.5t10.5 121.5v377h-588v-377q0 -88 10.5 -121.5t42 -45.5t115.5 -17v-80h-520v80q86 5 119 17t43 45.5t10 121.5v791
q0 122 -27 149t-153 35v80h520v-80q-111 -8 -135.5 -35t-24.5 -149v-305z" />
    <glyph glyph-name="I" unicode="I" horiz-adv-x="708" 
d="M264 264v791q0 122 -26.5 149t-147.5 35v80h528v-80q-121 -8 -147.5 -35t-26.5 -149v-791q0 -88 10.5 -121.5t43.5 -45.5t120 -17v-80h-528v80q87 5 120.5 17t43.5 45.5t10 121.5z" />
    <glyph glyph-name="J" unicode="J" horiz-adv-x="698" 
d="M274 344v711q0 122 -27 149t-153 35v80h527v-80q-115 -8 -140.5 -35t-25.5 -149v-797q0 -145 -19 -246t-73 -178t-134.5 -121.5t-148.5 -60.5l-31 84q139 56 182 179t43 429z" />
    <glyph glyph-name="K" unicode="K" horiz-adv-x="1347" 
d="M264 260v797q0 86 -10.5 120t-44 45.5t-121.5 16.5v80h522v-80q-117 -8 -142.5 -34.5t-25.5 -147.5v-332q44 6 91.5 41.5t199 215t151.5 219.5q0 11 -12 20.5t-90 17.5v80h492v-80q-156 -10 -221.5 -70.5t-199 -203t-189.5 -209.5q95 -141 246 -335t198.5 -244.5
t88.5 -71.5t101 -25v-80h-305q-59 68 -239 318t-212 288.5t-100 38.5v-385q0 -120 27 -146t152 -34v-80h-521v80q114 8 139 34t25 146z" />
    <glyph glyph-name="L" unicode="L" horiz-adv-x="1097" 
d="M264 262v793q0 122 -27 149t-151 35v80h539v-80q-126 -8 -153.5 -35t-27.5 -149v-779q0 -130 43 -156t156 -26t186.5 21.5t135.5 230.5l88 -12q-36 -224 -68 -334h-899v78q125 9 151.5 35.5t26.5 148.5z" />
    <glyph glyph-name="M" unicode="M" horiz-adv-x="1722" 
d="M115 1319h368l371 -981l403 981h373v-80q-92 -7 -123.5 -18.5t-39 -43t-7.5 -143.5l13 -737q2 -111 11.5 -149t40 -49.5t124.5 -18.5v-80h-529v80q95 7 126 18.5t39.5 49t8.5 149.5v840h-6l-442 -1114h-72l-381 1097h-4q-25 -742 -25 -840t12.5 -133t50 -49t120.5 -18
v-80h-484v80q106 5 137.5 46.5t59 486t27.5 517.5t-38.5 88.5t-133.5 20.5v80z" />
    <glyph glyph-name="N" unicode="N" horiz-adv-x="1423" 
d="M260 522v432q0 141 -15.5 208.5t-189.5 76.5v80h307l701 -987h6v459q0 349 -35 395.5t-168 52.5v80h500v-80q-138 -3 -160 -72.5t-22 -375.5v-805h-101l-702 1009h-6v-473q0 -303 22.5 -371t182.5 -71v-80h-496v80q133 2 154.5 72t21.5 370z" />
    <glyph glyph-name="O" unicode="O" horiz-adv-x="1386" 
d="M723 70q350 0 350 564q0 290 -105 452.5t-298 162.5q-163 0 -258 -142.5t-95 -418.5t108.5 -447t297.5 -171zM102 645q0 290 167.5 495.5t441.5 205.5q240 0 406.5 -188.5t166.5 -492.5t-168.5 -498t-425.5 -194t-422.5 191t-165.5 481z" />
    <glyph glyph-name="P" unicode="P" horiz-adv-x="1134" 
d="M442 1159v-502q69 -33 144 -32q118 0 190 79t72 232q0 291 -291 291q-79 0 -97 -12t-18 -56zM594 1319q455 0 455 -382q0 -185 -128.5 -302t-340.5 -117l-138 33v-287q0 -122 31 -149t172 -35v-80h-555v80q87 5 120.5 17t43.5 45.5t10 121.5v791q0 90 -8 122.5t-39 44.5
t-117 17v80h494z" />
    <glyph glyph-name="Q" unicode="Q" horiz-adv-x="1386" 
d="M1071 606q0 311 -106 477t-299 166q-160 0 -255.5 -142.5t-95.5 -404.5t87 -428.5t243 -199.5l98 41l54 -39q274 68 274 530zM102 647q0 288 167 493.5t442 205.5q239 0 406 -189t167 -459t-105 -445.5t-294 -244.5q207 -163 487 -274l-16 -64q-215 17 -327.5 60
t-393.5 245q-105 0 -232 77t-214 233t-87 362z" />
    <glyph glyph-name="R" unicode="R" horiz-adv-x="1286" 
d="M442 1155v-493h97q108 0 169 31t96.5 101t35.5 156q0 133 -78 205t-205 72q-83 0 -99 -14t-16 -58zM264 262v793q0 87 -10 120.5t-42 45t-116 18.5v80h494q442 0 442 -336q0 -239 -237 -354q210 -359 302.5 -460t164.5 -116l-9 -69q-153 0 -233.5 35.5t-153.5 136.5
t-207 346q-35 68 -135 67h-82v-307q0 -86 11 -120t43.5 -45.5t119.5 -16.5v-80h-530v80q125 8 151.5 34t26.5 148z" />
    <glyph glyph-name="S" unicode="S" horiz-adv-x="997" 
d="M504 70q105 0 166 60.5t61 159.5t-50.5 167.5t-222.5 152.5t-240 176.5t-68 194.5q0 156 113 260.5t296 104.5q118 0 258 -50l39 -288l-88 -13q-36 142 -94.5 197t-151.5 55t-146.5 -54.5t-53.5 -146.5t59 -153.5t184 -118.5q204 -93 273 -190.5t69 -214.5
q0 -173 -125 -284.5t-317 -111.5q-144 0 -313 70q-15 47 -60 326l86 14q99 -313 326 -313z" />
    <glyph glyph-name="T" unicode="T" horiz-adv-x="1220" 
d="M518 283v940h-94q-139 0 -183 -39.5t-77 -184.5h-86l22 371h54q30 -51 102 -51h717q35 0 51.5 8.5t42.5 42.5h53q2 -112 21 -364l-88 -7q-27 147 -71.5 185.5t-176.5 38.5h-107v-940q0 -97 12 -134.5t51 -50.5t142 -18v-80h-581v80q99 5 136.5 18t48.5 50.5t11 134.5z
" />
    <glyph glyph-name="U" unicode="U" horiz-adv-x="1431" 
d="M248 518v541q0 119 -27 146.5t-151 33.5v80h528v-80q-118 -8 -144 -34.5t-26 -145.5v-469q0 -325 102 -406.5t228 -81.5q175 0 253.5 140t78.5 420v120q0 342 -26 397.5t-179 59.5v80h501v-80q-140 0 -161 -72.5t-21 -384.5v-155q0 -375 -143 -514.5t-359 -139.5
t-335 127t-119 418z" />
    <glyph glyph-name="V" unicode="V" horiz-adv-x="1388" 
d="M51 1319h490v-80q-68 -6 -102.5 -15.5t-34.5 -36.5q0 -9 21 -72l105 -316q86 -255 181 -512h4q156 409 230.5 638t74.5 259t-35 40t-111 15v80h463v-80q-69 -5 -102.5 -17t-58.5 -44.5t-80 -179.5l-170 -445q-113 -299 -205 -561h-98l-291 844q-80 226 -100 278.5
t-39.5 76t-49 33.5t-92.5 15v80z" />
    <glyph glyph-name="W" unicode="W" horiz-adv-x="1892" 
d="M51 1319h492v-80q-72 -6 -107.5 -16t-35.5 -41q0 -16 86 -348l132 -521h5q113 385 305 985h92q190 -629 289 -983h4q59 199 137.5 501t78.5 347t-31 56.5t-105 19.5v80h448v-80q-88 -9 -118 -25.5t-53.5 -74.5t-120.5 -374l-222 -773h-96l-293 977h-4l-307 -977h-97
l-173 647q-121 442 -135 490.5t-42 75.5t-129 34v80z" />
    <glyph glyph-name="X" unicode="X" horiz-adv-x="1300" 
d="M379 123q0 -33 106 -43v-80h-454v80q136 8 185 64t345 526q-263 441 -307 501.5t-188 67.5v80h499v-80q-57 -6 -81 -14t-24 -26t56.5 -120.5t151.5 -244.5q188 316 188 359q0 23 -23 32.5t-75 13.5v80h452v-80q-103 -9 -146 -29.5t-120 -128t-219 -342.5
q305 -514 359.5 -583t201.5 -76v-80h-524v80q57 5 84 13.5t27 28.5q0 13 -37 84l-215 357q-60 -96 -141.5 -241t-91 -167t-9.5 -32z" />
    <glyph glyph-name="Y" unicode="Y" horiz-adv-x="1255" 
d="M530 260v258q0 49 -20 90l-151 279q-115 219 -142 263t-58 62t-108 27v80h475v-80q-62 -6 -92 -15t-30 -30q0 -14 11 -38l97 -187q87 -165 143 -262q227 441 227 475t-33 43t-104 14v80h459v-80q-72 -7 -108.5 -23t-66 -53.5t-88 -139t-132.5 -242.5t-86 -170t-12 -72
v-279q0 -120 30 -146t170 -34v-80h-571v80q133 8 161.5 34t28.5 146z" />
    <glyph glyph-name="Z" unicode="Z" horiz-adv-x="1171" 
d="M344 1319h711l18 -33l-749 -1180q116 -12 262 -12t227.5 16.5t125.5 64t95 185.5l88 -16q-53 -290 -69 -344h-963l-20 39l757 1184h-262q-174 0 -225.5 -40.5t-85.5 -195.5l-88 2q18 280 22 381h56q18 -34 35.5 -42.5t64.5 -8.5z" />
    <glyph glyph-name="bracketleft" unicode="[" horiz-adv-x="731" 
d="M223 -328v1772h363v-84q-133 -10 -156.5 -20.5t-36 -30.5t-12.5 -121v-1260q0 -101 12.5 -121t36 -30t156.5 -21v-84h-363z" />
    <glyph glyph-name="backslash" unicode="\" horiz-adv-x="643" 
d="M440 -94l-397 1440h160l397 -1440h-160z" />
    <glyph glyph-name="bracketright" unicode="]" horiz-adv-x="731" 
d="M508 1444v-1772h-363v84q129 8 158.5 19.5t39 34.5t9.5 116v1262q0 101 -11 120.5t-34 30.5t-162 21v84h363z" />
    <glyph glyph-name="asciicircum" unicode="^" horiz-adv-x="1302" 
d="M184 358l406 918h123l405 -918h-160l-311 752l-311 -752h-152z" />
    <glyph glyph-name="underscore" unicode="_" horiz-adv-x="1024" 
d="M0 -154h1024v-102h-1024v102z" />
    <glyph glyph-name="grave" unicode="`" 
d="M190 1329q0 27 54 55t68 28t27 -8.5t81 -104.5l153 -220l-65 -53l-216 189q-86 76 -94 89t-8 25z" />
    <glyph glyph-name="a" unicode="a" horiz-adv-x="976" 
d="M289 260q0 -62 45 -104.5t98 -42.5q81 0 176 90v311q-214 -96 -243.5 -112.5t-52.5 -48t-23 -93.5zM778 686v-446q0 -119 62 -119q27 0 78 24l28 -73l-198 -97q-31 0 -71.5 30.5t-62.5 94.5q-184 -125 -254 -125q-109 0 -184.5 79.5t-75.5 189.5q0 71 31.5 122t80 78
t212.5 90t184 87v36q0 90 -44 139.5t-120 49.5q-41 0 -84 -30t-79 -146q-16 -52 -57 -52t-74 28.5t-33 57.5t11.5 47.5t36 40t56.5 42t78 44.5t113 49t92 25q117 0 195.5 -66.5t78.5 -199.5z" />
    <glyph glyph-name="b" unicode="b" horiz-adv-x="1099" 
d="M338 250q0 -55 18 -84.5t64 -56.5t122 -27q118 0 193.5 99t75.5 273t-84.5 273.5t-220.5 99.5q-84 0 -168 -47v-530zM166 1171q0 77 -7.5 104.5t-33.5 35t-100 10.5v78q189 26 313 74v-603q165 62 195 72t59 10q171 0 291.5 -129.5t120.5 -312.5q0 -226 -155 -380.5
t-374 -154.5q-157 0 -309 72v1124z" />
    <glyph glyph-name="c" unicode="c" horiz-adv-x="901" 
d="M514 -25q-183 0 -300.5 130.5t-117.5 314.5q0 146 76.5 270t206.5 193t246 69q58 0 134.5 -27t76.5 -91q0 -32 -29 -68.5t-50 -36.5t-36 16q-85 86 -195 86t-178.5 -84t-68.5 -224t38 -225.5t107.5 -129t143.5 -43.5t125 27t108 86l57 -64q-74 -90 -167.5 -144.5
t-176.5 -54.5z" />
    <glyph glyph-name="d" unicode="d" horiz-adv-x="1124" 
d="M555 848q-106 0 -189 -91t-83 -267t81.5 -274.5t186.5 -98.5t209 82v567q-57 82 -205 82zM932 258q0 -67 9 -89.5t29 -26.5t120 -9v-78q-218 -39 -330 -80v123q-175 -98 -205.5 -110.5t-67.5 -12.5q-150 0 -274.5 127t-124.5 335t156.5 361.5t384.5 153.5q76 0 131 -20
v248q0 84 -10 102t-31.5 26t-116.5 11v80q173 25 330 74v-1215z" />
    <glyph glyph-name="e" unicode="e" horiz-adv-x="927" 
d="M494 854q-76 0 -137 -67.5t-76 -188.5l337 6q34 0 44 12t10 43q0 82 -51 138.5t-127 56.5zM512 -25q-185 0 -300.5 129.5t-115.5 337.5t135.5 359t300.5 151q131 0 227.5 -100.5t96.5 -235.5q0 -48 -9 -66.5t-67 -30.5t-514 -30q7 -174 96.5 -267t209.5 -93t212 98
l56 -67q-80 -92 -170.5 -138.5t-157.5 -46.5z" />
    <glyph glyph-name="f" unicode="f" horiz-adv-x="641" 
d="M221 229v600h-135l-12 31l55 68h92v24q0 150 63 269t173.5 185.5t168.5 66.5t117 -37.5t59 -69.5t-24.5 -66.5t-46.5 -34.5t-41 15q-72 59 -156 59t-112.5 -92.5t-28.5 -271.5v-47h234q6 -10 6 -42t-29 -57h-211v-600q0 -98 25 -119t151 -32v-78h-487v80q97 9 118 30.5
t21 118.5z" />
    <glyph glyph-name="g" unicode="g" horiz-adv-x="1003" 
d="M817 -178q0 92 -66.5 135t-216.5 43t-218 -67t-68 -147t76 -137t203 -57t208.5 69t81.5 161zM668 617q0 111 -50 177t-131 66t-127.5 -55.5t-46.5 -166.5t52.5 -179t132.5 -68t125 57.5t45 168.5zM125 598q0 166 115.5 260t255.5 94q74 0 138 -24l62 -27q73 0 273 27
l12 -21q-36 -83 -82 -112l-106 8q49 -76 49 -170q0 -151 -108.5 -243.5t-256.5 -92.5l-63 4q-11 0 -50.5 -32t-39.5 -62q0 -70 118 -70l220 4q139 0 220 -64t81 -188q0 -176 -154 -293.5t-369 -117.5q-168 0 -269 81t-101 177t74.5 160t134.5 112q-162 60 -162 189
q124 55 192 131q-81 33 -132.5 107.5t-51.5 162.5z" />
    <glyph glyph-name="h" unicode="h" horiz-adv-x="1128" 
d="M193 231v938q0 77 -8.5 105t-35 35.5t-104.5 11.5v78q111 12 320 74v-650q141 129 281 129t215 -85t75 -232v-406q0 -99 20.5 -120t116.5 -29v-80h-438v80q91 9 110 30.5t19 120.5v344q0 127 -47 185.5t-148 58.5q-48 0 -105 -25t-99 -75v-488q0 -98 20.5 -120t110.5 -31
v-80h-445v80q98 9 120 30.5t22 120.5z" />
    <glyph glyph-name="i" unicode="i" horiz-adv-x="589" 
d="M190 1296q0 50 35 86.5t85 36.5t85 -35t35 -87t-35 -87.5t-85 -35.5t-85 36t-35 86zM225 233v400q0 79 -7 107.5t-30.5 38t-95.5 20.5v69q167 30 305 84v-719q0 -101 21.5 -122.5t124.5 -30.5v-80h-461v80q100 9 121.5 31t21.5 122z" />
    <glyph glyph-name="j" unicode="j" horiz-adv-x="569" 
d="M227 260v383q0 102 -20 122.5t-123 33.5v69q190 34 315 84v-710q0 -163 -29.5 -283t-132 -300.5t-186.5 -180.5q-26 0 -54 29t-28 75t45 60q103 28 158 92.5t55 525.5zM193 1297q0 51 34.5 86.5t84.5 35.5t85 -35t35 -87t-35 -87.5t-85 -35.5t-84.5 36t-34.5 87z" />
    <glyph glyph-name="k" unicode="k" horiz-adv-x="1085" 
d="M193 231v938q0 75 -8.5 102.5t-34.5 35.5t-101 12v80q162 20 316 74v-945q73 14 112 49t101.5 125.5t62.5 106.5q0 27 -59 29v80l422 20v-78q-105 -15 -174.5 -53.5t-247.5 -257.5q39 -61 180.5 -226t193.5 -202.5t117 -40.5v-80h-270l-232 286q-116 141 -134.5 153
t-31.5 12t-40 -7v-213q0 -99 22.5 -120.5t124.5 -30.5v-80h-479v80q112 9 136 30.5t24 120.5z" />
    <glyph glyph-name="l" unicode="l" horiz-adv-x="559" 
d="M193 231v940q0 76 -8 102.5t-34 35t-102 12.5v78q99 10 316 74v-1242q0 -100 21.5 -121t125.5 -30v-80h-467v80q102 9 125 30.5t23 120.5z" />
    <glyph glyph-name="m" unicode="m" horiz-adv-x="1720" 
d="M717 952q70 0 133.5 -41.5t91.5 -109.5q96 74 171.5 112.5t148.5 38.5q122 0 194 -78.5t72 -209.5v-433q0 -97 20.5 -119.5t108.5 -31.5v-80h-434v80q92 9 112.5 30t20.5 115v363q0 114 -41 171.5t-135 57.5t-219 -112l2 -52v-422q0 -112 26 -128.5t98 -22.5v-80h-436v80
q95 9 117.5 31t22.5 120v363q0 118 -41.5 170.5t-133.5 52.5t-219 -117v-469q0 -98 18 -120t99 -31v-80h-440v80q106 9 128.5 30t22.5 119v412q0 108 -15.5 127.5t-109.5 32.5v69q179 33 295 84v-151q192 149 322 149z" />
    <glyph glyph-name="n" unicode="n" horiz-adv-x="1155" 
d="M225 229v420q0 100 -17.5 120.5t-107.5 31.5v69q175 33 297 84v-147q182 145 302 145t192 -77t72 -207v-437q0 -98 20.5 -120t108.5 -31v-80h-424v80q85 9 104 29.5t19 111.5v365q0 121 -40.5 176t-136.5 55t-217 -119v-467q0 -99 19.5 -120.5t107.5 -30.5v-80h-446v80
q87 6 117 24.5t30 124.5z" />
    <glyph glyph-name="o" unicode="o" horiz-adv-x="1083" 
d="M532 854q-238 0 -237 -358q0 -184 73.5 -303t195.5 -119t173 87t51 279t-69 303t-187 111zM94 420q0 172 60.5 288.5t166.5 180t222 63.5q193 0 317.5 -135.5t124.5 -350.5t-130.5 -353t-320.5 -138t-315 136.5t-125 308.5z" />
    <glyph glyph-name="p" unicode="p" horiz-adv-x="1124" 
d="M567 102q118 0 196.5 96t78.5 268t-69.5 260.5t-192.5 88.5q-42 0 -99.5 -21t-101.5 -55v-555q70 -82 188 -82zM207 -266v919q0 108 -18 128t-117 28v72q67 9 307 92v-137q216 102 234 109t51 7q160 0 263 -119.5t103 -295.5t-101 -319.5t-240 -193t-167 -49.5
q-80 0 -143 39v-293q0 -93 26 -113t156 -28v-78h-506v78q105 8 128.5 30.5t23.5 123.5z" />
    <glyph glyph-name="q" unicode="q" horiz-adv-x="1099" 
d="M572 842q-120 0 -200.5 -94.5t-80.5 -266.5t91.5 -274.5t233.5 -102.5q74 1 150 46v620q-74 72 -194 72zM938 705v-973q0 -99 22 -121.5t123 -30.5v-78h-495v78q128 8 153 28t25 116v327l-211 -76q-211 0 -335 132.5t-124 310.5q0 225 166 379.5t406 154.5q25 0 99 -21
t90 -21t71 24l16 -6q-6 -121 -6 -223z" />
    <glyph glyph-name="r" unicode="r" horiz-adv-x="808" 
d="M225 231v412q0 105 -17.5 126.5t-111.5 33.5v69q172 33 301 82v-217h4q52 98 120.5 156.5t124.5 58.5t92 -34.5t36 -80.5t-32 -80t-58 -34t-37 12q-39 39 -75 39t-70.5 -27t-69.5 -90t-35 -84v-344q0 -98 24.5 -119t147.5 -30v-80h-487v80q100 9 121.5 30.5t21.5 120.5z
" />
    <glyph glyph-name="s" unicode="s" horiz-adv-x="837" 
d="M426 856q-57 0 -93 -35.5t-36 -89.5q0 -99 176 -170q270 -105 270 -297q0 -130 -106.5 -209.5t-249.5 -79.5q-98 0 -162.5 29.5t-89.5 47.5q-14 10 -24 94t-11 167l78 15q28 -112 97 -184t139 -72t111.5 35.5t41.5 95.5q0 123 -152 185t-214 130.5t-62 153.5
q0 120 93.5 200t238.5 80q98 0 184 -39q32 -62 56 -235l-82 -19q-76 197 -203 197z" />
    <glyph glyph-name="t" unicode="t" horiz-adv-x="665" 
d="M207 231v598h-139l-15 31l60 68h94v135l133 137l39 -2v-270h221q10 -14 10 -46t-24 -53h-207v-536q0 -190 110 -191q51 0 117 29l27 -76q-143 -61 -171.5 -70.5t-60.5 -9.5q-93 0 -143.5 66t-50.5 190z" />
    <glyph glyph-name="u" unicode="u" horiz-adv-x="1136" 
d="M770 698q0 104 -33.5 112.5t-126.5 18.5v74q226 12 332 37v-704q0 -71 16 -90t68 -19h66v-78q-94 -10 -306 -74l-16 13v127q-174 -139 -301 -139t-194.5 78t-67.5 227v415q0 101 -27 110.5t-100 20.5v74q99 4 305 39q-6 -93 -6 -301v-301q0 -113 41 -169t135 -56t215 106
v479z" />
    <glyph glyph-name="v" unicode="v" horiz-adv-x="991" 
d="M444 848q-94 -4 -94 -44q0 -22 11 -53l73 -219q61 -186 94 -292q146 392 170.5 464.5t24.5 94.5t-22.5 32.5t-73.5 16.5v80h383v-80q-61 -5 -92 -19.5t-53 -53.5t-131 -294t-197 -495h-93l-161 467q-97 271 -111.5 306.5t-39 58t-114.5 30.5v80h426v-80z" />
    <glyph glyph-name="w" unicode="w" horiz-adv-x="1402" 
d="M20 928h431v-80q-60 -8 -86 -20.5t-26 -37.5t38 -166l94 -372h4q142 421 232 666h86l213 -666h4q143 482 143 526t-28 53.5t-93 16.5v80h391v-80q-68 -9 -92 -29t-43 -65t-107 -297t-157 -471h-92l-219 665l-236 -665h-92l-129 446q-69 238 -91.5 305t-48 85t-96.5 26v80
z" />
    <glyph glyph-name="x" unicode="x" horiz-adv-x="1005" 
d="M59 928h420v-80q-67 -9 -66 -40q0 -16 15 -42l102 -166q101 171 108 189.5t7 27.5q0 24 -57 31v80h383v-80q-65 -3 -133.5 -24t-249.5 -314q203 -314 224 -343t55.5 -52t138.5 -35v-80h-453v80q82 12 82 39q0 15 -20 45l-126 198q-134 -205 -134 -240q0 -30 73 -42v-80
h-395v80q90 11 126 30.5t111.5 116t161.5 230.5q-177 287 -207.5 331.5t-165.5 59.5v80z" />
    <glyph glyph-name="y" unicode="y" horiz-adv-x="980" 
d="M457 848q-96 -14 -96 -50q0 -18 45 -155l126 -389q200 483 200 539q0 26 -26.5 37t-80.5 18v80h399v-80q-77 -12 -106 -32t-70.5 -96t-236.5 -530t-249 -657q-14 -55 -70 -55t-97 36t-41 80t66 87q66 44 136 168t70 178q0 24 -27 102l-85 251q-120 355 -141.5 393.5
t-53 54t-92.5 20.5v80h430v-80z" />
    <glyph glyph-name="z" unicode="z" horiz-adv-x="905" 
d="M322 928h481l20 -31q-288 -449 -501 -801h190q98 0 154.5 25t124.5 168l83 -31q-42 -137 -90 -258h-686l-18 31l169 264l335 536h-172q-118 0 -151 -50t-75 -146l-84 27q38 143 68 311h47q14 -45 105 -45z" />
    <glyph glyph-name="braceleft" unicode="{" horiz-adv-x="733" 
d="M600 -342q-317 0 -317 244q0 112 13 265t13 187t-17 91.5t-161 68.5v86q144 11 161 68.5t17 91.5t-13 187q-13 151 -13 265q0 244 317 244v-84q-72 -9 -117 -46.5t-45 -127.5q0 -44 15 -178l22 -223q0 -191 -158 -234v-8q158 -42 158 -240l-37 -397q0 -92 45 -130
t117 -46v-84z" />
    <glyph glyph-name="bar" unicode="|" horiz-adv-x="526" 
d="M184 -512v2048h160v-2048h-160z" />
    <glyph glyph-name="braceright" unicode="}" horiz-adv-x="733" 
d="M424 354q0 -35 13 -186q13 -150 13 -264q1 -245 -317 -246v84q72 9 117 46.5t45 127.5q-1 44 -19 216t-18 183q0 196 158 238v8q-158 42 -158 238l23 223q14 138 14 176q0 90 -44.5 128.5t-117.5 47.5v84q170 0 244 -65t74 -178q1 -113 -13 -266t-14 -188t17 -92.5
t163 -68.5l-2 -86q-144 -11 -161 -68t-17 -92z" />
    <glyph glyph-name="asciitilde" unicode="~" horiz-adv-x="1302" 
d="M881 446q-110 0 -275 89q-95 49 -160 49q-116 0 -210 -154l-91 80q141 211 316 211q52 0 100.5 -12.5t156.5 -67.5t185 -55q112 0 191 147l92 -78q-116 -209 -305 -209z" />
    <glyph glyph-name="uni00A0" unicode="&#xa0;" horiz-adv-x="491" 
 />
    <glyph glyph-name="exclamdown" unicode="&#xa1;" horiz-adv-x="528" 
d="M266 -453q-64 0 -91.5 14t-27.5 57t19.5 219.5t50.5 656.5q10 13 43 11t39.5 -4t10 -4t13.5 -129l18 -282q9 -145 25 -302t16 -183t-26 -40t-90 -14zM121 772q0 66 40 108t101.5 42t101 -42t39.5 -108t-40 -108.5t-100.5 -42.5t-101 42.5t-40.5 108.5z" />
    <glyph glyph-name="cent" unicode="&#xa2;" horiz-adv-x="966" 
d="M266 675q0 -137 61 -228.5t165 -116.5v674q-85 -11 -155.5 -101.5t-70.5 -227.5zM588 -18h-96v200q-178 10 -289 137.5t-111 286.5q0 236 144.5 349.5t255.5 142.5v176h96v-168q4 2 52 2t109 -17.5t76 -37t15 -49.5t-23 -60.5t-45 -30.5t-43 21q-68 62 -141 67v-677
q117 3 231 122l55 -61q-137 -169 -286 -197v-206z" />
    <glyph glyph-name="sterling" unicode="&#xa3;" horiz-adv-x="966" 
d="M864 356q30 0 48.5 -31.5t18.5 -64.5q0 -92 -100.5 -187.5t-222.5 -95.5t-304 86q-61 31 -82 31t-39 -22.5t-25 -54.5q-7 -31 -36 -31t-52 18t-23 40q0 37 153 165q135 109 135 272q0 78 -17 113h-235v94h211q-62 176 -62 247t54 160t151 147t155 58t122 -35.5t64 -70.5
t-29 -65.5t-46 -30.5t-30 12q-71 63 -164 64q-53 0 -88 -41t-35 -103q0 -117 107 -342h272v-94h-254q4 -8 4 -47q0 -174 -188 -340q97 -25 195 -59t187 -35q89 0 89 63l-23 100q0 25 29.5 52.5t59.5 27.5z" />
    <glyph glyph-name="currency" unicode="&#xa4;" horiz-adv-x="966" 
d="M709 666q0 130 -69 211t-173.5 81t-173 -81.5t-68.5 -211.5t68 -211t173.5 -81t174 81.5t68.5 211.5zM856 668q0 -155 -82 -260l150 -148l-103 -98l-135 162q-96 -76 -222 -76t-222 76l-136 -162l-98 98l150 148q-84 104 -84 260t84 254l-150 149l98 98l136 -161
q92 76 220 76t224 -76l135 161l103 -98l-150 -149q82 -99 82 -254z" />
    <glyph glyph-name="yen" unicode="&#xa5;" horiz-adv-x="966" 
d="M406 203v129h-322v94h322v154h-322v94h295l-227 436q-42 82 -150 86v80h430v-80q-91 -11 -104.5 -19.5t-13.5 -20.5t19 -58t91.5 -185.5t91.5 -181.5l119 268q52 118 52 145t-16.5 36t-97.5 16v80h398v-80q-70 -7 -99.5 -21t-51 -43t-91.5 -170t-135 -288h291v-94h-316
v-154h316v-94h-316v-129q0 -81 25.5 -98t150.5 -25v-80h-514v80q124 8 149.5 25t25.5 98z" />
    <glyph glyph-name="brokenbar" unicode="&#xa6;" horiz-adv-x="526" 
d="M184 -358v716h160v-716h-160zM184 666v716h160v-716h-160z" />
    <glyph glyph-name="section" unicode="&#xa7;" horiz-adv-x="1038" 
d="M225 829q0 -111 57 -184t200 -181t188.5 -164.5t55 -93.5t9.5 -97l4 -3q72 101 72 228q0 165 -176 301l-154 118q-98 76 -111 89.5t-37 53.5t-30 64t-6 70l-4 2q-68 -92 -68 -203zM403 1106q0 -60 43 -110.5t281 -213.5q221 -158 221 -361t-139 -380t-199 -219.5
t-121 -71.5t-81 -29q-65 0 -133 32.5t-68 68.5q0 29 36 66t62 37q6 0 12 -3q60 -45 152 -45q156 0 156 140q0 76 -48 137.5t-180 162.5t-219.5 188.5t-87.5 229.5q0 192 127 345.5t190 195t126.5 67t100.5 25.5t85.5 -19t64 -36.5t15.5 -48.5t-28.5 -60.5t-44.5 -29.5t-21 4
q-70 59 -170 59q-51 0 -91.5 -35.5t-40.5 -95.5z" />
    <glyph glyph-name="dieresis" unicode="&#xa8;" 
d="M334 1200q0 -52 -34 -85.5t-86 -33.5t-86 33.5t-34 85.5t34.5 87.5t85.5 35.5t85.5 -35.5t34.5 -87.5zM725 1200q0 -52 -34.5 -85.5t-86.5 -33.5t-85.5 33.5t-33.5 85.5t34.5 87.5t85.5 35.5t85.5 -35.5t34.5 -87.5z" />
    <glyph glyph-name="copyright" unicode="&#xa9;" horiz-adv-x="1439" 
d="M743 922q-91 0 -152 -69t-61 -195t66.5 -199.5t169.5 -73.5q145 0 203 162l67 -15l-51 -194q-118 -39 -223 -39q-180 0 -285.5 101.5t-105.5 257.5t118 252t293 96q122 0 209 -35l23 -191l-66 -16q-27 84 -70.5 121t-134.5 37zM1219 654q0 224 -142 374t-355 150
t-355 -149t-142 -373.5t142 -375.5t355 -151t355 150.5t142 374.5zM96 654q0 262 178.5 440t445.5 178t445 -178t178 -440t-177.5 -440.5t-445.5 -178.5t-446 178.5t-178 440.5z" />
    <glyph glyph-name="ordfeminine" unicode="&#xaa;" horiz-adv-x="677" 
d="M219 680q0 -40 26.5 -64t70.5 -24t104 53v180q-148 -52 -174.5 -78.5t-26.5 -66.5zM547 915v-239q0 -82 41 -82q16 0 49 16l20 -55l-131 -66q-62 0 -102 82q-126 -82 -168 -82q-76 0 -127 51.5t-51 107.5t21 89.5t54 51.5t136 56t131 56v21q0 44 -28 72t-71 28t-67 -24
t-43 -91q-9 -35 -40 -35t-56 19.5t-25 44.5q0 52 109 108t151 56q103 0 150 -53t47 -132z" />
    <glyph glyph-name="guillemotleft" unicode="&#xab;" horiz-adv-x="958" 
d="M856 109l-78 -54q-171 245 -323 410q172 194 323 412l78 -52l-192 -360zM489 109l-75 -54q-177 254 -326 410q166 181 326 412l75 -52l-192 -360z" />
    <glyph glyph-name="logicalnot" unicode="&#xac;" horiz-adv-x="1302" 
d="M119 821h1067v-602h-154v469h-913v133z" />
    <glyph glyph-name="uni00AD" unicode="&#xad;" horiz-adv-x="708" 
d="M111 535h487v-142h-487v142z" />
    <glyph glyph-name="registered" unicode="&#xae;" horiz-adv-x="1218" 
d="M541 1030v-174h47q73 0 95 35t22 78t-32.5 69.5t-74.5 26.5t-49.5 -5t-7.5 -30zM434 700v291q0 51 -10 62t-62 14v57h259q199 0 198 -147q0 -99 -110 -143q111 -201 182 -224l-10 -47h-35q-73 0 -112.5 34.5t-81.5 112.5t-55 85.5t-36 7.5h-22v-103q0 -50 11 -60t66 -15
v-58h-258v58q54 5 65 15t11 60zM1014 843q0 180 -114.5 297t-289.5 117t-288 -117.5t-113 -297.5t113.5 -297t287.5 -117t289 117.5t115 297.5zM92 842q0 212 147.5 358t369.5 146t369.5 -146t147.5 -358t-148 -358t-370 -146t-369 146t-147 358z" />
    <glyph glyph-name="macron" unicode="&#xaf;" 
d="M154 1272h512v-133h-512v133z" />
    <glyph glyph-name="degree" unicode="&#xb0;" horiz-adv-x="706" 
d="M524 1048q0 88 -46 143.5t-122 55.5t-122 -54t-46 -144.5t47 -144.5t121 -54t121 55t47 143zM53 1048q0 134 87.5 216t213.5 82t213.5 -83t87.5 -215t-86.5 -214t-215.5 -82t-214.5 81t-85.5 215z" />
    <glyph glyph-name="plusminus" unicode="&#xb1;" horiz-adv-x="1302" 
d="M117 133h1069v-133h-1069v133zM117 813h458v414h154v-414h457v-133h-457v-440h-154v440h-458v133z" />
    <glyph glyph-name="two.superior" unicode="&#xb2;" horiz-adv-x="692" 
d="M424 1034q0 152 -144 152q-68 0 -153 -123l-61 53q85 109 108.5 130t69.5 37.5t96 16.5q110 0 178 -65t68 -158t-45 -171.5t-273 -278.5v-2h166q56 0 76 12t47 68l74 -11q-21 -92 -43 -190h-533v57q229 191 299 293.5t70 179.5z" />
    <glyph glyph-name="three.superior" unicode="&#xb3;" horiz-adv-x="692" 
d="M342 1300q99 0 159 -48t60 -124t-125 -135v-4q84 -20 131 -75t47 -130q0 -131 -126 -213t-246 -82q-63 0 -117.5 25.5t-54.5 59.5t26 61t42 27t36 -17t63 -36t92 -19t90.5 42t41.5 114t-43.5 112.5t-103.5 40.5t-117 -20l-17 65q223 74 223 164t-102 90q-74 0 -143 -111
l-60 50l62 85q33 45 89.5 61.5t92.5 16.5z" />
    <glyph glyph-name="acute" unicode="&#xb4;" 
d="M539 1414q15 0 66 -29.5t51 -54.5q0 -13 -7.5 -25t-98.5 -94l-208 -185l-66 53l159 227q63 91 76 99.5t28 8.5z" />
    <glyph glyph-name="mu" unicode="&#xb5;" horiz-adv-x="1091" 
d="M160 238v690h172v-545q0 -266 184 -266q86 0 145.5 62t59.5 181v568h172v-699q0 -115 53 -114q38 0 58 75l77 -22q-40 -193 -194 -193q-65 0 -111 41t-57 117h-4q-25 -72 -86.5 -115t-128.5 -43q-133 0 -197 125h-4l25 -553l-162 -59l-21 16l12 381q7 218 7 353z" />
    <glyph glyph-name="paragraph" unicode="&#xb6;" horiz-adv-x="1040" 
d="M551 1319h418l16 -37l-65 -59l-175 -23v-979q0 -188 -74.5 -299.5t-156 -154.5t-115.5 -43t-72.5 15t-61.5 34t-23 41.5t30 58.5t44 36t20 -3q51 -37 121 -37q152 0 151 297v344l-133 -68q-2 -2 -33 -2q-100 0 -215.5 122.5t-115.5 293.5q0 133 65.5 239t172.5 165
t202 59z" />
    <glyph glyph-name="periodcentered" unicode="&#xb7;" horiz-adv-x="481" 
d="M375 503q0 -61 -38.5 -102t-96.5 -41t-96 40t-38 102t38 103.5t95.5 41.5t96.5 -41.5t39 -102.5z" />
    <glyph glyph-name="cedilla" unicode="&#xb8;" 
d="M439 -106q0 -12 26 -41q78 -84 78 -152q0 -140 -238 -223l-41 78q129 62 129 129q0 23 -44 71t-44 76q0 29 25 64l71 102h103q-57 -81 -61 -86.5t-4 -17.5z" />
    <glyph glyph-name="one.superior" unicode="&#xb9;" horiz-adv-x="692" 
d="M285 690v385q0 73 -12.5 81t-116.5 13v66q148 17 276 65v-610q0 -84 27.5 -99.5t105.5 -17.5v-69h-413v69q81 3 107 20t26 97z" />
    <glyph glyph-name="ordmasculine" unicode="&#xba;" horiz-adv-x="724" 
d="M504 770q0 117 -41.5 184.5t-106.5 67.5t-102 -53.5t-37 -159.5t42.5 -174t113.5 -68q131 0 131 203zM63 796q0 136 93.5 220t213.5 84t202.5 -86.5t82.5 -221.5t-89.5 -219t-213.5 -84t-206.5 85.5t-82.5 221.5z" />
    <glyph glyph-name="guillemotright" unicode="&#xbb;" horiz-adv-x="946" 
d="M530 55l-75 54l192 356l-192 360l75 52q160 -230 326 -412q-149 -156 -326 -410zM166 55l-76 54l193 356l-193 360l76 52q156 -220 326 -412q-150 -161 -326 -410z" />
    <glyph glyph-name="onequarter" unicode="&#xbc;" horiz-adv-x="1767" 
d="M301 690v385q0 73 -12 81t-117 13v66q148 17 277 65v-610q-1 -84 27 -99t106 -18v-69h-414v69q81 3 107 20t26 97zM1245 1341l88 -51l-801 -1343l-86 57zM1339 306v314h-4q-94 -119 -211 -314h215zM1483 800v-494h125v-86h-125v-41q0 -71 20 -87t94 -23v-68h-403v68
q96 6 121 23t24 87v41h-350v60q162 234 383 520h111z" />
    <glyph glyph-name="onehalf" unicode="&#xbd;" horiz-adv-x="1767" 
d="M295 690v385q0 73 -12 81t-117 13v66q148 17 276 65v-610q0 -84 28 -99t105 -18v-69h-413v69q81 3 107 20t26 97zM1231 1341l88 -51l-801 -1343l-86 57zM1444 532q0 152 -144 151q-68 0 -153 -123l-62 53q85 109 109 130t70 38t96 17q110 0 178 -65t68 -177
q0 -75 -45 -153t-273 -279v-2h166q56 0 76 12t47 68l74 -11q-21 -92 -43 -190h-533v57q229 192 299 294t70 180z" />
    <glyph glyph-name="threequarters" unicode="&#xbe;" horiz-adv-x="1767" 
d="M625 1128q0 -76 -125 -135v-4q84 -20 131 -75t47 -130q0 -131 -126 -213t-247 -82q-63 -1 -117 25t-55 60q0 34 26 60q27 28 43 28t35 -17t63 -36t93 -19t90 42t41 114t-43 113q-44 40 -104 40t-117 -20l-16 65q223 74 223 164t-102 90q-74 0 -144 -111l-59 50l61 85
q32 44 90 61q57 18 93 17q99 0 159 -48t60 -124zM1270 1341l88 -51l-801 -1343l-86 57zM1351 306v314h-4q-94 -119 -211 -314h215zM1494 800v-494h125v-86h-125v-41q0 -71 20 -87t95 -23v-68h-404v68q96 6 121 23t25 87v41h-351v60q162 234 383 520h111z" />
    <glyph glyph-name="questiondown" unicode="&#xbf;" horiz-adv-x="679" 
d="M545 241q0 -66 -35.5 -120.5t-130.5 -131.5t-124.5 -119t-29.5 -82t27 -68.5t70 -28.5q80 0 166 66q25 19 38 19t43.5 -34t30.5 -73t-72.5 -84.5t-130.5 -45.5q-120 0 -216.5 100.5t-96.5 218.5t90 199q199 185 199 234q0 65 -84 141l55 68q78 -40 139.5 -116.5
t61.5 -142.5zM225 776q0 61 38.5 100t97 39t97 -39t38.5 -100t-39 -101t-96.5 -40t-96.5 40t-39 101z" />
    <glyph glyph-name="Agrave" unicode="&#xc0;" horiz-adv-x="1349" 
d="M483 551h324l-156 500h-4zM500 0h-449v80q87 7 123 31q35 24 86 163l381 1047l86 25l217 -658q115 -342 156 -448q42 -106 76 -130t122 -30v-80h-479v80q65 6 95 15t31 31q0 22 -35 129q-34 107 -68 185h-393q-87 -258 -87 -296t30 -48t108 -16v-80zM424 1730q9 0 17 -3
t112 -69l232 -146l-41 -67l-285 100q-116 41 -127 49t-10 22q0 14 37 64t65 50z" />
    <glyph glyph-name="Aacute" unicode="&#xc1;" horiz-adv-x="1349" 
d="M483 551h324l-156 500h-4zM500 0h-449v80q87 7 123 31q35 24 86 163l381 1047l86 25l217 -658q115 -342 156 -448q42 -106 76 -130t122 -30v-80h-479v80q65 6 95 15t31 31q0 22 -35 129q-34 107 -68 185h-393q-87 -258 -87 -296t30 -48t108 -16v-80zM585 1512l231 144
q106 68 114 70t16 3q28 0 64 -49q36 -50 36 -64t-11 -22q-12 -8 -134 -52l-277 -97z" />
    <glyph glyph-name="Acircumflex" unicode="&#xc2;" horiz-adv-x="1349" 
d="M483 551h324l-156 500h-4zM500 0h-449v80q87 7 123 31q35 24 86 163l381 1047l86 25l217 -658q115 -342 156 -448q42 -106 76 -130t122 -30v-80h-479v80q65 6 95 15t31 31q0 22 -35 129q-34 107 -68 185h-393q-87 -258 -87 -296t30 -48t108 -16v-80zM655 1704h66
q93 -96 256 -209l-43 -70q-150 65 -248 136q-114 -78 -246 -136l-45 70q142 93 260 209z" />
    <glyph glyph-name="Atilde" unicode="&#xc3;" horiz-adv-x="1349" 
d="M483 551h324l-156 500h-4zM500 0h-449v80q87 7 123 31q35 24 86 163l381 1047l86 25l217 -658q115 -342 156 -448q42 -106 76 -130t122 -30v-80h-479v80q65 6 95 15t31 31q0 22 -35 129q-34 107 -68 185h-393q-87 -258 -87 -296t30 -48t108 -16v-80zM581 1663
q41 0 125 -35t128 -35t95 86l78 -45q-74 -162 -195 -161q-38 0 -127 35t-117 34q-50 0 -100 -88l-76 55q89 154 189 154z" />
    <glyph glyph-name="Adieresis" unicode="&#xc4;" horiz-adv-x="1349" 
d="M483 551h324l-156 500h-4zM500 0h-449v80q87 7 123 31q35 24 86 163l381 1047l86 25l217 -658q115 -342 156 -448q42 -106 76 -130t122 -30v-80h-479v80q65 6 95 15t31 31q0 22 -35 129q-34 107 -68 185h-393q-87 -258 -87 -296t30 -48t108 -16v-80zM588 1575
q0 -51 -34 -85t-86 -34t-88 33q-34 33 -34 85t35 90t86 38t86 -38t35 -89zM762 1574q0 52 35 90t85 38t84 -38t35 -90q0 -52 -33 -85q-34 -33 -86 -33t-86 33t-34 85z" />
    <glyph glyph-name="Aring" unicode="&#xc5;" horiz-adv-x="1349" 
d="M483 551h324l-156 500h-4zM500 0h-449v80q87 7 123 31q35 24 86 163l381 1047l86 25l217 -658q115 -342 156 -448q42 -106 76 -130t122 -30v-80h-479v80q65 6 95 15t31 31q0 22 -35 129q-34 107 -68 185h-393q-87 -258 -87 -296t30 -48t108 -16v-80zM785 1650
q0 53 -29 85q-30 32 -79 32t-79 -32q-30 -33 -30 -85t30 -87t78 -35t79 34q30 35 30 88zM675 1440q-89 0 -154 60t-65 150q0 91 64 148q65 57 155 57q91 0 155 -57t64 -148q0 -90 -65 -150t-154 -60z" />
    <glyph glyph-name="AE" unicode="&#xc6;" horiz-adv-x="1744" 
d="M866 735v496h-12q-106 -194 -246 -496h258zM866 307v328h-305q-210 -441 -210 -496q0 -30 32.5 -42.5t99.5 -18.5v-78h-473v78q73 10 107.5 24t63.5 51.5t125 229.5l344 686q53 107 53 125t-15 27.5t-127 19.5v78h1014q18 -256 22 -301l-88 -8q-29 131 -74.5 173
t-185.5 42h-145q-47 0 -54.5 -9t-7.5 -55v-426h175q89 0 122 9t45 35t23 102h88v-400h-88q-12 78 -25 106.5t-46 38t-119 9.5h-175v-328q0 -105 16.5 -148t61 -54t142.5 -11t145.5 7t75.5 26t63.5 79t57.5 136l88 -12q-23 -166 -68 -330h-944v80q95 8 130 21.5t45.5 54.5
t10.5 151z" />
    <glyph glyph-name="Ccedilla" unicode="&#xc7;" horiz-adv-x="1236" 
d="M777 -98q0 -13 26 -43q74 -80 74 -146q0 -129 -230 -217l-37 70q123 60 123 129q1 27 -43 71t-44 68q0 22 5.5 36.5t69.5 104.5q-300 15 -460.5 202.5t-160.5 479.5t197.5 490.5t499.5 198.5q123 0 311 -46l35 -327l-88 -10q-55 285 -303 284q-204 0 -322.5 -154
t-118.5 -423t123.5 -434.5t315.5 -165.5q121 0 197.5 70.5t146.5 240.5l90 -21q-81 -293 -101 -335q-125 -38 -264 -48q-42 -62 -42 -75z" />
    <glyph glyph-name="Egrave" unicode="&#xc8;" horiz-adv-x="1150" 
d="M264 264v793q0 87 -10 121t-42 45t-116 18v78h885q19 -270 23 -303l-89 -10q-28 131 -68 174q-41 43 -185 43h-156q-51 -1 -56 -13t-6 -51v-422h179q89 0 123 8t45 34t22 100h88v-398h-88q-13 80 -26 108t-46 37t-118 9h-179v-356q0 -86 18 -126q18 -39 65 -49t143 -10
t144 7t76 27t63 80q35 59 59 136l86 -14q-40 -233 -68 -330h-950v80q94 7 128 18q34 10 45 44t11 122zM234 1648q0 14 38 64t65 49q9 -1 17 -3t112 -68l232 -146l-41 -67l-285 100q-116 41 -127 49t-11 22z" />
    <glyph glyph-name="Eacute" unicode="&#xc9;" horiz-adv-x="1150" 
d="M264 264v793q0 87 -10 121t-42 45t-116 18v78h885q19 -270 23 -303l-89 -10q-28 131 -68 174q-41 43 -185 43h-156q-51 -1 -56 -13t-6 -51v-422h179q89 0 123 8t45 34t22 100h88v-398h-88q-13 80 -26 108t-46 37t-118 9h-179v-356q0 -86 18 -126q18 -39 65 -49t143 -10
t144 7t76 27t63 80q35 59 59 136l86 -14q-40 -233 -68 -330h-950v80q94 7 128 18q34 10 45 44t11 122zM851 1699q28 0 64 -49q36 -50 36 -64q1 -14 -11 -22t-134 -52l-278 -97l-39 68l232 143q106 67 114 70t16 3z" />
    <glyph glyph-name="Ecircumflex" unicode="&#xca;" horiz-adv-x="1150" 
d="M264 264v793q0 87 -10 121t-42 45t-116 18v78h885q19 -270 23 -303l-89 -10q-28 131 -68 174q-41 43 -185 43h-156q-51 -1 -56 -13t-6 -51v-422h179q89 0 123 8t45 34t22 100h88v-398h-88q-13 80 -26 108t-46 37t-118 9h-179v-356q0 -86 18 -126q18 -39 65 -49t143 -10
t144 7t76 27t63 80q35 59 59 136l86 -14q-40 -233 -68 -330h-950v80q94 7 128 18q34 10 45 44t11 122zM569 1714h66q93 -96 256 -209l-43 -69q-150 65 -248 135q-114 -78 -246 -135l-45 69q142 93 260 209z" />
    <glyph glyph-name="Edieresis" unicode="&#xcb;" horiz-adv-x="1150" 
d="M264 264v793q0 87 -10 121t-42 45t-116 18v78h885q19 -270 23 -303l-89 -10q-28 131 -68 174q-41 43 -185 43h-156q-51 -1 -56 -13t-6 -51v-422h179q89 0 123 8t45 34t22 100h88v-398h-88q-13 80 -26 108t-46 37t-118 9h-179v-356q0 -86 18 -126q18 -39 65 -49t143 -10
t144 7t76 27t63 80q35 59 59 136l86 -14q-40 -233 -68 -330h-950v80q94 7 128 18q34 10 45 44t11 122zM498 1575q0 -51 -34 -85t-86 -34t-88 33q-34 33 -34 85t35 90t86 38t86 -38t35 -89zM672 1574q0 52 35 90t85 38t84 -38t35 -90q0 -52 -33 -85q-34 -33 -86 -33t-86 33
t-34 85z" />
    <glyph glyph-name="Igrave" unicode="&#xcc;" horiz-adv-x="708" 
d="M264 264v791q0 122 -26 149q-27 27 -148 35v80h528v-80q-122 -8 -148 -35t-26 -149v-791q0 -88 10 -122t44 -46q33 -12 120 -16v-80h-528v80q87 5 120 17q34 11 44 45t10 122zM-10 1618q0 14 37 64t65 50q9 0 17 -3t112 -69l233 -146l-41 -67l-286 100q-117 41 -127 49
t-10 22z" />
    <glyph glyph-name="Iacute" unicode="&#xcd;" horiz-adv-x="708" 
d="M264 264v791q0 122 -26 149q-27 27 -148 35v80h528v-80q-122 -8 -148 -35t-26 -149v-791q0 -88 10 -122t44 -46q33 -12 120 -16v-80h-528v80q87 5 120 17q34 11 44 45t10 122zM732 1618q0 -14 -12 -24q-12 -8 -133 -51l-278 -97l-39 67l232 144q106 67 114 69l16 4
q28 0 64 -49t36 -63z" />
    <glyph glyph-name="Icircumflex" unicode="&#xce;" horiz-adv-x="708" 
d="M264 264v791q0 122 -26 149q-27 27 -148 35v80h528v-80q-122 -8 -148 -35t-26 -149v-791q0 -88 10 -122t44 -46q33 -12 120 -16v-80h-528v80q87 5 120 17q34 11 44 45t10 122zM325 1724h65q93 -96 256 -208l-43 -70q-150 65 -248 135q-114 -78 -245 -135l-45 70
q142 92 260 208z" />
    <glyph glyph-name="Idieresis" unicode="&#xcf;" horiz-adv-x="708" 
d="M264 264v791q0 122 -26 149q-27 27 -148 35v80h528v-80q-122 -8 -148 -35t-26 -149v-791q0 -88 10 -122t44 -46q33 -12 120 -16v-80h-528v80q87 5 120 17q34 11 44 45t10 122zM269 1575q1 -51 -33 -85t-86 -34t-88 33q-34 33 -34 85t34 91q34 37 86 37t86 -38t35 -89z
M683 1574q0 -52 -34 -84q-34 -34 -86 -34t-86 33t-34 85t35 90t85 38t85 -38t35 -90z" />
    <glyph glyph-name="Eth" unicode="&#xd0;" horiz-adv-x="1429" 
d="M471 1151v-412h297v-104h-297v-344q0 -114 32 -151.5t136 -37.5q231 0 357 149.5t126 417.5t-126.5 413t-387.5 145q-117 0 -127 -17.5t-10 -58.5zM291 301v334h-199v104h199v277q0 108 -10.5 149t-41.5 55t-114 19v80h498q376 0 541 -174t165 -436q0 -343 -210.5 -526
t-586.5 -183h-421v78q91 7 124.5 20.5t44.5 54t11 148.5z" />
    <glyph glyph-name="Ntilde" unicode="&#xd1;" horiz-adv-x="1423" 
d="M260 522v432q0 141 -10 185q-21 91 -195 100v80h307l701 -987h6v459q0 349 -35 395t-168 53v80h500v-80q-138 -3 -160 -73t-22 -375v-805h-101l-702 1009h-6v-473q1 -303 23 -371t182 -71v-80h-496v80q133 2 155 72q21 70 21 370zM601 1663q41 0 125 -35t129 -35t94 86
l78 -45q-74 -162 -194 -161q-38 0 -127 35t-117 34q-50 0 -101 -88l-75 55q89 154 188 154z" />
    <glyph glyph-name="Ograve" unicode="&#xd2;" horiz-adv-x="1386" 
d="M723 70q350 0 350 564q0 290 -105 452q-105 163 -298 163q-163 0 -258 -143t-95 -418q0 -274 108 -446t298 -172zM690 -27q-258 0 -422 191q-166 191 -166 481t168 495t441 206q241 0 407 -188t166 -493q0 -304 -168 -498t-426 -194zM340 1616q0 14 37 64t65 50
q9 0 17 -3t112 -69l233 -146l-41 -67l-286 100q-117 41 -127 49t-10 22z" />
    <glyph glyph-name="Oacute" unicode="&#xd3;" horiz-adv-x="1386" 
d="M723 70q350 0 350 564q0 290 -105 452q-105 163 -298 163q-163 0 -258 -143t-95 -418q0 -274 108 -446t298 -172zM690 -27q-258 0 -422 191q-166 191 -166 481t168 495t441 206q241 0 407 -188t166 -493q0 -304 -168 -498t-426 -194zM591 1512l231 144q106 68 114 70
t16 3q28 0 64 -49q36 -50 36 -64t-11 -22q-12 -8 -134 -52l-277 -97z" />
    <glyph glyph-name="Ocircumflex" unicode="&#xd4;" horiz-adv-x="1386" 
d="M723 70q350 0 350 564q0 290 -105 452q-105 163 -298 163q-163 0 -258 -143t-95 -418q0 -274 108 -446t298 -172zM690 -27q-258 0 -422 191q-166 191 -166 481t168 495t441 206q241 0 407 -188t166 -493q0 -304 -168 -498t-426 -194zM665 1723h65q93 -96 256 -209
l-43 -69q-150 65 -248 135q-114 -78 -245 -135l-46 69q143 93 261 209z" />
    <glyph glyph-name="Otilde" unicode="&#xd5;" horiz-adv-x="1386" 
d="M723 70q350 0 350 564q0 290 -105 452q-105 163 -298 163q-163 0 -258 -143t-95 -418q0 -274 108 -446t298 -172zM690 -27q-258 0 -422 191q-166 191 -166 481t168 495t441 206q241 0 407 -188t166 -493q0 -304 -168 -498t-426 -194zM579 1663q41 0 125 -35t128 -35
t95 86l78 -45q-74 -162 -195 -161q-38 0 -127 35t-117 34q-50 0 -100 -88l-76 55q89 154 189 154z" />
    <glyph glyph-name="Odieresis" unicode="&#xd6;" horiz-adv-x="1386" 
d="M723 70q350 0 350 564q0 290 -105 452q-105 163 -298 163q-163 0 -258 -143t-95 -418q0 -274 108 -446t298 -172zM690 -27q-258 0 -422 191q-166 191 -166 481t168 495t441 206q241 0 407 -188t166 -493q0 -304 -168 -498t-426 -194zM608 1575q0 -51 -34 -85t-86 -34
t-87 33q-34 33 -34 85t34 91q35 37 86 37t86 -38t35 -89zM1022 1574q0 -52 -34 -84q-34 -34 -86 -34t-86 33t-34 85t35 90t85 38t85 -38t35 -90z" />
    <glyph glyph-name="multiply" unicode="&#xd7;" horiz-adv-x="1302" 
d="M1165 975l-417 -426l417 -424l-98 -105l-418 429l-413 -429l-99 105l414 424l-414 428l99 100l413 -428l418 428z" />
    <glyph glyph-name="Oslash" unicode="&#xd8;" horiz-adv-x="1386" 
d="M1073 632q0 290 -92 437l-518 -887q92 -113 258 -112q352 0 352 562zM666 1249q-158 0 -255.5 -144t-97.5 -400t86 -426l516 884q-91 86 -249 86zM1284 689q0 -325 -169 -520.5t-429 -195.5q-156 0 -299 84l-94 -151l-84 61l98 156q-205 195 -205 522q0 289 166.5 495
t438.5 206q150 0 274 -74l90 145l88 -53l-92 -152q217 -198 217 -523z" />
    <glyph glyph-name="Ugrave" unicode="&#xd9;" horiz-adv-x="1431" 
d="M248 518v541q0 119 -27 147t-151 33v80h528v-80q-118 -8 -144 -35t-26 -145v-469q0 -327 134 -432q70 -55 196 -56q175 0 253 140t79 420v120q0 342 -26 398t-179 59v80h501v-80q-140 0 -161 -73t-21 -384v-155q0 -375 -143 -514t-359 -139t-335 126q-119 127 -119 418z
M470 1732q9 0 17 -3t112 -69l232 -146l-40 -67l-286 100q-116 41 -127 49t-10 22q0 14 37 64t65 50z" />
    <glyph glyph-name="Uacute" unicode="&#xda;" horiz-adv-x="1431" 
d="M248 518v541q0 119 -27 147t-151 33v80h528v-80q-118 -8 -144 -35t-26 -145v-469q0 -327 134 -432q70 -55 196 -56q175 0 253 140t79 420v120q0 342 -26 398t-179 59v80h501v-80q-140 0 -161 -73t-21 -384v-155q0 -375 -143 -514t-359 -139t-335 126q-119 127 -119 418z
M1119 1618q0 -14 -12 -24q-12 -8 -133 -51l-278 -97l-39 67l232 144q106 67 114 69l16 4q28 0 64 -49t36 -63z" />
    <glyph glyph-name="Ucircumflex" unicode="&#xdb;" horiz-adv-x="1431" 
d="M248 518v541q0 119 -27 147t-151 33v80h528v-80q-118 -8 -144 -35t-26 -145v-469q0 -327 134 -432q70 -55 196 -56q175 0 253 140t79 420v120q0 342 -26 398t-179 59v80h501v-80q-140 0 -161 -73t-21 -384v-155q0 -375 -143 -514t-359 -139t-335 126q-119 127 -119 418z
M717 1724h65q93 -96 256 -208l-43 -70q-150 65 -247 135q-114 -78 -246 -135l-45 70q142 92 260 208z" />
    <glyph glyph-name="Udieresis" unicode="&#xdc;" horiz-adv-x="1431" 
d="M248 518v541q0 119 -27 147t-151 33v80h528v-80q-118 -8 -144 -35t-26 -145v-469q0 -327 134 -432q70 -55 196 -56q175 0 253 140t79 420v120q0 342 -26 398t-179 59v80h501v-80q-140 0 -161 -73t-21 -384v-155q0 -375 -143 -514t-359 -139t-335 126q-119 127 -119 418z
M672 1575q0 -51 -34 -85t-86 -34t-88 33q-34 33 -34 85t35 90t86 38t86 -38t35 -89zM846 1574q0 52 35 90t85 38t84 -38t35 -90q0 -52 -33 -85q-34 -33 -86 -33t-86 33t-34 85z" />
    <glyph glyph-name="Yacute" unicode="&#xdd;" horiz-adv-x="1255" 
d="M530 260v258q0 49 -20 90l-151 279q-115 219 -141 263t-58 62t-109 27v80h475v-80q-62 -6 -92 -15t-30 -30q0 -14 11 -38l97 -187q87 -165 143 -262q227 441 227 475t-32 43q-34 9 -105 14v80h459v-80q-72 -7 -108 -23t-81 -72q-44 -56 -162 -280t-130 -253t-12 -72v-279
q0 -120 30 -146t170 -34v-80h-571v80q133 8 162 34q28 26 28 146zM1043 1618q0 -14 -11 -24q-12 -8 -134 -51l-277 -97l-39 67l231 144q106 67 114 69l16 4q28 0 64 -49t36 -63z" />
    <glyph glyph-name="Thorn" unicode="&#xde;" horiz-adv-x="1134" 
d="M432 866v-432q65 -31 139 -31q129 0 201 70.5t72 196.5q0 262 -289 262q-93 0 -108 -10.5t-15 -55.5zM254 303v713q0 106 -11 148t-43.5 56t-117.5 19v80h524v-80q-87 -5 -120 -19t-43.5 -53.5t-10.5 -142.5h191q198 0 308.5 -87t110.5 -261t-136 -270.5t-331 -96.5
l-143 25v-45q0 -100 11.5 -139t47 -51.5t130.5 -18.5v-80h-541v80q87 6 119.5 19t43.5 54.5t11 149.5z" />
    <glyph glyph-name="germandbls" unicode="&#xdf;" horiz-adv-x="1153" 
d="M225 219v608h-135l-14 29l57 70h92v24q0 227 104 337.5t189.5 148t147.5 37.5q153 0 246.5 -85t93.5 -240q0 -86 -60 -157q-178 -110 -178 -200q0 -28 29 -68.5t125 -128.5q152 -134 152 -279t-108 -243.5t-245 -98.5q-74 0 -125.5 27.5t-51.5 60.5t26 58.5t40 25.5
t25 -8q67 -53 133 -53t103.5 36.5t37.5 106.5q0 128 -133 234q-180 145 -180 262q0 87 131 205q68 62 93.5 102t25.5 86q0 111 -62.5 180.5t-168.5 69.5t-162 -113t-56 -376v-656q0 -90 16.5 -112.5t90.5 -28.5v-80h-424v80q103 8 124 27.5t21 111.5z" />
    <glyph glyph-name="agrave" unicode="&#xe0;" horiz-adv-x="976" 
d="M289 260q0 -62 45 -104t98 -43q81 0 176 90v311q-214 -96 -243 -113q-76 -40 -76 -141zM778 686v-446q0 -119 62 -119q27 0 78 24l28 -73l-198 -97q-32 1 -72 31t-62 94q-184 -125 -254 -125q-108 -1 -184 79t-76 190q0 71 32 122t79 78q49 27 213 90t184 87v36
q0 89 -44 139t-120 50q-41 0 -84 -30t-79 -146q-16 -52 -57 -52t-74 28t-33 58t12 48q37 57 170 126q46 24 113 49t92 25q118 0 196 -66t78 -200zM183 1350q0 26 54 54q55 28 69 28t26 -8q12 -9 81 -104l153 -220l-65 -53l-216 189q-86 76 -94 89t-8 25z" />
    <glyph glyph-name="aacute" unicode="&#xe1;" horiz-adv-x="976" 
d="M289 260q0 -62 45 -104t98 -43q81 0 176 90v311q-214 -96 -243 -113q-76 -40 -76 -141zM778 686v-446q0 -119 62 -119q27 0 78 24l28 -73l-198 -97q-32 1 -72 31t-62 94q-184 -125 -254 -125q-108 -1 -184 79t-76 190q0 71 32 122t79 78q49 27 213 90t184 87v36
q0 89 -44 139t-120 50q-41 0 -84 -30t-79 -146q-16 -52 -57 -52t-74 28t-33 58t12 48q37 57 170 126q46 24 113 49t92 25q118 0 196 -66t78 -200zM682 1435q14 0 66 -30t52 -54q0 -13 -8 -25t-99 -94l-208 -185l-65 53l159 226q63 91 76 100t27 9z" />
    <glyph glyph-name="acircumflex" unicode="&#xe2;" horiz-adv-x="976" 
d="M289 260q0 -62 45 -104t98 -43q81 0 176 90v311q-214 -96 -243 -113q-76 -40 -76 -141zM778 686v-446q0 -119 62 -119q27 0 78 24l28 -73l-198 -97q-32 1 -72 31t-62 94q-184 -125 -254 -125q-108 -1 -184 79t-76 190q0 71 32 122t79 78q49 27 213 90t184 87v36
q0 89 -44 139t-120 50q-41 0 -84 -30t-79 -146q-16 -52 -57 -52t-74 28t-33 58t12 48q37 57 170 126q46 24 113 49t92 25q118 0 196 -66t78 -200zM428 1430h78q72 -138 207 -332l-84 -54q-151 198 -162 213l-166 -213l-82 54q143 205 209 332z" />
    <glyph glyph-name="atilde" unicode="&#xe3;" horiz-adv-x="976" 
d="M289 260q0 -62 45 -104t98 -43q81 0 176 90v311q-214 -96 -243 -113q-76 -40 -76 -141zM778 686v-446q0 -119 62 -119q27 0 78 24l28 -73l-198 -97q-32 1 -72 31t-62 94q-184 -125 -254 -125q-108 -1 -184 79t-76 190q0 71 32 122t79 78q49 27 213 90t184 87v36
q0 89 -44 139t-120 50q-41 0 -84 -30t-79 -146q-16 -52 -57 -52t-74 28t-33 58t12 48q37 57 170 126q46 24 113 49t92 25q118 0 196 -66t78 -200zM364 1317q48 0 130 -35t120 -35t92 88l79 -49q-77 -166 -190 -166q-37 0 -125 36t-117 36q-50 0 -100 -92l-76 53
q85 164 187 164z" />
    <glyph glyph-name="adieresis" unicode="&#xe4;" horiz-adv-x="976" 
d="M289 260q0 -62 45 -104t98 -43q81 0 176 90v311q-214 -96 -243 -113q-76 -40 -76 -141zM778 686v-446q0 -119 62 -119q27 0 78 24l28 -73l-198 -97q-32 1 -72 31t-62 94q-184 -125 -254 -125q-108 -1 -184 79t-76 190q0 71 32 122t79 78q49 27 213 90t184 87v36
q0 89 -44 139t-120 50q-41 0 -84 -30t-79 -146q-16 -52 -57 -52t-74 28t-33 58t12 48q37 57 170 126q46 24 113 49t92 25q118 0 196 -66t78 -200zM288 1343q52 1 86 -35t34 -88t-34 -84q-34 -34 -86 -34t-87 33q-33 33 -33 85t34 88q34 35 86 35zM678 1343q52 1 86 -35
t35 -88q0 -52 -34 -84q-35 -34 -87 -34t-86 33q-33 33 -33 85t34 88q33 35 85 35z" />
    <glyph glyph-name="aring" unicode="&#xe5;" horiz-adv-x="976" 
d="M289 260q0 -62 45 -104t98 -43q81 0 176 90v311q-214 -96 -243 -113q-76 -40 -76 -141zM778 686v-446q0 -119 62 -119q27 0 78 24l28 -73l-198 -97q-32 1 -72 31t-62 94q-184 -125 -254 -125q-108 -1 -184 79t-76 190q0 71 32 122t79 78q49 27 213 90t184 87v36
q0 89 -44 139t-120 50q-41 0 -84 -30t-79 -146q-16 -52 -57 -52t-74 28t-33 58t12 48q37 57 170 126q46 24 113 49t92 25q118 0 196 -66t78 -200zM495 1149q49 1 79 35t30 86t-30 86q-30 33 -78 33q-48 -1 -79 -33q-30 -32 -30 -84t30 -88q30 -35 78 -35zM274 1272
q0 92 66 148t155 56t153 -56q64 -58 65 -149q0 -91 -65 -151t-154 -59q-89 0 -155 59q-65 60 -65 152z" />
    <glyph glyph-name="ae" unicode="&#xe6;" horiz-adv-x="1433" 
d="M287 268q0 -64 42 -107.5t107 -43.5q98 0 211 121q-35 82 -35 280l-188 -80q-71 -30 -104 -68t-33 -102zM1002 850q-76 0 -138.5 -68t-79.5 -186l357 6q24 0 31.5 12t7.5 45q0 85 -51 138t-127 53zM614 655q0 89 -44 140t-107 51t-105.5 -33t-81.5 -149q-14 -48 -50 -48
t-72.5 29t-36.5 57t11 47.5t33 39t55 41t78.5 45.5t113.5 50.5t92 26.5q178 0 250 -143q141 145 301 145q126 0 219.5 -101t93.5 -239q0 -48 -11 -65t-60 -29.5t-521 -30.5q0 -172 85 -266t219 -94t224 98l48 -61q-77 -95 -165 -143t-159 -48q-219 0 -334 181
q-157 -119 -221.5 -150t-103.5 -31q-109 0 -186 78.5t-77 174.5t38 150t122 91q347 147 352 152v34z" />
    <glyph glyph-name="ccedilla" unicode="&#xe7;" horiz-adv-x="901" 
d="M544 -102q0 -14 27 -39q74 -86 74 -146q0 -132 -229 -217l-37 68q123 66 123 131q0 20 -44 68t-45 76q0 28 20 57l59 81q-193 22 -294.5 147.5t-101.5 283.5t76 282t206.5 193t246.5 69q51 0 130 -26.5t79 -89.5q0 -32 -29 -69.5t-49 -37.5t-37 16q-86 86 -195 86
t-177 -84.5t-68 -232.5t46.5 -233.5t112.5 -120.5t136 -35t120.5 27t106.5 84l55 -66q-136 -152 -264 -186q-48 -72 -48 -86z" />
    <glyph glyph-name="egrave" unicode="&#xe8;" horiz-adv-x="927" 
d="M672 659q0 83 -51 139t-127 56t-136 -68q-62 -68 -77 -188l337 6q34 0 44 12t10 43zM96 442q0 208 135 359t301 151q132 0 228 -101t96 -235q0 -48 -9 -66t-39 -24t-199 -19q-170 -12 -343 -18q7 -174 96 -267t209 -93t213 98l56 -67q-80 -92 -171 -138t-157 -47
q-185 0 -301 130q-115 129 -115 337zM214 1350q0 26 54 54t68 28t28 -8q12 -9 79 -104l154 -220l-66 -53l-216 189q-85 76 -93 89t-8 25z" />
    <glyph glyph-name="eacute" unicode="&#xe9;" horiz-adv-x="927" 
d="M672 659q0 83 -51 139t-127 56t-136 -68q-62 -68 -77 -188l337 6q34 0 44 12t10 43zM96 442q0 208 135 359t301 151q132 0 228 -101t96 -235q0 -48 -9 -66t-39 -24t-199 -19q-170 -12 -343 -18q7 -174 96 -267t209 -93t213 98l56 -67q-80 -92 -171 -138t-157 -47
q-185 0 -301 130q-115 129 -115 337zM706 1435q15 0 66 -30t51 -54q1 -13 -7 -25t-99 -94l-208 -185l-66 53l159 226q63 91 76 100t28 9z" />
    <glyph glyph-name="ecircumflex" unicode="&#xea;" horiz-adv-x="927" 
d="M672 659q0 83 -51 139t-127 56t-136 -68q-62 -68 -77 -188l337 6q34 0 44 12t10 43zM96 442q0 208 135 359t301 151q132 0 228 -101t96 -235q0 -48 -9 -66t-39 -24t-199 -19q-170 -12 -343 -18q7 -174 96 -267t209 -93t213 98l56 -67q-80 -92 -171 -138t-157 -47
q-185 0 -301 130q-115 129 -115 337zM476 1430h78q72 -138 207 -332l-84 -54q-151 198 -162 213l-166 -213l-82 54q143 205 209 332z" />
    <glyph glyph-name="edieresis" unicode="&#xeb;" horiz-adv-x="927" 
d="M672 659q0 83 -51 139t-127 56t-136 -68q-62 -68 -77 -188l337 6q34 0 44 12t10 43zM96 442q0 208 135 359t301 151q132 0 228 -101t96 -235q0 -48 -9 -66t-39 -24t-199 -19q-170 -12 -343 -18q7 -174 96 -267t209 -93t213 98l56 -67q-80 -92 -171 -138t-157 -47
q-185 0 -301 130q-115 129 -115 337zM428 1220q0 -52 -34 -84q-34 -34 -86 -34t-86 33t-34 85t34 88q34 35 86 35q51 0 86 -35q34 -36 34 -88zM819 1220q0 -52 -34 -84q-35 -34 -87 -34t-85 33t-33 85t34 88q34 35 85 35t86 -35q34 -36 34 -88z" />
    <glyph glyph-name="igrave" unicode="&#xec;" horiz-adv-x="589" 
d="M225 233v400q0 79 -7 107t-31 39q-24 10 -95 20v69q156 28 305 84v-719q0 -101 22 -123t124 -30v-80h-461v80q100 9 122 31q21 22 21 122zM-6 1348q0 26 54 54t68 28t27 -8q12 -9 80 -104l154 -220l-66 -54l-216 190q-85 76 -93 88t-8 26z" />
    <glyph glyph-name="iacute" unicode="&#xed;" horiz-adv-x="589" 
d="M225 233v400q0 79 -7 107t-31 39q-24 10 -95 20v69q156 28 305 84v-719q0 -101 22 -123t124 -30v-80h-461v80q100 9 122 31q21 22 21 122zM484 1433q14 0 66 -30t52 -54q0 -13 -8 -25t-98 -94l-208 -186l-66 54l159 226q63 91 76 100t27 9z" />
    <glyph glyph-name="icircumflex" unicode="&#xee;" horiz-adv-x="589" 
d="M225 233v400q0 79 -7 107t-31 39q-24 10 -95 20v69q156 28 305 84v-719q0 -101 22 -123t124 -30v-80h-461v80q100 9 122 31q21 22 21 122zM261 1428h78q72 -138 207 -331l-84 -54q-151 198 -162 213l-166 -213l-82 54q143 204 209 331z" />
    <glyph glyph-name="idieresis" unicode="&#xef;" horiz-adv-x="589" 
d="M225 233v400q0 79 -7 107t-31 39q-24 10 -95 20v69q156 28 305 84v-719q0 -101 22 -123t124 -30v-80h-461v80q100 9 122 31q21 22 21 122zM220 1220q0 -52 -34 -84q-34 -34 -86 -34t-86 33q-33 33 -33 85t34 88q34 35 85 35t86 -35q34 -36 34 -88zM492 1343q52 1 85 -35
q34 -36 34 -88t-33 -85q-34 -33 -86 -33t-87 33q-33 33 -33 85t34 88q34 35 86 35z" />
    <glyph glyph-name="eth" unicode="&#xf0;" horiz-adv-x="1071" 
d="M787 532q0 136 -19 188t-83 93t-144 41q-110 0 -177 -88t-67 -266t74.5 -302t190.5 -124t170.5 104t54.5 354zM973 569q0 -282 -123.5 -438t-315.5 -156t-316 142t-124 329q0 148 64 263t174 179t226 64t183 -61q-61 183 -145 274l-272 -147l-41 82l249 135
q-148 123 -323 156q-6 8 -6 29t9 37t15 16q59 0 184 -44.5t230 -128.5l256 138l43 -82l-225 -125q258 -280 258 -662z" />
    <glyph glyph-name="ntilde" unicode="&#xf1;" horiz-adv-x="1155" 
d="M225 229v420q0 101 -17 121t-108 31v69q175 33 297 84v-147q182 145 302 145t192 -77t72 -207v-437q0 -98 20 -120t109 -31v-80h-424v80q85 10 104 30t19 111v365q-1 121 -41 176t-136 55t-217 -119v-467q-1 -99 19 -121t108 -30v-80h-446v80q87 6 117 24t30 125z
M458 1317q48 0 130 -35t120 -35t92 88l80 -49q-77 -166 -191 -166q-37 0 -124 36t-118 36q-50 0 -100 -92l-76 53q85 164 187 164z" />
    <glyph glyph-name="ograve" unicode="&#xf2;" horiz-adv-x="1083" 
d="M532 854q-238 0 -237 -358q0 -184 74 -302q74 -120 196 -120t173 87q50 87 50 279t-69 302q-69 112 -187 112zM94 420q0 172 61 289q60 117 166 180t222 63q193 0 317 -136t125 -350q0 -215 -131 -353q-130 -138 -320 -138t-315 137q-125 136 -125 308zM358 1453
q14 0 28 -9q12 -9 80 -104l154 -220l-66 -53l-216 189q-86 76 -94 89t-7 25q0 27 53 55q54 28 68 28z" />
    <glyph glyph-name="oacute" unicode="&#xf3;" horiz-adv-x="1083" 
d="M532 854q-238 0 -237 -358q0 -184 74 -302q74 -120 196 -120t173 87q50 87 50 279t-69 302q-69 112 -187 112zM94 420q0 172 61 289q60 117 166 180t222 63q193 0 317 -136t125 -350q0 -215 -131 -353q-130 -138 -320 -138t-315 137q-125 136 -125 308zM738 1435
q14 0 66 -30t51 -54q0 -13 -8 -25t-98 -94l-208 -185l-66 53l159 226q63 91 76 100q14 9 28 9z" />
    <glyph glyph-name="ocircumflex" unicode="&#xf4;" horiz-adv-x="1083" 
d="M532 854q-238 0 -237 -358q0 -184 74 -302q74 -120 196 -120t173 87q50 87 50 279t-69 302q-69 112 -187 112zM94 420q0 172 61 289q60 117 166 180t222 63q193 0 317 -136t125 -350q0 -215 -131 -353q-130 -138 -320 -138t-315 137q-125 136 -125 308zM504 1430h78
q72 -138 206 -332l-83 -54q-151 198 -162 213l-166 -213l-82 54q143 205 209 332z" />
    <glyph glyph-name="otilde" unicode="&#xf5;" horiz-adv-x="1083" 
d="M532 854q-238 0 -237 -358q0 -184 74 -302q74 -120 196 -120t173 87q50 87 50 279t-69 302q-69 112 -187 112zM94 420q0 172 61 289q60 117 166 180t222 63q193 0 317 -136t125 -350q0 -215 -131 -353q-130 -138 -320 -138t-315 137q-125 136 -125 308zM425 1317
q48 0 130 -35t121 -35t91 88l80 -49q-77 -166 -191 -166q-37 0 -124 36t-117 36q-50 0 -101 -92l-75 53q85 164 186 164z" />
    <glyph glyph-name="odieresis" unicode="&#xf6;" horiz-adv-x="1083" 
d="M532 854q-238 0 -237 -358q0 -184 74 -302q74 -120 196 -120t173 87q50 87 50 279t-69 302q-69 112 -187 112zM94 420q0 172 61 289q60 117 166 180t222 63q193 0 317 -136t125 -350q0 -215 -131 -353q-130 -138 -320 -138t-315 137q-125 136 -125 308zM465 1220
q0 -52 -34 -84q-35 -34 -87 -34t-85 33t-33 85t34 88q34 35 85 35t86 -35q34 -36 34 -88zM856 1220q0 -52 -34 -84q-34 -34 -86 -34t-86 33t-34 85t34 88q34 35 86 35q51 0 86 -35q34 -36 34 -88z" />
    <glyph glyph-name="divide" unicode="&#xf7;" horiz-adv-x="1302" 
d="M524 228q0 50 38 87t88 37t88 -37t38 -87t-38 -88t-88 -38t-88 38t-38 88zM117 633h1067v-133h-1067v133zM780 904q0 -50 -37 -87t-87 -37t-89 37.5t-39 86.5t39 87.5t88 38.5t87 -38t38 -88z" />
    <glyph glyph-name="oslash" unicode="&#xf8;" horiz-adv-x="1087" 
d="M805 427q0 174 -47 273l-357 -559q59 -67 175 -67t172.5 89.5t56.5 263.5zM522 850q-108 0 -173.5 -92t-65.5 -256t63 -264l354 555q-70 57 -178 57zM547 -25q-113 0 -215 56l-86 -131l-78 63l84 123q-156 140 -156 350q0 155 61.5 271.5t169 180.5t220.5 64t207 -51
l82 123l82 -51l-84 -127q158 -138 158 -366t-132.5 -366.5t-312.5 -138.5z" />
    <glyph glyph-name="ugrave" unicode="&#xf9;" horiz-adv-x="1136" 
d="M770 698q0 103 -44 115q-23 6 -116 16v74q226 12 332 37v-704q0 -71 16 -90t68 -19h66v-78q-94 -10 -306 -74l-16 13v127q-174 -139 -301 -139t-195 78t-67 227v415q0 102 -37 114q-18 6 -90 17v74q99 4 305 39q-6 -93 -6 -301v-301q0 -113 41 -169t135 -56t215 106v479z
M556 1048l-216 189q-86 76 -94 89t-7 25q-1 27 53 55t68 28t28 -9q12 -9 80 -104l154 -220z" />
    <glyph glyph-name="uacute" unicode="&#xfa;" horiz-adv-x="1136" 
d="M770 698q0 103 -44 115q-23 6 -116 16v74q226 12 332 37v-704q0 -71 16 -90t68 -19h66v-78q-94 -10 -306 -74l-16 13v127q-174 -139 -301 -139t-195 78t-67 227v415q0 102 -37 114q-18 6 -90 17v74q99 4 305 39q-6 -93 -6 -301v-301q0 -113 41 -169t135 -56t215 106v479z
M740 1435q14 0 66 -30t52 -54q0 -13 -8 -25t-98 -94l-208 -185l-66 53l159 226q63 91 76 100t27 9z" />
    <glyph glyph-name="ucircumflex" unicode="&#xfb;" horiz-adv-x="1136" 
d="M770 698q0 103 -44 115q-23 6 -116 16v74q226 12 332 37v-704q0 -71 16 -90t68 -19h66v-78q-94 -10 -306 -74l-16 13v127q-174 -139 -301 -139t-195 78t-67 227v415q0 102 -37 114q-18 6 -90 17v74q99 4 305 39q-6 -93 -6 -301v-301q0 -113 41 -169t135 -56t215 106v479z
M530 1432h78q72 -138 207 -332l-84 -53q-151 198 -162 213l-166 -213l-81 53q142 205 208 332z" />
    <glyph glyph-name="udieresis" unicode="&#xfc;" horiz-adv-x="1136" 
d="M770 698q0 103 -44 115q-23 6 -116 16v74q226 12 332 37v-704q0 -71 16 -90t68 -19h66v-78q-94 -10 -306 -74l-16 13v127q-174 -139 -301 -139t-195 78t-67 227v415q0 102 -37 114q-18 6 -90 17v74q99 4 305 39q-6 -93 -6 -301v-301q0 -113 41 -169t135 -56t215 106v479z
M376 1343q52 1 86 -35t34 -88t-34 -84q-34 -34 -86 -34t-87 33q-33 33 -33 85t34 88q34 35 86 35zM766 1343q52 1 86 -35t35 -88q0 -52 -34 -84q-35 -34 -87 -34t-86 33q-33 33 -33 85t34 88q33 35 85 35z" />
    <glyph glyph-name="yacute" unicode="&#xfd;" horiz-adv-x="980" 
d="M457 848q-96 -14 -96 -50q0 -18 45 -155l126 -389q200 483 200 539q0 27 -26 37t-81 18v80h399v-80q-77 -12 -106 -32q-28 -20 -70 -96t-154 -337q-279 -651 -332 -850q-14 -55 -70 -55t-97 36t-41 80t66 87q66 44 135 168q71 124 71 178q0 24 -27 102l-85 251
q-121 358 -142 395q-20 37 -52 52t-93 21v80h430v-80zM742 1435q14 0 66 -30t51 -54q0 -13 -8 -25t-98 -94l-208 -185l-66 53l159 226q63 91 76 100q14 9 28 9z" />
    <glyph glyph-name="thorn" unicode="&#xfe;" horiz-adv-x="1101" 
d="M542 102q123 0 199 89t76 265t-71.5 264.5t-185.5 88.5t-210 -76v-551q69 -80 192 -80zM178 -262v1390q0 104 -20.5 125t-130.5 27v78q158 16 323 65v-589q201 100 227.5 109t65.5 9q158 0 260.5 -122.5t102.5 -295.5t-102 -318t-238.5 -193t-165.5 -48t-75 10.5
t-75 28.5v-280q0 -100 27 -122t158 -30v-80h-508v80q104 8 127.5 31t23.5 125z" />
    <glyph glyph-name="ydieresis" unicode="&#xff;" horiz-adv-x="980" 
d="M457 848q-96 -14 -96 -50q0 -18 45 -155l126 -389q200 483 200 539q0 27 -26 37t-81 18v80h399v-80q-77 -12 -106 -32q-28 -20 -70 -96t-154 -337q-279 -651 -332 -850q-14 -55 -70 -55t-97 36t-41 80t66 87q66 44 135 168q71 124 71 178q0 24 -27 102l-85 251
q-121 358 -142 395q-20 37 -52 52t-93 21v80h430v-80zM334 1343q52 1 86 -35t35 -88q0 -52 -34 -84q-35 -34 -87 -34t-86 33q-33 33 -33 85t34 88q33 35 85 35zM846 1220q0 -52 -34 -84q-34 -34 -86 -34t-87 33q-33 33 -33 85t34 88q34 35 86 35q51 0 86 -35q34 -36 34 -88z
" />
    <glyph glyph-name="Amacron" unicode="&#x100;" horiz-adv-x="1349" 
d="M483 551h324l-156 500h-4zM500 0h-449v80q87 7 123 31q35 24 86 163l381 1047l86 25l217 -658q115 -342 156 -448q42 -106 76 -130t122 -30v-80h-479v80q65 6 95 15t31 31q0 22 -35 129q-34 107 -68 185h-393q-87 -258 -87 -296t30 -48t108 -16v-80zM933 1511h-516v129
h516v-129z" />
    <glyph glyph-name="amacron" unicode="&#x101;" horiz-adv-x="976" 
d="M289 260q0 -62 45 -104t98 -43q81 0 176 90v311q-214 -96 -243 -113q-76 -40 -76 -141zM778 686v-446q0 -119 62 -119q27 0 78 24l28 -73l-198 -97q-32 1 -72 31t-62 94q-184 -125 -254 -125q-108 -1 -184 79t-76 190q0 71 32 122t79 78q49 27 213 90t184 87v36
q0 89 -44 139t-120 50q-41 0 -84 -30t-79 -146q-16 -52 -57 -52t-74 28t-33 58t12 48q37 57 170 126q46 24 113 49t92 25q118 0 196 -66t78 -200zM233 1272h512v-133h-512v133z" />
    <glyph glyph-name="Abreve" unicode="&#x102;" horiz-adv-x="1349" 
d="M483 551h324l-156 500h-4zM500 0h-449v80q87 7 123 31q35 24 86 163l381 1047l86 25l217 -658q115 -342 156 -448q42 -106 76 -130t122 -30v-80h-479v80q65 6 95 15t31 31q0 22 -35 129q-34 107 -68 185h-393q-87 -258 -87 -296t30 -48t108 -16v-80zM676 1466
q-122 0 -195 64q-74 64 -75 184h88q34 -129 182 -129t180 129h90q-2 -120 -75 -184t-195 -64z" />
    <glyph glyph-name="abreve" unicode="&#x103;" horiz-adv-x="976" 
d="M289 260q0 -62 45 -104t98 -43q81 0 176 90v311q-214 -96 -243 -113q-76 -40 -76 -141zM778 686v-446q0 -119 62 -119q27 0 78 24l28 -73l-198 -97q-32 1 -72 31t-62 94q-184 -125 -254 -125q-108 -1 -184 79t-76 190q0 71 32 122t79 78q49 27 213 90t184 87v36
q0 89 -44 139t-120 50q-41 0 -84 -30t-79 -146q-16 -52 -57 -52t-74 28t-33 58t12 48q37 57 170 126q46 24 113 49t92 25q118 0 196 -66t78 -200zM743 1391q0 -287 -254 -287t-253 287h96q19 -160 157 -160q63 0 105 41q41 41 51 119h98z" />
    <glyph glyph-name="Aogonek" unicode="&#x104;" horiz-adv-x="1349" 
d="M483 551h324l-156 500h-4zM500 0h-449v80q87 7 122.5 31t86.5 163l381 1047l86 25l217 -658q115 -342 156.5 -448.5t75 -130t122.5 -29.5v-80h-53q-143 -140 -143 -246q0 -51 31 -80.5t71 -29.5t94 20l27 -65q-115 -60 -136 -68t-46 -8q-86 0 -133 49t-47 119
q0 135 174 309h-318v80q65 6 95.5 15t30.5 31t-34.5 129t-68.5 185h-393q-87 -258 -87 -296t30.5 -48t107.5 -16v-80z" />
    <glyph glyph-name="aogonek" unicode="&#x105;" horiz-adv-x="976" 
d="M289 260q0 -62 45 -104.5t98 -42.5q81 0 176 90v311q-214 -96 -243.5 -112.5t-52.5 -48t-23 -93.5zM778 686v-446q0 -119 62 -119q27 0 78 24l28 -73q-209 -181 -209 -308q0 -50 30.5 -80t71.5 -30t95 20l27 -65q-115 -60 -136 -68t-47 -8q-86 0 -133 49t-47 119
q0 123 141 274q-92 22 -125 125q-184 -125 -254 -125q-109 0 -184.5 79.5t-75.5 189.5q0 71 31.5 122t80 78t212.5 90t184 87v36q0 90 -44 139.5t-120 49.5q-41 0 -84 -30t-79 -146q-16 -52 -57 -52t-74 28.5t-33 57.5t11.5 47.5t36 40t56.5 42t78 44.5t113 49t92 25
q117 0 195.5 -66.5t78.5 -199.5z" />
    <glyph glyph-name="Cacute" unicode="&#x106;" horiz-adv-x="1236" 
d="M311 672q-1 -268 121 -435t313 -167q122 0 199 69q76 70 148 242l88 -21q-70 -274 -97 -335q-173 -51 -327 -52q-307 0 -482 190q-174 189 -174 489t196 497t499 197q153 0 311 -46q21 -146 35 -327l-88 -12q-54 287 -303 286q-203 0 -321 -154q-118 -153 -118 -421z
M1002 1618q0 -14 -11 -24q-12 -8 -134 -51l-277 -97l-39 67l231 144q106 67 114 69l16 4q28 0 64 -49t36 -63z" />
    <glyph glyph-name="cacute" unicode="&#x107;" horiz-adv-x="901" 
d="M625 952q58 0 134 -27t77 -91q0 -32 -29 -68t-50 -37q-21 0 -36 16q-85 86 -195 86t-179 -84t-69 -224q1 -265 146 -355q70 -44 144 -44t125 28q51 27 108 86l57 -64q-74 -90 -168 -144t-176 -55q-183 0 -300 130q-118 129 -118 295t76 290t207 193q130 69 246 69z
M672 1435q14 0 66 -30q51 -30 52 -54q0 -13 -8 -25t-99 -94l-208 -185l-65 53l158 226q62 91 76 100t28 9z" />
    <glyph glyph-name="Ccaron" unicode="&#x10c;" horiz-adv-x="1236" 
d="M311 672q-1 -268 121 -435t313 -167q122 0 199 69q76 70 148 242l88 -21q-70 -274 -97 -335q-173 -51 -327 -52q-307 0 -482 190q-174 189 -174 489t196 497t499 197q153 0 311 -46q21 -146 35 -327l-88 -12q-54 287 -303 286q-203 0 -321 -154q-118 -153 -118 -421z
M754 1454h-68q-94 97 -256 209l43 70q137 -56 248 -136q129 86 246 136l45 -70q-141 -91 -258 -209z" />
    <glyph glyph-name="ccaron" unicode="&#x10d;" horiz-adv-x="901" 
d="M625 952q58 0 134 -27t77 -91q0 -32 -29 -68t-50 -37q-21 0 -36 16q-85 86 -195 86t-179 -84t-69 -224q1 -265 146 -355q70 -44 144 -44t125 28q51 27 108 86l57 -64q-74 -90 -168 -144t-176 -55q-183 0 -300 130q-118 129 -118 295t76 290t207 193q130 69 246 69z
M569 1063h-77q-75 144 -207 330l82 53q127 -158 163 -211q29 41 166 211l82 -53q-140 -196 -209 -330z" />
    <glyph glyph-name="Dcaron" unicode="&#x10e;" horiz-adv-x="1400" 
d="M442 1151v-875q0 -114 35 -144t131 -30q232 0 359 150q126 150 127 418q0 557 -514 557q-106 0 -122 -14t-16 -62zM262 262v793q0 122 -25 149q-26 27 -141 35v80h498q376 0 541 -174t165 -436q0 -337 -207 -523t-591 -186h-420v78q126 10 153 36t27 148zM702 1454h-67
q-94 97 -256 209l43 70q137 -56 248 -136q129 86 245 136l46 -70q-142 -91 -259 -209z" />
    <glyph glyph-name="dcaron" unicode="&#x10f;" horiz-adv-x="1298" 
d="M555 848q-106 0 -189 -91t-83 -267t82 -275q83 -98 187 -98t208 82v567q-57 82 -205 82zM932 258q0 -68 9 -90t29 -26t120 -9v-78q-218 -39 -330 -80v123q-176 -98 -206 -110t-67 -13q-151 0 -275 127t-124 335t157 362t384 153q76 0 131 -20v248q0 84 -10 102t-32 26
t-116 11v80q173 25 330 74v-1215zM1159 1221q0 45 -29 77t-75 45q-25 5 -25 43t27 62t61 25q64 0 118 -59t54 -148q0 -188 -239 -269l-27 70q135 59 135 154z" />
    <glyph glyph-name="Dcroat" unicode="&#x110;" horiz-adv-x="1429" 
d="M471 1151v-412h297v-104h-297v-344q0 -114 32 -151.5t136 -37.5q231 0 357 149.5t126 417.5t-126.5 413t-387.5 145q-117 0 -127 -17.5t-10 -58.5zM291 301v334h-199v104h199v277q0 108 -10.5 149t-41.5 55t-114 19v80h498q376 0 541 -174t165 -436q0 -343 -210.5 -526
t-586.5 -183h-421v78q91 7 124.5 20.5t44.5 54t11 148.5z" />
    <glyph glyph-name="dcroat" unicode="&#x111;" horiz-adv-x="1124" 
d="M555 848q-106 0 -189 -91t-83 -267t81.5 -274.5t186.5 -98.5t209 82v567q-57 82 -205 82zM932 1108v-850q0 -67 9 -89.5t29 -26.5t120 -9v-78q-218 -39 -330 -80v123q-175 -98 -205.5 -110.5t-67.5 -12.5q-150 0 -274.5 127t-124.5 335t156.5 361.5t384.5 153.5
q76 0 131 -20v176h-330v98h328q0 79 -24 94.5t-132 18.5v80q173 25 330 74v-267h188v-98h-188z" />
    <glyph glyph-name="Emacron" unicode="&#x112;" horiz-adv-x="1150" 
d="M264 264v793q0 87 -10 121t-42 45t-116 18v78h885q19 -270 23 -303l-89 -10q-28 131 -68 174q-41 43 -185 43h-156q-51 -1 -56 -13t-6 -51v-422h179q89 0 123 8t45 34t22 100h88v-398h-88q-13 80 -26 108t-46 37t-118 9h-179v-356q0 -86 18 -126q18 -39 65 -49t143 -10
t144 7t76 27t63 80q35 59 59 136l86 -14q-40 -233 -68 -330h-950v80q94 7 128 18q34 10 45 44t11 122zM833 1511h-517v129h517v-129z" />
    <glyph glyph-name="emacron" unicode="&#x113;" horiz-adv-x="927" 
d="M672 659q0 83 -51 139t-127 56t-136 -68q-62 -68 -77 -188l337 6q34 0 44 12t10 43zM96 442q0 208 135 359t301 151q132 0 228 -101t96 -235q0 -48 -9 -66t-39 -24t-199 -19q-170 -12 -343 -18q7 -174 96 -267t209 -93t213 98l56 -67q-80 -92 -171 -138t-157 -47
q-185 0 -301 130q-115 129 -115 337zM250 1272h512v-133h-512v133z" />
    <glyph glyph-name="Edotaccent" unicode="&#x116;" horiz-adv-x="1150" 
d="M264 264v793q0 87 -10 121t-42 45t-116 18v78h885q19 -270 23 -303l-89 -10q-28 131 -68 174q-41 43 -185 43h-156q-51 -1 -56 -13t-6 -51v-422h179q89 0 123 8t45 34t22 100h88v-398h-88q-13 80 -26 108t-46 37t-118 9h-179v-356q0 -86 18 -126q18 -39 65 -49t143 -10
t144 7t76 27t63 80q35 59 59 136l86 -14q-40 -233 -68 -330h-950v80q94 7 128 18q34 10 45 44t11 122zM702 1569q0 -50 -32 -83q-33 -32 -84 -32t-84 32t-33 83t34 87q33 36 83 36t83 -36t33 -87z" />
    <glyph glyph-name="edotaccent" unicode="&#x117;" horiz-adv-x="927" 
d="M672 659q0 83 -51 139t-127 56t-136 -68q-62 -68 -77 -188l337 6q34 0 44 12t10 43zM96 442q0 208 135 359t301 151q132 0 228 -101t96 -235q0 -48 -9 -66t-39 -24t-199 -19q-170 -12 -343 -18q7 -174 96 -267t209 -93t213 98l56 -67q-80 -92 -171 -138t-157 -47
q-185 0 -301 130q-115 129 -115 337zM627 1220q0 -52 -34 -84q-35 -34 -87 -34t-86 33q-33 33 -33 85t34 88q33 36 85 36t86 -36t35 -88z" />
    <glyph glyph-name="Eogonek" unicode="&#x118;" horiz-adv-x="1150" 
d="M264 264v793q0 87 -10 120.5t-42 45t-116 18.5v78h885q19 -270 23 -303l-89 -10q-28 131 -68.5 174t-184.5 43h-156q-51 0 -56.5 -12.5t-5.5 -51.5v-422h179q89 0 122.5 8.5t45 34t22.5 99.5h88v-398h-88q-13 80 -26 108t-45.5 37t-118.5 9h-179v-356q0 -86 18.5 -126
t64 -49.5t142.5 -9.5t145 7.5t76.5 27t63 79t58.5 136.5l86 -14q-40 -233 -68 -330h-2q-158 -143 -158 -252q0 -49 33 -78.5t77 -29.5t101 20l23 -57q-119 -62 -140.5 -70t-43.5 -8q-91 0 -140 48.5t-49 119.5q0 132 193 307h-844v80q94 7 128.5 18t45 44.5t10.5 121.5z" />
    <glyph glyph-name="eogonek" unicode="&#x119;" horiz-adv-x="927" 
d="M494 854q-76 0 -137 -67.5t-76 -188.5l337 6q34 0 44 12t10 43q0 82 -51 138.5t-127 56.5zM532 -246q0 -50 30.5 -80t71.5 -30t95 20l27 -65q-115 -60 -136 -68t-47 -8q-86 0 -133 49t-47 119q0 126 150 289q-12 -4 -31 -5q-185 0 -300.5 129.5t-115.5 337.5t134.5 359
t304.5 151q130 0 225.5 -100.5t95.5 -235.5q0 -48 -9 -66.5t-67 -30.5t-514 -30q7 -174 96.5 -267t209.5 -93t212 98l56 -67q-49 -58 -107 -99q-201 -184 -201 -307z" />
    <glyph glyph-name="Ecaron" unicode="&#x11a;" horiz-adv-x="1150" 
d="M264 264v793q0 87 -10 121t-42 45t-116 18v78h885q19 -270 23 -303l-89 -10q-28 131 -68 174q-41 43 -185 43h-156q-51 -1 -56 -13t-6 -51v-422h179q89 0 123 8t45 34t22 100h88v-398h-88q-13 80 -26 108t-46 37t-118 9h-179v-356q0 -86 18 -126q18 -39 65 -49t143 -10
t144 7t76 27t63 80q35 59 59 136l86 -14q-40 -233 -68 -330h-950v80q94 7 128 18q34 10 45 44t11 122zM608 1423h-67q-94 97 -256 209l43 70q137 -56 247 -135q129 86 246 135l45 -70q-141 -91 -258 -209z" />
    <glyph glyph-name="ecaron" unicode="&#x11b;" horiz-adv-x="927" 
d="M672 659q0 83 -51 139t-127 56t-136 -68q-62 -68 -77 -188l337 6q34 0 44 12t10 43zM96 442q0 208 135 359t301 151q132 0 228 -101t96 -235q0 -48 -9 -66t-39 -24t-199 -19q-170 -12 -343 -18q7 -174 96 -267t209 -93t213 98l56 -67q-80 -92 -171 -138t-157 -47
q-185 0 -301 130q-115 129 -115 337zM555 1063h-78q-75 144 -207 330l82 53q127 -158 164 -211q29 41 166 211l82 -53q-140 -196 -209 -330z" />
    <glyph glyph-name="Gbreve" unicode="&#x11e;" horiz-adv-x="1325" 
d="M1155 410v-172q0 -125 10 -193q-233 -72 -383 -72q-305 1 -492 185t-188 487q0 211 90 370t252 245t344 86t340 -46q17 -211 33 -325l-88 -8q-22 134 -92 208q-71 74 -219 74q-201 1 -325 -151t-124 -422q1 -270 127 -438t355 -168q146 0 169 46q11 24 11 87v182
q0 73 -11 99t-51 37t-149 20v80h506v-80q-82 -12 -98 -30t-17 -101zM756 1466q-122 0 -195 64q-74 64 -76 184h88q34 -129 182 -129t181 129h90q-2 -120 -75 -184t-195 -64z" />
    <glyph glyph-name="gbreve" unicode="&#x11f;" horiz-adv-x="1003" 
d="M817 -178q0 92 -66 135q-67 43 -217 43t-219 -67q-67 -67 -67 -147t76 -137t203 -57t209 69q81 69 81 161zM498 391q80 -1 125 57t45 169t-50 177t-131 66t-127 -56t-47 -166q0 -110 53 -179q52 -68 132 -68zM125 598q0 166 116 260t255 94q74 0 138 -24l62 -27
q73 0 273 27l12 -21q-36 -83 -82 -112l-106 8q49 -76 49 -170q0 -151 -109 -243t-256 -93l-63 4q-10 0 -50 -32t-40 -62q0 -70 118 -70l220 4q139 0 220 -64t81 -188q0 -175 -154 -293t-369 -118q-168 0 -269 81t-101 177t74 160q75 64 135 112q-162 60 -162 189
q124 55 192 131q-81 34 -133 108t-51 162zM756 1391q0 -287 -254 -287t-254 287h96q19 -160 158 -160q63 0 105 41q41 41 50 119h99z" />
    <glyph glyph-name="Gcommaaccent" unicode="&#x122;" horiz-adv-x="1325" 
d="M1155 410v-172q0 -125 10 -193q-233 -72 -383 -72q-305 1 -492 185t-188 487q0 211 90 370t252 245t344 86t340 -46q17 -211 33 -325l-88 -8q-22 134 -92 208q-71 74 -219 74q-201 1 -325 -151t-124 -422q1 -270 127 -438t355 -168q146 0 169 46q11 24 11 87v182
q0 73 -11 99t-51 37t-149 20v80h506v-80q-82 -12 -98 -30t-17 -101zM739 -346q0 44 -28 77q-29 33 -76 46q-25 6 -25 43q0 38 27 62t61 24q64 0 118 -59t54 -148q0 -188 -239 -268l-27 69q135 59 135 154z" />
    <glyph glyph-name="gcommaaccent" unicode="&#x123;" horiz-adv-x="1003" 
d="M514 1317q0 -44 28.5 -77t75.5 -46q25 -6 25 -43t-26.5 -61.5t-61.5 -24.5q-63 0 -117.5 59t-54.5 148q0 188 240 268l26 -70q-135 -59 -135 -153zM817 -178q0 92 -66.5 135t-216.5 43t-218 -67t-68 -147t76 -137t203 -57t208.5 69t81.5 161zM668 617q0 111 -50 177
t-131 66t-127.5 -55.5t-46.5 -166.5t52.5 -179t132.5 -68t125 57.5t45 168.5zM125 598q0 166 115.5 260t255.5 94q74 0 138 -24l62 -27q73 0 273 27l12 -21q-36 -83 -82 -112l-106 8q49 -76 49 -170q0 -151 -108.5 -243.5t-256.5 -92.5l-63 4q-11 0 -50.5 -32t-39.5 -62
q0 -70 118 -70l220 4q139 0 220 -64t81 -188q0 -176 -154 -293.5t-369 -117.5q-168 0 -269 81t-101 177t74.5 160t134.5 112q-162 60 -162 189q124 55 192 131q-81 33 -132.5 107.5t-51.5 162.5z" />
    <glyph glyph-name="Imacron" unicode="&#x12a;" horiz-adv-x="708" 
d="M264 264v791q0 122 -26 149q-27 27 -148 35v80h528v-80q-122 -8 -148 -35t-26 -149v-791q0 -88 10 -122t44 -46q33 -12 120 -16v-80h-528v80q87 5 120 17q34 11 44 45t10 122zM612 1511h-516v129h516v-129z" />
    <glyph glyph-name="imacron" unicode="&#x12b;" horiz-adv-x="589" 
d="M225 233v400q0 79 -7 107t-31 39q-24 10 -95 20v69q156 28 305 84v-719q0 -101 22 -123t124 -30v-80h-461v80q100 9 122 31q21 22 21 122zM40 1272h512v-133h-512v133z" />
    <glyph glyph-name="Iogonek" unicode="&#x12e;" horiz-adv-x="708" 
d="M264 264v791q0 122 -26.5 149t-147.5 35v80h528v-80q-121 -8 -147.5 -35t-26.5 -149v-791q0 -88 10.5 -121.5t43.5 -45.5t120 -17v-80h-69q-143 -140 -143 -246q0 -50 30 -80t71 -30t95 20l27 -65q-115 -60 -136 -68t-47 -8q-86 0 -133 49t-47 119q0 135 174 309h-350v80
q87 5 120.5 17t43.5 45.5t10 121.5z" />
    <glyph glyph-name="iogonek" unicode="&#x12f;" horiz-adv-x="589" 
d="M225 233v400q0 79 -7 107.5t-30.5 38t-95.5 20.5v69q156 28 305 84v-719q0 -101 21.5 -122.5t124.5 -30.5v-80h-56q-143 -140 -143 -246q0 -50 30 -80t72 -30t95 20l26 -65q-115 -60 -135.5 -68t-46.5 -8q-86 0 -133 49t-47 119q0 135 174 309h-297v80q100 9 121.5 31
t21.5 122zM190 1296q0 50 35 86.5t85 36.5t85 -35t35 -87t-35 -87.5t-85 -35.5t-85 36t-35 86z" />
    <glyph glyph-name="Idotaccent" unicode="&#x130;" horiz-adv-x="708" 
d="M264 264v791q0 122 -26 149q-27 27 -148 35v80h528v-80q-122 -8 -148 -35t-26 -149v-791q0 -88 10 -122t44 -46q33 -12 120 -16v-80h-528v80q87 5 120 17q34 11 44 45t10 122zM472 1569q0 -51 -33 -83t-84 -32t-84 32t-32 83q0 51 33 87q34 36 84 36t82 -36
q34 -36 34 -87z" />
    <glyph glyph-name="dotlessi" unicode="&#x131;" horiz-adv-x="589" 
d="M225 233v400q0 79 -7 107.5t-30.5 38t-95.5 20.5v69q156 28 305 84v-719q0 -101 21.5 -122.5t124.5 -30.5v-80h-461v80q100 9 121.5 31t21.5 122z" />
    <glyph glyph-name="Kcommaaccent" unicode="&#x136;" horiz-adv-x="1347" 
d="M264 260v797q0 86 -11 120q-11 33 -44 45t-121 17v80h522v-80q-116 -8 -142 -35t-26 -147v-332q44 6 92 41q47 34 144 150q204 243 206 285q0 11 -12 21t-90 17v80h492v-80q-158 -10 -246 -94q-40 -37 -174 -179t-190 -210q95 -141 246 -335q150 -195 198 -245t89 -71
t101 -25v-80h-305q-59 68 -239 318t-212 288t-100 39v-385q0 -120 27 -146t152 -34v-80h-521v80q114 8 139 34t25 146zM711 -63q63 0 117 -59t55 -148q0 -188 -240 -269l-27 70q135 59 136 154q0 45 -29 77t-76 45q-25 5 -25 43t28 62q26 24 61 25z" />
    <glyph glyph-name="kcommaaccent" unicode="&#x137;" horiz-adv-x="1085" 
d="M193 231v938q0 75 -9 103q-8 28 -34 36t-101 11v80q162 20 316 74v-945q73 14 112 50t101 124q62 90 63 107q0 27 -59 29v80l422 20v-78q-104 -16 -174 -54t-248 -257q38 -61 180 -226t194 -203t117 -40v-80h-270l-232 286q-116 141 -134 153q-19 12 -32 12t-40 -7v-213
q1 -99 23 -121t124 -30v-80h-479v80q112 8 136 30t24 121zM498 -94q63 0 117 -59t55 -148q0 -188 -240 -268l-27 69q135 59 136 154q0 44 -29 77t-76 46q-24 6 -24 43q0 38 26 62t62 24z" />
    <glyph glyph-name="Lacute" unicode="&#x139;" horiz-adv-x="1097" 
d="M264 262v793q0 122 -27 149t-151 35v80h539v-80q-126 -8 -153 -35t-28 -149v-779q0 -130 43 -156t156 -26t163 14q95 28 159 238l88 -12q-36 -224 -68 -334h-899v78q126 10 152 36t26 148zM830 1618q0 -14 -11 -24q-12 -8 -134 -51l-277 -97l-39 67l231 144
q106 67 114 69l16 4q28 0 64 -49t36 -63z" />
    <glyph glyph-name="lacute" unicode="&#x13a;" horiz-adv-x="559" 
d="M193 231v940q0 76 -8 103t-34 35t-102 12v78q99 10 316 74v-1242q-1 -100 21 -121t126 -30v-80h-467v80q102 8 125 30t23 121zM510 1832q28 0 64 -49t36 -63t-12 -23q-12 -8 -133 -51l-278 -98l-39 68l232 143q106 67 114 70t16 3z" />
    <glyph glyph-name="Lcommaaccent" unicode="&#x13b;" horiz-adv-x="1097" 
d="M264 262v793q0 122 -27 149t-151 35v80h539v-80q-126 -8 -153 -35t-28 -149v-779q0 -130 43 -156t156 -26t163 14q95 28 159 238l88 -12q-36 -224 -68 -334h-899v78q126 10 152 36t26 148zM545 -346q0 44 -29 77t-76 46q-24 6 -24 43q0 38 26 62t62 24q64 0 118 -59
t54 -148q0 -188 -240 -268l-26 69q135 59 135 154z" />
    <glyph glyph-name="lcommaaccent" unicode="&#x13c;" horiz-adv-x="559" 
d="M193 231v940q0 76 -8 103t-34 35t-102 12v78q99 10 316 74v-1242q-1 -100 21 -121t126 -30v-80h-467v80q102 8 125 30t23 121zM274 -346q0 44 -28 77q-29 33 -76 46q-25 6 -25 43q0 38 27 62t61 24q63 0 117 -59t56 -148q0 -188 -240 -268l-27 69q135 59 135 154z" />
    <glyph glyph-name="Lcaron" unicode="&#x13d;" horiz-adv-x="1097" 
d="M264 262v793q0 122 -27 149t-151 35v80h539v-80q-126 -8 -153 -35t-28 -149v-779q0 -130 43 -156t156 -26t163 14q95 28 159 238l88 -12q-36 -224 -68 -334h-899v78q126 10 152 36t26 148zM872 1231q0 44 -28 77q-29 33 -76 46q-25 6 -25 43t27 61t61 25q63 0 117 -59
t56 -148q0 -188 -240 -268l-27 69q135 59 135 154z" />
    <glyph glyph-name="lcaron" unicode="&#x13e;" horiz-adv-x="733" 
d="M193 231v940q0 76 -8 103t-34 35t-102 12v78q99 10 316 74v-1242q-1 -100 21 -121t126 -30v-80h-467v80q102 8 125 30t23 121zM592 1221q0 45 -29 77t-76 45q-25 5 -25 43t28 62q26 24 61 25q63 0 117 -59t55 -148q0 -188 -240 -269l-26 70q135 59 135 154z" />
    <glyph glyph-name="Lslash" unicode="&#x141;" horiz-adv-x="1120" 
d="M469 293q0 -129 31 -164t176 -35t201.5 37t111.5 215l88 -14q-43 -251 -69 -332h-897v78q124 8 151 35t27 149v289l-189 -141v116l189 144v385q0 122 -26.5 149t-149.5 35v80h536v-80q-126 -8 -153 -35t-27 -149v-244l236 176v-123l-236 -176v-395z" />
    <glyph glyph-name="lslash" unicode="&#x142;" horiz-adv-x="608" 
d="M387 223q0 -93 21.5 -113.5t123.5 -29.5v-80h-462v80q102 9 123.5 29.5t21.5 113.5v367l-176 -162v123l176 162v458q0 77 -7.5 104.5t-33.5 35t-100 10.5v78q190 27 313 74v-605l197 181v-123l-197 -181v-522z" />
    <glyph glyph-name="Nacute" unicode="&#x143;" horiz-adv-x="1423" 
d="M260 522v432q0 141 -10 185q-21 91 -195 100v80h307l701 -987h6v459q0 349 -35 395t-168 53v80h500v-80q-138 -3 -160 -73t-22 -375v-805h-101l-702 1009h-6v-473q1 -303 23 -371t182 -71v-80h-496v80q133 2 155 72q21 70 21 370zM994 1618q0 -14 -11 -24
q-12 -8 -134 -51l-278 -97l-39 67l232 144q106 67 114 69l16 4q28 0 64 -49t36 -63z" />
    <glyph glyph-name="nacute" unicode="&#x144;" horiz-adv-x="1155" 
d="M225 229v420q0 101 -17 121t-108 31v69q175 33 297 84v-147q182 145 302 145t192 -77t72 -207v-437q0 -98 20 -120t109 -31v-80h-424v80q85 10 104 30t19 111v365q-1 121 -41 176t-136 55t-217 -119v-467q-1 -99 19 -121t108 -30v-80h-446v80q87 6 117 24t30 125z
M707 1435q15 0 66 -30t51 -54q0 -13 -8 -25t-98 -94l-208 -185l-66 53l159 226q63 91 76 100t28 9z" />
    <glyph glyph-name="Ncommaaccent" unicode="&#x145;" horiz-adv-x="1423" 
d="M260 522v432q0 141 -10 185q-21 91 -195 100v80h307l701 -987h6v459q0 349 -35 395t-168 53v80h500v-80q-138 -3 -160 -73t-22 -375v-805h-101l-702 1009h-6v-473q1 -303 23 -371t182 -71v-80h-496v80q133 2 155 72q21 70 21 370zM618 -150q0 38 27 62t62 25
q63 0 117 -59t55 -148q0 -188 -240 -269l-27 70q135 59 136 154q0 45 -29 77t-76 45q-25 5 -25 43z" />
    <glyph glyph-name="ncommaaccent" unicode="&#x146;" horiz-adv-x="1155" 
d="M225 229v420q0 101 -17 121t-108 31v69q175 33 297 84v-147q182 145 302 145t192 -77t72 -207v-437q0 -98 20 -120t109 -31v-80h-424v80q85 10 104 30t19 111v365q-1 121 -41 176t-136 55t-217 -119v-467q-1 -99 19 -121t108 -30v-80h-446v80q87 6 117 24t30 125z
M573 -346q0 44 -28 77q-29 33 -76 46q-25 6 -25 43q0 38 27 62t61 24q64 0 118 -59t55 -148q0 -188 -240 -268l-27 69q135 59 135 154z" />
    <glyph glyph-name="Ncaron" unicode="&#x147;" horiz-adv-x="1423" 
d="M260 522v432q0 141 -10 185q-21 91 -195 100v80h307l701 -987h6v459q0 349 -35 395t-168 53v80h500v-80q-138 -3 -160 -73t-22 -375v-805h-101l-702 1009h-6v-473q1 -303 23 -371t182 -71v-80h-496v80q133 2 155 72q21 70 21 370zM745 1444h-67q-94 97 -256 209l43 69
q137 -56 248 -135q129 86 245 135l46 -69q-142 -91 -259 -209z" />
    <glyph glyph-name="ncaron" unicode="&#x148;" horiz-adv-x="1155" 
d="M225 229v420q0 101 -17 121t-108 31v69q175 33 297 84v-147q182 145 302 145t192 -77t72 -207v-437q0 -98 20 -120t109 -31v-80h-424v80q85 10 104 30t19 111v365q-1 121 -41 176t-136 55t-217 -119v-467q-1 -99 19 -121t108 -30v-80h-446v80q87 6 117 24t30 125z
M614 1063h-77q-75 144 -207 330l82 53q127 -158 163 -211q29 41 166 211l82 -53q-140 -196 -209 -330z" />
    <glyph glyph-name="Omacron" unicode="&#x14c;" horiz-adv-x="1386" 
d="M723 70q350 0 350 564q0 290 -105 452q-105 163 -298 163q-163 0 -258 -143t-95 -418q0 -274 108 -446t298 -172zM690 -27q-258 0 -422 191q-166 191 -166 481t168 495t441 206q241 0 407 -188t166 -493q0 -304 -168 -498t-426 -194zM951 1511h-516v129h516v-129z" />
    <glyph glyph-name="omacron" unicode="&#x14d;" horiz-adv-x="1083" 
d="M532 854q-238 0 -237 -358q0 -184 74 -302q74 -120 196 -120t173 87q50 87 50 279t-69 302q-69 112 -187 112zM94 420q0 172 61 289q60 117 166 180t222 63q193 0 317 -136t125 -350q0 -215 -131 -353q-130 -138 -320 -138t-315 137q-125 136 -125 308zM287 1272h512
v-133h-512v133z" />
    <glyph glyph-name="Ohungarumlaut" unicode="&#x150;" horiz-adv-x="1386" 
d="M723 70q350 0 350 564q0 290 -105 452q-105 163 -298 163q-163 0 -258 -143t-95 -418q0 -274 108 -446t298 -172zM690 -27q-258 0 -422 191q-166 191 -166 481t168 495t441 206q241 0 407 -188t166 -493q0 -304 -168 -498t-426 -194zM1024 1732q18 0 52 -50t34 -64
t-10 -22t-104 -52l-214 -98l-41 70q253 208 259 212t24 4zM679 1774q24 0 58 -50t34 -63q0 -14 -10 -22t-105 -51l-214 -99l-43 67l178 145q82 65 88 69t14 4z" />
    <glyph glyph-name="ohungarumlaut" unicode="&#x151;" horiz-adv-x="1083" 
d="M532 854q-238 0 -237 -358q0 -184 74 -302q74 -120 196 -120t173 87q50 87 50 279t-69 302q-69 112 -187 112zM94 420q0 172 61 289q60 117 166 180t222 63q193 0 317 -136t125 -350q0 -215 -131 -353q-130 -138 -320 -138t-315 137q-125 136 -125 308zM861 1453
q15 0 65 -30t50 -53q0 -12 -8 -24t-99 -94l-207 -185l-62 49l159 231q61 90 74 98t28 8zM532 1496q16 0 64 -30q50 -30 50 -54q0 -12 -8 -23t-98 -94l-206 -185l-64 49l159 231q61 90 74 98t29 8z" />
    <glyph glyph-name="OE" unicode="&#x152;" horiz-adv-x="1880" 
d="M995 227v899q0 54 -15.5 84.5t-186.5 30.5q-226 0 -354 -151.5t-128 -423.5t129 -431t365 -159q140 0 165 41.5t25 109.5zM1176 1161v-426h176q89 0 122.5 8.5t45 34t22.5 99.5h88v-394h-88q-13 79 -26 106.5t-45.5 36.5t-118.5 9h-176v-322q0 -103 13.5 -148.5t56 -59
t140.5 -13.5t143.5 5t80 21.5t71 80.5t60.5 141l86 -12q-28 -183 -68 -328h-649q-97 0 -192 -10t-140 -10q-310 0 -493 185t-183 476q0 207 92 365.5t258 245.5t369 87q65 0 148 -10t174 -10h567q17 -244 23 -299l-88 -8q-27 123 -66 168t-193 45h-149q-47 0 -54 -9t-7 -55z
" />
    <glyph glyph-name="oe" unicode="&#x153;" horiz-adv-x="1605" 
d="M1348 659q0 89 -50 142t-130 53t-142.5 -67.5t-79.5 -188.5l365 6q24 0 30.5 12t6.5 43zM772 428q0 195 -64.5 310.5t-191.5 115.5q-98 0 -158.5 -89t-60.5 -269t73 -300t191 -120q211 0 211 352zM1186 -25q-215 0 -330 172q-63 -82 -152.5 -127t-173.5 -45
q-190 0 -312 139t-122 324q0 234 136.5 374t306.5 140q102 0 188.5 -51.5t138.5 -146.5q142 199 346 198q130 0 226 -100.5t96 -235.5q0 -51 -9 -68t-66 -28.5t-525 -30.5q0 -183 91 -271.5t225 -88.5t218 98l50 -61q-76 -95 -166 -143t-166 -48z" />
    <glyph glyph-name="Racute" unicode="&#x154;" horiz-adv-x="1286" 
d="M442 1155v-493h97q108 0 169 31t96 101t36 156q0 133 -78 205t-205 72q-81 0 -98 -14t-17 -58zM264 262v793q0 87 -10 121t-42 45t-116 18v80h494q442 0 442 -336q0 -239 -237 -354q210 -359 302 -461q93 -101 165 -115l-9 -69q-153 0 -233 36t-154 136q-73 101 -207 346
q-35 68 -135 67h-82v-307q0 -86 11 -120t44 -46t119 -16v-80h-530v80q125 8 152 34q26 26 26 148zM463 1513l231 144q106 67 114 69l16 4q28 0 64 -49t36 -63t-11 -24q-12 -8 -134 -51l-277 -97z" />
    <glyph glyph-name="racute" unicode="&#x155;" horiz-adv-x="808" 
d="M225 231v412q0 105 -17 127t-112 33v69q172 33 301 82v-217h4q53 99 121 157t124 58t92 -34t36 -81q0 -46 -32 -80t-58 -34t-37 12q-39 39 -75 39t-71 -27q-34 -27 -69 -90t-35 -84v-344q0 -98 25 -119t147 -30v-80h-487v80q100 8 122 30t21 121zM596 1435q14 0 66 -30
t52 -54q0 -13 -8 -25t-99 -94l-208 -185l-65 53l159 226q63 91 76 100t27 9z" />
    <glyph glyph-name="Rcommaaccent" unicode="&#x156;" horiz-adv-x="1286" 
d="M442 1155v-493h97q108 0 169 31t96 101t36 156q0 133 -78 205t-205 72q-81 0 -98 -14t-17 -58zM264 262v793q0 87 -10 121t-42 45t-116 18v80h494q442 0 442 -336q0 -239 -237 -354q210 -359 302 -461q93 -101 165 -115l-9 -69q-153 0 -233 36t-154 136q-73 101 -207 346
q-35 68 -135 67h-82v-307q0 -86 11 -120t44 -46t119 -16v-80h-530v80q125 8 152 34q26 26 26 148zM711 -63q63 0 117 -59t55 -148q0 -188 -240 -269l-27 70q135 59 136 154q0 45 -29 77t-76 45q-25 5 -25 43t28 62q26 24 61 25z" />
    <glyph glyph-name="rcommaaccent" unicode="&#x157;" horiz-adv-x="808" 
d="M225 231v412q0 105 -17 127t-112 33v69q172 33 301 82v-217h4q53 99 121 157t124 58t92 -34t36 -81q0 -46 -32 -80t-58 -34t-37 12q-39 39 -75 39t-71 -27q-34 -27 -69 -90t-35 -84v-344q0 -98 25 -119t147 -30v-80h-487v80q100 8 122 30t21 121zM358 -346q0 44 -28 77
q-29 33 -76 46q-25 6 -25 43q0 38 27 62t61 24q63 0 117 -59t55 -148q0 -188 -239 -268l-27 69q135 59 135 154z" />
    <glyph glyph-name="Rcaron" unicode="&#x158;" horiz-adv-x="1286" 
d="M442 1155v-493h97q108 0 169 31t96 101t36 156q0 133 -78 205t-205 72q-81 0 -98 -14t-17 -58zM264 262v793q0 87 -10 121t-42 45t-116 18v80h494q442 0 442 -336q0 -239 -237 -354q210 -359 302 -461q93 -101 165 -115l-9 -69q-153 0 -233 36t-154 136q-73 101 -207 346
q-35 68 -135 67h-82v-307q0 -86 11 -120t44 -46t119 -16v-80h-530v80q125 8 152 34q26 26 26 148zM635 1454h-68q-94 97 -256 209l43 70q137 -56 248 -136q129 86 246 136l45 -70q-141 -91 -258 -209z" />
    <glyph glyph-name="rcaron" unicode="&#x159;" horiz-adv-x="808" 
d="M225 231v412q0 105 -17 127t-112 33v69q172 33 301 82v-217h4q53 99 121 157t124 58t92 -34t36 -81q0 -46 -32 -80t-58 -34t-37 12q-39 39 -75 39t-71 -27q-34 -27 -69 -90t-35 -84v-344q0 -98 25 -119t147 -30v-80h-487v80q100 8 122 30t21 121zM443 1063h-77
q-75 144 -207 330l82 53q127 -158 163 -211q29 41 166 211l82 -53q-140 -196 -209 -330z" />
    <glyph glyph-name="Sacute" unicode="&#x15a;" horiz-adv-x="997" 
d="M504 70q105 0 166 61t61 159t-50 167q-51 69 -223 153t-240 176t-68 195q0 156 113 260t296 105q118 0 258 -50l39 -288l-88 -13q-36 142 -94 197t-152 55t-147 -55q-53 -54 -53 -146t59 -154t184 -118q204 -93 273 -190t69 -215q0 -173 -125 -285t-317 -111
q-144 0 -313 70q-15 47 -60 326l86 14q99 -313 326 -313zM381 1513l231 144q106 67 114 69l16 4q28 0 64 -49t36 -63t-11 -24q-12 -8 -134 -51l-277 -97z" />
    <glyph glyph-name="sacute" unicode="&#x15b;" horiz-adv-x="837" 
d="M426 856q-57 0 -93 -35t-36 -90q0 -99 176 -170q270 -105 270 -297q0 -130 -106 -209t-250 -80q-97 -1 -162 29t-90 48q-14 10 -24 94t-11 167l78 15q28 -112 96 -184t140 -72q70 0 112 36q41 36 41 95q0 123 -152 185t-214 131q-61 68 -62 153q0 120 93 200t239 80
q98 0 184 -39q32 -62 56 -235l-82 -19q-76 197 -203 197zM590 1435q14 0 66 -30q51 -30 52 -54q0 -13 -8 -25t-99 -94l-208 -185l-65 53l158 226q62 91 76 100t28 9z" />
    <glyph glyph-name="Scedilla" unicode="&#x15e;" horiz-adv-x="997" 
d="M504 70q105 0 166 60.5t61 159.5t-50.5 167.5t-222.5 152.5t-240 176.5t-68 194.5q0 156 113 260.5t296 104.5q118 0 258 -50l39 -288l-88 -13q-36 142 -94.5 197t-151.5 55t-146.5 -54.5t-53.5 -146.5t59 -153.5t184 -118.5q204 -93 273 -190.5t69 -227.5t-91 -237
t-249 -135q-47 -65 -51 -71.5t-4 -18.5t27 -41q78 -84 77 -152q0 -140 -237 -223l-39 76q129 68 129 131q0 25 -45 69q-45 49 -45 71t6.5 39t73.5 109q-137 0 -307 70q-15 47 -60 326l86 14q99 -313 326 -313z" />
    <glyph glyph-name="scedilla" unicode="&#x15f;" horiz-adv-x="837" 
d="M426 856q-57 0 -93 -35.5t-36 -89.5q0 -99 176 -170q270 -105 270 -297q0 -96 -61 -167t-172 -105q-52 -75 -56 -81t-4 -18t25 -40q78 -84 78 -152q0 -140 -238 -223l-41 78q129 62 129 129q-1 23 -45 71t-44 72t9 40t74 107q-77 1 -169 29t-103 66q-25 88 -25 243l78 15
q28 -112 97 -184t139 -72t111.5 35.5t41.5 95.5q0 123 -152 185t-214 130.5t-62 153.5q0 120 93.5 200t238.5 80q98 0 184 -39q32 -62 56 -235l-82 -19q-76 197 -203 197z" />
    <glyph glyph-name="Scaron" unicode="&#x160;" horiz-adv-x="997" 
d="M504 70q105 0 166 61t61 159t-50 167q-51 69 -223 153t-240 176t-68 195q0 156 113 260t296 105q118 0 258 -50l39 -288l-88 -13q-36 142 -94 197t-152 55t-147 -55q-53 -54 -53 -146t59 -154t184 -118q204 -93 273 -190t69 -215q0 -173 -125 -285t-317 -111
q-144 0 -313 70q-15 47 -60 326l86 14q99 -313 326 -313zM550 1453h-68q-94 97 -256 209l43 70q137 -56 248 -136q129 86 246 136l45 -70q-141 -91 -258 -209z" />
    <glyph glyph-name="scaron" unicode="&#x161;" horiz-adv-x="837" 
d="M426 856q-57 0 -93 -35t-36 -90q0 -99 176 -170q270 -105 270 -297q0 -130 -106 -209t-250 -80q-97 -1 -162 29t-90 48q-14 10 -24 94t-11 167l78 15q28 -112 96 -184t140 -72q70 0 112 36q41 36 41 95q0 123 -152 185t-214 131q-61 68 -62 153q0 120 93 200t239 80
q98 0 184 -39q32 -62 56 -235l-82 -19q-76 197 -203 197zM478 1062h-78q-75 144 -206 330l81 53q127 -158 164 -211q29 41 166 211l82 -53q-140 -196 -209 -330z" />
    <glyph glyph-name="Tcommaaccent" unicode="&#x162;" horiz-adv-x="1220" 
d="M518 283v940h-94q-139 1 -183 -39t-77 -185h-86l22 371h54q30 -51 102 -51h717q35 0 52 9t42 42h53q2 -112 21 -364l-88 -7q-27 147 -71 186q-45 38 -177 38h-107v-940q0 -97 12 -135t51 -50q39 -13 142 -18v-80h-581v80q99 5 136 18q36 12 48 50t12 135zM606 -346
q0 44 -28 77q-29 33 -76 46q-25 6 -25 43q0 38 27 62t61 24q63 0 117 -59t55 -148q0 -188 -239 -268l-27 69q135 59 135 154z" />
    <glyph glyph-name="tcommaaccent" unicode="&#x163;" horiz-adv-x="665" 
d="M207 231v598h-139l-15 31l60 68h94v135l133 137l39 -2v-270h221q10 -14 10 -46t-24 -53h-207v-536q0 -190 110 -191q51 0 117 29l27 -76q-143 -61 -171 -70t-61 -10q-93 0 -143 66t-51 190zM369 -94q63 0 117 -59t55 -148q0 -188 -240 -268l-27 69q135 59 136 154
q0 44 -29 77t-76 46q-25 6 -25 43q0 38 28 62q26 24 61 24z" />
    <glyph glyph-name="Tcaron" unicode="&#x164;" horiz-adv-x="1220" 
d="M518 283v940h-94q-139 1 -183 -39t-77 -185h-86l22 371h54q30 -51 102 -51h717q35 0 52 9t42 42h53q2 -112 21 -364l-88 -7q-27 147 -71 186q-45 38 -177 38h-107v-940q0 -97 12 -135t51 -50q39 -13 142 -18v-80h-581v80q99 5 136 18q36 12 48 50t12 135zM643 1454h-68
q-94 97 -256 209l43 70q137 -56 248 -136q129 86 246 136l45 -70q-141 -91 -258 -209z" />
    <glyph glyph-name="tcaron" unicode="&#x165;" horiz-adv-x="768" 
d="M207 231v598h-139l-15 31l60 68h94v135l133 137l39 -2v-270h221q10 -14 10 -46t-24 -53h-207v-536q0 -190 110 -191q51 0 117 29l27 -76q-143 -61 -171 -70t-61 -10q-93 0 -143 66t-51 190zM614 1231q0 44 -28 77q-29 33 -76 46q-25 6 -25 43t27 61t61 25q63 0 117 -59
t55 -148q0 -188 -239 -268l-27 69q135 59 135 154z" />
    <glyph glyph-name="Umacron" unicode="&#x16a;" horiz-adv-x="1431" 
d="M248 518v541q0 119 -27 147t-151 33v80h528v-80q-118 -8 -144 -35t-26 -145v-469q0 -327 134 -432q70 -55 196 -56q175 0 253 140t79 420v120q0 342 -26 398t-179 59v80h501v-80q-140 0 -161 -73t-21 -384v-155q0 -375 -143 -514t-359 -139t-335 126q-119 127 -119 418z
M1005 1511h-517v129h517v-129z" />
    <glyph glyph-name="umacron" unicode="&#x16b;" horiz-adv-x="1136" 
d="M770 698q0 103 -44 115q-23 6 -116 16v74q226 12 332 37v-704q0 -71 16 -90t68 -19h66v-78q-94 -10 -306 -74l-16 13v127q-174 -139 -301 -139t-195 78t-67 227v415q0 102 -37 114q-18 6 -90 17v74q99 4 305 39q-6 -93 -6 -301v-301q0 -113 41 -169t135 -56t215 106v479z
M313 1282h512v-133h-512v133z" />
    <glyph glyph-name="Uring" unicode="&#x16e;" horiz-adv-x="1431" 
d="M248 518v541q0 119 -27 147t-151 33v80h528v-80q-118 -8 -144 -35t-26 -145v-469q0 -327 134 -432q70 -55 196 -56q175 0 253 140t79 420v120q0 342 -26 398t-179 59v80h501v-80q-140 0 -161 -73t-21 -384v-155q0 -375 -143 -514t-359 -139t-335 126q-119 127 -119 418z
M749 1497q49 1 79 35t30 87t-30 85t-78 32t-79 -32q-30 -32 -30 -84t30 -88q30 -35 78 -35zM528 1619q0 91 65 148t155 57t154 -56q64 -58 65 -149q0 -91 -65 -151t-154 -59q-89 0 -155 59q-65 60 -65 151z" />
    <glyph glyph-name="uring" unicode="&#x16f;" horiz-adv-x="1136" 
d="M770 698q0 103 -44 115q-23 6 -116 16v74q226 12 332 37v-704q0 -71 16 -90t68 -19h66v-78q-94 -10 -306 -74l-16 13v127q-174 -139 -301 -139t-195 78t-67 227v415q0 102 -37 114q-18 6 -90 17v74q99 4 305 39q-6 -93 -6 -301v-301q0 -113 41 -169t135 -56t215 106v479z
M570 1149q48 1 79 35t31 86t-30 86q-30 33 -79 33q-49 -1 -79 -33t-29 -84q0 -52 30 -88q29 -35 77 -35zM350 1272q0 92 66 148t154 56t154 -56q64 -58 64 -149t-65 -151t-154 -59q-89 -1 -154 59t-65 152z" />
    <glyph glyph-name="Uhungarumlaut" unicode="&#x170;" horiz-adv-x="1431" 
d="M248 518v541q0 119 -27 147t-151 33v80h528v-80q-118 -8 -144 -35t-26 -145v-469q0 -327 134 -432q70 -55 196 -56q175 0 253 140t79 420v120q0 342 -26 398t-179 59v80h501v-80q-140 0 -161 -73t-21 -384v-155q0 -375 -143 -514t-359 -139t-335 126q-119 127 -119 418z
M1046 1732q18 0 52 -50t34 -64t-10 -22t-103 -52l-214 -98l-41 70l258 212q6 4 24 4zM701 1774q24 0 58 -50q35 -50 35 -63q0 -14 -10 -22t-105 -51l-214 -99l-43 67l177 145q82 65 88 69t14 4z" />
    <glyph glyph-name="uhungarumlaut" unicode="&#x171;" horiz-adv-x="1136" 
d="M770 698q0 103 -44 115q-23 6 -116 16v74q226 12 332 37v-704q0 -71 16 -90t68 -19h66v-78q-94 -10 -306 -74l-16 13v127q-174 -139 -301 -139t-195 78t-67 227v415q0 102 -37 114q-18 6 -90 17v74q99 4 305 39q-6 -93 -6 -301v-301q0 -113 41 -169t135 -56t215 106v479z
M982 1350q0 -12 -8 -24t-98 -94l-208 -185l-62 49l159 230q61 90 74 98t28 8t65 -30t50 -52zM652 1392q0 -12 -7 -24q-8 -11 -99 -93l-206 -185l-64 49l159 230q61 90 74 98q13 9 29 9t65 -30t49 -54z" />
    <glyph glyph-name="Uogonek" unicode="&#x172;" horiz-adv-x="1431" 
d="M248 518v541q0 119 -27 146.5t-151 33.5v80h528v-80q-118 -8 -144 -34.5t-26 -145.5v-469q0 -325 102 -406.5t228 -81.5q175 0 253.5 140t78.5 420v120q0 342 -26 397.5t-179 59.5v80h501v-80q-140 0 -161 -72.5t-21 -384.5v-155q0 -262 -65 -395.5t-158 -182.5
q-116 -100 -165.5 -168.5t-49.5 -124.5t32 -86t77 -30t102 20l22 -57q-119 -62 -140 -70t-44 -8q-91 0 -139.5 48.5t-48.5 119.5q0 124 172 289q-38 -8 -82 -9q-231 0 -350 127t-119 418z" />
    <glyph glyph-name="uogonek" unicode="&#x173;" horiz-adv-x="1136" 
d="M770 698q0 104 -33.5 112.5t-126.5 18.5v74q226 12 332 37v-704q0 -71 16 -90t68 -19h66v-78q-195 -174 -195 -295q0 -50 30 -80t71 -30t96 20l26 -65q-115 -60 -135.5 -68t-46.5 -8q-86 0 -133 49t-47 119q0 146 194 332q-56 -14 -166 -48l-16 13v127
q-174 -139 -301 -139t-194.5 78t-67.5 227v415q0 101 -27 110.5t-100 20.5v74q99 4 305 39q-6 -93 -6 -301v-301q0 -113 41 -169t135 -56t215 106v479z" />
    <glyph glyph-name="Ydieresis" unicode="&#x178;" horiz-adv-x="1255" 
d="M530 260v258q0 49 -20 90l-151 279q-115 219 -141 263t-58 62t-109 27v80h475v-80q-62 -6 -92 -15t-30 -30q0 -14 11 -38l97 -187q87 -165 143 -262q227 441 227 475t-32 43q-34 9 -105 14v80h459v-80q-72 -7 -108 -23t-81 -72q-44 -56 -162 -280t-130 -253t-12 -72v-279
q0 -120 30 -146t170 -34v-80h-571v80q133 8 162 34q28 26 28 146zM569 1575q1 -51 -33 -85t-86 -34t-88 33q-34 33 -34 85t34 91q34 37 86 37t86 -38t35 -89zM983 1574q0 -52 -34 -84q-34 -34 -86 -34t-86 33t-34 85t35 90t85 38t85 -38t35 -90z" />
    <glyph glyph-name="Zacute" unicode="&#x179;" horiz-adv-x="1171" 
d="M344 1319h711l18 -33l-749 -1180q116 -12 262 -12t228 16q81 16 125 65q44 48 95 185l88 -16q-53 -290 -69 -344h-963l-20 39l757 1184h-262q-174 -1 -226 -41t-85 -195l-88 2q18 280 22 381h56q18 -34 36 -42t64 -9zM467 1513l231 144q106 67 114 69l16 4q28 0 64 -49
t36 -63t-11 -24q-12 -8 -134 -51l-277 -97z" />
    <glyph glyph-name="zacute" unicode="&#x17a;" horiz-adv-x="905" 
d="M322 928h481l20 -31q-288 -449 -501 -801h190q98 0 155 25q56 25 124 168l83 -31q-42 -137 -90 -258h-686l-18 31l169 264l335 536h-172q-117 0 -162 -67q-22 -33 -64 -129l-84 27q38 143 68 311h47q14 -45 105 -45zM664 1435q15 0 66 -30t51 -54q1 -13 -7 -25t-99 -94
l-208 -185l-66 53l159 226q63 91 76 100t28 9z" />
    <glyph glyph-name="Zdotaccent" unicode="&#x17b;" horiz-adv-x="1171" 
d="M344 1319h711l18 -33l-749 -1180q116 -12 262 -12t228 16q81 16 125 65q44 48 95 185l88 -16q-53 -290 -69 -344h-963l-20 39l757 1184h-262q-174 -1 -226 -41t-85 -195l-88 2q18 280 22 381h56q18 -34 36 -42t64 -9zM758 1569q0 -51 -33 -83t-84 -32t-84 32t-33 83
t34 87t84 36t82 -36q34 -36 34 -87z" />
    <glyph glyph-name="zdotaccent" unicode="&#x17c;" horiz-adv-x="905" 
d="M322 928h481l20 -31q-288 -449 -501 -801h190q98 0 155 25q56 25 124 168l83 -31q-42 -137 -90 -258h-686l-18 31l169 264l335 536h-172q-117 0 -162 -67q-22 -33 -64 -129l-84 27q38 143 68 311h47q14 -45 105 -45zM635 1220q0 -52 -34 -84q-35 -34 -87 -34t-85 33
t-33 85t33 88t85 36t87 -36q34 -36 34 -88z" />
    <glyph glyph-name="Zcaron" unicode="&#x17d;" horiz-adv-x="1171" 
d="M344 1319h711l18 -33l-749 -1180q116 -12 262 -12t228 16q81 16 125 65q44 48 95 185l88 -16q-53 -290 -69 -344h-963l-20 39l757 1184h-262q-174 -1 -226 -41t-85 -195l-88 2q18 280 22 381h56q18 -34 36 -42t64 -9zM647 1454h-67q-94 97 -256 209l43 70
q137 -56 247 -136q129 86 246 136l45 -70q-141 -91 -258 -209z" />
    <glyph glyph-name="zcaron" unicode="&#x17e;" horiz-adv-x="905" 
d="M322 928h481l20 -31q-288 -449 -501 -801h190q98 0 155 25q56 25 124 168l83 -31q-42 -137 -90 -258h-686l-18 31l169 264l335 536h-172q-117 0 -162 -67q-22 -33 -64 -129l-84 27q38 143 68 311h47q14 -45 105 -45zM518 1062h-78q-75 144 -207 330l82 53
q127 -158 164 -211q29 41 166 211l82 -53q-140 -196 -209 -330z" />
    <glyph glyph-name="florin" unicode="&#x192;" horiz-adv-x="966" 
d="M195 772h194q42 303 178 432t254 129q42 0 87.5 -27.5t45.5 -57.5t-21.5 -61.5t-37.5 -31.5t-25 4q-88 49 -148 49t-91 -81t-62 -355h230v-94h-240q-58 -440 -67 -499.5t-49 -173.5t-133.5 -201t-186.5 -87q-41 0 -76 23.5t-35 49.5t25 61.5t37 35.5q12 -1 58 -19
q44 -18 80 -18t64.5 43.5t53.5 287.5l49 497h-184v94z" />
    <glyph glyph-name="Scommaaccent" unicode="&#x218;" horiz-adv-x="997" 
d="M504 70q105 0 166 61t61 159t-50 167q-51 69 -223 153t-240 176t-68 195q0 156 113 260t296 105q118 0 258 -50l39 -288l-88 -13q-36 142 -94 197t-152 55t-147 -55q-53 -54 -53 -146t59 -154t184 -118q204 -93 273 -190t69 -215q0 -173 -125 -285t-317 -111
q-144 0 -313 70q-15 47 -60 326l86 14q99 -313 326 -313zM504 -346q0 44 -29 77t-76 46q-25 6 -25 43q0 38 28 62q26 24 61 24q63 0 117 -59t55 -148q0 -188 -240 -268l-26 69q135 59 135 154z" />
    <glyph glyph-name="scommaaccent" unicode="&#x219;" horiz-adv-x="837" 
d="M426 856q-57 0 -93 -35t-36 -90q0 -99 176 -170q270 -105 270 -297q0 -130 -106 -209t-250 -80q-97 -1 -162 29t-90 48q-14 10 -24 94t-11 167l78 15q28 -112 96 -184t140 -72q70 0 112 36q41 36 41 95q0 123 -152 185t-214 131q-61 68 -62 153q0 120 93 200t239 80
q98 0 184 -39q32 -62 56 -235l-82 -19q-76 197 -203 197zM424 -346q0 44 -29 77t-76 46q-25 6 -25 43q0 38 28 62q27 24 61 24q63 0 117 -59t55 -148q0 -188 -240 -268l-26 69q135 59 135 154z" />
    <glyph glyph-name="circumflex" unicode="&#x2c6;" 
d="M371 1409h78q72 -138 206 -332l-84 -53q-151 198 -161 213l-166 -213l-82 53q143 205 209 332z" />
    <glyph glyph-name="caron" unicode="&#x2c7;" 
d="M446 1042h-77q-75 144 -207 330l82 53q127 -158 164 -211q29 41 165 211l82 -53q-140 -196 -209 -330z" />
    <glyph glyph-name="uni02C9" unicode="&#x2c9;" horiz-adv-x="1024" 
d="M0 1573h1024v-103h-1024v103z" />
    <glyph glyph-name="breve" unicode="&#x2d8;" 
d="M664 1370q0 -287 -254 -287t-254 287h96q19 -160 158 -160q63 0 104.5 41t50.5 119h99z" />
    <glyph glyph-name="dotaccent" unicode="&#x2d9;" horiz-adv-x="626" 
d="M434 1200q0 -52 -33.5 -85.5t-86.5 -33.5t-86 33t-33 85t33.5 88t85.5 36t86 -35.5t34 -87.5z" />
    <glyph glyph-name="ring" unicode="&#x2da;" 
d="M520 1250q0 52 -29.5 85t-79 33t-79 -32t-29.5 -85t30.5 -88t78.5 -35t78 35t30 87zM190 1251q0 92 66 148.5t155 56.5t153.5 -57.5t64.5 -148.5t-65 -150.5t-154 -59.5t-154.5 59.5t-65.5 151.5z" />
    <glyph glyph-name="ogonek" unicode="&#x2db;" 
d="M466 -356q41 0 95 20l27 -65q-115 -60 -136 -68t-46 -8q-86 0 -133.5 49t-47.5 119q0 159 236 370h110q-207 -181 -206 -307q0 -50 30 -80t71 -30z" />
    <glyph glyph-name="tilde" unicode="&#x2dc;" horiz-adv-x="817" 
d="M544 1227q39 0 91 88l80 -49q-77 -166 -191 -166q-37 0 -124 36t-117 35q-50 0 -101 -92l-76 54q85 164 187 163q48 0 130 -34t121 -35z" />
    <glyph glyph-name="hungarumlaut" unicode="&#x2dd;" horiz-adv-x="833" 
d="M654 1412q15 0 65 -30t50 -53q0 -12 -7.5 -24t-98.5 -94l-208 -185l-62 49l159 231q61 90 74 98t28 8zM325 1455q16 0 65 -30t49 -54q0 -12 -7.5 -23.5t-98.5 -93.5l-206 -185l-64 49l159 231q61 90 74 98t29 8z" />
    <glyph glyph-name="pi" unicode="&#x3c0;" horiz-adv-x="1125" 
d="M455 721q0 -308 -39 -481.5t-73 -226.5q-77 -34 -142 -38l-23 56q161 225 161 749q-120 0 -171 -30.5t-79 -55.5l-46 80q61 68 141 111.5t234 40.5q45 -1 104.5 -2.5t124 -3l129 -3t102.5 -1.5q58 0 76 11t38 54l89 -24q-17 -99 -60 -179q-25 -9 -78 -9h-70
q-12 -153 -12 -450q0 -186 73 -186q53 0 91 24l32 -70q-56 -71 -109.5 -91.5t-81.5 -20.5q-69 0 -115 53.5t-46 225.5t17 521l-267 4v-58z" />
    <glyph glyph-name="endash" unicode="&#x2013;" horiz-adv-x="1052" 
d="M102 537h848v-131h-848v131z" />
    <glyph glyph-name="emdash" unicode="&#x2014;" horiz-adv-x="2103" 
d="M102 532h1899v-131h-1899v131z" />
    <glyph glyph-name="quoteleft" unicode="&#x2018;" horiz-adv-x="489" 
d="M240 1184q0 -58 37.5 -99t99.5 -53q29 -4 29 -49t-30.5 -69.5t-68.5 -24.5q-85 0 -153 69.5t-68 179.5t81.5 196.5t213.5 123.5l31 -78q-172 -80 -172 -196z" />
    <glyph glyph-name="quoteright" unicode="&#x2019;" horiz-adv-x="491" 
d="M252 1147q0 62 -39 101.5t-98 49.5q-29 6 -29 50t30 70t68 26q85 0 154.5 -70.5t69.5 -179.5t-82 -196t-215 -124l-31 78q172 80 172 195z" />
    <glyph glyph-name="quotesinglbase" unicode="&#x201a;" horiz-adv-x="491" 
d="M258 -10q0 61 -40 103t-105 54q-29 4 -29 51t31 72t67 25q88 0 161 -72.5t73 -184.5t-85 -201.5t-222 -127.5l-31 84q180 86 180 197z" />
    <glyph glyph-name="quotedblleft" unicode="&#x201c;" horiz-adv-x="894" 
d="M643 1184q0 -58 38 -99t99 -53q29 -4 29 -48t-29 -69.5t-69 -25.5q-85 0 -153.5 69.5t-68.5 179.5t81.5 196.5t213.5 123.5l31 -78q-172 -80 -172 -196zM242 1184q0 -58 37.5 -99t99.5 -53q29 -4 29 -48t-29.5 -69.5t-69.5 -25.5q-85 0 -153 69.5t-68 179.5t81.5 196.5
t213.5 123.5l31 -78q-172 -80 -172 -196z" />
    <glyph glyph-name="quotedblright" unicode="&#x201d;" horiz-adv-x="897" 
d="M657 1147q0 60 -37.5 100.5t-99.5 50.5q-28 4 -28 50t30.5 71t67.5 25q85 0 154 -70.5t69 -179.5t-82 -196t-215 -124l-31 78q172 80 172 195zM252 1147q0 62 -39 101.5t-98 49.5q-29 6 -29 50t30 70t68 26q85 0 154.5 -70.5t69.5 -179.5t-82 -196t-215 -124l-31 78
q172 80 172 195z" />
    <glyph glyph-name="quotedblbase" unicode="&#x201e;" horiz-adv-x="894" 
d="M592 287q85 0 156 -71.5t71 -179.5t-83.5 -195.5t-217.5 -125.5l-29 84q175 83 175 198t-142 146q-26 5 -26 49t30 69.5t66 25.5zM258 -4q0 116 -141 147q-29 8 -29 51t31 68t67 25q85 0 156.5 -71.5t71.5 -179.5t-83.5 -195.5t-217.5 -125.5l-31 84q176 81 176 197z" />
    <glyph glyph-name="dagger" unicode="&#x2020;" horiz-adv-x="1060" 
d="M471 -35q0 387 -63 580q66 137 67 256q-175 -2 -262 -68q-87 38 -121 117q32 77 121 115q87 -66 262 -68q-4 189 -76 303q48 103 129 146q76 -35 129 -146q-72 -114 -75 -303q175 2 262 68q86 -36 121 -115q-33 -80 -121 -117q-87 66 -262 68q2 -113 67 -256
q-66 -200 -65 -580q0 -179 4 -241h-121q4 62 4 241z" />
    <glyph glyph-name="daggerdbl" unicode="&#x2021;" horiz-adv-x="1054" 
d="M580 274v-6q164 1 262 70q85 -39 121 -119q-34 -76 -121 -115q-95 67 -262 68q7 -196 77 -309q-49 -102 -127 -142q-83 37 -133 142q74 119 78 309q-168 -1 -260 -68q-87 37 -123 115q37 82 123 119q97 -70 260 -70q-3 230 -74 289q71 63 74 281q-168 -1 -260 -68
q-85 37 -123 115q35 78 123 114q89 -65 260 -65q-5 147 -76 270q46 102 129 142q80 -38 129 -142q-70 -112 -77 -270q173 1 256 65q90 -31 127 -114q-36 -77 -121 -115q-95 67 -262 68q4 -214 73 -281q-73 -69 -73 -283z" />
    <glyph glyph-name="bullet" unicode="&#x2022;" horiz-adv-x="659" 
d="M106 665.5q0 94.5 67 162t159 67.5t156.5 -67.5t64.5 -161.5t-64.5 -162t-156.5 -68t-159 67.5t-67 162z" />
    <glyph glyph-name="ellipsis" unicode="&#x2026;" horiz-adv-x="2078" 
d="M477 118q0 -62 -39.5 -102.5t-95.5 -40.5t-94.5 40.5t-38.5 102.5t38.5 103t94.5 41t95.5 -41t39.5 -103zM1862 118q0 -62 -38 -102.5t-96 -40.5t-96.5 40.5t-38.5 102.5t38.5 103t94.5 41t96 -41t40 -103zM1169 118q0 -62 -37.5 -102.5t-95.5 -40.5t-96.5 40.5
t-38.5 103t38.5 103t94.5 40.5t95.5 -41t39.5 -103z" />
    <glyph glyph-name="perthousand" unicode="&#x2030;" horiz-adv-x="2289" 
d="M2044 352q0 289 -137 289q-68 0 -103 -76.5t-35 -210.5t35 -211t102.5 -77t102.5 75.5t35 210.5zM1604 354q0 150 81 263.5t219 113.5t219 -113.5t81 -263.5t-81 -264.5t-219 -114.5t-219 114.5t-81 264.5zM1350 352q0 289 -138 289t-139 -289q0 -184 47 -235t92 -51
q68 0 103 77.5t35 208.5zM909 354q0 150 81.5 263.5t219.5 113.5t218.5 -113.5t80.5 -263.5t-80.5 -264.5t-218.5 -114.5t-219.5 114.5t-81.5 264.5zM526 924q0 287 -137 286q-69 0 -104 -77t-35 -209t35.5 -210.5t103.5 -78.5t102.5 76.5t34.5 212.5zM86 924q0 150 81 263
t219 113t219 -114.5t81 -262.5t-82 -263t-219 -115t-218 114.5t-81 264.5zM1227 1272l-781 -1354l-88 59l781 1350z" />
    <glyph glyph-name="guilsinglleft" unicode="&#x2039;" horiz-adv-x="581" 
d="M492 109l-76 -54q-187 265 -326 410q155 170 326 412l76 -52l-193 -360z" />
    <glyph glyph-name="guilsinglright" unicode="&#x203a;" horiz-adv-x="581" 
d="M166 55l-76 54l193 356l-193 360l76 52q171 -242 326 -412q-139 -145 -326 -410z" />
    <glyph glyph-name="fraction" unicode="&#x2044;" horiz-adv-x="927" 
d="M819 1341l88 -51l-801 -1343l-86 57z" />
    <glyph glyph-name="Euro" unicode="&#x20ac;" horiz-adv-x="966" 
d="M420.5 181.5q74.5 -108.5 183.5 -108.5t155 79t75 141l88 -28q-15 -71 -83 -238q-104 -52 -231 -52q-226 0 -340 144.5t-140 373.5h-125l32 97h86q-2 73 6 129h-86l32 97h68q37 227 174 355.5t324 128.5q95 0 155.5 -21t75.5 -26q21 -111 34 -252l-86 -17
q-41 179 -100.5 201.5t-105.5 22.5q-101 0 -179 -99t-107 -293h530l-32 -97h-508q-6 -68 -2 -129h487l-31 -97h-446q22 -203 96.5 -311.5z" />
    <glyph glyph-name="litre" unicode="&#x2113;" horiz-adv-x="867" 
d="M600 1148q0 71 -28 110.5t-72 39.5t-68 -22t-45 -88t-21 -277v-191q234 200 234 428zM366 404q0 -278 172 -278q90 0 142 52t75 78l61 -67q-65 -104 -154.5 -159t-173.5 -55q-154 0 -227 86t-73 288v140l-101 -67l-40 80l141 108v126q0 400 61 477t95 113q76 80 177 81
q101 0 161 -65t60 -193q0 -281 -376 -552v-193z" />
    <glyph glyph-name="trademark" unicode="&#x2122;" horiz-adv-x="1744" 
d="M1651 1319v-68q-58 -5 -70 -18.5t-12 -79.5l4 -322q0 -86 14 -103.5t76 -22.5v-60h-317v60q66 5 80 21t14 93v389h-4l-228 -551h-49l-211 523h-4q-11 -344 -11 -393t18.5 -63.5t84.5 -18.5v-60h-293v60q68 2 80.5 28.5t24.5 218.5t12 233t-18 52.5t-74 13.5v68h262
l187 -428l182 428h252zM449 1241v-414q0 -82 17.5 -100.5t92.5 -21.5v-60h-344v60q71 3 87.5 21.5t16.5 100.5v414h-51q-61 0 -87 -29t-48 -100h-57l16 231h39q8 -25 55 -24h408q36 0 53 24h37l12 -229l-59 -2q-30 93 -50 111t-89 18h-49z" />
    <glyph glyph-name="Omega" unicode="&#x2126;" horiz-adv-x="1474" 
d="M1121 756q0 98 -26.5 194t-101.5 199t-247 103q-173 0 -275 -138.5t-102 -387.5t124.5 -448t138.5 -225l-18 -53h-483l-30 285l86 6q27 -82 51 -104t43.5 -26.5t45.5 -4.5h133q-22 25 -52.5 59t-87 103.5t-110.5 181t-54 243.5t45.5 245.5t169 238t376.5 124.5
q252 0 419 -169t167 -442q0 -216 -111.5 -353.5t-140.5 -171.5t-49 -59h115q69 0 94.5 21.5t57.5 113.5l91 -6l-36 -285h-483l-11 52q14 25 39 63.5t54 88.5t58.5 110t54.5 127.5t40 142t15 172.5z" />
    <glyph glyph-name="estimated" unicode="&#x212e;" horiz-adv-x="1619" 
d="M1281 1032q0 25 -19 44q-189 189 -449 189t-451 -195q-19 -19 -19 -45v-357q0 -10 11 -11h918q9 0 9 11v364zM354 621q-11 0 -11 -9v-361q0 -25 17 -42q187 -196 454 -196q144 0 266 59t210 160h108q-159 -185 -327.5 -222t-264.5 -37t-190.5 23.5t-177 67.5t-150 104
t-115 134.5t-74 159.5t-26.5 177t26.5 177t74 159t115 134.5t150 104t177 67.5t196.5 24t196.5 -24t220.5 -90.5t224 -219.5t98 -332v-18h-1197z" />
    <glyph glyph-name="partialdiff" unicode="&#x2202;" horiz-adv-x="1041" 
d="M271 332q0 -112 47 -187t133 -75q128 0 216 192q72 173 89 335q-50 77 -104 99.5t-92 22.5h-1q-125 -2 -203 -114q-45 -65 -65 -140t-20 -133zM749 1126q-80 189 -264 189q-136 0 -244 -68q-26 -2 -57.5 55.5t-21.5 89.5q100 58 253 58q282 0 436 -269q102 -174 102 -427
q0 -374 -153 -576.5t-349 -202.5q-167 0 -267 114t-100 274t77 288t187 157t162 29h2q155 0 260 -123q12 62 12 146q0 182 -35 266z" />
    <glyph glyph-name="Delta" unicode="&#x2206;" horiz-adv-x="1289" 
d="M611 1064l-348 -936h707zM101 0v67l503 1261l84 23l501 -1283v-68h-1088z" />
    <glyph glyph-name="product" unicode="&#x220f;" horiz-adv-x="1400" 
d="M1145 1032v-904q0 -131 22.5 -157.5t57.5 -34.5t93 -12v-86h-521v86q118 8 140 34.5t27 64t5 103.5v1029q0 44 -12 53.5t-56 9.5h-401q-43 0 -55 -11.5t-12 -55.5v-1025q0 -129 22.5 -155.5t56 -34.5t90.5 -12v-86h-520v86q120 8 142.5 34.5t27.5 64t5 103.5v906
q0 67 -5 105t-29 64t-148 34v87h1248v-87q-120 -8 -144 -34t-29 -64t-5 -105z" />
    <glyph glyph-name="summation" unicode="&#x2211;" horiz-adv-x="1092" 
d="M600 1223h-277l369 -580l-432 -645h429q95 0 139.5 40t96.5 174l89 -23l-79 -352h-874v75l454 668l-426 670v72h863l23 -302l-88 -15q-39 141 -85 176t-98 38.5t-104 3.5z" />
    <glyph glyph-name="minus" unicode="&#x2212;" horiz-adv-x="1302" 
d="M117 633h1069v-133h-1069v133z" />
    <glyph glyph-name="uni2215" unicode="&#x2215;" horiz-adv-x="927" 
d="M819 1341l88 -51l-801 -1343l-86 57z" />
    <glyph glyph-name="uni2219" unicode="&#x2219;" horiz-adv-x="481" 
d="M375 503q0 -61 -38.5 -102t-96.5 -41t-96 40t-38 102t38 103.5t95.5 41.5t96.5 -41.5t39 -102.5z" />
    <glyph glyph-name="radical" unicode="&#x221a;" horiz-adv-x="1186" 
d="M778 -78l-475 1023l-183 -97l-41 98l319 171l341 -770h4l264 1532l116 -12z" />
    <glyph glyph-name="infinity" unicode="&#x221e;" horiz-adv-x="1662" 
d="M1212 748q-78 0 -146.5 -55t-101 -90t-56.5 -58q105 -110 167 -155.5t137 -54.5q85 0 137.5 58.5t54.5 126.5q4 116 -49 172t-141 56h-2zM458 335q113 0 192.5 84.5t108.5 112.5q-86 102 -156 159t-157 57q-88 0 -138.5 -63.5t-48.5 -148.5t58 -143t139 -58h2zM1547 536
q0 -143 -95.5 -230t-237.5 -87t-235 83.5t-148 142.5q-100 -105 -188 -165.5t-216 -60.5t-219 92t-91 230q0 139 93 230t244 91t246 -92.5t135 -137.5q112 115 196.5 172.5t211.5 57.5t215.5 -90.5t88.5 -233.5v-2z" />
    <glyph glyph-name="integral" unicode="&#x222b;" horiz-adv-x="835" 
d="M641 1609q46 0 82 -30.5t36 -74.5q0 -45 -30.5 -70t-62.5 -25q-44 0 -73 30.5t-51 30.5t-34 -11t-20.5 -50t-2.5 -208l26 -613q31 -730 -106.5 -840t-207.5 -110t-105 31t-36 65q-2 50 28 81.5t61 31.5q43 0 81 -30t54 -30q37 0 51 51t9 210l-27 819q-13 391 78.5 566.5
t249.5 175.5z" />
    <glyph glyph-name="approxequal" unicode="&#x2248;" horiz-adv-x="1263" 
d="M896 364q112 0 197 125l66 -87q-64 -113 -147.5 -137.5t-121.5 -24.5q-69 0 -124 15t-134 52q-223 102 -303 68t-110 -68.5t-44 -52.5l-70 83q49 72 150 131.5t219.5 26.5t176.5 -61t116 -49t129 -21zM893 599q-130 0 -269 69t-236 69q-121 0 -213 -131l-70 83
q76 118 218.5 157.5t346.5 -60.5q127 -62 234 -62q108 0 190 126l65 -87q-37 -69 -113 -116.5t-153 -47.5z" />
    <glyph glyph-name="notequal" unicode="&#x2260;" horiz-adv-x="1302" 
d="M1186 287h-631l-164 -293l-121 67l127 226h-280v133h356l160 287h-516v133h594l170 305l116 -68l-131 -237h320v-133h-398l-157 -287h555v-133z" />
    <glyph glyph-name="lessequal" unicode="&#x2264;" horiz-adv-x="1302" 
d="M139 0v133h1024v-133h-1024zM1163 1323v-139l-858 -389l858 -387v-142l-1024 461v137z" />
    <glyph glyph-name="greaterequal" unicode="&#x2265;" horiz-adv-x="1302" 
d="M139 0v133h1024v-133h-1024zM139 1323l1024 -459v-137l-1024 -461v142l856 387l-856 389v139z" />
    <glyph glyph-name="lozenge" unicode="&#x25ca;" horiz-adv-x="964" 
d="M184 739l299 -587l299 587l-299 572zM422 0l-385 739l385 723h123l385 -723l-385 -739h-123z" />
    <glyph glyph-name="apple" unicode="&#xf000;" horiz-adv-x="1656" 
 />
    <glyph glyph-name="four.superior" unicode="&#xf003;" horiz-adv-x="692" 
d="M319 809v313h-4q-94 -119 -211 -313h215zM463 1303v-494h125v-86h-125v-41q0 -71 20 -87.5t95 -23.5v-67h-404v67q96 6 120.5 23t24.5 88v41h-350v59q162 234 383 521h111z" />
    <glyph glyph-name="pi.1" unicode="&#xf006;" horiz-adv-x="1125" 
d="M455 779v-58q0 -309 -41 -490q-41 -180 -71 -218q-77 -34 -142 -38l-23 56q161 225 161 749q-157 0 -250 -86l-46 80q61 68 111 95q111 60 264 57q45 0 148 -4q103 -2 188 -4q85 0 133 -2q48 -1 66 10t39 55l89 -24q-19 -108 -60 -179q-25 -9 -111 -9h-37
q-12 -153 -12 -450q0 -186 73 -186q51 0 91 24l32 -70q-56 -72 -124 -96q-228 -83 -228 265q0 174 17 519q-172 4 -267 4z" />
    <glyph glyph-name="acute.cap" unicode="&#xf100;" 
d="M540 1699q28 0 64 -48.5t36 -63.5t-12 -23.5t-133 -51.5l-278 -97l-39 68l232 143q106 67 113.5 70t16.5 3z" />
    <glyph glyph-name="dieresis.cap" unicode="&#xf101;" 
d="M324 1575q0 -51 -34 -85t-86 -34t-87 33.5t-35 85.5t35 89.5t86 37.5t86 -38t35 -89zM737 1574q0 -52 -33.5 -85t-85.5 -33t-86 33.5t-34 85.5t34.5 89.5t84.5 37.5t85 -38t35 -90z" />
    <glyph glyph-name="circumflex.cap" unicode="&#xf102;" 
d="M379 1714h65q93 -96 256 -209l-43 -69q-150 65 -247 135q-114 -78 -246 -135l-45 69q142 93 260 209z" />
    <glyph glyph-name="tilde.cap" unicode="&#xf103;" 
d="M291 1663q41 0 125 -35t129 -35t94 86l78 -45q-74 -162 -195 -161q-38 0 -126 35t-117 34q-50 0 -101 -88l-76 55q89 154 189 154z" />
    <glyph glyph-name="macron.cap" unicode="&#xf104;" 
d="M668 1511h-516v129h516v-129z" />
    <glyph glyph-name="breve.cap" unicode="&#xf105;" 
d="M410 1466q-122 0 -195.5 64t-75.5 184h88q34 -129 182 -129t181 129h90q-2 -120 -75 -184t-195 -64z" />
    <glyph glyph-name="dotaccent.cap" unicode="&#xf106;" 
d="M526 1569q0 -50 -32.5 -82.5t-83.5 -32.5t-84 32t-33 83t33.5 87t83.5 36t83 -36.5t33 -86.5z" />
    <glyph glyph-name="ring.cap" unicode="&#xf107;" 
d="M520 1619q0 53 -29.5 85.5t-79 32.5t-79 -32.5t-29.5 -84.5t30.5 -87.5t78.5 -35.5t78 34.5t30 87.5zM190 1619q0 91 64.5 148.5t155 57.5t155 -57.5t64.5 -148.5t-65 -150.5t-154 -59.5t-154.5 59.5t-65.5 150.5z" />
    <glyph glyph-name="cedilla.cap" unicode="&#xf108;" 
d="M445 -106q0 -12 26 -41q78 -84 78 -152q0 -140 -238 -223l-41 78q129 62 129 129q0 23 -44 71t-44 76q0 29 25 64l72 102h102q-57 -81 -61 -86.5t-4 -17.5z" />
    <glyph glyph-name="hungarumlaut.cap" unicode="&#xf109;" 
d="M678 1732q18 0 52 -50t34 -64t-10.5 -22.5t-103.5 -51.5l-214 -98l-41 70l133 108q132 108 150 108zM333 1774q24 0 58 -49.5t34 -63.5t-10.5 -22t-104.5 -51l-214 -99l-43 67l177 145q82 66 88.5 69.5t14.5 3.5z" />
    <glyph glyph-name="ogonek.cap" unicode="&#xf110;" 
d="M468 -362q41 0 95 20l29 -66q-118 -62 -137 -68.5t-45 -6.5q-87 0 -135 49.5t-48 118.5q0 160 238 370h110q-209 -183 -208 -307q0 -50 30 -80t71 -30z" />
    <glyph glyph-name="caron.cap" unicode="&#xf111;" 
d="M442 1423h-67q-94 97 -256 209l43 70q137 -56 248 -135q129 86 245 135l45 -70q-141 -91 -258 -209z" />
    <glyph glyph-name="grave.cap" unicode="&#xf112;" 
d="M181 1648q0 14 37.5 63.5t65.5 49.5q9 0 16.5 -2.5t112.5 -68.5l232 -146l-41 -67l-286 100q-116 41 -126.5 49t-10.5 22z" />
    <glyph glyph-name="commaaccent" unicode="&#xf6c3;" horiz-adv-x="481" 
d="M106 -180q0 37 27 61.5t62 24.5q63 0 117.5 -59t54.5 -148q0 -188 -240 -268l-27 69q135 59 136 154q0 44 -29 76.5t-76 46.5q-25 6 -25 43z" />
    <glyph glyph-name="NULL" horiz-adv-x="0" 
 />
    <glyph glyph-name="uni021A" horiz-adv-x="1220" 
d="M518 283v940h-94q-139 1 -183 -39t-77 -185h-86l22 371h54q30 -51 102 -51h717q35 0 52 9t42 42h53q2 -112 21 -364l-88 -7q-27 147 -71 186q-45 38 -177 38h-107v-940q0 -97 12 -135t51 -50q39 -13 142 -18v-80h-581v80q99 5 136 18q36 12 48 50t12 135zM606 -346
q0 44 -28 77q-29 33 -76 46q-25 6 -25 43q0 38 27 62t61 24q63 0 117 -59t55 -148q0 -188 -239 -268l-27 69q135 59 135 154z" />
    </font>
</defs>
</svg>
